<svg width="483" height="529" viewBox="0 0 483 529" fill="none" xmlns="http://www.w3.org/2000/svg">
<path d="M5.11495 395.426C32.0567 440.551 158.61 419.529 290.299 346.013C421.987 272.497 504.866 178.322 477.925 133.137C450.983 88.0124 324.429 109.034 192.741 182.55C61.0523 256.066 -21.8268 350.302 5.11495 395.426ZM20.6397 392.225C-4.55024 350.06 74.8252 260.113 197.996 191.37C321.107 122.626 441.378 101.121 466.568 143.285C491.758 185.45 412.383 275.396 289.212 344.14C166.041 412.884 45.8296 434.449 20.6397 392.225Z" fill="#00404F"/>
<path d="M192.682 345.954C324.37 419.47 450.924 440.492 477.865 395.368C504.807 350.243 421.928 256.068 290.24 182.492C158.551 108.976 31.9975 87.9538 5.05579 133.078C-21.8256 178.263 61.0536 272.438 192.682 345.954ZM289.152 184.425C412.263 253.168 491.699 343.115 466.509 385.28C441.319 427.444 321.108 405.939 197.937 337.195C74.8265 268.451 -4.54901 178.505 20.6409 136.34C45.8309 94.1153 166.042 115.62 289.152 184.425Z" fill="#00404F"/>
<path d="M468.259 226.468C468.259 240.784 456.238 252.382 441.438 252.382C426.638 252.382 414.617 240.784 414.617 226.468C414.617 212.151 426.638 200.553 441.438 200.553C456.238 200.553 468.259 212.151 468.259 226.468Z" fill="url(#paint0_radial_56_1478)"/>
<g opacity="0.5">
<path d="M425.972 214.207C424.703 215.113 423.556 216.26 422.468 217.529C421.804 217.106 421.2 216.623 420.535 216.2C421.683 214.448 423.012 212.878 424.462 211.488C424.945 212.394 425.489 213.301 425.972 214.207Z" fill="white"/>
<path d="M432.195 211.064C430.805 211.487 429.416 212.03 428.087 212.816C427.664 211.668 427.241 210.52 426.879 209.372C428.45 208.225 430.081 207.258 431.832 206.533C431.953 208.043 432.074 209.554 432.195 211.064Z" fill="white"/>
<path d="M438.959 210.401C437.509 210.28 436.059 210.34 434.609 210.582C434.67 208.89 434.73 207.199 434.73 205.508C436.542 205.024 438.355 204.722 440.227 204.602C439.804 206.535 439.382 208.468 438.959 210.401Z" fill="white"/>
<path d="M445.545 212.211C444.156 211.547 442.766 211.063 441.316 210.761C441.981 208.768 442.645 206.714 443.31 204.721C445.183 204.902 447.116 205.264 448.988 205.868C447.84 207.983 446.693 210.097 445.545 212.211Z" fill="white"/>
<path d="M451.585 216.502C450.377 215.294 449.108 214.267 447.779 213.421C449.169 211.307 450.618 209.192 452.008 207.078C453.82 207.984 455.632 209.072 457.324 210.401C455.451 212.454 453.518 214.448 451.585 216.502Z" fill="white"/>
<path d="M427.965 217.65C426.938 218.012 425.911 218.556 424.945 219.16C424.28 218.737 423.676 218.254 423.012 217.831C424.099 216.683 425.247 215.717 426.455 214.932C426.938 215.838 427.421 216.744 427.965 217.65Z" fill="white"/>
<path d="M432.736 216.864C431.709 216.864 430.682 216.925 429.655 217.166C429.233 216.019 428.81 214.871 428.447 213.723C429.716 213.059 431.045 212.636 432.374 212.273C432.495 213.844 432.615 215.354 432.736 216.864Z" fill="white"/>
<path d="M437.269 217.77C436.363 217.407 435.396 217.166 434.369 216.985C434.43 215.293 434.49 213.602 434.49 211.91C435.819 211.79 437.208 211.79 438.537 211.971C438.175 213.904 437.692 215.837 437.269 217.77Z" fill="white"/>
<path d="M441.254 220.248C440.469 219.523 439.683 218.979 438.777 218.496C439.442 216.502 440.106 214.449 440.771 212.455C442.1 212.818 443.368 213.301 444.637 213.965C443.489 216.019 442.341 218.133 441.254 220.248Z" fill="white"/>
<path d="M444.215 224.174C443.731 223.208 443.067 222.302 442.402 221.456C443.792 219.342 445.241 217.228 446.631 215.113C447.839 215.959 448.926 216.926 450.014 218.073C448.081 220.127 446.148 222.121 444.215 224.174Z" fill="white"/>
</g>
<path d="M143.934 264.283C143.934 411.315 187.608 528.566 241.492 528.566C295.375 528.566 339.05 411.315 339.05 264.283C339.05 117.251 295.375 0 241.492 0C187.608 0 143.934 117.251 143.934 264.283ZM336.875 264.283C336.875 401.77 296.04 513.222 245.66 513.222C195.28 513.222 154.445 401.77 154.445 264.283C154.445 126.795 195.28 15.3435 245.66 15.3435C296.04 15.3435 336.875 126.795 336.875 264.283Z" fill="#00404F"/>
<path d="M203.009 447.741C203.009 462.058 190.988 473.656 176.188 473.656C161.388 473.656 149.367 462.058 149.367 447.741C149.367 433.424 161.388 421.826 176.188 421.826C190.988 421.826 203.009 433.424 203.009 447.741Z" fill="url(#paint1_radial_56_1478)"/>
<g opacity="0.5">
<path d="M160.724 435.414C159.455 436.32 158.307 437.468 157.22 438.736C156.556 438.313 155.952 437.83 155.287 437.407C156.435 435.655 157.764 434.085 159.214 432.695C159.697 433.601 160.241 434.508 160.724 435.414Z" fill="white"/>
<path d="M167.005 432.331C165.616 432.754 164.227 433.298 162.898 434.083C162.475 432.935 162.052 431.788 161.689 430.64C163.26 429.492 164.891 428.526 166.643 427.801C166.703 429.311 166.824 430.821 167.005 432.331Z" fill="white"/>
<path d="M173.711 431.668C172.261 431.547 170.811 431.608 169.361 431.849C169.422 430.158 169.482 428.467 169.482 426.775C171.294 426.292 173.107 425.99 174.979 425.869C174.556 427.802 174.133 429.735 173.711 431.668Z" fill="white"/>
<path d="M180.297 433.42C178.908 432.756 177.518 432.272 176.068 431.97C176.733 429.977 177.397 427.923 178.062 425.93C179.934 426.111 181.867 426.473 183.74 427.077C182.592 429.192 181.445 431.306 180.297 433.42Z" fill="white"/>
<path d="M186.337 437.709C185.129 436.501 183.86 435.474 182.531 434.628C183.921 432.514 185.37 430.399 186.76 428.285C188.572 429.191 190.384 430.279 192.076 431.608C190.203 433.661 188.27 435.715 186.337 437.709Z" fill="white"/>
<path d="M162.717 438.918C161.69 439.28 160.663 439.824 159.697 440.428C159.032 440.005 158.428 439.522 157.764 439.099C158.851 437.951 159.999 436.985 161.207 436.199C161.69 437.105 162.173 438.011 162.717 438.918Z" fill="white"/>
<path d="M167.488 438.071C166.461 438.071 165.434 438.132 164.407 438.373C163.985 437.226 163.562 436.078 163.199 434.93C164.468 434.266 165.797 433.843 167.126 433.48C167.247 435.051 167.367 436.561 167.488 438.071Z" fill="white"/>
<path d="M172.021 438.979C171.115 438.616 170.148 438.375 169.121 438.194C169.182 436.502 169.242 434.811 169.242 433.119C170.571 432.999 171.96 432.999 173.289 433.18C172.927 435.113 172.504 437.046 172.021 438.979Z" fill="white"/>
<path d="M176.006 441.455C175.221 440.73 174.435 440.186 173.529 439.703C174.194 437.709 174.858 435.656 175.523 433.662C176.852 434.025 178.12 434.508 179.389 435.172C178.241 437.226 177.154 439.34 176.006 441.455Z" fill="white"/>
<path d="M178.967 445.381C178.483 444.415 177.819 443.509 177.154 442.663C178.544 440.549 179.993 438.435 181.383 436.32C182.591 437.166 183.678 438.133 184.766 439.28C182.833 441.395 180.9 443.388 178.967 445.381Z" fill="white"/>
</g>
<path d="M175.163 422.489C173.955 418.502 172.385 412.643 171.297 408.414H159.639C160.907 413.73 162.719 420.616 164.109 425.63C164.592 427.201 167.673 427.382 170.754 426.476C173.774 425.63 175.526 424.06 175.163 422.489Z" fill="#00404F"/>
<path d="M136.138 116.889C136.138 131.206 124.117 142.804 109.317 142.804C94.5172 142.804 82.4961 131.206 82.4961 116.889C82.4961 102.573 94.5172 90.9746 109.317 90.9746C124.177 90.9746 136.138 102.573 136.138 116.889Z" fill="url(#paint2_radial_56_1478)"/>
<g opacity="0.5">
<path d="M93.9152 104.627C92.6466 105.533 91.4989 106.68 90.4116 107.949C89.7471 107.526 89.143 107.043 88.4785 106.62C89.6263 104.868 90.9552 103.298 92.405 101.908C92.8279 102.814 93.3715 103.72 93.9152 104.627Z" fill="white"/>
<path d="M100.138 101.484C98.7487 101.907 97.3594 102.45 96.0304 103.236C95.6076 102.088 95.1847 100.94 94.8223 99.7923C96.3929 98.6445 98.0239 97.678 99.7757 96.9531C99.8361 98.4633 100.017 99.9735 100.138 101.484Z" fill="white"/>
<path d="M106.842 100.821C105.392 100.7 103.942 100.76 102.492 101.002C102.553 99.3104 102.613 97.619 102.613 95.9276C104.425 95.4443 106.237 95.1423 108.11 95.0215C107.687 96.9545 107.264 98.8876 106.842 100.821Z" fill="white"/>
<path d="M113.488 102.631C112.099 101.967 110.71 101.483 109.26 101.181C109.924 99.1879 110.589 97.1341 111.253 95.1406C113.126 95.3218 115.059 95.6843 116.931 96.2884C115.723 98.4026 114.636 100.517 113.488 102.631Z" fill="white"/>
<path d="M119.468 106.861C118.26 105.653 116.991 104.626 115.662 103.78C117.051 101.666 118.501 99.5518 119.891 97.4375C121.703 98.3436 123.515 99.4309 125.206 100.76C123.334 102.874 121.401 104.868 119.468 106.861Z" fill="white"/>
<path d="M95.848 108.07C94.821 108.432 93.7941 108.976 92.8276 109.58C92.1631 109.157 91.559 108.674 90.8945 108.251C91.9819 107.103 93.1296 106.137 94.3378 105.352C94.821 106.258 95.3647 107.164 95.848 108.07Z" fill="white"/>
<path d="M100.68 107.284C99.6527 107.284 98.6257 107.345 97.5988 107.586C97.1759 106.439 96.7531 105.291 96.3906 104.143C97.6592 103.479 98.9881 103.056 100.317 102.693C100.378 104.204 100.498 105.714 100.68 107.284Z" fill="white"/>
<path d="M105.212 108.19C104.306 107.827 103.339 107.586 102.312 107.405C102.373 105.713 102.433 104.022 102.433 102.33C103.762 102.209 105.152 102.209 106.481 102.391C106.058 104.324 105.635 106.257 105.212 108.19Z" fill="white"/>
<path d="M109.137 110.668C108.352 109.943 107.566 109.399 106.66 108.916C107.325 106.922 107.989 104.868 108.654 102.875C109.983 103.237 111.251 103.721 112.52 104.385C111.432 106.439 110.285 108.553 109.137 110.668Z" fill="white"/>
<path d="M112.097 114.594C111.614 113.628 110.95 112.722 110.285 111.876C111.675 109.762 113.124 107.647 114.514 105.533C115.722 106.379 116.809 107.345 117.897 108.493C115.963 110.547 114.03 112.54 112.097 114.594Z" fill="white"/>
</g>
<path d="M427.304 240.543C423.74 244.409 419.934 248.275 416.008 252.141L418.364 254.799C422.471 250.933 426.398 247.067 430.204 243.261C430.989 242.476 430.989 241.208 430.143 240.422C429.297 239.637 428.029 239.697 427.304 240.543Z" fill="#00404F"/>
<path d="M132.756 121.72C137.529 122.807 142.422 123.955 147.375 125.284L148.221 122.445C143.207 121.055 138.254 119.726 133.421 118.579C132.696 118.398 131.911 119.122 131.79 120.029C131.609 120.874 132.032 121.539 132.756 121.72Z" fill="#00404F"/>
<path d="M203.503 59.6626C203.256 59.695 203.088 59.7615 202.841 59.794C199.225 60.5058 195.508 61.4526 191.901 62.6804C183.541 65.5231 175.939 69.6258 170.353 74.2318C164.767 78.8378 161.512 83.7579 161.133 88.0636C160.893 88.9374 160.91 89.9695 161.209 90.8908L166.609 106.229C167.494 108.802 170.438 110.173 173.067 109.266L188.584 103.99L197.603 129.654C177.659 138.689 160.022 151.101 145.558 165.962L134.441 156.71L141.186 149.114C142.393 147.729 142.246 145.709 140.883 144.559L128.604 134.337C127.721 133.581 126.544 133.396 125.545 133.66C124.904 133.848 124.308 134.148 123.879 134.706L95.5816 166.518C94.3747 167.903 94.5221 169.923 95.8851 171.074L108.164 181.296C109.527 182.447 111.681 182.311 112.888 180.926L119.633 173.33L131.152 182.943C107.655 214.744 96.6292 254.289 103.525 294.492C117.755 377.323 202.757 431.98 293.245 416.419C354.79 405.845 403.096 365.492 423.195 314.706C254.324 403.847 134.406 213.089 229.544 119.263L230.241 119.053L230.108 118.716C230.164 118.694 230.142 118.638 230.198 118.616C230.142 118.638 230.142 118.638 230.085 118.66L221.089 93.052L235.931 88.0418C238.617 87.1124 240.055 84.3374 239.147 81.7081L233.969 66.9322C233.946 66.876 233.946 66.876 233.924 66.8198L233.747 66.3702C233.481 65.6959 233.103 65.0659 232.634 64.5364C230.538 61.8566 226.744 59.9762 221.588 59.0877C216.455 58.2553 210.228 58.4385 203.503 59.6626ZM195.526 64.6273C195.661 64.6391 195.717 64.6169 195.795 64.651C186.273 68.9913 169.978 82.1721 167.829 88.0846C166.101 92.9222 167.226 99.2319 167.226 99.2319C167.226 99.2319 165.233 93.8491 164.652 88.7536C163.616 80.2008 191.609 65.0683 195.526 64.6273ZM161.507 161.944C167.827 161.01 173.976 167.545 175.267 176.582C176.559 185.618 172.459 193.664 166.139 194.598C159.82 195.532 153.626 188.884 152.356 179.904C151.065 170.868 155.187 162.878 161.507 161.944ZM155.808 210.881C163.307 209.807 170.673 217.616 172.203 228.246C173.756 238.933 168.876 248.455 161.321 249.552C153.823 250.626 146.479 242.874 144.982 232.165C143.429 221.478 148.31 211.956 155.808 210.881ZM115.351 256.645C124.57 287.425 142.921 315.512 167.711 336.709C163.935 340.471 161.422 345.294 161.272 350.678C161.102 358.148 165.502 364.529 171.697 368.71C177.913 372.946 186.001 375.341 194.918 375.395C203.858 375.505 212.058 373.245 218.438 369.17C219.158 368.691 219.878 368.212 220.576 367.677C229.052 370.892 237.913 373.436 246.799 375.386C246.278 374.228 246.025 373.094 246.054 371.849C246.287 363.056 260.387 356 277.616 356.218C294.823 356.379 308.63 363.725 308.397 372.519C308.366 374.414 307.605 376.273 306.375 377.927C328.7 375.095 350.518 368.178 370.266 357.661C342.483 389.789 299.506 409.079 256.522 408.76C218.564 408.342 181.239 392.739 154.949 366.419C128.714 340.078 113.859 303.404 114.742 266.626C114.814 263.35 114.998 260.031 115.351 256.645ZM193.742 333.065C195.976 332.639 198.299 332.437 200.711 332.459C213.689 332.6 223.998 339.638 223.789 348.163C223.579 356.687 212.946 363.479 199.968 363.338C186.99 363.197 176.681 356.159 176.891 347.634C177.07 340.68 184.142 334.904 193.742 333.065Z" fill="url(#paint3_linear_56_1478)"/>
<path d="M249.419 254.644H261.072C264.394 254.644 266.055 255.821 266.055 258.175C266.055 259.771 265.466 261.027 264.289 261.942C263.112 262.831 261.477 263.276 259.385 263.276H239.924C238.328 263.276 237.046 262.871 236.079 262.06C235.137 261.249 234.666 260.163 234.666 258.803C234.666 257.364 235.32 255.978 236.628 254.644L258.6 232.044C259.855 230.763 260.483 229.429 260.483 228.042C260.483 226.761 259.999 225.662 259.031 224.746C258.064 223.831 256.9 223.373 255.539 223.373C254.127 223.373 252.924 223.844 251.93 224.786C250.936 225.727 250.439 226.865 250.439 228.199C250.439 229.219 250.779 230.357 251.459 231.613C252.061 232.711 252.361 233.692 252.361 234.555C252.361 235.863 251.943 236.936 251.106 237.773C250.269 238.61 249.183 239.028 247.849 239.028C245.861 239.028 244.174 238.074 242.788 236.164C241.402 234.228 240.708 231.861 240.708 229.062C240.708 224.956 242.186 221.516 245.142 218.743C248.098 215.945 251.76 214.545 256.128 214.545C260.313 214.545 263.74 215.788 266.408 218.273C269.076 220.731 270.41 223.909 270.41 227.807C270.41 231.469 269.01 234.725 266.212 237.577L249.419 254.644Z" fill="url(#paint4_linear_56_1478)"/>
<path d="M297.836 214.506C301.681 214.506 304.741 215.84 307.017 218.508C309.293 221.176 310.43 224.759 310.43 229.259C310.43 234.856 309.253 240.532 306.899 246.287C304.571 252.041 301.629 256.462 298.071 259.549C294.592 262.583 290.459 264.1 285.673 264.1C281.54 264.1 278.283 262.871 275.903 260.412C273.549 257.927 272.372 254.54 272.372 250.25C272.372 244.887 273.601 239.303 276.06 233.496C278.519 227.689 281.605 223.099 285.32 219.724C289.138 216.245 293.311 214.506 297.836 214.506ZM296.855 222.902C293.742 222.902 290.603 225.714 287.438 231.338C285.843 234.215 284.522 237.328 283.475 240.676C282.429 244.024 281.906 246.849 281.906 249.151C281.906 251.034 282.338 252.552 283.201 253.702C284.09 254.827 285.254 255.39 286.693 255.39C289.779 255.39 292.696 252.996 295.442 248.209C297.09 245.358 298.45 242.115 299.523 238.479C300.621 234.843 301.171 231.691 301.171 229.023C301.171 224.943 299.732 222.902 296.855 222.902Z" fill="url(#paint5_linear_56_1478)"/>
<path d="M332.128 223.766H329.421C326.072 223.766 324.398 222.575 324.398 220.195C324.398 218.573 324.987 217.318 326.164 216.428C327.341 215.513 328.989 215.055 331.108 215.055H338.955C342.094 215.055 343.663 216.324 343.663 218.861C343.663 219.541 343.454 220.391 343.035 221.411L328.047 258.372C326.556 262.007 324.503 263.825 321.887 263.825C320.763 263.825 319.808 263.459 319.023 262.727C318.265 261.994 317.885 261.118 317.885 260.098C317.885 259.313 318.081 258.411 318.474 257.391L318.905 256.331L332.128 223.766Z" fill="url(#paint6_linear_56_1478)"/>
<path d="M374.777 233.849C378.805 236.543 380.82 240.245 380.82 244.953C380.82 248.589 379.799 252.094 377.759 255.468C374.306 261.197 369.219 264.061 362.496 264.061C358.154 264.061 354.649 262.897 351.981 260.569C349.339 258.241 348.018 255.167 348.018 251.348C348.018 248.68 348.685 246.405 350.019 244.521C351.353 242.638 352.962 241.696 354.845 241.696C355.944 241.696 356.899 242.089 357.71 242.873C358.521 243.632 358.926 244.534 358.926 245.581C358.926 246.13 358.717 247.124 358.298 248.563C357.958 249.713 357.788 250.537 357.788 251.034C357.788 252.316 358.22 253.349 359.083 254.134C359.972 254.919 361.11 255.311 362.496 255.311C364.694 255.311 366.669 254.252 368.421 252.133C370.174 250.014 371.05 247.647 371.05 245.031C371.05 241.866 369.454 239.735 366.263 238.636C364.066 237.904 362.967 236.648 362.967 234.869C362.967 233.745 363.386 232.711 364.223 231.77L365.008 230.906L371.56 223.648H362.653C359.331 223.648 357.67 222.484 357.67 220.156C357.67 218.743 358.22 217.54 359.318 216.546C360.417 215.552 361.764 215.055 363.36 215.055H379.446C383.605 215.055 385.685 216.625 385.685 219.763C385.685 221.254 385.175 222.549 384.155 223.648L374.777 233.849Z" fill="url(#paint7_linear_56_1478)"/>
<defs>
<radialGradient id="paint0_radial_56_1478" cx="0" cy="0" r="1" gradientUnits="userSpaceOnUse" gradientTransform="translate(441.414 226.491) scale(26.8145 25.9317)">
<stop stop-color="#00C4FF"/>
<stop offset="0.1472" stop-color="#01C1FB"/>
<stop offset="0.293" stop-color="#03B8EF"/>
<stop offset="0.4383" stop-color="#06AADB"/>
<stop offset="0.5834" stop-color="#0A95BF"/>
<stop offset="0.7282" stop-color="#107B9B"/>
<stop offset="0.8709" stop-color="#175B70"/>
<stop offset="1" stop-color="#1E3942"/>
</radialGradient>
<radialGradient id="paint1_radial_56_1478" cx="0" cy="0" r="1" gradientUnits="userSpaceOnUse" gradientTransform="translate(176.178 447.74) scale(26.8148 25.9319)">
<stop stop-color="#00C4FF"/>
<stop offset="0.1472" stop-color="#01C1FB"/>
<stop offset="0.293" stop-color="#03B8EF"/>
<stop offset="0.4383" stop-color="#06AADB"/>
<stop offset="0.5834" stop-color="#0A95BF"/>
<stop offset="0.7282" stop-color="#107B9B"/>
<stop offset="0.8709" stop-color="#175B70"/>
<stop offset="1" stop-color="#1E3942"/>
</radialGradient>
<radialGradient id="paint2_radial_56_1478" cx="0" cy="0" r="1" gradientUnits="userSpaceOnUse" gradientTransform="translate(109.33 116.908) scale(26.8147 25.9318)">
<stop stop-color="#00C4FF"/>
<stop offset="0.1472" stop-color="#01C1FB"/>
<stop offset="0.293" stop-color="#03B8EF"/>
<stop offset="0.4383" stop-color="#06AADB"/>
<stop offset="0.5834" stop-color="#0A95BF"/>
<stop offset="0.7282" stop-color="#107B9B"/>
<stop offset="0.8709" stop-color="#175B70"/>
<stop offset="1" stop-color="#1E3942"/>
</radialGradient>
<linearGradient id="paint3_linear_56_1478" x1="99.1961" y1="247.953" x2="418.537" y2="230.155" gradientUnits="userSpaceOnUse">
<stop/>
<stop offset="0.048356" stop-color="#010709"/>
<stop offset="0.1288" stop-color="#051923"/>
<stop offset="0.2315" stop-color="#0B374C"/>
<stop offset="0.3523" stop-color="#136186"/>
<stop offset="0.487" stop-color="#1D96CF"/>
<stop offset="0.5015" stop-color="#1E9CD7"/>
<stop offset="0.588" stop-color="#0075BE"/>
<stop offset="0.9217" stop-color="#005B97"/>
</linearGradient>
<linearGradient id="paint4_linear_56_1478" x1="319.291" y1="211.636" x2="312.634" y2="265.092" gradientUnits="userSpaceOnUse">
<stop offset="0.012566" stop-color="white"/>
<stop offset="1" stop-color="#005C98"/>
</linearGradient>
<linearGradient id="paint5_linear_56_1478" x1="319.291" y1="211.636" x2="312.634" y2="265.092" gradientUnits="userSpaceOnUse">
<stop offset="0.012566" stop-color="white"/>
<stop offset="1" stop-color="#005C98"/>
</linearGradient>
<linearGradient id="paint6_linear_56_1478" x1="319.291" y1="211.636" x2="312.634" y2="265.092" gradientUnits="userSpaceOnUse">
<stop offset="0.012566" stop-color="white"/>
<stop offset="1" stop-color="#005C98"/>
</linearGradient>
<linearGradient id="paint7_linear_56_1478" x1="319.291" y1="211.636" x2="312.634" y2="265.092" gradientUnits="userSpaceOnUse">
<stop offset="0.012566" stop-color="white"/>
<stop offset="1" stop-color="#005C98"/>
</linearGradient>
</defs>
</svg>
