<svg width="384" height="421" viewBox="0 0 384 421" fill="none" xmlns="http://www.w3.org/2000/svg">
<path d="M153.91 6.00397C153.703 6.00397 153.427 6.00397 153.22 6.00397C149.284 6.07302 145.21 6.48735 141.136 7.17787C131.813 8.76608 123.044 11.8044 116.346 15.8094C109.579 19.8145 105.297 24.5791 104.124 29.2746C103.709 30.2414 103.571 31.2772 103.709 32.382L106.609 50.2666C107.093 53.3049 109.924 55.3074 112.893 54.824L130.225 51.9929L135.059 81.9616C112.41 88.1073 91.556 98.4652 73.6023 112.068L63.5207 99.7772L72.0141 92.7338C73.5333 91.4909 73.8095 89.2121 72.4975 87.6239L61.38 74.0206C60.6205 73.0539 59.3775 72.6396 58.2727 72.7086C57.5822 72.7777 56.8916 73.0539 56.3392 73.5372L20.7772 103.161C19.2581 104.404 18.9819 106.682 20.2939 108.271L31.4113 121.874C32.6543 123.393 34.933 123.6 36.4521 122.357L44.9456 115.245L55.3725 127.951C24.7823 158.472 6 199.834 6 245.409C6 339.182 85.6865 415.347 183.948 415.347C250.791 415.347 309.002 380.13 339.454 328.064C145.141 394.217 53.2319 161.648 170.621 76.5065L171.381 76.3684L171.311 75.9541C171.381 75.9541 171.381 75.885 171.45 75.885C171.381 75.885 171.381 75.885 171.311 75.885L166.478 46.0544L183.05 43.2923C186.02 42.8089 188.022 39.9778 187.539 36.9395L184.777 19.6764C184.777 19.6073 184.777 19.6073 184.777 19.5382L184.708 18.9858C184.57 18.1572 184.293 17.3976 183.81 16.7762C182.084 13.3926 178.424 10.6305 173.107 8.69703C167.79 6.76357 161.23 5.93492 153.91 6.00397ZM189.127 69.4632C187.401 69.4632 185.674 70.1537 184.431 71.3966C183.189 72.6396 182.498 74.3659 182.498 76.0922C182.498 77.8875 183.189 79.5448 184.431 80.7877C185.674 82.0307 187.332 82.7212 189.127 82.7212C190.025 82.7212 190.853 82.5831 191.682 82.2378C192.511 81.8926 193.201 81.4092 193.823 80.7877C194.444 80.1663 194.927 79.4067 195.273 78.6471C195.618 77.8185 195.756 76.9898 195.756 76.0922C195.756 75.1945 195.618 74.3659 195.273 73.5372C194.927 72.7086 194.444 72.0181 193.823 71.3966C193.201 70.7751 192.511 70.2918 191.682 69.9465C190.853 69.6703 189.956 69.4632 189.127 69.4632ZM221.789 73.4682C220.062 73.4682 218.336 74.1587 217.093 75.4016C215.85 76.6446 215.16 78.3709 215.16 80.0972C215.16 81.8926 215.85 83.5498 217.093 84.7928C218.336 86.0357 219.993 86.7263 221.789 86.7263C223.584 86.7263 225.241 86.0357 226.484 84.7928C227.727 83.5498 228.418 81.8235 228.418 80.0972C228.418 78.3019 227.727 76.6446 226.484 75.4016C225.172 74.1587 223.515 73.4682 221.789 73.4682ZM253.277 81.5473C251.55 81.5473 249.824 82.2378 248.581 83.4808C247.338 84.7237 246.648 86.45 246.648 88.1763C246.648 89.9717 247.338 91.629 248.581 92.8719C249.824 94.1149 251.481 94.8054 253.277 94.8054C255.003 94.8054 256.729 94.1149 257.972 92.8719C259.215 91.629 259.906 89.9027 259.906 88.1763C259.906 86.381 259.215 84.7237 257.972 83.4808C256.729 82.2378 255.072 81.5473 253.277 81.5473ZM288.355 84.1023C287.043 84.1713 285.731 84.7928 284.834 85.9667L264.049 113.864C262.461 115.935 262.875 118.905 264.947 120.424L269.435 123.807C271.507 125.396 274.407 124.981 275.995 122.841L296.78 94.9435C298.368 92.8719 297.954 89.9027 295.882 88.3145L291.394 84.9309C290.496 84.3785 289.46 84.0332 288.355 84.1023ZM91.0726 110.549C97.9088 110.756 103.226 119.112 102.95 129.263C102.673 139.413 96.942 147.561 90.0368 147.354C83.2006 147.147 77.8836 138.723 78.1598 128.572C78.505 118.421 84.2364 110.411 91.0726 110.549ZM306.309 117.8C302.649 117.8 299.68 120.769 299.68 124.429C299.68 128.089 302.649 131.058 306.309 131.058C309.969 131.058 312.938 128.089 312.938 124.429C312.869 120.769 309.9 117.8 306.309 117.8ZM327.991 141.278C326.265 141.278 324.539 141.968 323.296 143.211C322.053 144.454 321.362 146.18 321.362 147.907C321.362 149.633 322.053 151.359 323.296 152.602C324.539 153.845 326.196 154.536 327.991 154.536C329.718 154.536 331.444 153.845 332.687 152.602C333.93 151.359 334.62 149.633 334.62 147.907C334.62 146.111 333.93 144.454 332.687 143.211C331.444 141.968 329.718 141.278 327.991 141.278ZM76.2263 163.305C84.3745 163.513 90.6583 173.525 90.3821 185.54C90.0368 197.624 83.2006 207.154 75.0524 206.946C66.9042 206.739 60.6205 196.796 60.9657 184.712C61.242 172.696 68.0781 163.098 76.2263 163.305ZM345.185 172.213C343.459 172.213 341.733 172.904 340.49 174.147C339.247 175.39 338.556 177.116 338.556 178.842C338.556 180.638 339.247 182.295 340.49 183.538C341.733 184.781 343.39 185.471 345.185 185.471C346.981 185.471 348.638 184.781 349.881 183.538C351.124 182.295 351.815 180.568 351.815 178.842C351.815 177.047 351.124 175.39 349.881 174.147C348.638 172.904 346.912 172.213 345.185 172.213ZM372.392 201.146C372.047 201.146 371.771 201.146 371.425 201.215L337.383 207.706C334.828 208.189 333.17 210.675 333.654 213.23L334.689 218.823C335.173 221.378 337.59 223.036 340.145 222.552L374.188 216.061C376.742 215.578 378.4 213.092 377.916 210.537L376.88 204.944C376.535 202.734 374.602 201.146 372.392 201.146ZM25.2656 206.049C29.4088 241.68 43.7026 275.999 65.9375 303.965C61.242 307.418 57.7203 312.251 56.6155 318.121C55.0963 326.269 58.6179 334.141 64.3493 339.941C70.1497 345.742 78.2288 349.954 87.62 351.749C97.0111 353.545 106.057 352.647 113.584 349.402C114.412 349.056 115.31 348.642 116.07 348.228C124.425 353.338 133.264 357.895 142.379 361.624C142.102 360.243 141.964 358.931 142.171 357.619C143.967 348.021 160.194 342.911 178.286 346.363C196.377 349.816 209.636 360.519 207.84 370.117C207.426 372.189 206.321 374.122 204.733 375.711C228.763 376.815 253.001 373.363 275.788 365.491C240.709 395.598 191.889 408.718 146.591 400.155C106.609 392.49 70.0807 368.322 47.1553 334.417C24.2299 300.513 15.253 257.355 22.8488 217.097C23.4703 213.299 24.2989 209.64 25.2656 206.049ZM359.272 237.399C357.546 237.399 355.82 238.089 354.577 239.332C353.334 240.575 352.643 242.301 352.643 244.028C352.643 245.823 353.334 247.48 354.577 248.723C355.82 249.966 357.477 250.657 359.272 250.657C360.17 250.657 360.998 250.519 361.827 250.173C362.656 249.828 363.346 249.345 363.968 248.723C364.589 248.102 365.073 247.342 365.418 246.583C365.763 245.754 365.901 244.925 365.901 244.028C365.901 243.13 365.763 242.301 365.418 241.473C365.073 240.644 364.589 239.954 363.968 239.332C363.346 238.711 362.656 238.227 361.827 237.882C360.998 237.537 360.101 237.399 359.272 237.399ZM356.717 269.646C354.991 269.646 353.265 270.337 352.022 271.58C350.779 272.822 350.088 274.549 350.088 276.275C350.088 278.07 350.779 279.728 352.022 280.971C353.265 282.214 354.922 282.904 356.717 282.904C357.615 282.904 358.443 282.766 359.272 282.421C360.101 282.075 360.791 281.592 361.413 280.971C362.034 280.349 362.518 279.59 362.863 278.83C363.208 278.001 363.346 277.173 363.346 276.275C363.346 275.377 363.208 274.549 362.863 273.72C362.518 272.892 362.034 272.201 361.413 271.58C360.791 270.958 360.101 270.475 359.272 270.129C358.443 269.784 357.546 269.646 356.717 269.646ZM346.29 302.032C344.564 302.032 342.838 302.722 341.595 303.965C340.352 305.208 339.661 306.934 339.661 308.661C339.661 310.387 340.352 312.113 341.595 313.356C342.838 314.599 344.495 315.29 346.29 315.29C348.086 315.29 349.743 314.599 350.986 313.356C352.229 312.113 352.919 310.387 352.919 308.661C352.919 306.934 352.229 305.208 350.986 303.965C349.674 302.722 348.017 302.032 346.29 302.032ZM94.1109 304.863C96.5277 304.794 99.0136 305.001 101.569 305.484C115.172 308.108 124.839 317.776 123.113 327.098C121.387 336.42 108.888 341.875 95.2848 339.32C81.6815 336.696 72.0141 327.029 73.7404 317.707C75.1215 310.111 83.6149 305.07 94.1109 304.863Z" fill="url(#paint0_linear_65_2995)" stroke="#006837" stroke-width="10.2141" stroke-miterlimit="10"/>
<path d="M174.171 160.132C174.171 159.375 174.247 158.77 174.399 158.316C174.572 157.841 174.843 157.398 175.212 156.987L190.17 136.924C190.647 136.34 191.059 135.811 191.405 135.335C191.752 134.86 192.023 134.363 192.218 133.844C192.435 133.326 192.587 132.764 192.674 132.159C192.76 131.554 192.793 130.83 192.771 129.987L192.413 118.254C192.392 117.324 192.283 116.579 192.088 116.017C191.893 115.434 191.611 115.001 191.243 114.721C190.896 114.418 190.452 114.224 189.91 114.137C189.389 114.029 188.782 113.975 188.089 113.975C187.395 113.975 186.777 114.029 186.235 114.137C185.715 114.224 185.27 114.418 184.902 114.721C184.555 115.001 184.284 115.434 184.089 116.017C183.916 116.579 183.818 117.324 183.796 118.254L183.406 131.997C183.384 132.645 183.287 133.174 183.114 133.585C182.94 133.974 182.658 134.277 182.268 134.493C181.878 134.687 181.358 134.817 180.707 134.882C180.057 134.946 179.255 134.979 178.301 134.979C177.347 134.979 176.556 134.946 175.927 134.882C175.299 134.817 174.8 134.687 174.431 134.493C174.063 134.277 173.792 133.974 173.619 133.585C173.467 133.174 173.38 132.645 173.358 131.997L172.383 118.513C172.339 116.892 172.654 115.444 173.326 114.169C174.02 112.873 175.038 111.782 176.382 110.896C177.727 110.01 179.374 109.329 181.325 108.854C183.298 108.378 185.552 108.141 188.089 108.141C190.56 108.141 192.76 108.378 194.69 108.854C196.619 109.329 198.245 110.01 199.567 110.896C200.89 111.782 201.887 112.873 202.559 114.169C203.253 115.444 203.578 116.892 203.534 118.513L202.819 132.321C202.797 133.056 202.711 133.747 202.559 134.395C202.429 135.022 202.212 135.638 201.908 136.243C201.627 136.848 201.258 137.453 200.803 138.058C200.348 138.663 199.806 139.29 199.177 139.938L184.317 156.987V157.247H199.957C200.521 157.247 200.955 157.312 201.258 157.441C201.583 157.571 201.822 157.765 201.973 158.025C202.125 158.262 202.212 158.554 202.234 158.9C202.277 159.224 202.299 159.591 202.299 160.002C202.299 160.607 202.277 161.115 202.234 161.525C202.212 161.936 202.125 162.271 201.973 162.53C201.822 162.789 201.583 162.984 201.258 163.114C200.955 163.222 200.521 163.276 199.957 163.276H176.513C176.036 163.276 175.645 163.254 175.342 163.211C175.038 163.146 174.8 163.038 174.627 162.887C174.453 162.714 174.334 162.487 174.269 162.206C174.204 161.925 174.171 161.558 174.171 161.104V160.132Z" fill="white"/>
<path d="M224.884 147.263C224.84 145.642 225.155 144.205 225.827 142.952C226.52 141.698 227.518 140.64 228.818 139.775C230.119 138.911 231.712 138.263 233.598 137.83C235.484 137.377 237.609 137.15 239.972 137.15C242.335 137.15 244.459 137.377 246.345 137.83C248.231 138.263 249.824 138.911 251.125 139.775C252.447 140.64 253.445 141.698 254.117 142.952C254.81 144.205 255.136 145.642 255.092 147.263L254.149 183.436C254.106 184.841 253.748 186.115 253.076 187.261C252.426 188.384 251.483 189.357 250.247 190.178C249.033 190.977 247.559 191.593 245.825 192.025C244.091 192.458 242.14 192.674 239.972 192.674C237.782 192.674 235.82 192.458 234.086 192.025C232.374 191.593 230.91 190.977 229.696 190.178C228.482 189.357 227.539 188.384 226.867 187.261C226.217 186.115 225.87 184.841 225.827 183.436L224.884 147.263ZM234.704 182.172C234.661 183.987 235.051 185.273 235.875 186.029C236.698 186.764 238.064 187.131 239.972 187.131C241.879 187.131 243.245 186.764 244.069 186.029C244.914 185.273 245.315 183.987 245.272 182.172L244.296 147.263C244.275 146.334 244.166 145.588 243.971 145.026C243.776 144.443 243.494 144.011 243.126 143.73C242.779 143.427 242.335 143.233 241.793 143.146C241.272 143.038 240.665 142.984 239.972 142.984C239.278 142.984 238.66 143.038 238.118 143.146C237.598 143.233 237.154 143.427 236.785 143.73C236.438 144.011 236.167 144.443 235.972 145.026C235.799 145.588 235.701 146.334 235.679 147.263L234.704 182.172Z" fill="white"/>
<path d="M206.128 222.29C206.085 220.669 206.399 219.232 207.071 217.979C207.765 216.725 208.762 215.667 210.063 214.802C211.364 213.938 212.957 213.29 214.843 212.857C216.729 212.404 218.853 212.177 221.216 212.177C223.579 212.177 225.704 212.404 227.59 212.857C229.476 213.29 231.069 213.938 232.37 214.802C233.692 215.667 234.689 216.725 235.361 217.979C236.055 219.232 236.38 220.669 236.337 222.29L235.394 258.463C235.35 259.867 234.993 261.142 234.321 262.288C233.67 263.411 232.727 264.384 231.492 265.205C230.278 266.004 228.804 266.62 227.069 267.052C225.335 267.485 223.384 267.701 221.216 267.701C219.027 267.701 217.065 267.485 215.331 267.052C213.618 266.62 212.155 266.004 210.941 265.205C209.727 264.384 208.784 263.411 208.112 262.288C207.462 261.142 207.115 259.867 207.071 258.463L206.128 222.29ZM215.949 257.199C215.905 259.014 216.295 260.3 217.119 261.056C217.943 261.791 219.309 262.158 221.216 262.158C223.124 262.158 224.49 261.791 225.314 261.056C226.159 260.3 226.56 259.014 226.517 257.199L225.541 222.29C225.519 221.36 225.411 220.615 225.216 220.053C225.021 219.47 224.739 219.038 224.371 218.757C224.024 218.454 223.579 218.26 223.037 218.173C222.517 218.065 221.91 218.011 221.216 218.011C220.523 218.011 219.905 218.065 219.363 218.173C218.843 218.26 218.398 218.454 218.03 218.757C217.683 219.038 217.412 219.47 217.217 220.053C217.043 220.615 216.946 221.36 216.924 222.29L215.949 257.199Z" fill="white"/>
<path d="M266.888 284.339C266.844 283.194 266.953 282.211 267.213 281.39C267.495 280.568 267.907 279.845 268.449 279.218C268.991 278.57 269.673 277.975 270.497 277.435C271.321 276.895 272.275 276.311 273.359 275.685V275.426C271.928 274.82 270.768 274.183 269.879 273.513C268.991 272.822 268.297 272.098 267.798 271.341C267.3 270.585 266.953 269.796 266.758 268.975C266.584 268.133 266.487 267.268 266.465 266.382L265.782 254.357C265.761 253.168 265.966 252.11 266.4 251.18C266.834 250.23 267.43 249.408 268.188 248.717C268.969 248.004 269.869 247.399 270.887 246.902C271.906 246.405 272.99 246.005 274.139 245.703C275.31 245.4 276.502 245.184 277.716 245.054C278.93 244.903 280.111 244.827 281.26 244.827C282.409 244.827 283.591 244.903 284.805 245.054C286.04 245.184 287.233 245.4 288.382 245.703C289.552 246.005 290.647 246.405 291.666 246.902C292.706 247.399 293.606 248.004 294.365 248.717C295.145 249.408 295.752 250.23 296.186 251.18C296.619 252.11 296.825 253.168 296.804 254.357L296.121 266.382C296.099 267.268 295.991 268.133 295.796 268.975C295.622 269.796 295.286 270.585 294.788 271.341C294.289 272.098 293.595 272.822 292.706 273.513C291.818 274.183 290.658 274.82 289.227 275.426V275.685C290.311 276.311 291.265 276.895 292.089 277.435C292.912 277.975 293.595 278.57 294.137 279.218C294.679 279.845 295.08 280.568 295.34 281.39C295.6 282.211 295.72 283.194 295.698 284.339L295.47 290.951C295.427 292.226 295.167 293.436 294.69 294.582C294.235 295.705 293.454 296.699 292.349 297.564C291.265 298.407 289.812 299.087 287.991 299.606C286.192 300.103 283.948 300.351 281.26 300.351C278.594 300.351 276.361 300.103 274.562 299.606C272.784 299.087 271.343 298.407 270.237 297.564C269.153 296.699 268.362 295.705 267.863 294.582C267.386 293.436 267.137 292.226 267.115 290.951L266.888 284.339ZM281.325 272.832C282.995 272.832 284.209 272.498 284.967 271.828C285.726 271.136 286.073 269.883 286.008 268.068L285.553 254.94C285.509 254.098 285.401 253.406 285.227 252.866C285.076 252.304 284.826 251.861 284.48 251.537C284.154 251.191 283.721 250.954 283.179 250.824C282.659 250.694 282.019 250.629 281.26 250.629C280.523 250.629 279.895 250.694 279.374 250.824C278.854 250.954 278.421 251.191 278.074 251.537C277.749 251.861 277.499 252.304 277.326 252.866C277.152 253.406 277.055 254.098 277.033 254.94L276.578 268.068C276.535 268.975 276.6 269.732 276.773 270.337C276.946 270.942 277.228 271.439 277.618 271.828C278.009 272.195 278.507 272.454 279.114 272.606C279.743 272.757 280.48 272.832 281.325 272.832ZM275.928 290.011C275.884 291.74 276.296 292.961 277.163 293.674C278.03 294.387 279.396 294.744 281.26 294.744H281.325C283.168 294.744 284.523 294.387 285.39 293.674C286.279 292.961 286.702 291.74 286.658 290.011L286.463 282.589C286.441 281.746 286.322 281.065 286.105 280.547C285.889 280.007 285.563 279.596 285.13 279.315C284.718 279.013 284.187 278.807 283.537 278.699C282.886 278.591 282.127 278.537 281.26 278.537C280.393 278.537 279.635 278.591 278.984 278.699C278.355 278.807 277.824 279.013 277.391 279.315C276.979 279.596 276.665 280.007 276.448 280.547C276.253 281.065 276.144 281.746 276.123 282.589L275.928 290.011Z" fill="white"/>
<defs>
<linearGradient id="paint0_linear_65_2995" x1="5.95664" y1="210.666" x2="378.054" y2="210.666" gradientUnits="userSpaceOnUse">
<stop offset="0.00872207" stop-color="#006837"/>
<stop offset="1" stop-color="#00FF00"/>
</linearGradient>
</defs>
</svg>
