<svg width="731" height="636" viewBox="0 0 731 636" fill="none" xmlns="http://www.w3.org/2000/svg">
<mask id="mask0_41_368" style="mask-type:alpha" maskUnits="userSpaceOnUse" x="138" y="63" width="485" height="485">
<circle cx="380.326" cy="305.224" r="241.927" fill="#FFD203"/>
</mask>
<g mask="url(#mask0_41_368)">
<circle cx="380.326" cy="305.224" r="241.927" fill="#FFD203"/>
<circle cx="514.432" cy="-0.539337" r="231.199" fill="#FFE87A"/>
</g>
<path fill-rule="evenodd" clip-rule="evenodd" d="M245.08 457.093L237.769 447.772L287.182 415.38L379.676 355.006C379.885 354.87 380.075 354.709 380.245 354.522C380.354 354.403 380.448 354.281 380.527 354.156C380.745 353.821 380.898 353.435 380.964 353.036C381.023 352.643 381.006 352.234 380.903 351.844C380.808 351.449 380.623 351.084 380.374 350.767L337.697 296.601C337.415 296.243 337.059 295.95 336.66 295.731C336.442 295.615 336.217 295.521 335.978 295.458C335.781 295.401 335.576 295.365 335.364 295.353C334.908 295.32 334.45 295.382 334.024 295.532C333.598 295.682 333.205 295.924 332.871 296.239L237.539 385.205L209.42 411.631L202.424 402.713L228.551 378.456L327.18 286.258C327.372 286.084 327.534 285.87 327.645 285.641C327.758 285.415 327.83 285.167 327.855 284.91C327.875 284.692 327.864 284.469 327.814 284.26C327.752 283.972 327.627 283.699 327.45 283.457C324.19 279.06 320.647 274.816 317.124 270.599C302.706 253.315 288.649 236.459 295.79 211.385C303.355 184.529 331.537 171.167 357.017 179.618C381.217 187.582 394.29 214.25 386.155 238.314C381.087 253.289 367.205 265.495 354.709 276.483C351.602 279.216 348.577 281.875 345.799 284.479C345.587 284.676 345.407 284.898 345.264 285.135C345.009 285.552 344.858 286.021 344.817 286.517C344.757 287.296 344.988 288.073 345.471 288.689L388.865 344.172C389.638 345.158 390.764 345.804 392.014 345.962C393.256 346.125 394.507 345.8 395.51 345.048C407.244 336.103 419.265 328.509 431.59 322.254C464.465 305.535 502.124 332.804 498.178 368.741C496.123 387.541 486.387 400.532 468.963 407.722C431.755 423.045 410.043 391.558 391.792 364.742C390.614 363.031 389.162 362.745 387.428 363.889L312.734 412.438L245.08 457.093ZM486.12 372.369C480.305 399.472 445.128 410.029 426.239 390.255C421.628 385.441 416.968 380.096 412.251 374.228C408.442 369.486 404.602 364.396 400.731 358.961C399.53 357.268 399.77 355.849 401.46 354.697C412.036 347.309 422.935 340.204 434.168 333.38C461.521 316.718 492.666 341.972 486.12 372.369ZM344.591 269.907C342.378 271.747 340.234 273.53 338.243 275.25C336.669 276.614 335.296 276.459 334.124 274.788C331.658 271.273 328.631 267.544 325.471 263.66C316.055 252.075 305.507 239.079 305.334 226.117C304.703 188.07 355.168 172.712 373.396 207.838C387.207 234.462 363.235 254.4 344.591 269.907Z" fill="#020101"/>
<mask id="mask1_41_368" style="mask-type:alpha" maskUnits="userSpaceOnUse" x="0" y="0" width="519" height="636">
<path d="M229.918 0.00474272C229.555 0.0105479 229.19 0.0180364 228.825 0.0272081C222.67 0.145365 216.342 0.743631 210.055 1.80197C195.608 4.23086 181.999 8.98134 171.526 15.2519C161.053 21.5225 154.357 28.9293 152.566 36.2227C151.913 37.6988 151.665 39.3688 151.945 41.0902L156.438 68.8986C157.197 73.5829 161.55 76.7517 166.195 75.9865L193.079 71.542L200.62 118.072C165.41 127.649 133.059 143.716 105.089 164.848L89.4647 145.73L102.671 134.745C105.056 132.764 105.407 129.238 103.442 126.833L86.2184 105.742C84.9902 104.239 83.1578 103.548 81.3771 103.72C80.3087 103.822 79.25 104.223 78.3555 104.967L23.0158 150.946C20.631 152.927 20.2769 156.456 22.2407 158.861L39.4904 179.953C41.4551 182.357 44.9421 182.682 47.3271 180.701L60.5592 169.742L76.7081 189.512C29.1971 236.922 0 301.187 0 371.957C0 517.699 123.857 636 276.474 636C380.293 636 470.762 581.265 518.029 500.384C216.247 603.131 73.4686 241.881 255.806 109.587L257.004 109.385L256.903 108.763C256.967 108.712 257.035 108.661 257.101 108.614C257.025 108.614 256.951 108.627 256.877 108.64L249.362 62.2863L275.122 58.0403C279.768 57.2748 282.898 52.8921 282.139 48.208L277.796 21.4217H277.818C277.802 21.3643 277.786 21.3069 277.77 21.2495L277.62 20.3996C277.413 19.1292 276.941 17.9792 276.272 16.9811C273.61 11.7709 267.872 7.42748 259.692 4.43134C251.511 1.43519 241.208 -0.0968411 229.922 0.00474272H229.918ZM215.394 6.22017C215.604 6.23244 215.755 6.27014 215.87 6.32126C199.039 10.9082 168.635 28.637 163.473 38.1472C159.281 45.8705 159.306 56.992 159.306 56.992C159.306 56.992 157.595 47.1589 158.033 38.3232C158.769 23.4469 208.911 5.74511 215.394 6.22017ZM132.272 162.504C142.911 162.801 151.151 175.784 150.72 191.56C150.291 207.335 141.339 219.96 130.7 219.664C120.062 219.371 111.822 206.261 112.252 190.485C112.681 174.709 121.634 162.212 132.272 162.504ZM109.182 244.402C121.807 244.751 131.633 260.23 131.123 278.95C130.613 297.671 119.96 312.548 107.336 312.199C94.712 311.85 84.9103 296.397 85.4209 277.677C85.9308 258.957 96.5579 244.053 109.182 244.402ZM29.9538 310.776C36.3825 366.104 58.5546 419.497 93.134 462.942C85.8455 468.29 80.3754 475.775 78.6551 484.931C76.2753 497.6 81.7248 509.809 90.6853 518.828C99.6463 527.846 112.252 534.34 126.832 537.126C141.413 539.91 155.509 538.518 167.12 533.431C168.436 532.855 169.758 532.246 171.014 531.558C184.046 539.55 197.753 546.532 211.849 552.403C211.373 550.285 211.183 548.253 211.575 546.161C214.387 531.196 239.544 523.314 267.69 528.69C295.835 534.066 316.38 550.666 313.568 565.631C312.956 568.891 311.229 571.802 308.701 574.318C346.062 576.085 383.731 570.679 419.107 558.419C364.582 605.175 288.72 625.541 218.364 612.284C156.267 600.422 99.4939 562.782 63.9028 510.119C28.3123 457.456 14.351 390.413 26.1123 327.797C27.1909 322.08 28.4727 316.4 29.9538 310.776ZM136.942 464.387C140.689 464.31 144.577 464.629 148.549 465.387C169.728 469.432 184.697 484.439 181.97 498.961C179.241 513.484 159.866 521.953 138.686 517.907C117.507 513.861 102.537 498.829 105.265 484.306C107.482 472.507 120.703 464.726 136.942 464.387Z" fill="#161616"/>
</mask>
<g mask="url(#mask1_41_368)">
<path d="M229.918 0.00474272C229.555 0.0105479 229.19 0.0180364 228.825 0.0272081C222.67 0.145365 216.342 0.743631 210.055 1.80197C195.608 4.23086 181.999 8.98134 171.526 15.2519C161.053 21.5225 154.357 28.9293 152.566 36.2227C151.913 37.6988 151.665 39.3688 151.945 41.0902L156.438 68.8986C157.197 73.5829 161.55 76.7517 166.195 75.9865L193.079 71.542L200.62 118.072C165.41 127.649 133.059 143.716 105.089 164.848L89.4647 145.73L102.671 134.745C105.056 132.764 105.407 129.238 103.442 126.833L86.2184 105.742C84.9902 104.239 83.1578 103.548 81.3771 103.72C80.3087 103.822 79.25 104.223 78.3555 104.967L23.0158 150.946C20.631 152.927 20.2769 156.456 22.2407 158.861L39.4904 179.953C41.4551 182.357 44.9421 182.682 47.3271 180.701L60.5592 169.742L76.7081 189.512C29.1971 236.922 0 301.187 0 371.957C0 517.699 123.857 636 276.474 636C380.293 636 470.762 581.265 518.029 500.384C216.247 603.131 73.4686 241.881 255.806 109.587L257.004 109.385L256.903 108.763C256.967 108.712 257.035 108.661 257.101 108.614C257.025 108.614 256.951 108.627 256.877 108.64L249.362 62.2863L275.122 58.0403C279.768 57.2748 282.898 52.8921 282.139 48.208L277.796 21.4217H277.818C277.802 21.3643 277.786 21.3069 277.77 21.2495L277.62 20.3996C277.413 19.1292 276.941 17.9792 276.272 16.9811C273.61 11.7709 267.872 7.42748 259.692 4.43134C251.511 1.43519 241.208 -0.0968411 229.922 0.00474272H229.918ZM215.394 6.22017C215.604 6.23244 215.755 6.27014 215.87 6.32126C199.039 10.9082 168.635 28.637 163.473 38.1472C159.281 45.8705 159.306 56.992 159.306 56.992C159.306 56.992 157.595 47.1589 158.033 38.3232C158.769 23.4469 208.911 5.74511 215.394 6.22017ZM132.272 162.504C142.911 162.801 151.151 175.784 150.72 191.56C150.291 207.335 141.339 219.96 130.7 219.664C120.062 219.371 111.822 206.261 112.252 190.485C112.681 174.709 121.634 162.212 132.272 162.504ZM109.182 244.402C121.807 244.751 131.633 260.23 131.123 278.95C130.613 297.671 119.96 312.548 107.336 312.199C94.712 311.85 84.9103 296.397 85.4209 277.677C85.9308 258.957 96.5579 244.053 109.182 244.402ZM29.9538 310.776C36.3825 366.104 58.5546 419.497 93.134 462.942C85.8455 468.29 80.3754 475.775 78.6551 484.931C76.2753 497.6 81.7248 509.809 90.6853 518.828C99.6463 527.846 112.252 534.34 126.832 537.126C141.413 539.91 155.509 538.518 167.12 533.431C168.436 532.855 169.758 532.246 171.014 531.558C184.046 539.55 197.753 546.532 211.849 552.403C211.373 550.285 211.183 548.253 211.575 546.161C214.387 531.196 239.544 523.314 267.69 528.69C295.835 534.066 316.38 550.666 313.568 565.631C312.956 568.891 311.229 571.802 308.701 574.318C346.062 576.085 383.731 570.679 419.107 558.419C364.582 605.175 288.72 625.541 218.364 612.284C156.267 600.422 99.4939 562.782 63.9028 510.119C28.3123 457.456 14.351 390.413 26.1123 327.797C27.1909 322.08 28.4727 316.4 29.9538 310.776ZM136.942 464.387C140.689 464.31 144.577 464.629 148.549 465.387C169.728 469.432 184.697 484.439 181.97 498.961C179.241 513.484 159.866 521.953 138.686 517.907C117.507 513.861 102.537 498.829 105.265 484.306C107.482 472.507 120.703 464.726 136.942 464.387Z" fill="#161616"/>
<circle cx="218.786" cy="346.664" r="364.933" fill="#19AED6"/>
</g>
<path d="M437.86 0.708513C435.145 0.520733 432.467 1.42792 430.413 3.23052C428.36 5.03312 427.1 7.5835 426.911 10.3206C426.721 13.0577 427.618 15.7574 429.403 17.8257C431.188 19.8941 433.716 21.1617 436.431 21.3497C437.775 21.4432 439.125 21.2688 440.403 20.8363C441.681 20.4038 442.862 19.7218 443.879 18.8292C444.897 17.9366 445.729 16.851 446.331 15.6342C446.932 14.4175 447.29 13.0935 447.384 11.7379C447.478 10.3823 447.306 9.02164 446.878 7.73365C446.45 6.44566 445.774 5.25558 444.89 4.23136C444.006 3.20715 442.929 2.36886 441.723 1.76441C440.517 1.15995 439.204 0.801153 437.86 0.708513ZM488.056 10.3987C485.341 10.2109 482.663 11.1181 480.61 12.9207C478.556 14.7233 477.296 17.2737 477.107 20.0108C476.917 22.7479 477.814 25.4476 479.599 27.5159C481.385 29.5843 483.913 30.8519 486.627 31.0399C489.341 31.2277 492.02 30.3205 494.073 28.5179C496.127 26.7153 497.387 24.1649 497.576 21.4278C497.766 18.6907 496.869 15.9911 495.084 13.9227C493.298 11.8544 490.77 10.5868 488.056 10.3987ZM536.061 26.3064C533.347 26.1187 530.669 27.0259 528.615 28.8285C526.562 30.6311 525.302 33.1814 525.112 35.9185C524.923 38.6556 525.819 41.3553 527.605 43.4236C529.39 45.492 531.918 46.7596 534.633 46.9476C537.347 47.1354 540.025 46.2282 542.079 44.4256C544.132 42.623 545.392 40.0727 545.582 37.3355C545.771 34.5984 544.875 31.8988 543.089 29.8304C541.304 27.7621 538.776 26.4945 536.061 26.3064ZM590.184 34.0316C588.097 33.9768 586.003 34.8395 584.522 36.5633L549.278 77.5742C546.644 80.6385 546.969 85.2413 550.005 87.8932L556.591 93.6487C559.627 96.3005 564.191 95.969 566.825 92.9047L602.073 51.894C604.706 48.8297 604.382 44.2232 601.346 41.5712L594.756 35.8193C593.427 34.6589 591.808 34.0704 590.184 34.0316ZM614.302 88.1482C608.65 87.7573 603.748 92.0608 603.353 97.7603C602.958 103.46 607.221 108.398 612.873 108.789C618.525 109.18 623.427 104.877 623.822 99.1774C624.216 93.4777 619.954 88.5398 614.302 88.1482ZM645.451 126.894C642.737 126.707 640.059 127.613 638.006 129.415C635.953 131.217 634.692 133.766 634.502 136.503C634.312 139.24 635.209 141.94 636.994 144.008C638.78 146.076 641.308 147.344 644.022 147.532C646.737 147.72 649.415 146.813 651.468 145.01C653.522 143.207 654.782 140.657 654.971 137.92C655.16 135.183 654.263 132.485 652.477 130.417C650.692 128.349 648.165 127.082 645.451 126.894ZM668.755 176.71C666.041 176.522 663.362 177.429 661.309 179.232C659.255 181.035 657.995 183.585 657.806 186.322C657.616 189.059 658.513 191.759 660.298 193.827C662.084 195.896 664.612 197.163 667.326 197.351C670.041 197.539 672.719 196.632 674.772 194.829C676.826 193.027 678.086 190.476 678.275 187.739C678.465 185.002 677.568 182.302 675.783 180.234C673.997 178.166 671.469 176.898 668.755 176.71ZM707.884 224.446C707.403 224.4 706.91 224.416 706.411 224.471L652.99 230.839C648.998 231.315 646.158 234.939 646.625 238.964L647.638 247.696C648.105 251.72 651.696 254.576 655.688 254.101L709.113 247.733C713.105 247.257 715.942 243.633 715.474 239.609L714.461 230.88C714.053 227.359 711.252 224.729 707.884 224.446ZM683.579 279.196C680.864 279.008 678.186 279.916 676.133 281.718C674.079 283.521 672.819 286.071 672.63 288.808C672.44 291.545 673.337 294.245 675.122 296.313C676.908 298.382 679.436 299.649 682.15 299.837C683.494 299.931 684.844 299.757 686.122 299.324C687.4 298.892 688.581 298.209 689.599 297.317C690.616 296.424 691.449 295.339 692.05 294.122C692.651 292.905 693.009 291.581 693.103 290.226C693.197 288.87 693.025 287.509 692.597 286.221C692.169 284.933 691.494 283.743 690.609 282.719C689.725 281.695 688.649 280.857 687.442 280.252C686.236 279.648 684.923 279.289 683.579 279.196ZM676.154 328.93C673.439 328.742 670.761 329.649 668.708 331.452C666.654 333.255 665.394 335.805 665.205 338.542C665.015 341.279 665.912 343.979 667.697 346.047C669.483 348.116 672.011 349.383 674.725 349.571C676.069 349.665 677.419 349.49 678.697 349.058C679.975 348.625 681.156 347.943 682.174 347.051C683.191 346.158 684.024 345.072 684.625 343.856C685.226 342.639 685.584 341.315 685.678 339.959C685.772 338.604 685.6 337.243 685.172 335.955C684.744 334.667 684.069 333.477 683.184 332.453C682.3 331.429 681.224 330.59 680.017 329.986C678.811 329.381 677.498 329.023 676.154 328.93ZM656.504 377.975C653.789 377.787 651.111 378.694 649.057 380.497C647.004 382.3 645.744 384.85 645.554 387.587C645.365 390.324 646.262 393.024 648.047 395.092C649.832 397.161 652.36 398.428 655.075 398.616C657.789 398.804 660.468 397.897 662.521 396.094C664.574 394.292 665.834 391.741 666.024 389.004C666.213 386.267 665.317 383.567 663.531 381.499C661.746 379.431 659.218 378.163 656.504 377.975Z" fill="#FFE87A"/>
<path d="M322.381 114.978C320.038 120.545 310.058 127.064 292.442 134.536C302.353 139.758 308.895 143.771 312.066 146.574C312.319 147.467 312.24 148.403 311.827 149.383C311.415 150.363 311.164 150.834 311.075 150.796C306.99 147.923 302.342 145.389 297.131 143.195C291.921 141.002 286.828 139.277 281.852 138.02L281.427 135.482C283.515 134.631 286.766 133.012 291.179 130.623C295.656 128.209 299.582 125.982 302.957 123.943C309.599 119.872 313.708 115.966 315.283 112.225C317.008 108.128 315.577 105.114 310.991 103.183C307.695 101.795 304.043 101.254 300.036 101.559L300.021 99.3509L304.518 95.582C307.518 96.4258 310.221 97.354 312.625 98.3665C315.03 99.379 317.138 100.66 318.95 102.209C320.781 103.714 321.964 105.261 322.501 106.85C323.509 109.686 323.469 112.395 322.381 114.978Z" fill="black"/>
<path d="M352.669 112.711C356.232 114.211 358.374 117.341 359.096 122.101C359.881 126.836 358.755 132.81 355.717 140.024C352.699 147.194 348.507 152.481 343.142 155.884C337.821 159.306 332.801 160.023 328.08 158.035C324.562 156.554 322.442 153.433 321.72 148.673C320.999 143.913 322.147 137.948 325.166 130.778C328.185 123.608 332.354 118.312 337.675 114.89C342.995 111.468 347.993 110.742 352.669 112.711ZM338.339 120.596C334.561 123.095 331.566 126.972 329.353 132.226C327.141 137.481 326.308 141.823 326.857 145.252C327.424 148.637 328.999 150.873 331.582 151.96C335.056 153.423 338.676 152.981 342.442 150.635C346.227 148.244 349.217 144.444 351.411 139.233C353.623 133.979 354.461 129.56 353.924 125.979C353.432 122.416 351.895 120.091 349.312 119.004C345.838 117.541 342.181 118.072 338.339 120.596Z" fill="black"/>
<path d="M367.759 174.742C367.702 174.876 367.496 174.868 367.14 174.718C365.982 174.23 365.277 173.54 365.024 172.647C367.562 162.758 370.34 154.229 373.359 147.059C374.503 144.343 375.614 141.953 376.692 139.891C372.316 141.194 368.235 141.861 364.447 141.891C364.002 141.704 363.532 141.139 363.037 140.197C362.561 139.21 362.423 138.418 362.622 137.82C368.848 136.981 375.229 134.713 381.765 131.017C382.487 129.801 383.326 128.555 384.283 127.28L386.536 126.971L390.927 132.044C384.848 137.767 378.189 149.224 370.951 166.413C369.413 170.065 368.349 172.841 367.759 174.742Z" fill="black"/>
<path d="M397.643 157.52L398.076 158.174C400.858 157.668 403.429 157.912 405.789 158.905C409.085 160.293 411.441 162.727 412.859 166.208C414.341 169.662 414.256 173.349 412.606 177.268C410.975 181.142 408.294 184.024 404.562 185.913C400.894 187.777 396.834 187.771 392.38 185.896C389.842 184.827 387.781 183.435 386.196 181.719C384.656 180.022 383.671 178.191 383.239 176.227C382.339 172.388 382.78 168.353 384.561 164.123C386.361 159.848 390.232 155.448 396.174 150.925C402.179 146.375 408.354 142.605 414.698 139.615C415.003 139.638 415.422 139.762 415.957 139.987C416.491 140.212 416.988 140.526 417.448 140.93C417.907 141.333 418.099 141.623 418.024 141.801C409.125 147.124 402.331 152.364 397.643 157.52ZM392.496 181.698C394.634 182.598 397.107 182.328 399.915 180.889C402.722 179.45 404.689 177.395 405.814 174.723C406.958 172.006 407.281 169.495 406.784 167.188C406.287 164.882 404.77 163.195 402.231 162.126C399.738 161.076 397.454 161.084 395.379 162.15C393.324 163.172 391.78 164.908 390.749 167.357C389.718 169.806 389.335 172.398 389.599 175.13C389.909 177.882 390.874 180.071 392.496 181.698Z" fill="black"/>
</svg>
