<svg width="742" height="646" viewBox="0 0 742 646" fill="none" xmlns="http://www.w3.org/2000/svg">
<g clip-path="url(#clip0_41_231)">
<path d="M317.048 0.00099797C316.68 0.00474652 316.311 0.0102179 315.942 0.0173796C309.695 0.135501 303.273 0.741015 296.891 1.81372C282.224 4.27878 268.408 9.10197 257.777 15.4688C247.146 21.8357 240.352 29.3561 238.541 36.7602C237.878 38.2582 237.625 39.9614 237.908 41.7083L242.479 69.923C243.249 74.6765 247.667 77.8788 252.381 77.1022L279.656 72.608L287.305 119.813C251.575 129.532 218.754 145.847 190.371 167.292L174.507 147.874L187.925 136.731C190.346 134.721 190.686 131.139 188.693 128.699L171.215 107.302C169.969 105.777 168.115 105.068 166.308 105.243C165.224 105.348 164.154 105.771 163.246 106.525L107.082 153.18C104.661 155.191 104.318 158.772 106.311 161.213L123.792 182.61C125.786 185.05 129.338 185.393 131.758 183.383L145.177 172.24L161.574 192.317C113.361 240.428 83.7222 305.65 83.7222 377.466C83.7222 525.364 209.424 645.4 364.297 645.4C468.964 645.4 560.235 590.575 608.456 509.379C572.896 529.193 532.886 539.648 492.18 539.765C428.446 539.765 367.322 514.446 322.255 469.379C277.188 424.313 251.87 363.189 251.87 299.455C251.968 256.125 263.778 213.629 286.052 176.463C298.34 153.638 315.353 132.932 337.403 115.673C337.758 115.392 338.114 115.112 338.47 114.833C340.06 113.606 341.666 112.392 343.307 111.202L343.767 111.125C344.003 110.959 344.24 110.794 344.476 110.629L344.435 110.377C344.502 110.328 344.568 110.278 344.636 110.23C344.561 110.23 344.487 110.241 344.413 110.246L336.789 63.195L362.923 58.8894C367.637 58.1127 370.811 53.6604 370.041 48.907L365.64 21.7406L365.656 21.7406C365.641 21.6766 365.625 21.6127 365.608 21.5489L365.471 20.6954C365.262 19.4057 364.778 18.2369 364.1 17.2241C361.395 11.9375 355.569 7.53087 347.265 4.49187C338.961 1.45286 328.503 -0.100031 317.048 0.00499349L317.048 0.00099797ZM302.306 6.31073C302.518 6.32709 302.685 6.35868 302.802 6.41301C285.721 11.0679 254.851 29.0556 249.613 38.7064C245.359 46.544 245.378 57.8242 245.378 57.8242C245.378 57.8242 243.646 47.8614 244.09 38.895C244.837 23.7986 295.727 5.82865 302.306 6.31073ZM217.949 164.901C228.745 165.202 237.114 178.378 236.677 194.388C236.241 210.397 227.163 223.21 216.367 222.91C205.571 222.613 197.2 209.313 197.636 193.304C198.072 177.295 207.154 164.604 217.949 164.901ZM194.536 248.027C207.347 248.382 217.316 264.066 216.799 283.063C216.281 302.06 205.467 317.162 192.656 316.808C179.845 316.453 169.888 300.772 170.406 281.775C170.923 262.778 181.725 247.673 194.536 248.027ZM114.123 315.382C120.647 371.528 143.137 425.692 178.227 469.779C170.831 475.206 165.292 482.811 163.546 492.102C161.131 504.958 166.673 517.35 175.766 526.502C184.86 535.654 197.646 542.253 212.442 545.08C227.238 547.905 241.532 546.474 253.315 541.311C254.65 540.727 256 540.122 257.275 539.425C270.499 547.535 284.402 554.613 298.707 560.57C298.225 558.421 298.024 556.357 298.422 554.234C301.276 539.048 326.801 531.055 355.363 536.51C383.924 541.966 404.776 558.818 401.922 574.004C401.301 577.312 399.556 580.261 396.99 582.814C434.904 584.607 473.129 579.128 509.028 566.688C453.697 614.134 376.727 634.796 305.33 621.343C242.315 609.306 184.692 571.115 148.574 517.674C112.457 464.232 98.2853 396.191 110.22 332.649C111.315 326.847 112.62 321.09 114.123 315.382ZM222.683 471.249C226.486 471.169 230.451 471.493 234.481 472.262C255.974 476.368 271.173 491.605 268.405 506.342C265.636 521.08 245.966 529.665 224.473 525.559C202.98 521.454 187.781 506.21 190.55 491.473C192.799 479.499 206.205 471.593 222.683 471.249Z" fill="#FFF59D"/>
<path d="M527.8 1.67188C526.433 1.67196 525.079 1.94364 523.815 2.47139C522.552 2.99915 521.404 3.77265 520.438 4.74771C519.471 5.72278 518.704 6.88032 518.181 8.15422C517.658 9.42813 517.389 10.7935 517.389 12.1723C517.389 14.9565 518.486 17.6265 520.439 19.5952C522.391 21.5639 525.039 22.6701 527.8 22.6703C529.167 22.6705 530.522 22.3991 531.785 21.8716C533.048 21.3442 534.196 20.5711 535.163 19.5962C536.13 18.6214 536.897 17.4639 537.421 16.1901C537.944 14.9163 538.213 13.5511 538.213 12.1723C538.214 10.7933 537.944 9.42766 537.421 8.15357C536.898 6.87949 536.131 5.72191 535.164 4.74681C534.197 3.77171 533.049 2.99821 531.785 2.47062C530.522 1.94302 529.168 1.67161 527.8 1.67188ZM579.297 7.96536C576.536 7.96551 573.888 9.07161 571.936 11.0403C569.983 13.009 568.887 15.679 568.887 18.4632C568.887 21.2474 569.983 23.9175 571.936 25.8862C573.888 27.8549 576.536 28.961 579.297 28.9611C582.059 28.961 584.706 27.8549 586.659 25.8862C588.611 23.9175 589.708 21.2474 589.708 18.4632C589.708 15.679 588.611 13.009 586.659 11.0403C584.706 9.07161 582.058 7.96552 579.297 7.96536ZM629.01 20.7052C626.249 20.7053 623.601 21.8114 621.649 23.7801C619.696 25.7488 618.599 28.4189 618.599 31.2031C618.599 33.9873 619.696 36.6573 621.649 38.626C623.601 40.5947 626.249 41.7008 629.01 41.7009C631.771 41.7008 634.419 40.5947 636.372 38.626C638.324 36.6573 639.421 33.9873 639.421 31.2031C639.421 28.4189 638.324 25.7488 636.372 23.7801C634.419 21.8114 631.771 20.7053 629.01 20.7052ZM684.343 24.7335C682.226 24.829 680.169 25.8463 678.79 27.6951L645.984 71.6825C643.532 74.9693 644.182 79.6048 647.442 82.0768L654.512 87.441C657.772 89.9129 662.369 89.2573 664.82 85.9705L697.63 41.9831C700.081 38.6963 699.431 34.0581 696.171 31.5862L689.098 26.2247C687.672 25.1432 685.99 24.6591 684.343 24.7335ZM712.551 77.8285C706.802 77.8289 702.141 82.5288 702.141 88.3264C702.141 94.124 706.802 98.8239 712.551 98.8243C718.301 98.824 722.962 94.1242 722.962 88.3264C722.962 82.5287 718.301 77.8288 712.551 77.8285ZM746.801 114.87C744.04 114.87 741.392 115.976 739.439 117.945C737.487 119.914 736.39 122.584 736.39 125.368C736.39 128.152 737.487 130.822 739.439 132.791C741.392 134.759 744.04 135.865 746.801 135.866C748.168 135.866 749.522 135.595 750.786 135.067C752.049 134.54 753.197 133.767 754.164 132.792C755.131 131.817 755.898 130.66 756.421 129.386C756.945 128.112 757.214 126.747 757.214 125.368C757.214 123.989 756.945 122.624 756.421 121.35C755.898 120.076 755.131 118.919 754.164 117.944C753.197 116.969 752.049 116.196 750.786 115.668C749.522 115.141 748.168 114.87 746.801 114.87ZM773.887 163.67C771.126 163.67 768.478 164.776 766.525 166.745C764.573 168.714 763.476 171.384 763.476 174.168C763.476 176.952 764.573 179.622 766.525 181.591C768.478 183.56 771.126 184.666 773.887 184.666C776.648 184.666 779.296 183.56 781.249 181.591C783.201 179.622 784.298 176.952 784.298 174.168C784.298 171.384 783.201 168.714 781.249 166.745C779.296 164.776 776.648 163.67 773.887 163.67ZM816.845 209.255C816.355 209.242 815.857 209.289 815.356 209.385L761.717 219.575C757.71 220.336 755.091 224.203 755.846 228.245L757.483 237.013C758.239 241.055 762.074 243.695 766.082 242.934L819.721 232.744C823.729 231.983 826.347 228.116 825.592 224.074L823.954 215.306C823.294 211.769 820.275 209.306 816.845 209.255ZM796.075 266.386C793.314 266.386 790.666 267.492 788.713 269.461C786.761 271.43 785.664 274.1 785.664 276.884C785.664 279.668 786.761 282.338 788.713 284.307C790.666 286.276 793.314 287.382 796.075 287.382C797.442 287.382 798.796 287.111 800.059 286.583C801.323 286.056 802.47 285.282 803.437 284.308C804.404 283.333 805.172 282.175 805.695 280.902C806.218 279.628 806.488 278.263 806.488 276.884C806.488 275.505 806.218 274.14 805.695 272.866C805.172 271.592 804.404 270.435 803.437 269.46C802.47 268.485 801.323 267.712 800.059 267.185C798.796 266.657 797.442 266.386 796.075 266.386ZM792.044 317.255C789.283 317.255 786.635 318.361 784.682 320.329C782.73 322.298 781.633 324.968 781.633 327.752C781.633 330.537 782.73 333.207 784.682 335.175C786.635 337.144 789.283 338.25 792.044 338.25C793.411 338.251 794.765 337.979 796.029 337.452C797.292 336.924 798.44 336.151 799.407 335.176C800.374 334.201 801.141 333.044 801.665 331.77C802.188 330.497 802.457 329.131 802.457 327.752C802.457 326.374 802.188 325.008 801.665 323.735C801.141 322.461 800.374 321.303 799.407 320.328C798.44 319.354 797.292 318.58 796.029 318.053C794.765 317.526 793.411 317.254 792.044 317.255ZM775.589 368.284C772.828 368.284 770.18 369.39 768.228 371.359C766.276 373.327 765.179 375.997 765.178 378.782C765.179 381.566 766.276 384.236 768.228 386.205C770.18 388.173 772.828 389.279 775.589 389.279C778.35 389.279 780.998 388.173 782.951 386.204C784.903 384.236 786 381.566 786 378.782C786 375.997 784.903 373.328 782.951 371.359C780.998 369.39 778.35 368.284 775.589 368.284Z" fill="#FFF59D"/>
<path d="M490.91 541.034C623.629 541.034 731.22 433.444 731.22 300.724C731.22 168.005 623.629 60.4141 490.91 60.4141C358.19 60.4141 250.6 168.005 250.6 300.724C250.6 433.444 358.19 541.034 490.91 541.034Z" fill="#141C22"/>
<path d="M366.291 237.234V242.804H351.933C350.416 242.804 349.108 242.543 348.01 242.02C346.911 241.444 345.996 240.738 345.264 239.901C344.531 239.012 343.982 238.045 343.616 236.998C343.25 235.952 343.067 234.932 343.067 233.939V231.899V185.922H349.657V231.899V232.683C349.657 233.939 350.05 235.011 350.834 235.9C351.671 236.789 352.77 237.234 354.13 237.234H358.837H366.291Z" fill="#FEFAEC"/>
<path d="M417.261 242.803H410.592V216.52C410.488 216.572 409.912 216.781 408.866 217.147C407.872 217.514 406.774 217.906 405.571 218.324L400.864 219.893C400.236 220.05 399.634 220.312 399.059 220.678C398.588 220.992 398.144 221.41 397.725 221.933C397.359 222.404 397.176 223.032 397.176 223.816V223.895V242.803H390.585V194.786C390.585 194.211 390.69 193.4 390.899 192.354C391.109 191.256 391.658 190.184 392.547 189.137C393.436 188.091 394.77 187.202 396.548 186.47C398.327 185.685 400.785 185.293 403.923 185.293C407.062 185.293 409.52 185.685 411.299 186.47C413.077 187.202 414.411 188.091 415.3 189.137C416.189 190.184 416.738 191.256 416.948 192.354C417.157 193.4 417.261 194.211 417.261 194.786V242.803ZM397.176 214.558C397.647 214.401 398.431 214.14 399.53 213.774C400.628 213.355 401.727 212.963 402.825 212.597C403.976 212.178 404.996 211.812 405.885 211.498C406.826 211.185 407.349 211.001 407.454 210.949C408.814 210.478 409.677 209.825 410.043 208.988C410.409 208.151 410.592 207.392 410.592 206.712V195.964C410.592 195.493 410.514 194.996 410.357 194.473C410.2 193.897 409.86 193.374 409.337 192.904C408.867 192.433 408.187 192.041 407.297 191.727C406.408 191.361 405.205 191.178 403.688 191.178C402.276 191.178 401.125 191.361 400.236 191.727C399.399 192.041 398.745 192.459 398.275 192.982C397.804 193.505 397.49 194.054 397.333 194.63C397.228 195.153 397.176 195.65 397.176 196.12L397.176 214.558Z" fill="#FEFAEC"/>
<path d="M500.346 242.803H493.677V196.826V195.963C493.677 195.493 493.598 194.996 493.441 194.473C493.285 193.897 492.971 193.374 492.5 192.903C492.029 192.433 491.323 192.04 490.382 191.727C489.492 191.36 488.289 191.177 486.773 191.177C485.36 191.177 484.209 191.36 483.32 191.727C482.483 192.04 481.83 192.459 481.359 192.982C480.888 193.505 480.574 194.054 480.417 194.63C480.313 195.153 480.26 195.649 480.26 196.12V196.826V242.803H473.67V196.826V194.786C473.67 194.211 473.775 193.4 473.984 192.354C474.193 191.256 474.742 190.184 475.631 189.137C476.521 188.091 477.854 187.202 479.633 186.47C481.411 185.685 483.869 185.293 487.008 185.293C490.146 185.293 492.605 185.685 494.383 186.47C496.161 187.202 497.495 188.091 498.384 189.137C499.274 190.184 499.823 191.256 500.032 192.354C500.241 193.4 500.346 194.211 500.346 194.786V195.728L500.346 242.803Z" fill="#FEFAEC"/>
<path d="M551.315 233.154H551.236V233.939C551.236 234.566 551.132 235.403 550.923 236.449C550.713 237.495 550.164 238.541 549.275 239.588C548.386 240.634 547.052 241.549 545.274 242.334C543.495 243.066 541.037 243.432 537.898 243.432C534.76 243.432 532.302 243.066 530.523 242.334C528.745 241.549 527.411 240.634 526.522 239.588C525.633 238.541 525.084 237.495 524.874 236.449C524.665 235.351 524.561 234.514 524.561 233.939V231.977V185.922H531.23V231.977V232.683C531.23 233.154 531.282 233.677 531.386 234.252C531.543 234.775 531.857 235.298 532.328 235.822C532.799 236.292 533.452 236.711 534.289 237.077C535.179 237.391 536.329 237.548 537.742 237.548C539.258 237.548 540.461 237.391 541.351 237.077C542.24 236.711 542.92 236.292 543.391 235.822C543.914 235.351 544.254 234.854 544.411 234.331C544.567 233.755 544.646 233.259 544.646 232.84V231.977V185.922H551.315L551.315 233.154Z" fill="#FEFAEC"/>
<path d="M575.603 242.804V185.922H582.194V242.804H575.603Z" fill="#FEFAEC"/>
<path d="M631.525 191.492H621.482V242.804H614.892V191.492H604.849V185.922H610.42H631.525V191.492Z" fill="#FEFAEC"/>
<path d="M337.255 313.683V315.699C337.255 316.681 337.074 317.689 336.713 318.723C336.351 319.757 335.808 320.713 335.084 321.592C334.36 322.419 333.456 323.117 332.37 323.686C331.285 324.203 329.992 324.461 328.493 324.461H314.768H314.613H310.891V268.242H317.482H328.493C329.992 268.242 331.285 268.527 332.37 269.095C333.456 269.612 334.36 270.31 335.084 271.189C335.808 272.016 336.351 272.947 336.713 273.98C337.074 275.014 337.255 276.022 337.255 277.005V279.021L337.255 313.683ZM330.742 279.021V278.323C330.742 277.03 330.328 275.945 329.501 275.066C328.726 274.136 327.666 273.67 326.322 273.67H321.669H317.482V319.033H321.669H326.322C327.666 319.033 328.726 318.594 329.501 317.715C330.328 316.784 330.742 315.699 330.742 314.458V313.683V279.021Z" fill="#FEFAEC"/>
<path d="M383.05 324.461H367.851C366.352 324.461 365.06 324.203 363.974 323.686C362.888 323.117 361.984 322.419 361.26 321.592C360.536 320.713 359.994 319.757 359.632 318.723C359.27 317.689 359.089 316.681 359.089 315.699V313.683V279.021V277.005C359.089 276.022 359.27 275.014 359.632 273.98C359.994 272.947 360.536 272.016 361.26 271.189C361.984 270.31 362.888 269.612 363.974 269.095C365.06 268.527 366.352 268.242 367.851 268.242H383.05V273.67H374.675H370.022C368.678 273.67 367.593 274.136 366.766 275.066C365.99 275.945 365.603 277.03 365.603 278.323V279.021V293.289H379.638V299.415H365.603V313.683V314.458C365.603 315.699 365.99 316.784 366.766 317.715C367.593 318.594 368.678 319.033 370.022 319.033H374.675H383.05V324.461Z" fill="#FEFAEC"/>
<path d="M457.538 318.956V324.461H443.347C441.848 324.461 440.556 324.203 439.47 323.686C438.385 323.117 437.48 322.419 436.756 321.592C436.032 320.713 435.49 319.757 435.128 318.723C434.766 317.689 434.585 316.681 434.585 315.699V313.683V268.242H441.099V313.683V314.458C441.099 315.699 441.486 316.759 442.262 317.637C443.089 318.516 444.175 318.956 445.519 318.956H450.171H457.538Z" fill="#FEFAEC"/>
<path d="M494.066 265.547L492.438 287.47H487.289L485.661 265.547H494.066Z" fill="#FEFAEC"/>
<path d="M514.624 324.461V268.242H521.138V324.461H514.624Z" fill="#FEFAEC"/>
<path d="M569.347 324.464H562.755V279.024V278.171C562.755 277.706 562.678 277.215 562.523 276.698C562.368 276.129 562.058 275.612 561.592 275.147C561.127 274.681 560.429 274.294 559.498 273.984C558.62 273.622 557.431 273.441 555.931 273.441C554.536 273.441 553.398 273.622 552.52 273.984C551.692 274.294 551.046 274.707 550.581 275.224C550.116 275.741 549.806 276.284 549.65 276.853C549.547 277.37 549.496 277.861 549.496 278.326V279.024V324.464H542.982V279.024V277.008C542.982 276.439 543.085 275.638 543.292 274.604C543.499 273.518 544.042 272.459 544.921 271.425C545.799 270.391 547.118 269.512 548.875 268.788C550.633 268.013 553.063 267.625 556.164 267.625C559.266 267.625 561.696 268.013 563.453 268.788C565.211 269.512 566.529 270.391 567.408 271.425C568.287 272.459 568.83 273.518 569.037 274.604C569.243 275.638 569.347 276.439 569.347 277.008V277.938L569.347 324.464Z" fill="#FEFAEC"/>
<path d="M597.693 293.289H611.961V299.415H597.693V324.461H591.18V279.021V277.005C591.18 276.022 591.361 275.014 591.723 273.98C592.084 272.947 592.627 272.016 593.351 271.189C594.075 270.31 594.979 269.612 596.065 269.095C597.202 268.527 598.495 268.242 599.942 268.242H615.373V273.67H606.843H602.113C600.769 273.67 599.684 274.136 598.856 275.066C598.081 275.945 597.693 277.03 597.693 278.323V279.021V293.289Z" fill="#FEFAEC"/>
<path d="M661.502 314.844V315.62C661.502 316.24 661.399 317.067 661.192 318.101C660.985 319.135 660.442 320.169 659.564 321.203C658.685 322.237 657.366 323.142 655.609 323.917C653.851 324.641 651.421 325.003 648.32 325.003C645.218 325.003 642.788 324.641 641.031 323.917C639.273 323.142 637.955 322.237 637.076 321.203C636.197 320.169 635.654 319.135 635.447 318.101C635.241 317.016 635.137 316.189 635.137 315.62V313.681V278.942V276.926C635.137 276.357 635.241 275.556 635.447 274.522C635.654 273.436 636.197 272.377 637.076 271.343C637.955 270.309 639.273 269.43 641.031 268.706C642.788 267.931 645.218 267.543 648.32 267.543C651.421 267.543 653.851 267.931 655.609 268.706C657.366 269.43 658.685 270.309 659.564 271.343C660.442 272.377 660.985 273.436 661.192 274.522C661.399 275.556 661.502 276.357 661.502 276.926V277.701V314.844ZM654.911 313.681H654.988V278.942H654.911V278.089C654.911 277.624 654.833 277.132 654.679 276.616C654.524 276.047 654.213 275.53 653.748 275.065C653.283 274.599 652.585 274.212 651.654 273.902C650.775 273.54 649.587 273.359 648.087 273.359C646.692 273.359 645.554 273.54 644.675 273.902C643.848 274.212 643.202 274.625 642.737 275.142C642.272 275.659 641.961 276.202 641.806 276.771C641.703 277.288 641.651 277.779 641.651 278.244V278.942V313.681V314.379C641.651 314.844 641.703 315.361 641.806 315.93C641.962 316.447 642.272 316.964 642.737 317.481C643.202 317.946 643.848 318.36 644.675 318.722C645.554 319.032 646.692 319.187 648.087 319.187C649.587 319.187 650.775 319.032 651.654 318.722C652.585 318.36 653.283 317.946 653.748 317.481C654.213 317.016 654.523 316.525 654.679 316.008C654.833 315.439 654.911 314.948 654.911 314.534V313.681Z" fill="#FEFAEC"/>
<path d="M351.152 343.805H355.195V347.848H351.152V343.805ZM399.668 432.751H403.711V436.794H399.668V432.751ZM391.582 432.751H395.625V436.794H391.582V432.751ZM383.496 432.751H387.539V436.794H383.496V432.751ZM375.41 432.751H379.453V436.794H375.41V432.751ZM367.324 432.751H371.367V436.794H367.324V432.751ZM359.238 432.751H363.281V436.794H359.238V432.751ZM351.152 432.751H355.195V436.794H351.152V432.751ZM343.066 432.751H347.109V436.794H343.066V432.751ZM399.668 424.665H403.711V428.708H399.668V424.665ZM391.582 424.665H395.625V428.708H391.582V424.665ZM383.496 424.665H387.539V428.708H383.496V424.665ZM375.41 424.665H379.453V428.708H375.41V424.665ZM367.324 424.665H371.367V428.708H367.324V424.665ZM359.238 424.665H363.281V428.708H359.238V424.665ZM351.152 424.665H355.195V428.708H351.152V424.665ZM343.066 424.665H347.109V428.708H343.066V424.665ZM351.152 416.579H355.195V420.622H351.152V416.579ZM343.066 416.579H347.109V420.622H343.066V416.579ZM351.152 408.493H355.195V412.536H351.152V408.493ZM343.066 408.493H347.109V412.536H343.066V408.493ZM351.152 400.407H355.195V404.45H351.152V400.407ZM343.066 400.407H347.109V404.45H343.066V400.407ZM391.582 392.321H395.625V396.364H391.582V392.321ZM383.496 392.321H387.539V396.364H383.496V392.321ZM375.41 392.321H379.453V396.364H375.41V392.321ZM367.324 392.321H371.367V396.364H367.324V392.321ZM359.238 392.321H363.281V396.364H359.238V392.321ZM351.152 392.321H355.195V396.364H351.152V392.321ZM343.066 392.321H347.109V396.364H343.066V392.321ZM399.668 384.235H403.711V388.278H399.668V384.235ZM391.582 384.235H395.625V388.278H391.582V384.235ZM383.496 384.235H387.539V388.278H383.496V384.235ZM375.41 384.235H379.453V388.278H375.41V384.235ZM367.324 384.235H371.367V388.278H367.324V384.235ZM359.238 384.235H363.281V388.278H359.238V384.235ZM351.152 384.235H355.195V388.278H351.152V384.235ZM399.668 376.149H403.711V380.192H399.668V376.149ZM391.582 376.149H395.625V380.192H391.582V376.149ZM399.668 368.063H403.711V372.106H399.668V368.063ZM391.582 368.063H395.625V372.106H391.582V368.063ZM399.668 359.977H403.711V364.02H399.668V359.977ZM391.582 359.977H395.625V364.02H391.582V359.977ZM351.152 359.977H355.195V364.02H351.152V359.977ZM343.066 359.977H347.109V364.02H343.066V359.977ZM399.668 351.891H403.711V355.934H399.668V351.891ZM391.582 351.891H395.625V355.934H391.582V351.891ZM383.496 351.891H387.539V355.934H383.496V351.891ZM375.41 351.891H379.453V355.934H375.41V351.891ZM367.324 351.891H371.367V355.934H367.324V351.891ZM359.238 351.891H363.281V355.934H359.238V351.891ZM351.152 351.891H355.195V355.934H351.152V351.891ZM343.066 351.891H347.109V355.934H343.066V351.891ZM391.582 343.805H395.625V347.848H391.582V343.805ZM383.496 343.805H387.539V347.848H383.496V343.805ZM375.41 343.805H379.453V347.848H375.41V343.805ZM367.324 343.805H371.367V347.848H367.324V343.805ZM359.238 343.805H363.281V347.848H359.238V343.805Z" fill="#FEFAEC"/>
<path d="M427.327 343.805H431.37V347.848H427.327V343.805ZM467.757 432.751H471.8V436.794H467.757V432.751ZM459.671 432.751H463.714V436.794H459.671V432.751ZM451.585 432.751H455.628V436.794H451.585V432.751ZM443.499 432.751H447.542V436.794H443.499V432.751ZM435.413 432.751H439.456V436.794H435.413V432.751ZM427.327 432.751H431.37V436.794H427.327V432.751ZM475.843 424.665H479.886V428.708H475.843V424.665ZM467.757 424.665H471.8V428.708H467.757V424.665ZM459.671 424.665H463.714V428.708H459.671V424.665ZM451.585 424.665H455.628V428.708H451.585V424.665ZM443.499 424.665H447.542V428.708H443.499V424.665ZM435.413 424.665H439.456V428.708H435.413V424.665ZM427.327 424.665H431.37V428.708H427.327V424.665ZM419.241 424.665H423.284V428.708H419.241V424.665ZM475.843 416.579H479.886V420.622H475.843V416.579ZM467.757 416.579H471.8V420.622H467.757V416.579ZM427.327 416.579H431.37V420.622H427.327V416.579ZM419.241 416.579H423.284V420.622H419.241V416.579ZM475.843 408.493H479.886V412.536H475.843V408.493ZM467.757 408.493H471.8V412.536H467.757V408.493ZM427.327 408.493H431.37V412.536H427.327V408.493ZM419.241 408.493H423.284V412.536H419.241V408.493ZM475.843 400.407H479.886V404.45H475.843V400.407ZM467.757 400.407H471.8V404.45H467.757V400.407ZM435.413 400.407H439.456V404.45H435.413V400.407ZM427.327 400.407H431.37V404.45H427.327V400.407ZM419.241 400.407H423.284V404.45H419.241V400.407ZM475.843 392.321H479.886V396.364H475.843V392.321ZM467.757 392.321H471.8V396.364H467.757V392.321ZM443.499 392.321H447.542V396.364H443.499V392.321ZM435.413 392.321H439.456V396.364H435.413V392.321ZM427.327 392.321H431.37V396.364H427.327V392.321ZM419.241 392.321H423.284V396.364H419.241V392.321ZM475.843 384.235H479.886V388.278H475.843V384.235ZM467.757 384.235H471.8V388.278H467.757V384.235ZM451.585 384.235H455.628V388.278H451.585V384.235ZM443.499 384.235H447.542V388.278H443.499V384.235ZM427.327 384.235H431.37V388.278H427.327V384.235ZM419.241 384.235H423.284V388.278H419.241V384.235ZM475.843 376.149H479.886V380.192H475.843V376.149ZM467.757 376.149H471.8V380.192H467.757V376.149ZM459.671 376.149H463.714V380.192H459.671V376.149ZM451.585 376.149H455.628V380.192H451.585V376.149ZM427.327 376.149H431.37V380.192H427.327V376.149ZM419.241 376.149H423.284V380.192H419.241V376.149ZM475.843 368.063H479.886V372.106H475.843V368.063ZM467.757 368.063H471.8V372.106H467.757V368.063ZM459.671 368.063H463.714V372.106H459.671V368.063ZM427.327 368.063H431.37V372.106H427.327V368.063ZM419.241 368.063H423.284V372.106H419.241V368.063ZM475.843 359.977H479.886V364.02H475.843V359.977ZM467.757 359.977H471.8V364.02H467.757V359.977ZM427.327 359.977H431.37V364.02H427.327V359.977ZM419.241 359.977H423.284V364.02H419.241V359.977ZM475.843 351.891H479.886V355.934H475.843V351.891ZM467.757 351.891H471.8V355.934H467.757V351.891ZM459.671 351.891H463.714V355.934H459.671V351.891ZM451.585 351.891H455.628V355.934H451.585V351.891ZM443.499 351.891H447.542V355.934H443.499V351.891ZM435.413 351.891H439.456V355.934H435.413V351.891ZM427.327 351.891H431.37V355.934H427.327V351.891ZM419.241 351.891H423.284V355.934H419.241V351.891ZM467.757 343.805H471.8V347.848H467.757V343.805ZM459.671 343.805H463.714V347.848H459.671V343.805ZM451.585 343.805H455.628V347.848H451.585V343.805ZM443.499 343.805H447.542V347.848H443.499V343.805ZM435.413 343.805H439.456V347.848H435.413V343.805Z" fill="#FEFAEC"/>
<path d="M503.502 343.805H507.545V347.848H503.502V343.805ZM552.018 432.751H556.061V436.794H552.018V432.751ZM543.932 432.751H547.975V436.794H543.932V432.751ZM535.846 432.751H539.889V436.794H535.846V432.751ZM527.76 432.751H531.803V436.794H527.76V432.751ZM519.674 432.751H523.717V436.794H519.674V432.751ZM511.588 432.751H515.631V436.794H511.588V432.751ZM503.502 432.751H507.545V436.794H503.502V432.751ZM495.416 432.751H499.459V436.794H495.416V432.751ZM552.018 424.665H556.061V428.708H552.018V424.665ZM543.932 424.665H547.975V428.708H543.932V424.665ZM535.846 424.665H539.889V428.708H535.846V424.665ZM527.76 424.665H531.803V428.708H527.76V424.665ZM519.674 424.665H523.717V428.708H519.674V424.665ZM511.588 424.665H515.631V428.708H511.588V424.665ZM503.502 424.665H507.545V428.708H503.502V424.665ZM495.416 424.665H499.459V428.708H495.416V424.665ZM503.502 416.579H507.545V420.622H503.502V416.579ZM495.416 416.579H499.459V420.622H495.416V416.579ZM503.502 408.493H507.545V412.536H503.502V408.493ZM495.416 408.493H499.459V412.536H495.416V408.493ZM503.502 400.407H507.545V404.45H503.502V400.407ZM495.416 400.407H499.459V404.45H495.416V400.407ZM543.932 392.321H547.975V396.364H543.932V392.321ZM535.846 392.321H539.889V396.364H535.846V392.321ZM527.76 392.321H531.803V396.364H527.76V392.321ZM519.674 392.321H523.717V396.364H519.674V392.321ZM511.588 392.321H515.631V396.364H511.588V392.321ZM503.502 392.321H507.545V396.364H503.502V392.321ZM495.416 392.321H499.459V396.364H495.416V392.321ZM552.018 384.235H556.061V388.278H552.018V384.235ZM543.932 384.235H547.975V388.278H543.932V384.235ZM535.846 384.235H539.889V388.278H535.846V384.235ZM527.76 384.235H531.803V388.278H527.76V384.235ZM519.674 384.235H523.717V388.278H519.674V384.235ZM511.588 384.235H515.631V388.278H511.588V384.235ZM503.502 384.235H507.545V388.278H503.502V384.235ZM552.018 376.149H556.061V380.192H552.018V376.149ZM543.932 376.149H547.975V380.192H543.932V376.149ZM552.018 368.063H556.061V372.106H552.018V368.063ZM543.932 368.063H547.975V372.106H543.932V368.063ZM552.018 359.977H556.061V364.02H552.018V359.977ZM543.932 359.977H547.975V364.02H543.932V359.977ZM503.502 359.977H507.545V364.02H503.502V359.977ZM495.416 359.977H499.459V364.02H495.416V359.977ZM552.018 351.891H556.061V355.934H552.018V351.891ZM543.932 351.891H547.975V355.934H543.932V351.891ZM535.846 351.891H539.889V355.934H535.846V351.891ZM527.76 351.891H531.803V355.934H527.76V351.891ZM519.674 351.891H523.717V355.934H519.674V351.891ZM511.588 351.891H515.631V355.934H511.588V351.891ZM503.502 351.891H507.545V355.934H503.502V351.891ZM495.416 351.891H499.459V355.934H495.416V351.891ZM543.932 343.805H547.975V347.848H543.932V343.805ZM535.846 343.805H539.889V347.848H535.846V343.805ZM527.76 343.805H531.803V347.848H527.76V343.805ZM519.674 343.805H523.717V347.848H519.674V343.805ZM511.588 343.805H515.631V347.848H511.588V343.805Z" fill="#FEFAEC"/>
<path d="M579.677 343.805H583.72V347.848H579.677V343.805ZM620.108 432.751H624.151V436.794H620.108V432.751ZM612.021 432.751H616.064V436.794H612.021V432.751ZM603.935 432.751H607.978V436.794H603.935V432.751ZM595.849 432.751H599.892V436.794H595.849V432.751ZM587.763 432.751H591.806V436.794H587.763V432.751ZM579.677 432.751H583.72V436.794H579.677V432.751ZM628.194 424.665H632.237V428.708H628.194V424.665ZM620.108 424.665H624.151V428.708H620.108V424.665ZM612.021 424.665H616.064V428.708H612.021V424.665ZM603.935 424.665H607.978V428.708H603.935V424.665ZM595.849 424.665H599.892V428.708H595.849V424.665ZM587.763 424.665H591.806V428.708H587.763V424.665ZM579.677 424.665H583.72V428.708H579.677V424.665ZM571.591 424.665H575.634V428.708H571.591V424.665ZM628.194 416.579H632.237V420.622H628.194V416.579ZM620.108 416.579H624.151V420.622H620.108V416.579ZM579.677 416.579H583.72V420.622H579.677V416.579ZM571.591 416.579H575.634V420.622H571.591V416.579ZM628.194 408.493H632.237V412.536H628.194V408.493ZM620.108 408.493H624.151V412.536H620.108V408.493ZM628.194 400.407H632.237V404.45H628.194V400.407ZM620.108 400.407H624.151V404.45H620.108V400.407ZM620.108 392.321H624.151V396.364H620.108V392.321ZM612.021 392.321H616.064V396.364H612.021V392.321ZM603.935 392.321H607.978V396.364H603.935V392.321ZM595.849 392.321H599.892V396.364H595.849V392.321ZM587.763 392.321H591.806V396.364H587.763V392.321ZM620.108 384.235H624.151V388.278H620.108V384.235ZM612.021 384.235H616.064V388.278H612.021V384.235ZM603.935 384.235H607.978V388.278H603.935V384.235ZM595.849 384.235H599.892V388.278H595.849V384.235ZM587.763 384.235H591.806V388.278H587.763V384.235ZM628.194 376.149H632.237V380.192H628.194V376.149ZM620.108 376.149H624.151V380.192H620.108V376.149ZM628.194 368.063H632.237V372.106H628.194V368.063ZM620.108 368.063H624.151V372.106H620.108V368.063ZM628.194 359.977H632.237V364.02H628.194V359.977ZM620.108 359.977H624.151V364.02H620.108V359.977ZM579.677 359.977H583.72V364.02H579.677V359.977ZM571.591 359.977H575.634V364.02H571.591V359.977ZM628.194 351.891H632.237V355.934H628.194V351.891ZM620.108 351.891H624.151V355.934H620.108V351.891ZM612.021 351.891H616.064V355.934H612.021V351.891ZM603.935 351.891H607.978V355.934H603.935V351.891ZM595.849 351.891H599.892V355.934H595.849V351.891ZM587.763 351.891H591.806V355.934H587.763V351.891ZM579.677 351.891H583.72V355.934H579.677V351.891ZM571.591 351.891H575.634V355.934H571.591V351.891ZM620.108 343.805H624.151V347.848H620.108V343.805ZM612.021 343.805H616.064V347.848H612.021V343.805ZM603.935 343.805H607.978V347.848H603.935V343.805ZM595.849 343.805H599.892V347.848H595.849V343.805ZM587.763 343.805H591.806V347.848H587.763V343.805Z" fill="#FEFAEC"/>
</g>
<defs>
<clipPath id="clip0_41_231">
<rect width="742" height="645.4" fill="white"/>
</clipPath>
</defs>
</svg>
