<svg width="350" height="374" viewBox="0 0 350 374" fill="none" xmlns="http://www.w3.org/2000/svg">
<path d="M135.067 0.00315603C134.878 0.00315603 134.626 0.00315603 134.437 0.00315603C130.844 0.066183 127.125 0.444352 123.407 1.07462C114.898 2.52424 106.894 5.29743 100.78 8.95299C94.6035 12.6086 90.6958 16.9574 89.6243 21.2432C89.2462 22.1256 89.1201 23.071 89.2462 24.0795L91.8933 40.4034C92.3345 43.1766 94.9186 45.0044 97.6288 44.5632L113.449 41.9791L117.86 69.3328C97.1876 74.9422 78.1534 84.3962 61.7664 96.8126L52.5645 85.5938L60.3168 79.165C61.7034 78.0305 61.9555 75.9506 60.758 74.501L50.6107 62.0847C49.9174 61.2023 48.7829 60.8242 47.7745 60.8872C47.1442 60.9502 46.5139 61.2023 46.0097 61.6435L13.4878 88.6821C12.1012 89.8166 11.8491 91.8965 13.0466 93.3461L23.1939 105.762C24.3284 107.149 26.4083 107.338 27.7949 106.204L35.5472 99.7748L45.0643 111.372C17.1433 139.23 0 176.983 0 218.581C0 304.171 72.7331 373.69 162.42 373.69C223.431 373.69 276.562 341.546 304.357 294.024C127.062 354.404 43.1735 142.192 150.319 64.4167L151.013 64.2906L150.95 63.9125C151.013 63.9125 151.013 63.8495 151.076 63.8495C151.013 63.8495 151.013 63.8495 150.95 63.8495L146.538 36.6218L161.664 34.1007C164.374 33.6596 166.202 31.0755 165.761 28.3023L163.24 12.5455C163.24 12.4825 163.24 12.4825 163.24 12.4195L163.177 11.9153C163.051 11.1589 162.799 10.4656 162.357 9.8984C160.782 6.81007 157.441 4.28899 152.588 2.52423C147.735 0.822506 141.685 -0.0598709 135.067 0.00315603ZM126.558 3.65872C126.684 3.65872 126.747 3.65872 126.81 3.72175C116.915 6.43191 99.0784 16.8314 96.0531 22.4408C93.595 26.9787 93.595 33.5335 93.595 33.5335C93.595 33.5335 92.5866 27.735 92.8387 22.5668C93.2799 13.8061 122.713 3.40661 126.558 3.65872ZM77.7123 95.489C83.9519 95.6781 88.805 103.304 88.5529 112.569C88.3008 121.834 83.0695 129.271 76.7669 129.082C70.5272 128.893 65.6741 121.204 65.9262 111.939C66.1783 102.674 71.4726 95.2999 77.7123 95.489ZM64.1615 143.579C71.5986 143.768 77.3341 152.907 77.082 163.873C76.7669 174.84 70.5272 183.601 63.09 183.412C55.6528 183.223 49.9173 174.147 50.2325 163.117C50.4846 152.15 56.7243 143.389 64.1615 143.579ZM17.5845 182.592C21.3662 215.114 34.4127 246.439 54.7074 271.964C50.4216 275.116 47.2072 279.528 46.1988 284.885C44.8122 292.322 48.0265 299.507 53.2578 304.802C58.552 310.096 65.9262 313.94 74.4979 315.579C83.0695 317.218 91.3261 316.398 98.196 313.436C98.9523 313.121 99.7717 312.743 100.465 312.365C108.091 317.029 116.159 321.189 124.478 324.592C124.226 323.331 124.1 322.134 124.289 320.936C125.928 312.176 140.739 307.512 157.252 310.663C173.765 313.814 185.866 323.584 184.228 332.344C183.85 334.235 182.841 336 181.392 337.449C203.325 338.458 225.447 335.307 246.246 328.121C214.229 355.601 169.669 367.576 128.323 359.761C91.8303 352.765 58.489 330.706 37.5641 299.759C16.6391 268.813 8.44563 229.421 15.3786 192.677C15.9458 189.21 16.7022 185.87 17.5845 182.592ZM80.4224 272.847C82.6284 272.784 84.8973 272.973 87.2293 273.414C99.6456 275.809 108.469 284.633 106.894 293.142C105.318 301.65 93.9102 306.629 81.4939 304.297C69.0776 301.902 60.2538 293.079 61.8295 284.57C63.153 277.574 70.9053 273.036 80.4224 272.847Z" fill="url(#paint0_linear_65_2969)"/>
<path d="M164.375 57.4205C173.199 55.9079 182.023 55.1516 190.657 55.2146L198.725 75.3832C210.574 76.2026 221.982 78.6606 232.885 82.6313L248.516 67.5048C265.596 75.005 281.101 85.6566 294.148 98.8922L285.639 118.872C293.202 127.633 299.631 137.465 304.673 148.179L326.417 148.494C329.758 157.003 332.342 165.953 334.044 175.281C335.745 184.609 336.502 193.874 336.502 203.013L316.333 211.143C315.514 222.992 313.056 234.4 309.085 245.304L324.211 260.935C320.241 269.947 315.388 278.582 309.652 286.65L287.467 251.607C287.467 251.544 287.53 251.48 287.593 251.417C298.055 230.745 302.026 206.605 297.488 182.151C287.53 128.326 239.881 91.0769 186.876 92.4635C186.75 92.4635 186.687 92.4635 186.56 92.4635L164.375 57.4205Z" fill="url(#paint1_linear_65_2969)"/>
<path d="M90.6466 170.832V158.682C98.6826 156.259 106.527 155.047 114.18 155.047C122.727 155.047 128.339 156.195 131.018 158.491C133.569 160.723 134.844 164.103 134.844 168.631C134.844 173.096 134.206 176.922 132.931 180.111C131.719 183.236 129.328 185.979 125.756 188.339C122.248 190.698 119.346 192.357 117.05 193.313C113.224 194.908 108.727 196.566 103.562 198.288L103.083 200.966H128.722L126.043 216.273H79.3581L81.4627 204.315C82.1005 200.488 82.9934 197.65 84.1414 195.801C85.3531 193.951 86.3417 192.548 87.107 191.591C87.9361 190.571 89.0203 189.582 90.3596 188.626C91.699 187.605 92.8788 186.776 93.8993 186.138C94.9835 185.437 96.4504 184.64 98.2999 183.747C100.213 182.79 101.808 182.025 103.083 181.451C104.359 180.877 106.176 180.079 108.536 179.059C110.896 178.039 112.841 177.178 114.372 176.476L115.233 170.832H90.6466ZM76.4881 215.986L35.9258 211.681H77.2534L76.4881 215.986ZM78.1144 206.706L37.5521 202.401H78.8797L78.1144 206.706ZM87.7767 165.666V169.971L47.2143 165.666H87.7767ZM87.8723 156.482V160.787L47.4057 156.482H87.8723ZM82.3237 193.218V193.313C81.5584 194.589 80.8887 195.96 80.3147 197.427L40.9961 193.218H82.3237ZM91.699 184.034C90.0408 185.118 88.3507 186.393 86.6287 187.86L50.5627 184.034H91.699ZM111.215 174.85L102.796 178.389L69.3132 174.85H111.215Z" fill="white"/>
<path d="M154.706 188.339L114.144 184.034H155.471L154.706 188.339ZM153.749 197.523L113.187 193.218H154.132C154.005 194.302 153.877 195.737 153.749 197.523ZM157.672 174.85L156.524 179.155L116.344 174.85H157.672ZM153.749 202.401C153.877 203.932 154.068 205.367 154.323 206.706L113.857 202.401H153.749ZM161.211 165.666C160.319 167.452 159.681 168.855 159.298 169.875L120.075 165.666H161.211ZM169.534 156.482C167.685 157.694 166.154 159.001 164.942 160.404L128.398 156.482H169.534ZM159.489 215.986L118.927 211.681H156.045C156.938 213.403 158.086 214.838 159.489 215.986ZM187.902 155.047C195.3 155.047 200.53 156.514 203.591 159.448C206.653 162.317 208.183 166.814 208.183 172.936C208.183 176.317 207.673 180.813 206.653 186.425C205.696 191.974 204.58 196.566 203.304 200.201C202.029 203.773 200.275 206.962 198.043 209.768C193.77 215.061 186.722 217.708 176.901 217.708C169.502 217.708 164.273 216.273 161.211 213.403C158.15 210.533 156.619 206.037 156.619 199.914C156.619 196.024 157.098 191.432 158.054 186.138C159.011 180.781 160.127 176.285 161.403 172.649C162.742 169.014 164.528 165.825 166.76 163.083C171.033 157.726 178.08 155.047 187.902 155.047ZM177.762 202.306C180.504 202.306 182.481 202.019 183.693 201.445C184.905 200.807 185.702 199.404 186.085 197.236L190.772 170.449H186.467C183.789 170.449 181.907 170.736 180.823 171.31C179.802 171.884 179.101 173.287 178.718 175.519L173.935 202.306H177.762Z" fill="white"/>
<path d="M259.311 216.273H240.178L247.257 175.615H231.281L233.672 161.456L255.388 156.482H269.738L259.311 216.273ZM237.212 215.986L196.65 211.681H237.977L237.212 215.986ZM240.465 197.523L199.902 193.218H241.23L240.465 197.523ZM242.091 188.339L201.529 184.034H242.856L242.091 188.339ZM227.741 179.155L187.179 174.85H228.506L227.741 179.155ZM229.272 169.971L188.709 165.666H229.941L229.272 169.971ZM238.838 206.706L198.276 202.401H239.604L238.838 206.706ZM230.898 159.926L201.05 156.482H242.378L231.089 159.065L230.898 159.926Z" fill="white"/>
<path d="M296.523 188.339L255.961 184.034H297.289L296.523 188.339ZM295.567 197.523L255.004 193.218H295.949C295.822 194.302 295.694 195.737 295.567 197.523ZM299.489 174.85L298.341 179.155L258.161 174.85H299.489ZM295.567 202.401C295.694 203.932 295.885 205.367 296.141 206.706L255.674 202.401H295.567ZM303.028 165.666C302.136 167.452 301.498 168.855 301.115 169.875L261.892 165.666H303.028ZM311.351 156.482C309.502 157.694 307.971 159.001 306.759 160.404L270.215 156.482H311.351ZM301.307 215.986L260.744 211.681H297.863C298.755 213.403 299.903 214.838 301.307 215.986ZM329.719 155.047C337.117 155.047 342.347 156.514 345.408 159.448C348.47 162.317 350 166.814 350 172.936C350 176.317 349.49 180.813 348.47 186.425C347.513 191.974 346.397 196.566 345.121 200.201C343.846 203.773 342.092 206.962 339.86 209.768C335.587 215.061 328.539 217.708 318.718 217.708C311.32 217.708 306.09 216.273 303.028 213.403C299.967 210.533 298.437 206.037 298.437 199.914C298.437 196.024 298.915 191.432 299.872 186.138C300.828 180.781 301.944 176.285 303.22 172.649C304.559 169.014 306.345 165.825 308.577 163.083C312.85 157.726 319.898 155.047 329.719 155.047ZM319.579 202.306C322.321 202.306 324.298 202.019 325.51 201.445C326.722 200.807 327.519 199.404 327.902 197.236L332.589 170.449H328.284C325.606 170.449 323.724 170.736 322.64 171.31C321.62 171.884 320.918 173.287 320.535 175.519L315.752 202.306H319.579Z" fill="white"/>
<defs>
<linearGradient id="paint0_linear_65_2969" x1="-0.00605059" y1="186.824" x2="304.322" y2="186.824" gradientUnits="userSpaceOnUse">
<stop offset="0.008722" stop-color="#FF31E9"/>
<stop offset="0.1185" stop-color="#E73CEC"/>
<stop offset="0.5514" stop-color="#8B66F6"/>
<stop offset="0.8548" stop-color="#5181FC"/>
<stop offset="1" stop-color="#3B8BFF"/>
</linearGradient>
<linearGradient id="paint1_linear_65_2969" x1="202.166" y1="183.802" x2="300.801" y2="150.17" gradientUnits="userSpaceOnUse">
<stop offset="0.008722" stop-color="#FF31E9"/>
<stop offset="0.1185" stop-color="#E73CEC"/>
<stop offset="0.5514" stop-color="#8B66F6"/>
<stop offset="0.8548" stop-color="#5181FC"/>
<stop offset="1" stop-color="#3B8BFF"/>
</linearGradient>
</defs>
</svg>
