<svg width="333" height="430" viewBox="0 0 333 430" fill="none" xmlns="http://www.w3.org/2000/svg">
<path d="M144.214 62.0732C144.039 62.0732 143.806 62.0732 143.632 62.0732C140.316 62.1314 136.884 62.4805 133.452 63.0622C125.598 64.4002 118.21 66.9598 112.567 70.3339C106.866 73.708 103.259 77.722 102.27 81.6779C101.921 82.4923 101.805 83.3649 101.921 84.2957L104.365 99.3627C104.772 101.922 107.157 103.609 109.658 103.202L124.26 100.817L128.332 126.065C109.251 131.242 91.6826 139.968 76.5574 151.428L68.064 141.073L75.2194 135.14C76.4992 134.093 76.7319 132.173 75.6266 130.835L66.2606 119.375C65.6207 118.56 64.5736 118.211 63.6428 118.269C63.061 118.327 62.4793 118.56 62.0139 118.967L31.9961 143.924C30.7163 144.971 30.4836 146.891 31.5889 148.229L40.9549 159.689C42.0021 160.969 43.9218 161.143 45.2016 160.096L52.357 154.163L61.1413 164.867C35.3702 190.58 19.5469 225.426 19.5469 263.821C19.5469 342.821 86.6796 406.987 169.461 406.987C225.774 406.987 274.814 377.318 300.469 333.455C136.826 389.185 59.396 193.314 158.292 121.527L158.932 121.411L158.874 121.062C158.932 121.062 158.932 121.003 158.99 121.003C158.932 121.003 158.932 121.003 158.874 121.003L154.801 95.8723L168.763 93.5453C171.265 93.1381 172.952 90.753 172.544 88.1933L170.217 73.6498C170.217 73.5917 170.217 73.5917 170.217 73.5335L170.159 73.0681C170.043 72.37 169.81 71.7301 169.403 71.2065C167.949 68.356 164.865 66.0291 160.386 64.4002C155.907 62.8295 150.322 62.0151 144.214 62.0732ZM136.36 65.4473C136.477 65.4473 136.535 65.4473 136.593 65.5055C127.46 68.007 110.996 77.6057 108.204 82.7832C105.935 86.9717 105.935 93.0218 105.935 93.0218C105.935 93.0218 105.004 87.6698 105.237 82.8995C105.644 74.8133 132.812 65.2146 136.36 65.4473ZM173.824 115.593C172.37 115.593 170.916 116.175 169.868 117.222C168.821 118.269 168.24 119.724 168.24 121.178C168.24 122.691 168.821 124.087 169.868 125.134C170.916 126.181 172.312 126.763 173.824 126.763C174.581 126.763 175.279 126.646 175.977 126.355C176.675 126.065 177.256 125.657 177.78 125.134C178.304 124.61 178.711 123.97 179.002 123.33C179.293 122.632 179.409 121.934 179.409 121.178C179.409 120.422 179.293 119.724 179.002 119.026C178.711 118.327 178.304 117.746 177.78 117.222C177.256 116.699 176.675 116.291 175.977 116C175.279 115.71 174.581 115.593 173.824 115.593ZM201.341 118.909C199.886 118.909 198.432 119.491 197.385 120.538C196.338 121.585 195.756 123.04 195.756 124.494C195.756 126.006 196.338 127.403 197.385 128.45C198.432 129.497 199.828 130.079 201.341 130.079C202.853 130.079 204.249 129.497 205.296 128.45C206.344 127.403 206.925 125.948 206.925 124.494C206.925 122.981 206.344 121.585 205.296 120.538C204.249 119.549 202.795 118.909 201.341 118.909ZM227.926 125.716C226.472 125.716 225.017 126.297 223.97 127.344C222.923 128.392 222.341 129.846 222.341 131.3C222.341 132.813 222.923 134.209 223.97 135.256C225.017 136.303 226.414 136.885 227.926 136.885C229.439 136.885 230.835 136.303 231.882 135.256C232.929 134.209 233.511 132.755 233.511 131.3C233.511 129.788 232.929 128.392 231.882 127.344C230.777 126.355 229.38 125.716 227.926 125.716ZM257.478 127.868C256.373 127.926 255.268 128.45 254.512 129.439L237.001 152.941C235.663 154.686 236.012 157.188 237.757 158.467L241.539 161.318C243.284 162.656 245.727 162.307 247.065 160.504L264.576 137.001C265.914 135.256 265.565 132.755 263.819 131.417L260.038 128.566C259.282 128.101 258.351 127.868 257.478 127.868ZM91.2754 150.207C97.0346 150.381 101.514 157.42 101.281 165.972C101.049 174.524 96.2202 181.388 90.4028 181.214C84.6436 181.039 80.1642 173.942 80.3969 165.39C80.6296 156.839 85.5162 150.032 91.2754 150.207ZM272.545 156.257C269.462 156.257 266.961 158.758 266.961 161.842C266.961 164.925 269.462 167.426 272.545 167.426C275.629 167.426 278.13 164.925 278.13 161.842C278.13 158.758 275.629 156.257 272.545 156.257ZM290.87 176.036C289.416 176.036 287.962 176.618 286.914 177.665C285.867 178.712 285.286 180.166 285.286 181.621C285.286 183.075 285.867 184.529 286.914 185.577C287.962 186.624 289.358 187.205 290.87 187.205C292.383 187.205 293.779 186.624 294.826 185.577C295.873 184.529 296.455 183.075 296.455 181.621C296.455 180.108 295.873 178.712 294.826 177.665C293.721 176.618 292.325 176.036 290.87 176.036ZM78.768 194.594C85.6325 194.768 90.9264 203.203 90.6937 213.326C90.4028 223.448 84.6436 231.534 77.779 231.359C70.9145 231.185 65.6207 222.808 65.9115 212.627C66.1442 202.505 71.9035 194.419 78.768 194.594ZM305.297 202.156C303.843 202.156 302.389 202.738 301.342 203.785C300.294 204.832 299.713 206.286 299.713 207.741C299.713 209.253 300.294 210.65 301.342 211.697C302.389 212.744 303.785 213.326 305.297 213.326C306.81 213.326 308.206 212.744 309.253 211.697C310.3 210.65 310.882 209.195 310.882 207.741C310.882 206.228 310.3 204.832 309.253 203.785C308.206 202.738 306.81 202.156 305.297 202.156ZM328.276 226.473C327.985 226.473 327.753 226.473 327.462 226.531L298.782 231.999C296.629 232.407 295.233 234.501 295.641 236.653L296.513 241.365C296.92 243.518 298.956 244.914 301.109 244.507L329.789 239.038C331.941 238.631 333.337 236.537 332.93 234.385L332.057 229.672C331.708 227.811 330.08 226.531 328.276 226.473ZM35.7774 230.603C39.2679 260.621 51.3099 289.533 70.0419 313.094C66.0861 316.003 63.1192 320.075 62.1884 325.02C60.9086 331.884 63.8754 338.516 68.7039 343.403C73.5905 348.289 80.3969 351.838 88.3085 353.35C96.2202 354.863 103.841 354.107 110.182 351.372C110.88 351.081 111.636 350.732 112.276 350.383C119.315 354.688 126.761 358.528 134.44 361.669C134.208 360.506 134.091 359.4 134.266 358.295C135.778 350.209 149.449 345.904 164.691 348.813C179.933 351.721 191.102 360.738 189.589 368.825C189.24 370.57 188.31 372.199 186.972 373.537C207.216 374.467 227.635 371.559 246.833 364.927C217.28 390.291 176.151 401.344 137.989 394.13C104.306 387.673 73.5323 367.312 54.2186 338.749C34.9048 310.185 27.3422 273.826 33.7413 239.911C34.2649 236.711 34.963 233.628 35.7774 230.603ZM317.165 257.014C315.711 257.014 314.256 257.596 313.209 258.643C312.162 259.69 311.58 261.145 311.58 262.599C311.58 264.111 312.162 265.508 313.209 266.555C314.256 267.602 315.652 268.184 317.165 268.184C317.921 268.184 318.619 268.067 319.317 267.776C320.015 267.486 320.597 267.078 321.121 266.555C321.644 266.031 322.052 265.391 322.342 264.751C322.633 264.053 322.75 263.355 322.75 262.599C322.75 261.843 322.633 261.145 322.342 260.446C322.052 259.748 321.644 259.167 321.121 258.643C320.597 258.119 320.015 257.712 319.317 257.421C318.619 257.131 317.921 257.014 317.165 257.014ZM315.012 284.181C313.558 284.181 312.104 284.763 311.057 285.81C310.009 286.857 309.428 288.312 309.428 289.766C309.428 291.279 310.009 292.675 311.057 293.722C312.104 294.769 313.5 295.351 315.012 295.351C315.769 295.351 316.467 295.234 317.165 294.944C317.863 294.653 318.445 294.246 318.968 293.722C319.492 293.198 319.899 292.558 320.19 291.919C320.481 291.22 320.597 290.522 320.597 289.766C320.597 289.01 320.481 288.312 320.19 287.614C319.899 286.916 319.492 286.334 318.968 285.81C318.445 285.287 317.863 284.88 317.165 284.589C316.467 284.356 315.769 284.181 315.012 284.181ZM306.228 311.465C304.774 311.465 303.319 312.047 302.272 313.094C301.225 314.141 300.644 315.595 300.644 317.05C300.644 318.504 301.225 319.958 302.272 321.006C303.319 322.053 304.716 322.634 306.228 322.634C307.741 322.634 309.137 322.053 310.184 321.006C311.231 319.958 311.813 318.504 311.813 317.05C311.813 315.595 311.231 314.141 310.184 313.094C309.137 312.047 307.683 311.465 306.228 311.465ZM93.7769 313.908C95.813 313.85 97.9072 314.025 100.06 314.432C111.52 316.643 119.664 324.787 118.21 332.64C116.756 340.494 106.226 345.09 94.7658 342.937C83.3056 340.727 75.1612 332.582 76.6156 324.729C77.8372 318.271 84.9926 314.083 93.7769 313.908Z" fill="#006837"/>
<path d="M161.899 109.254L159.34 110.709C116 140.843 73.184 165.974 31.2406 183.892C27.9247 179.878 24.5506 175.864 21.002 171.966C65.6214 149.336 109.543 123.682 152.766 94.9436L201.341 37.0605C203.843 42.0635 206.926 47.2992 210.184 52.3603" fill="#F9867C"/>
<path d="M191.16 11.8711L179.409 34.6171L171.264 50.3823L168.995 52.8256L135.545 89.3007L87.7845 118.155L69.1689 129.383L22.2225 157.771L0 154.223C0 154.223 14.6598 142.355 30.3668 128.045H30.425C38.5693 120.656 46.9464 112.628 53.7528 105.298C57.2432 101.517 60.2682 97.9686 62.6534 94.7108C62.6534 94.7108 84.4104 78.0731 115.883 57.1886C122.631 52.7092 129.786 48.0553 137.291 43.3432C154.045 32.8137 172.486 21.8188 191.16 11.8711Z" fill="#FF473A"/>
<path d="M191.16 11.8711L138.105 71.5576L136.941 72.8956L140.257 86.0429L158.059 103.262L210.997 43.4014C199.304 27.9853 191.16 11.8711 191.16 11.8711Z" fill="#C61003"/>
<path d="M23.6768 183.311C23.6768 183.311 13.1473 167.953 0 154.34C0 154.34 83.3051 116.818 136.942 72.8965L158.059 103.263C158.059 103.263 66.9001 166.731 23.6768 183.311Z" fill="#FF473A"/>
<path d="M137.233 43.3965L120.886 63.4665L108.786 78.3009L82.5491 110.529L87.7848 118.266C90.6353 133.275 93.4276 148.342 96.2782 163.351C100.35 176.731 104.423 190.111 108.495 203.491C108.437 220.129 106.691 224.143 105.004 224.434C102.677 224.841 101.165 218.267 95.6964 216.29C90.3444 214.37 84.0616 217.977 79.4077 221.525C83.3635 165.911 81.1529 146.713 77.488 141.478C77.3135 141.245 74.6375 137.406 69.1691 129.494C65.7368 124.607 63.6426 121.582 63.6426 121.582L88.0756 91.4482L100.467 76.2066L115.825 57.2419C122.573 52.8207 129.786 48.1667 137.233 43.3965Z" fill="#FFB200"/>
<path d="M175.628 29.377C182.9 59.6856 190.23 89.9942 197.501 120.303C190.637 137.406 187.03 146.481 187.03 146.481C187.03 146.481 181.736 140.431 180.631 134.846C180.049 131.996 180.282 128.04 183.54 122.63C178.711 99.3602 173.883 76.1488 168.996 52.8792L162.364 44.2695L108.844 78.2431L88.1344 91.4486L30.4258 128.098C38.5701 120.71 46.9472 112.682 53.7536 105.352L100.467 76.207L120.945 63.4669L175.628 29.377Z" fill="#FFB200"/>
<path d="M101.922 76.9044C81.2122 71.7851 62.6546 59.2195 50.4963 42C51.4852 47.352 51.7179 52.5877 52.7069 57.8815C45.726 56.6598 39.6178 54.3329 33.7422 50.5516C47.7039 69.2254 68.3557 82.0819 91.6834 86.0377C95.2321 83.8271 99.886 80.453 101.922 76.9044Z" fill="#FFB200"/>
<path d="M103.842 74.579C115.709 53.9854 119.083 28.8543 112.917 6.45731C115.302 10.0059 117.804 13.031 120.189 16.5796C124.901 11.4603 129.38 6.74818 130.835 0C134.441 23.9095 129.787 49.0988 117.513 70.5068C113.266 71.9612 108.088 73.1247 103.842 74.579Z" fill="#FFB200"/>
<path d="M313.151 394.827C313.268 395.991 313.326 396.572 313.326 396.572C313.093 396.689 312.918 396.805 312.686 396.922C309.021 399.074 305.123 401.11 301.226 402.972C300.527 403.321 299.829 403.67 299.131 403.961C296.921 405.008 294.71 405.997 292.499 406.986C289.882 408.149 287.206 409.254 284.53 410.36C283.773 410.651 283.017 411 282.261 411.232C278.829 412.57 275.454 413.85 272.08 415.014C270.51 415.595 268.939 416.177 267.368 416.701C266.554 416.992 265.739 417.224 264.983 417.515C259.747 419.26 254.745 420.831 250.091 422.169C249.276 422.46 248.404 422.634 247.589 422.925C242.121 424.496 237.234 425.776 233.104 426.823C232.173 427.056 231.3 427.288 230.486 427.463C224.029 429.034 220.131 429.79 220.131 429.79L216.699 417.748L215.826 414.665L210.881 397.096L210.009 394.013L207.158 384.007L208.554 377.899L209.02 375.746L212.161 362.017L212.627 359.865L215.128 348.87L215.884 345.496L216.35 343.343L219.142 331.185L219.607 329.032L220.073 327.055L232.755 323.739L234.907 323.215L249.567 319.376L252.127 318.678L266.787 314.838L268.706 314.314L269.346 314.14L292.383 308.148L313.268 302.68C312.162 309.951 311.406 317.863 311.057 325.775C310.766 331.534 310.65 337.41 310.592 343.111V345.612C310.592 350.557 310.708 355.327 310.882 359.923C310.882 360.795 310.941 361.668 310.941 362.483C311.173 367.776 311.406 372.721 311.697 377.084C311.755 377.957 311.813 378.829 311.871 379.644C312.395 386.857 312.86 392.151 313.151 394.827Z" fill="#C61003"/>
<path d="M284.468 410.36C283.712 410.651 282.956 411 282.2 411.232C258.872 394.827 235.486 378.422 212.158 361.959L212.624 359.807C217.976 363.588 223.328 367.311 228.68 371.092C247.353 384.24 265.911 397.329 284.468 410.36Z" fill="#FFEBCB"/>
<path d="M301.166 403.031C300.468 403.38 299.77 403.729 299.072 404.02C293.661 400.18 288.193 396.399 282.725 392.559C260.444 376.911 238.163 361.262 215.883 345.555L216.348 343.402C219.78 345.787 223.213 348.231 226.645 350.674C251.543 368.126 276.384 385.578 301.166 403.031Z" fill="#FFEBCB"/>
<path d="M313.324 396.573C313.092 396.69 312.917 396.806 312.684 396.922C307.681 393.374 302.62 389.825 297.617 386.335C271.439 368.01 245.377 349.627 219.199 331.244C218.966 331.069 218.675 330.895 218.443 330.72C217.395 329.964 218.384 328.219 219.49 328.975C219.548 329.033 219.606 329.091 219.722 329.091C226.994 334.211 234.324 339.33 241.596 344.449C265.447 361.203 289.298 378.016 313.208 394.77C313.266 395.933 313.324 396.573 313.324 396.573Z" fill="#FFEBCB"/>
<path d="M311.869 379.761C285.633 361.378 259.454 342.878 233.218 324.495C232.927 324.321 232.811 324.03 232.811 323.797C232.694 323.041 233.451 322.169 234.265 322.75C234.498 322.925 234.73 323.099 234.963 323.216C242.119 328.219 249.216 333.222 256.313 338.225C274.754 351.197 293.254 364.17 311.695 377.143C311.811 378.074 311.869 378.946 311.869 379.761Z" fill="#FFEBCB"/>
<path d="M310.997 362.541C290.519 348.172 270.1 333.803 249.623 319.376L252.183 318.678C258.524 323.099 264.806 327.578 271.147 332C284.411 341.307 297.675 350.615 310.88 359.923C310.938 360.854 310.997 361.726 310.997 362.541Z" fill="#FFEBCB"/>
<path d="M310.647 343.228V345.671C296.045 335.433 281.443 325.136 266.842 314.897L269.401 314.199C274.928 318.097 280.455 321.936 285.923 325.834C294.184 331.651 302.386 337.411 310.647 343.228Z" fill="#FFEBCB"/>
<path d="M267.367 416.761C266.552 417.052 265.738 417.284 264.981 417.575C246.191 404.37 227.343 391.164 208.553 377.9L209.018 375.748C213.905 379.18 218.85 382.613 223.736 386.103C238.338 396.283 252.823 406.522 267.367 416.761Z" fill="#FFEBCB"/>
<path d="M250.09 422.17C249.275 422.461 248.403 422.635 247.588 422.926C235.372 414.316 223.097 405.707 210.88 397.097L210.008 394.014C213.091 396.166 216.174 398.319 219.257 400.529C229.554 407.743 239.851 414.956 250.09 422.17Z" fill="#FFEBCB"/>
<path d="M233.102 426.766C232.171 426.998 231.298 427.231 230.484 427.406C225.888 424.148 221.293 420.948 216.697 417.691L215.824 414.607C221.583 418.68 227.343 422.752 233.102 426.766Z" fill="#FFEBCB"/>
<path d="M219.141 419.088C219.432 422.753 219.781 426.302 220.13 429.792C214.488 429.502 208.903 429.211 203.318 428.862C202.155 428.803 200.991 428.745 199.77 428.629C192.382 428.222 185.052 427.698 177.722 427.116C176.558 427.058 175.395 426.942 174.231 426.826C167.018 426.302 159.862 425.662 152.707 424.964C151.543 424.906 150.438 424.789 149.275 424.673C143.457 424.15 137.698 423.51 131.939 422.87C130.717 422.753 129.495 422.579 128.216 422.463C127.11 422.346 125.947 422.23 124.842 422.055C118.559 421.357 112.334 420.543 106.11 419.728C105.528 419.67 104.946 419.612 104.364 419.496C103.259 419.379 102.212 419.205 101.107 419.03C94.4165 418.158 87.7847 417.169 81.1529 416.122C80.1057 416.005 79.0004 415.772 78.0115 415.598C71.496 414.609 65.0387 413.504 58.5814 412.34C57.5342 412.166 56.4871 411.991 55.4982 411.758C49.1572 410.653 42.9326 409.432 36.6498 408.152C35.6026 407.919 34.6137 407.745 33.6247 407.512C31.3559 407.105 29.0871 406.581 26.8184 406.116C27.1674 402.742 27.5165 399.426 27.8073 396.052C27.8655 395.237 27.9237 394.423 28.04 393.608C28.4473 388.373 28.7963 383.195 29.029 377.959C29.0872 377.145 29.0871 376.331 29.1453 375.516C29.378 370.339 29.4944 365.161 29.4944 359.984C29.4944 359.169 29.4944 358.413 29.4944 357.599C29.4944 352.421 29.378 347.302 29.2035 342.124C29.2035 341.368 29.1453 340.554 29.0872 339.797C28.9708 336.016 28.7381 332.235 28.5636 328.453C28.1564 321.647 27.5746 314.782 26.8766 307.918C40.9547 310.187 55.0328 312.281 69.2272 314.143C70.2743 314.259 71.3215 314.433 72.3104 314.55C79.2913 315.481 86.2722 316.353 93.3112 317.168C94.3584 317.284 95.4055 317.4 96.4526 317.517C100.234 317.924 104.015 318.389 107.797 318.738C111.171 319.087 114.545 319.495 117.919 319.785C118.966 319.902 120.071 320.018 121.118 320.135C125.772 320.6 130.426 321.065 135.138 321.472C137.756 321.705 140.374 321.938 142.992 322.171C144.097 322.287 145.144 322.403 146.25 322.461C153.638 323.101 161.084 323.683 168.588 324.149C169.694 324.207 170.799 324.323 171.904 324.381C179.118 324.847 186.331 325.312 193.603 325.719C194.708 325.777 195.814 325.836 196.977 325.894C204.307 326.301 211.695 326.65 219.083 326.941C219.491 326.941 219.898 326.941 220.247 326.999C220.189 327.523 220.189 328.104 220.13 328.628C219.781 334.213 219.432 339.681 219.2 345.091C219.142 345.964 219.142 346.778 219.083 347.651C219.025 348.174 219.025 348.698 219.025 349.221C218.792 354.108 218.618 358.995 218.443 363.707C218.443 364.521 218.385 365.336 218.385 366.15C218.211 371.502 218.153 376.738 218.094 381.857C218.094 382.672 218.094 383.486 218.094 384.3C218.094 389.536 218.153 394.597 218.269 399.542C218.269 400.356 218.327 401.113 218.327 401.869C218.443 406.93 218.734 411.875 219.083 416.645C219.025 417.576 219.083 418.332 219.141 419.088Z" fill="#FF473A"/>
<path d="M171.848 324.557C162.25 330.956 152.593 337.239 142.878 343.522C128.276 352.946 113.558 362.195 98.7236 371.329C83.8311 380.462 68.8804 389.479 53.8133 398.322C48.1123 401.696 42.4112 405.012 36.652 408.269C35.6049 408.037 34.6159 407.862 33.627 407.629C41.9458 402.859 50.2066 398.089 58.4091 393.202C73.3598 384.36 88.2523 375.343 103.028 366.209C117.805 357.076 132.465 347.768 147.124 338.344C154.28 333.748 161.377 329.094 168.474 324.324C169.58 324.382 170.685 324.499 171.848 324.557Z" fill="#FFEBCB"/>
<path d="M146.193 322.578C138.165 327.872 130.079 333.166 121.993 338.344C107.391 347.768 92.673 357.017 77.8386 366.151C62.9461 375.284 47.9954 384.301 32.9283 393.143C31.2412 394.132 29.5542 395.121 27.8672 396.11C27.9254 395.296 27.9835 394.481 28.0999 393.667C31.2994 391.805 34.4408 389.944 37.6404 388.082C52.5911 379.24 67.4837 370.223 82.2598 361.09C97.036 351.956 111.754 342.648 126.356 333.224C131.94 329.617 137.467 326.011 142.993 322.346C144.041 322.404 145.088 322.52 146.193 322.578Z" fill="#FFEBCB"/>
<path d="M121.062 320.31C114.43 324.673 107.798 328.978 101.108 333.283C86.5067 342.707 71.7887 351.957 56.9544 361.09C47.7047 366.791 38.3387 372.434 28.9727 378.019C29.0308 377.204 29.0308 376.39 29.089 375.575C39.8512 369.118 50.6134 362.602 61.3174 355.971C76.0936 346.837 90.8116 337.529 105.413 328.105C109.602 325.429 113.732 322.695 117.921 319.961C118.968 320.077 120.015 320.194 121.062 320.31Z" fill="#FFEBCB"/>
<path d="M96.4535 317.634C91.0433 321.183 85.6331 324.673 80.223 328.164C65.6213 337.588 50.9033 346.838 36.0689 355.971C33.8583 357.367 31.5895 358.705 29.3789 360.043C29.3789 359.229 29.3789 358.472 29.3789 357.658C33.0439 355.389 36.7088 353.12 40.3738 350.852C55.15 341.718 69.868 332.41 84.4697 322.986C87.4365 321.066 90.3452 319.205 93.2539 317.285C94.3592 317.402 95.4064 317.518 96.4535 317.634Z" fill="#FFEBCB"/>
<path d="M72.3127 314.667C68.0078 317.46 63.7029 320.31 59.3399 323.103C49.3339 329.56 39.2698 335.959 29.1476 342.242C29.1476 341.486 29.0894 340.671 29.0312 339.915C40.6079 332.701 52.1845 325.371 63.6448 317.925C65.5063 316.703 67.3679 315.54 69.2294 314.318C70.2766 314.377 71.3237 314.551 72.3127 314.667Z" fill="#FFEBCB"/>
<path d="M196.863 326.069C184.006 334.737 171.092 343.23 158.061 351.607C143.459 361.032 128.741 370.281 113.907 379.356C99.0141 388.49 84.0634 397.507 68.9963 406.349C65.5059 408.385 62.0737 410.421 58.5832 412.457C57.5361 412.283 56.489 412.108 55.5 411.876C61.5501 408.385 67.6002 404.837 73.6503 401.288C88.601 392.446 103.494 383.429 118.27 374.295C133.046 365.162 147.706 355.854 162.366 346.372C172.779 339.624 183.192 332.817 193.489 325.895C194.594 325.953 195.757 326.011 196.863 326.069Z" fill="#FFEBCB"/>
<path d="M220.133 327.118C220.075 327.641 220.074 328.223 220.016 328.747C218.969 329.503 217.864 330.201 216.817 330.899C202.39 340.614 187.904 350.155 173.244 359.579C158.643 369.003 143.925 378.253 129.09 387.386C114.198 396.519 99.2472 405.536 84.1801 414.379C83.133 414.961 82.144 415.542 81.1551 416.182C80.1079 416.066 79.0026 415.833 78.0137 415.659C81.6786 413.564 85.2273 411.412 88.8341 409.318C103.785 400.475 118.677 391.458 133.453 382.325C148.23 373.192 162.948 363.884 177.549 354.46C191.395 345.443 205.24 336.368 218.911 327.118C219.318 327.06 219.725 327.06 220.133 327.118Z" fill="#FFEBCB"/>
<path d="M219.087 345.209C219.028 346.082 219.028 346.896 218.97 347.769C208.848 354.459 198.726 361.091 188.545 367.664C173.944 377.088 159.226 386.338 144.391 395.471C131.128 403.616 117.806 411.702 104.426 419.555C103.32 419.439 102.273 419.264 101.168 419.09C102.157 418.508 103.146 417.926 104.135 417.345C119.086 408.502 133.978 399.485 148.754 390.352C163.53 381.219 178.248 371.911 192.85 362.487C201.634 356.786 210.36 351.026 219.087 345.209Z" fill="#FFEBCB"/>
<path d="M218.33 363.824C218.33 364.639 218.272 365.453 218.272 366.268C213.443 369.409 208.615 372.609 203.786 375.692C189.185 385.116 174.467 394.366 159.632 403.499C149.219 409.898 138.806 416.181 128.276 422.464C127.171 422.347 126.008 422.231 124.902 422.056C137.991 414.319 151.022 406.408 163.995 398.38C178.771 389.246 193.489 379.938 208.091 370.514C211.465 368.304 214.897 366.093 218.33 363.824Z" fill="#FFEBCB"/>
<path d="M217.979 381.975C217.979 382.789 217.979 383.603 217.979 384.418C203.668 393.609 189.299 402.685 174.814 411.585C167.484 416.123 160.096 420.602 152.708 425.023C151.544 424.965 150.439 424.849 149.275 424.732C159.281 418.741 169.229 412.632 179.177 406.524C192.208 398.438 205.122 390.293 217.979 381.975Z" fill="#FFEBCB"/>
<path d="M218.211 402.043C208.845 407.977 199.479 413.853 189.997 419.612C185.867 422.172 181.795 424.673 177.664 427.174C176.501 427.116 175.337 427 174.174 426.884C180.922 422.811 187.67 418.681 194.36 414.551C202.33 409.606 210.242 404.661 218.095 399.658C218.153 400.473 218.211 401.229 218.211 402.043Z" fill="#FFEBCB"/>
<path d="M219.143 419.091C214.548 421.999 209.894 424.85 205.298 427.7C204.658 428.108 204.018 428.515 203.32 428.864C202.157 428.806 200.993 428.748 199.771 428.631C203.087 426.595 206.345 424.559 209.661 422.581C212.802 420.661 215.886 418.742 219.027 416.764C219.027 417.578 219.085 418.334 219.143 419.091Z" fill="#FFEBCB"/>
<path d="M178.257 274.437C177.172 274.147 176.734 273.61 176.943 272.827C177.088 272.284 178.428 271.738 180.964 271.189C181.724 271.004 182.505 270.858 183.309 270.75C184.173 270.657 184.931 270.601 185.582 270.582L185.22 270.485C185.12 269.167 185.408 267.242 186.084 264.711C187.049 261.095 188.429 257.137 190.223 252.838C192.016 248.539 194.083 244.184 196.424 239.772C194.474 240.543 192.915 241.063 191.746 241.332C190.592 241.54 189.684 241.556 189.021 241.379C188.298 241.186 187.985 240.909 188.081 240.547C188.226 240.005 188.807 239.643 189.823 239.463C190.796 239.206 191.708 238.933 192.56 238.644C193.412 238.355 194.234 238.058 195.026 237.753C196.702 237.038 198.133 236.032 199.318 234.734C200.629 233.212 202.038 232.652 203.544 233.054C205.051 233.456 205.684 234.109 205.442 235.013C204.766 237.545 202.143 242.171 197.572 248.892C195.172 252.319 193.254 255.391 191.818 258.107C190.459 260.778 189.522 263.079 189.007 265.007C188.685 266.213 188.464 267.283 188.343 268.22C188.282 269.172 188.292 269.982 188.372 270.649C189.445 270.742 190.494 270.925 191.519 271.198C194.231 271.923 195.458 272.767 195.201 273.731C194.991 274.515 194.374 274.77 193.35 274.496C192.868 274.367 192.385 274.239 191.903 274.11C191.437 273.921 190.993 273.77 190.571 273.657C188.402 273.078 186.559 272.844 185.044 272.956C183.529 273.068 181.622 273.56 179.324 274.431C179.215 274.596 178.859 274.598 178.257 274.437Z" fill="white"/>
<path d="M217.095 297.861C216.01 297.571 215.572 297.034 215.781 296.251C215.926 295.708 217.266 295.162 219.802 294.613C220.562 294.428 221.343 294.282 222.147 294.173C223.011 294.081 223.768 294.025 224.419 294.005L224.058 293.909C223.958 292.591 224.246 290.666 224.922 288.135C225.887 284.518 227.267 280.561 229.061 276.262C230.854 271.963 232.921 267.607 235.261 263.196C233.312 263.967 231.753 264.487 230.583 264.756C229.43 264.964 228.522 264.98 227.859 264.803C227.136 264.61 226.822 264.332 226.919 263.971C227.064 263.428 227.645 263.067 228.661 262.886C229.634 262.63 230.546 262.357 231.398 262.068C232.25 261.779 233.072 261.481 233.864 261.176C235.54 260.462 236.97 259.456 238.156 258.158C239.467 256.635 240.875 256.075 242.382 256.478C243.889 256.88 244.522 257.533 244.28 258.437C243.604 260.969 240.981 265.595 236.41 272.316C234.009 275.743 232.092 278.814 230.656 281.53C229.297 284.202 228.36 286.502 227.845 288.431C227.523 289.636 227.302 290.707 227.181 291.643C227.12 292.596 227.13 293.406 227.21 294.073C228.283 294.165 229.332 294.349 230.356 294.622C233.069 295.346 234.296 296.191 234.038 297.155C233.829 297.939 233.212 298.193 232.188 297.92C231.706 297.791 231.223 297.662 230.741 297.534C230.275 297.345 229.831 297.194 229.409 297.081C227.24 296.502 225.397 296.268 223.882 296.38C222.367 296.492 220.46 296.984 218.162 297.855C218.053 298.02 217.697 298.021 217.095 297.861Z" fill="white"/>
<path d="M210.489 248.471C203.739 246.669 198.964 243.392 196.165 238.641C193.366 233.891 192.803 228.381 194.477 222.113C195.861 216.93 198.396 212.635 202.082 209.229C205.828 205.838 210.365 204.08 215.694 203.953C217.373 203.95 219.194 204.145 221.155 204.54C223.192 204.89 225.355 205.371 227.646 205.982C228.188 206.127 228.731 206.272 229.273 206.417C229.876 206.578 230.462 206.799 231.033 207.081C231.66 207.635 231.933 208.063 231.852 208.365C231.707 208.907 231.183 209.058 230.279 208.816C230.038 208.752 229.767 208.68 229.465 208.599C229.164 208.519 228.871 208.408 228.585 208.267C228.24 208.11 227.946 208 227.705 207.935C227.464 207.871 227.253 207.815 227.072 207.766C223.095 206.704 219.313 206.598 215.729 207.449C212.22 208.256 209.16 209.924 206.547 212.455C203.95 214.925 202.113 218.18 201.035 222.218C199.667 227.341 199.776 231.89 201.361 235.864C202.947 239.839 206.242 242.494 211.244 243.83C214.559 244.715 217.735 244.789 220.774 244.05C223.812 243.312 226.43 241.848 228.629 239.659C230.888 237.486 232.468 234.712 233.369 231.336C234.158 228.383 234.127 225.598 233.276 222.982C232.501 220.322 231.108 218.045 229.095 216.151C227.159 214.214 224.835 212.883 222.122 212.159C218.145 211.097 215.697 212.283 214.78 215.719C213.75 219.576 214.41 221.818 216.76 222.446C217.725 222.704 218.938 222.511 220.401 221.869L221.842 221.188L222.596 220.905C223.62 221.179 224.068 221.557 223.939 222.039C223.666 223.063 222.384 223.754 220.093 224.111C218.546 224.343 216.959 224.242 215.331 223.808C210.871 222.617 209.237 219.791 210.428 215.331C211.764 210.329 215.656 208.689 222.105 210.411C225.781 211.393 228.887 213.061 231.422 215.417C234.017 217.789 235.81 220.624 236.802 223.924C237.869 227.179 237.912 230.645 236.931 234.321C235.852 238.359 234.007 241.644 231.394 244.174C228.797 246.645 225.685 248.267 222.056 249.042C218.443 249.756 214.587 249.565 210.489 248.471Z" fill="white"/>
<path d="M195.064 214.374C189.76 212.958 184.841 208.771 180.307 201.813C176.605 202.375 173.399 202.293 170.687 201.569C166.769 200.523 165.205 198.523 165.993 195.57C166.46 193.822 167.638 192.555 169.527 191.768C171.415 190.981 173.294 190.837 175.163 191.336C177.091 191.851 180.166 194.48 184.388 199.223C189.6 197.838 194.727 195.204 199.767 191.32C205.527 186.918 209.034 182.366 210.29 177.665C211.352 173.687 209.774 171.135 205.555 170.008C203.988 169.59 201.979 169.376 199.527 169.367C197.092 169.298 194.631 169.448 192.143 169.817C189.716 170.202 187.588 170.796 185.76 171.599C184.007 172.358 182.978 173.31 182.673 174.455C182.383 175.54 182.991 176.284 184.498 176.686C185.704 177.008 187.729 176.677 190.574 175.693C193.283 174.738 194.563 174.176 194.414 174.007L194.776 174.104C195.15 174.397 195.288 174.725 195.192 175.086C195.111 175.387 194.621 175.773 193.72 176.243C192.885 176.472 192.131 176.755 191.46 177.092L187.162 179.044C185.293 179.513 183.394 179.49 181.465 178.975C180.14 178.621 179.181 177.978 178.591 177.046C178.077 176.069 177.949 175.098 178.206 174.134C178.657 172.447 179.927 171.075 182.017 170.019C184.183 168.918 186.753 168.119 189.727 167.622C192.701 167.125 195.761 166.909 198.907 166.974C202.054 167.04 204.893 167.41 207.424 168.086C214.596 170.001 217.522 173.43 216.203 178.372C214.931 183.134 210.724 187.886 203.582 192.629C200.861 194.356 197.953 195.936 194.859 197.37C191.78 198.743 188.706 199.859 185.635 200.718C191.227 206.86 195.409 210.301 198.181 211.042C201.918 212.039 204.076 211.453 204.655 209.284C204.784 208.802 204.792 208.287 204.68 207.741C204.588 206.877 204.558 206.384 204.59 206.264C204.735 205.721 205.229 205.563 206.073 205.788C206.796 205.981 207.24 206.616 207.405 207.693C207.501 208.3 207.444 208.995 207.235 209.779C206.881 211.105 206.039 212.204 204.708 213.075C203.394 213.886 201.865 214.414 200.121 214.659C198.377 214.903 196.691 214.808 195.064 214.374ZM173.098 199.792C174.846 200.258 176.918 200.36 179.313 200.095C176.686 195.907 175.101 193.741 174.559 193.596C172.992 193.177 171.911 194.083 171.315 196.313C170.816 198.182 171.411 199.341 173.098 199.792Z" fill="white"/>
</svg>
