<svg width="950" height="1073" viewBox="0 0 950 1073" fill="none" xmlns="http://www.w3.org/2000/svg">
<g filter="url(#filter0_f_41_260)">
<circle cx="474.607" cy="597.789" r="302.238" fill="#1B8BCA" fill-opacity="0.8"/>
</g>
<g filter="url(#filter1_f_41_260)">
<circle cx="475.314" cy="288.677" r="75.3406" fill="#1B8BCA" fill-opacity="0.8"/>
</g>
<g filter="url(#filter2_f_41_260)">
<circle cx="531.138" cy="295.621" r="122.801" fill="#FD39A1"/>
</g>
<g filter="url(#filter3_f_41_260)">
<path d="M749.961 298.247C749.961 339.856 716.23 373.587 674.621 373.587C633.011 373.587 599.28 339.856 599.28 298.247C599.28 256.637 633.011 222.906 674.621 222.906C716.23 222.906 749.961 256.637 749.961 298.247Z" fill="#FD39A1"/>
</g>
<g filter="url(#filter4_f_41_260)">
<circle cx="475.314" cy="370.891" r="75.3406" fill="#FD39A1"/>
</g>
<g filter="url(#filter5_f_41_260)">
<circle cx="474.606" cy="680.365" r="106.392" fill="#FFE717"/>
</g>
<path d="M699.857 163.136C694.868 172.335 689.847 181.639 684.794 191.049C683.538 193.39 683.568 196.29 685.086 198.41C691.65 207.57 698.081 216.469 704.38 225.109C708.205 230.36 703.299 237.548 696.836 236.517C685.672 234.741 674.649 232.99 663.766 231.265C660.484 230.745 657.901 232.123 655.946 234.599C649.825 242.349 643.377 250.519 636.602 259.111C635.607 260.37 634.61 261.23 633.611 261.693C628.832 263.909 623.319 261.317 622.489 256.211C620.831 246.026 619.201 235.759 617.599 225.407C617.132 222.382 615.664 219.853 612.523 218.783C603.225 215.623 593.343 212.328 582.876 208.898C580.416 208.092 578.803 207.323 578.036 206.59C574.292 203.021 574.97 196.95 579.845 194.609C589.719 189.878 599.66 185.096 609.668 180.263C612.332 178.981 614.006 176.65 614.066 173.749C614.277 163.944 614.508 153.306 614.76 141.833C614.875 136.732 620.494 133.2 625.389 135.209C626.327 135.595 627.259 136.235 628.184 137.132C635.742 144.435 643.232 151.721 650.654 158.989C652.986 161.272 655.65 162.375 658.977 161.426C670.02 158.272 680.628 155.213 690.8 152.249C693.871 151.353 696.972 152.066 699.048 154.373C701.359 156.946 701.629 159.867 699.857 163.136ZM641.844 162.428C635.994 156.647 629.736 150.683 623.731 144.748C623.714 144.731 623.693 144.719 623.67 144.714C623.647 144.709 623.622 144.711 623.599 144.72C623.577 144.729 623.557 144.744 623.543 144.764C623.529 144.783 623.521 144.806 623.52 144.83C623.288 152.573 623.102 161.348 622.962 171.153C622.915 174.416 622.603 176.884 622.027 178.557C620.363 183.399 616.961 186.284 612.036 188.597C603.224 192.734 594.683 196.846 586.414 200.935C586.398 200.943 586.384 200.956 586.375 200.972C586.366 200.987 586.361 201.005 586.362 201.023C586.364 201.04 586.37 201.057 586.381 201.07C586.392 201.083 586.407 201.093 586.424 201.098C595.055 204.037 603.587 206.884 612.02 209.64C615.522 210.786 617.946 211.82 619.293 212.742C621.615 214.332 623.419 216.363 624.706 218.836C625.47 220.301 626.128 222.864 626.681 226.525C628.028 235.412 629.381 243.976 630.742 252.217C630.745 252.239 630.755 252.261 630.771 252.278C630.787 252.295 630.808 252.307 630.831 252.313C630.854 252.318 630.879 252.317 630.901 252.31C630.924 252.302 630.943 252.288 630.958 252.27C636.225 245.679 641.624 238.843 647.156 231.762C649.485 228.781 651.296 226.832 652.589 225.913C654.948 224.24 657.566 223.227 660.444 222.873C662.203 222.655 664.676 222.809 667.862 223.336C677.244 224.887 686.361 226.347 695.213 227.715C695.461 227.754 695.513 227.673 695.369 227.474C689.492 219.326 683.789 211.437 678.261 203.806C675.52 200.029 674.552 196.008 675.356 191.743C675.681 190.015 676.587 187.791 678.075 185.07C682.511 176.967 686.811 169.015 690.976 161.214C690.985 161.196 690.988 161.176 690.985 161.157C690.983 161.137 690.975 161.119 690.962 161.104C690.949 161.089 690.932 161.078 690.913 161.073C690.894 161.068 690.874 161.068 690.855 161.075C682.131 163.531 673.186 166.112 664.023 168.816C660.94 169.725 658.558 170.183 656.876 170.189C654.045 170.202 651.281 169.52 648.583 168.142C647.256 167.461 645.01 165.556 641.844 162.428Z" fill="white" stroke="#FD39A1" stroke-width="3.44414"/>
<path d="M158.607 616.857V609.154C159.545 565.51 171.225 524.793 193.647 487.001C205.216 467.503 219.021 449.833 235.06 433.989C235.109 433.942 235.138 433.878 235.141 433.81C235.144 433.743 235.12 433.676 235.075 433.623L225.521 422.408C225.474 422.354 225.406 422.319 225.333 422.312C225.26 422.305 225.186 422.326 225.129 422.37C222.606 424.297 220.126 426.272 217.69 428.295C216.042 429.663 214.563 430.622 213.253 431.171C208.689 433.084 203.357 431.73 200.221 428.035C194.672 421.502 189.078 414.957 183.439 408.399C182.116 406.864 181.235 405.518 180.796 404.362C179.539 401.067 180.002 397.16 182.158 394.37C182.872 393.449 183.862 392.485 185.128 391.48C202.373 377.798 220.555 363.318 239.673 348.04C241.312 346.733 242.724 345.863 243.91 345.429C248.504 343.753 253.595 345.126 256.706 348.806C262.057 355.127 267.587 361.608 273.296 368.25C274.596 369.763 275.487 371.092 275.97 372.239C277.834 376.695 276.332 381.532 272.482 384.629C269.554 386.983 266.578 389.35 263.556 391.73C263.526 391.753 263.502 391.781 263.483 391.813C263.465 391.845 263.453 391.879 263.449 391.915C263.445 391.951 263.448 391.987 263.459 392.022C263.469 392.056 263.487 392.088 263.511 392.116L272.442 402.594C272.522 402.687 272.613 402.698 272.713 402.627C300.194 383.576 330.277 369.481 362.962 360.344C363.015 360.329 363.06 360.295 363.09 360.25C363.119 360.205 363.131 360.151 363.122 360.099L357.132 324.719C357.122 324.664 357.09 324.615 357.043 324.583C356.996 324.551 356.938 324.537 356.88 324.545C349.342 325.759 341.803 326.946 334.264 328.106C333.175 328.276 332.004 328.265 330.751 328.072C326.032 327.354 322.303 324.743 320.031 320.634C319.321 319.352 318.624 316.555 317.94 312.242C316.707 304.489 315.426 296.83 314.096 289.267C313.804 287.624 313.925 285.866 314.347 284.184C315.677 278.856 318.275 274.135 322.142 270.021C330.128 261.528 341.29 255.568 352.568 251.488C367.354 246.141 382.783 243.334 398.856 243.067C407.015 242.932 414.875 243.636 422.437 245.177C431.257 246.969 440.339 250.394 446.717 256.286C450.059 259.374 452.959 263.676 453.698 268.205C455.008 276.221 456.365 284.217 457.769 292.191C458.295 295.165 458.447 297.383 458.226 298.844C457.578 303.189 454.673 307.222 450.501 309.168C449.077 309.833 447.162 310.348 444.757 310.714C438.29 311.697 431.98 312.685 425.825 313.677C425.64 313.709 425.563 313.812 425.593 313.985C427.513 325.782 429.609 338.108 431.881 350.965C432.316 353.415 432.509 354.978 432.459 355.652C432.305 357.736 431.221 359.272 429.207 360.258C427.873 360.913 427.014 361.38 426.629 361.659C397.047 383.129 375.675 410.292 362.514 443.147C346.648 482.752 344.869 526.615 354.569 568.369C364.188 609.775 385.256 649.009 415.29 680.053C444.782 710.533 481.877 732.506 523.587 743.321C570.106 755.389 618.655 753.284 665.214 741.76C669.144 740.787 672.993 739.75 676.759 738.648C681.493 737.261 685.679 737.526 689.293 740.85C692.173 743.499 693.53 747.84 692.062 751.487C691.553 752.752 690.821 754.053 689.866 755.389C666.948 787.483 638.929 813.51 605.809 833.471C570.31 854.861 531.811 868.44 490.311 874.208C467.447 877.384 444.658 878.049 421.945 876.202C373.476 872.258 329.026 858.1 288.595 833.726C250.398 810.703 217.816 779.139 195.059 741.64C171.749 703.228 159.599 661.634 158.607 616.857ZM187.073 524.375C163.728 581.742 163.894 645.015 187.274 702.16C204.196 743.533 233.321 780.541 269.778 808.112C307.25 836.445 349.727 854.602 397.208 862.583C467.936 874.468 542.609 860.502 602.834 822.8C634.349 803.071 660.448 778.434 681.131 748.89C681.409 748.492 681.309 748.362 680.829 748.5C624.802 764.595 565.135 767.63 509.585 750.292C465.9 736.654 427.277 711.145 398.223 677.321C369.579 643.978 350.903 605.807 342.195 562.809C334.154 523.108 336.531 480.685 350.935 442.728C364.803 406.183 388.104 376.173 420.839 352.699C420.874 352.675 420.9 352.641 420.916 352.602C420.932 352.563 420.937 352.52 420.929 352.477C418.953 340.623 416.927 328.68 414.853 316.65C414.305 313.48 414.426 310.902 416.19 308.176C418.14 305.165 421.02 303.715 424.674 303.161C430.949 302.213 437.57 301.176 444.536 300.048C446.466 299.735 447.632 298.256 447.295 296.291C445.847 287.786 444.39 279.113 442.922 270.271C441.842 263.777 433.474 259.447 427.644 257.515C421.767 255.568 415.555 254.364 409.008 253.902C392.614 252.745 376.198 254.838 359.76 260.179C352.637 262.491 346.067 265.499 340.049 269.202C333.35 273.326 326.625 279.16 325.042 286.796C324.961 287.181 324.956 287.581 325.027 287.995C326.531 296.949 328.031 305.881 329.525 314.79C329.867 316.823 331.405 317.921 333.556 317.589C339.821 316.613 346.579 315.525 353.83 314.328C355.977 313.974 357.701 313.915 359.001 314.149C364.419 315.122 367.369 318.948 368.183 324.016C369.889 334.698 371.748 345.688 373.762 356.987C374.144 359.138 374.193 360.906 373.908 362.291C373.043 366.448 369.943 369.377 365.746 370.548C334.459 379.283 305.599 392.811 279.166 411.13C274.211 414.565 267.712 413.727 263.842 409.136C261.098 405.886 258.272 402.583 255.364 399.226C253.414 396.977 252.243 394.505 252.379 391.542C252.519 388.408 253.861 385.819 256.404 383.777C259.299 381.448 262.383 378.986 265.657 376.391C265.714 376.345 265.751 376.279 265.759 376.208C265.766 376.136 265.744 376.066 265.697 376.011L248.162 355.421C248.134 355.387 248.099 355.359 248.06 355.339C248.02 355.319 247.977 355.306 247.932 355.302C247.887 355.298 247.841 355.303 247.798 355.316C247.755 355.329 247.714 355.35 247.679 355.377L191.154 400.392C191.128 400.412 191.107 400.437 191.092 400.465C191.076 400.493 191.067 400.525 191.064 400.557C191.061 400.589 191.065 400.622 191.075 400.653C191.086 400.684 191.102 400.713 191.124 400.739L208.644 421.276C208.791 421.449 208.957 421.467 209.142 421.329C211.5 419.543 213.881 417.653 216.283 415.659C218.498 413.819 220.336 412.67 221.797 412.214C226.139 410.861 230.994 412.099 233.889 415.572C236.73 418.983 239.601 422.342 242.503 425.65C244.091 427.465 245.111 429.005 245.564 430.27C246.532 432.971 246.395 435.642 245.151 438.282C244.669 439.31 243.734 440.52 242.347 441.914C217.871 466.493 199.447 493.98 187.073 524.375Z" fill="white" stroke="#00A3FF" stroke-width="5.8129"/>
<path d="M737.204 369.987C735.631 368.465 733.621 368.051 731.46 368.677C723.284 371.047 715.905 373.172 709.321 375.05C704.687 376.375 700.586 371.876 702.913 367.612C706.445 361.141 710.046 354.501 713.719 347.692C714.618 346.015 714.528 343.987 713.402 342.412C709.227 336.57 704.825 330.461 700.194 324.086C697.194 319.953 700.455 314.894 705.647 315.737C713.404 317 721.058 318.22 728.61 319.399C730.666 319.721 732.545 319.008 733.746 317.515C738.427 311.696 743.133 305.781 747.864 299.772C748.47 299.001 749.14 298.441 749.874 298.091C752.412 296.891 755.795 297.783 757.086 300.273C757.445 300.967 757.691 301.762 757.825 302.658C758.968 310.337 760.087 317.565 761.182 324.341C761.469 326.129 762.826 327.661 764.585 328.263C771.825 330.739 779.175 333.217 786.633 335.696C791.548 337.334 792.051 343.279 787.317 345.519C780.156 348.907 773.236 352.217 766.555 355.448C764.67 356.363 763.57 358.045 763.519 359.967C763.318 367.729 763.121 375.258 762.926 382.551C762.831 386.14 758.936 388.645 755.478 387.229C754.741 386.93 754.051 386.463 753.407 385.827C747.711 380.223 742.31 374.943 737.204 369.987ZM712.161 366.707C717.545 365.184 722.852 363.646 728.082 362.091C732.153 360.882 735.526 360.757 739.285 362.544C740.558 363.148 742.374 364.627 744.733 366.981C748.361 370.601 751.896 374.064 755.337 377.372C755.354 377.389 755.376 377.4 755.399 377.404C755.423 377.409 755.447 377.406 755.469 377.398C755.491 377.389 755.51 377.374 755.523 377.355C755.536 377.336 755.543 377.313 755.543 377.291C755.657 371.995 755.803 366.283 755.981 360.155C756.081 356.628 757.257 353.762 759.509 351.555C760.742 350.348 762.709 349.121 765.409 347.875C770.224 345.656 774.933 343.408 779.537 341.13C779.549 341.124 779.559 341.114 779.566 341.102C779.572 341.09 779.575 341.076 779.574 341.062C779.573 341.049 779.568 341.036 779.56 341.025C779.551 341.014 779.54 341.005 779.527 341C774.454 339.231 769.324 337.504 764.138 335.822C759.961 334.463 757.041 332.815 755.016 329.193C754.232 327.792 753.6 325.36 753.121 321.894C752.471 317.202 751.769 312.648 751.015 308.232C750.972 307.975 750.868 307.949 750.704 308.155C747.634 311.951 744.458 315.957 741.175 320.174C738.476 323.643 736.038 325.782 731.631 326.558C730.073 326.83 727.36 326.631 723.494 325.96C718.699 325.125 713.948 324.362 709.241 323.672C709.224 323.67 709.207 323.672 709.192 323.679C709.176 323.686 709.164 323.697 709.155 323.711C709.146 323.725 709.142 323.741 709.143 323.757C709.144 323.773 709.15 323.789 709.16 323.802C712.594 328.555 716.044 333.344 719.508 338.168C721.418 340.824 722.164 343.748 721.745 346.94C721.537 348.527 720.73 350.579 719.322 353.097C716.649 357.879 714.219 362.366 712.035 366.557C712.026 366.575 712.022 366.596 712.024 366.616C712.027 366.636 712.035 366.654 712.048 366.67C712.061 366.686 712.079 366.698 712.099 366.704C712.119 366.71 712.14 366.711 712.161 366.707Z" fill="white" stroke="#FD39A1" stroke-width="3.44414"/>
<path d="M490.497 347.193C496.317 347.193 501.036 342.67 501.036 337.091C501.036 331.511 496.317 326.988 490.497 326.988C484.676 326.988 479.958 331.511 479.958 337.091C479.958 342.67 484.676 347.193 490.497 347.193Z" fill="white" stroke="#00A3FF" stroke-width="3.44414"/>
<path d="M541.957 356.095C547.777 356.095 552.496 351.572 552.496 345.993C552.496 340.414 547.777 335.891 541.957 335.891C536.136 335.891 531.417 340.414 531.417 345.993C531.417 351.572 536.136 356.095 541.957 356.095Z" fill="white" stroke="#00A3FF" stroke-width="3.44414"/>
<path d="M591.255 371.126C597.076 371.126 601.794 366.604 601.794 361.024C601.794 355.445 597.076 350.922 591.255 350.922C585.434 350.922 580.716 355.445 580.716 361.024C580.716 366.604 585.434 371.126 591.255 371.126Z" fill="white" stroke="#00A3FF" stroke-width="3.44414"/>
<path d="M605.95 401.08L641.538 360.406C642.168 359.686 642.94 359.092 643.81 358.66C644.681 358.227 645.632 357.963 646.608 357.884C647.585 357.806 648.569 357.913 649.502 358.2C650.436 358.488 651.301 358.949 652.047 359.558L658.882 365.137C660.375 366.355 661.306 368.089 661.47 369.962C661.635 371.834 661.021 373.693 659.762 375.133L624.164 415.812C623.534 416.532 622.761 417.125 621.891 417.558C621.021 417.99 620.07 418.253 619.093 418.332C618.116 418.41 617.132 418.302 616.199 418.015C615.266 417.727 614.401 417.265 613.655 416.655L606.825 411.072C605.334 409.854 604.406 408.12 604.242 406.249C604.078 404.377 604.692 402.52 605.95 401.08Z" fill="white" stroke="#00A3FF" stroke-width="3.44414"/>
<path d="M297.665 469.004C290.98 468.825 284.672 465.141 280.127 458.762C275.583 452.384 273.174 443.833 273.432 434.991C273.689 426.149 276.592 417.74 281.501 411.615C286.41 405.489 292.923 402.148 299.608 402.327C306.293 402.506 312.601 406.19 317.146 412.569C321.69 418.948 324.099 427.499 323.841 436.341C323.584 445.182 320.681 453.591 315.772 459.717C310.863 465.842 304.35 469.183 297.665 469.004ZM297.971 458.333C299.827 458.382 301.683 457.845 303.431 456.752C305.18 455.658 306.787 454.03 308.161 451.96C309.535 449.89 310.649 447.418 311.44 444.687C312.23 441.955 312.682 439.017 312.769 436.039C312.944 430.026 311.622 424.22 309.095 419.897C306.568 415.574 303.042 413.089 299.292 412.989C297.436 412.939 295.58 413.476 293.832 414.57C292.083 415.663 290.476 417.292 289.102 419.362C287.728 421.432 286.614 423.903 285.823 426.635C285.033 429.367 284.581 432.305 284.494 435.282C284.319 441.295 285.641 447.102 288.168 451.425C290.695 455.747 294.221 458.232 297.971 458.333Z" fill="white" stroke="#00A3FF" stroke-width="3.44414"/>
<path d="M672.05 430.837C677.87 430.837 682.589 426.314 682.589 420.735C682.589 415.156 677.87 410.633 672.05 410.633C666.229 410.633 661.511 415.156 661.511 420.735C661.511 426.314 666.229 430.837 672.05 430.837Z" fill="white" stroke="#00A3FF" stroke-width="3.44414"/>
<path d="M501.665 476.681C508.248 476.686 514.913 476.026 519.712 481.422C525.718 488.181 522.416 499.3 513.345 501.641C511.632 502.084 509.411 502.293 506.68 502.267C496.696 502.174 486.845 502.179 477.129 502.282C473.034 502.323 470.066 502.054 468.223 501.472C464.162 500.191 461.242 497.678 459.463 493.933C456.905 488.561 458.829 482.858 461.91 478.011C462.929 476.412 464.646 474.456 467.062 472.143C472.017 467.397 476.542 463.295 480.637 459.84C485.014 456.149 491.125 453.268 492.879 447.82C493.583 445.638 492.362 443.903 489.949 443.831C487.944 443.768 486.678 444.872 486.069 446.64C483.994 452.657 480.958 458.216 473.61 459.131C471.104 459.446 468.801 459.189 466.7 458.361C458.392 455.089 457.096 446.779 459.563 439.336C463.358 427.914 473.661 421.039 485.894 419.98C493.864 419.286 503.127 420.297 509.852 424.855C520.999 432.409 524.557 446.124 518.863 458.004C517.496 460.853 515.47 463.772 512.787 466.762C509.656 470.245 505.348 473.304 501.544 476.364C501.283 476.572 501.323 476.678 501.665 476.681ZM482.803 484.047C482.755 484.047 482.709 484.035 482.669 484.011C482.629 483.987 482.596 483.953 482.575 483.913C482.554 483.872 482.545 483.827 482.548 483.782C482.552 483.737 482.569 483.694 482.597 483.657C484.808 480.789 487.348 478.183 490.216 475.838C493.851 472.871 497.473 469.982 501.082 467.172C505.761 463.53 509.218 460.056 511.681 455.33C515.274 448.422 514.42 440.179 509.233 434.191C503.479 427.553 493.578 426.358 484.873 427.548C475.56 428.824 468.208 434.625 466.363 443.749C465.464 448.186 467.147 452.31 472.585 451.833C476.51 451.491 477.963 446.712 478.988 443.788C480.631 439.129 485.165 436.354 490.211 436.475C493.417 436.552 496.644 437.939 498.554 440.391C504.615 448.157 497.141 457.421 490.05 462.147C488.83 462.96 487.698 463.795 486.652 464.652C481.345 468.994 476.009 473.846 470.645 479.206C468.801 481.046 467.725 482.877 466.73 485.208C465.51 488.067 465.733 490.46 467.399 492.387C468.896 494.126 471.007 494.843 473.274 494.848C485.53 494.871 497.49 494.871 509.153 494.848C511.341 494.845 512.966 494.11 514.028 492.642C515.536 490.57 515.465 487.338 513.365 485.734C511.911 484.622 510.297 484.064 508.525 484.057C500.095 484.025 491.521 484.022 482.803 484.047Z" fill="white" stroke="#00A3FF" stroke-width="3.44414"/>
<path d="M704.391 468.453C710.208 468.453 714.925 463.932 714.925 458.355C714.925 452.779 710.208 448.258 704.391 448.258C698.573 448.258 693.856 452.779 693.856 458.355C693.856 463.932 698.573 468.453 704.391 468.453Z" fill="white" stroke="#00A3FF" stroke-width="3.44414"/>
<path d="M539.785 489.989C545.464 478.914 555.938 473.292 568.699 473.846C585.621 474.583 596.069 486.94 598.492 502.255C599.939 511.398 599.952 520.59 598.532 529.83C596.587 542.471 588.018 553.383 574.9 556.524C566.12 558.624 556.627 556.953 549.349 551.677C540.197 545.039 536.357 534.97 535.473 524.092C534.893 516.998 535.078 509.985 536.026 503.054C536.743 497.839 537.996 493.484 539.785 489.989ZM563.246 481.433C550.917 483.081 545.308 492.466 543.735 503.387C542.636 511.008 542.522 518.501 543.394 525.865C543.652 528.059 544.149 530.378 544.886 532.822C547.661 542.004 555.189 549.081 565.321 549.934C579.755 551.152 589.304 540.684 591.084 527.783C592.069 520.662 592.136 513.37 591.285 505.906C590.159 496.064 585.475 485.663 574.921 482.354C571.218 481.194 567.327 480.888 563.246 481.433Z" fill="white" stroke="#00A3FF" stroke-width="3.44414"/>
<path d="M273.831 559.761C270.035 559.665 266.303 558.574 262.848 556.548C259.394 554.522 256.285 551.602 253.698 547.953C251.111 544.305 249.098 540.001 247.773 535.286C246.448 530.571 245.837 525.538 245.976 520.475C246.114 515.411 246.999 510.415 248.579 505.773C250.16 501.131 252.406 496.934 255.188 493.421C257.97 489.907 261.234 487.147 264.795 485.297C268.355 483.447 272.141 482.544 275.938 482.64C279.734 482.735 283.466 483.827 286.92 485.853C290.375 487.878 293.484 490.799 296.071 494.447C298.657 498.095 300.671 502.399 301.996 507.114C303.321 511.829 303.931 516.862 303.793 521.926C303.655 526.99 302.77 531.985 301.189 536.627C299.609 541.269 297.363 545.466 294.581 548.98C291.799 552.493 288.534 555.253 284.974 557.103C281.414 558.953 277.627 559.856 273.831 559.761ZM274.122 549.098C278.853 549.217 283.469 546.392 286.957 541.244C290.445 536.096 292.518 529.047 292.72 521.648C292.922 514.249 291.237 507.106 288.035 501.79C284.833 496.474 280.377 493.421 275.646 493.302C270.916 493.183 266.299 496.009 262.812 501.157C259.324 506.305 257.251 513.353 257.049 520.752C256.847 528.152 258.532 535.295 261.734 540.611C264.936 545.926 269.392 548.98 274.122 549.098Z" fill="white" stroke="#00A3FF" stroke-width="3.44414"/>
<path d="M568.563 540.649C559.803 541.444 557.381 533.582 556.622 526.837C555.751 519.12 555.761 511.5 556.652 503.978C557.265 498.78 558.858 492.098 564.884 490.759C567.022 490.284 569.086 490.417 571.076 491.159C575.831 492.932 577.544 499.064 578.082 503.545C578.809 509.643 578.948 516.198 578.499 523.21C578.112 529.217 576.886 539.897 568.563 540.649ZM570.805 522.882C571.262 515.776 571.403 508.295 569.875 501.483C569.62 500.346 569.17 499.268 568.523 498.25C568.472 498.169 568.405 498.099 568.324 498.044C568.244 497.988 568.153 497.949 568.056 497.927C567.463 497.792 566.912 497.829 566.402 498.038C566.225 498.109 566.096 498.228 566.015 498.395C565.392 499.682 564.951 501.041 564.693 502.47C563.417 509.6 563.447 517.332 564.09 524.587C564.327 527.304 564.809 530.686 566.297 532.951C566.394 533.102 566.53 533.203 566.704 533.254C567.696 533.566 568.411 533.256 568.85 532.324C570.222 529.395 570.599 526.081 570.805 522.882Z" fill="white" stroke="#00A3FF" stroke-width="3.44414"/>
<path d="M728.84 517.021C734.661 517.021 739.38 512.498 739.38 506.919C739.38 501.339 734.661 496.816 728.84 496.816C723.02 496.816 718.301 501.339 718.301 506.919C718.301 512.498 723.02 517.021 728.84 517.021Z" fill="white" stroke="#00A3FF" stroke-width="3.44414"/>
<path d="M507.308 622.604C512.793 622.594 518.507 622.594 524.451 622.604C525.925 622.607 527.4 622.718 528.874 622.936C537.026 624.155 543.042 629.922 542.831 638.092C542.665 644.543 538.342 650.203 531.894 651.928C530.058 652.419 528.06 652.663 525.899 652.66C509.082 652.651 492.594 652.647 476.434 652.651C469.66 652.651 463.518 649.635 460.281 643.796C456.432 636.844 458.985 629.512 462.92 623.187C464.076 621.327 465.875 619.199 468.318 616.804C472.982 612.227 477.905 607.617 483.089 602.973C487.22 599.27 490.443 596.617 492.758 595.014C497.93 591.435 503.051 587.513 505.891 582.214C507.06 580.03 507.499 577.894 507.208 575.807C506.851 573.229 504.715 571.047 502.076 570.426C497.075 569.24 492.984 571.461 491.442 575.985C488.547 584.478 484.395 592.143 473.56 591.888C471.469 591.839 469.534 591.433 467.755 590.669C458.221 586.579 457.216 576.765 459.874 568.209C464.468 553.444 477.394 544.392 493.055 542.585C500.639 541.713 509.323 542.152 516.626 544.435C526.781 547.605 534 553.918 538.282 563.373C542.413 572.492 542.001 583.327 537.568 592.071C534.67 597.781 530.7 602.907 525.657 607.448C524.28 608.688 521.727 610.771 517.998 613.696C514.111 616.741 510.509 619.612 507.192 622.31C506.948 622.509 506.986 622.607 507.308 622.604ZM489.366 629.71C492.613 624.95 497.246 620.73 501.8 617.054C507.04 612.824 512.548 608.426 518.325 603.859C522.117 600.856 525.553 597.049 528.633 592.437C536.764 580.258 534.568 563.883 522.049 555.135C517.49 551.95 511.902 550.467 506.273 549.874C501.733 549.402 497.384 549.442 493.226 549.995C479.993 551.753 469.393 559.822 466.694 572.531C465.423 578.504 466.951 584.599 474.635 584.517C482.536 584.43 482.898 574.034 486.35 569.356C490.281 564.038 496.347 561.841 502.895 563.04C505.311 563.484 507.419 564.375 509.218 565.714C515.289 570.228 516.344 577.416 513.445 584.059C510.806 590.095 505.74 594.947 500.166 598.911C496.957 601.195 495.017 602.616 494.346 603.175C487.195 609.149 480.51 615.392 473.7 622.064C471.677 624.046 470.212 625.785 469.308 627.282C467.001 631.097 464.634 636.223 467.142 640.448C469.048 643.66 472.151 645.269 476.45 645.275C493.129 645.304 509.831 645.309 526.557 645.289C530.862 645.286 533.618 643.497 534.824 639.923C535.814 636.999 534.709 633.357 531.859 631.709C529.916 630.585 527.847 630.02 525.652 630.013C514.284 629.975 502.244 629.97 489.532 629.999C489.497 629.999 489.462 629.99 489.432 629.973C489.401 629.956 489.376 629.931 489.359 629.901C489.342 629.872 489.334 629.838 489.335 629.805C489.336 629.771 489.347 629.738 489.366 629.71Z" fill="white" stroke="#00A3FF" stroke-width="3.44414"/>
<path d="M768.474 543.169L713.972 550.047C709.886 550.562 707.009 554.156 707.547 558.073L708.728 566.671C709.266 570.588 713.015 573.345 717.101 572.83L771.603 565.952C775.69 565.436 778.567 561.842 778.029 557.925L776.848 549.328C776.31 545.411 772.561 542.653 768.474 543.169Z" fill="white" stroke="#00A3FF" stroke-width="3.44414"/>
<path d="M375.42 781.687C379.577 766.671 398.816 761.073 412.858 760.076C427.965 759 442.822 761.197 457.427 766.666C472.263 772.221 493.593 785.696 490.311 803.862C490.153 804.736 490.281 805.539 490.693 806.271C490.776 806.419 490.905 806.494 491.08 806.497C515.361 806.729 539.413 804.121 563.235 798.674C565.065 798.256 566.626 798.123 567.919 798.274C576.72 799.305 581.067 809.716 574.393 815.819C573.833 816.33 572.086 817.481 569.151 819.273C502.262 860.058 416.838 870.132 342.582 841.627C301.4 825.819 266.727 801.593 238.562 768.95C226.068 754.473 214.745 737.516 206.061 719.657C187.11 680.671 178.995 639.801 181.715 597.047C182.208 589.307 183.32 580.521 185.053 570.69C185.485 568.227 186.096 566.469 186.887 565.415C190.626 560.424 198.15 561.041 201.497 565.907C202.097 566.78 202.537 567.954 202.819 569.428C211.641 615.757 230.788 657.537 260.259 694.77C263.898 699.371 263.028 705.629 258.791 709.593C252.052 715.895 248.634 723.959 249.74 732.978C251.574 747.984 265.626 759.642 279.272 765.212C296.721 772.327 316.905 773.527 334.274 765.973C337.817 764.431 341.682 764.908 345.014 766.816C354.587 772.295 364.605 777.305 375.069 781.846C375.25 781.927 375.367 781.874 375.42 781.687ZM194.215 582.85C188.304 625.528 195.16 670.027 213.217 709.295C230.03 745.844 255.275 776.337 288.951 800.774C323.242 825.666 364.695 841.969 407.49 846.141C462.588 851.512 518.425 838.177 564.899 809.398C565.334 809.128 565.299 809.048 564.793 809.157C540.875 814.403 516.762 817.154 491.944 817.062C488.134 817.053 485.33 816.436 482.948 813.859C479.989 810.657 478.82 806.84 479.44 802.407C479.614 801.139 479.644 799.975 479.53 798.915C478.902 793.134 473.173 787.627 468.277 784.221C463.821 781.122 458.965 778.574 453.708 776.576C441.056 771.771 428.079 769.746 414.778 770.501C405.716 771.017 391.292 773.878 386.744 782.497C386.055 783.797 385.975 785.238 385.442 786.548C383.447 791.414 378.024 794.55 372.797 792.363C361.626 787.693 350.425 782.155 339.194 775.747C339.073 775.679 338.937 775.639 338.797 775.632C338.657 775.624 338.517 775.649 338.39 775.704C319.951 783.778 298.46 783.186 279.417 776.595C270.17 773.396 262.035 768.735 255.012 762.61C245.714 754.497 238.899 743.046 238.552 730.882C238.246 719.994 242.814 709.516 251.318 701.91C251.445 701.796 251.523 701.641 251.538 701.475C251.553 701.309 251.503 701.143 251.398 701.009C223.508 665.722 204.508 626.334 194.396 582.845C194.319 582.521 194.258 582.522 194.215 582.85Z" fill="white" stroke="#00A3FF" stroke-width="3.44414"/>
<path d="M745.271 617.335C751.094 617.335 755.815 612.81 755.815 607.228C755.815 601.646 751.094 597.121 745.271 597.121C739.447 597.121 734.727 601.646 734.727 607.228C734.727 612.81 739.447 617.335 745.271 617.335Z" fill="white" stroke="#00A3FF" stroke-width="3.44414"/>
<path d="M603.096 674.841C605.109 674.786 607.138 674.792 609.182 674.86C616.344 675.086 622.576 679.562 622.917 686.783C623.078 690.139 622.066 693.075 619.882 695.589C616.997 698.909 612.991 700.026 608.508 700.007C597.636 699.972 586.613 699.965 575.439 699.988C569.604 700.002 564.457 697.42 561.844 692.405C558.698 686.369 561.261 679.504 565.296 674.407C566.275 673.177 568.077 671.321 570.704 668.838C573.971 665.755 577.337 662.705 580.801 659.689C583.108 657.676 585.666 655.956 588.099 654.13C590.471 652.348 593.531 649.327 593.783 646.446C593.92 644.895 593.165 644.002 591.516 643.768C589.476 643.479 588.214 644.649 587.636 646.427C585.721 652.299 582.218 657.921 575.222 658.5C566.151 659.246 559.843 652.853 560.632 644.283C561.152 638.615 563.412 633.616 567.412 629.286C575.564 620.465 588.993 618.625 600.412 620.923C608.106 622.469 614.575 626.781 618.354 633.371C622.797 641.123 622.958 650.358 618.766 658.052C616.454 662.294 613.568 665.888 610.107 668.833C607.714 670.869 605.342 672.78 602.99 674.566C602.964 674.586 602.944 674.614 602.935 674.645C602.926 674.676 602.928 674.709 602.939 674.74C602.951 674.77 602.972 674.796 603 674.814C603.029 674.832 603.062 674.842 603.096 674.841ZM584.128 681.845C586.445 678.458 589.832 675.496 593.22 672.793C596.704 670.009 599.968 667.414 603.01 665.008C606.79 662.026 609.418 659.068 611.71 655.094C616.173 647.347 614.318 637.996 607.574 632.153C601.08 626.521 587.867 626.145 580.143 629.455C573.921 632.121 570.078 636.549 568.613 642.742C567.633 646.904 568.573 651.394 574.142 651.211C578.092 651.081 579.524 646.547 580.53 643.638C582.078 639.186 586.199 636.344 591.079 636.382C596.014 636.416 600.14 639.273 601.261 643.946C602.884 650.739 596.783 657.228 591.571 660.918C589.129 662.646 587.573 663.797 586.902 664.372C580.546 669.806 575.516 674.479 571.81 678.391C570.5 679.775 569.386 681.766 568.468 684.365C566.834 688.98 570.458 692.622 575.258 692.612C585.52 692.593 596.552 692.604 608.353 692.646C610.249 692.652 611.641 692.423 612.529 691.957C614.516 690.926 615.411 689.192 615.213 686.754C614.951 683.498 611.408 682.216 608.413 682.206C600.077 682.187 592.049 682.184 584.329 682.197C584.034 682.2 583.967 682.083 584.128 681.845Z" fill="white" stroke="#00A3FF" stroke-width="3.44414"/>
<path d="M738.284 666.173C744.105 666.173 748.823 661.65 748.823 656.071C748.823 650.492 744.105 645.969 738.284 645.969C732.464 645.969 727.745 650.492 727.745 656.071C727.745 661.65 732.464 666.173 738.284 666.173Z" fill="white" stroke="#00A3FF" stroke-width="3.44414"/>
<path d="M718.789 714.498C724.61 714.498 729.328 709.975 729.328 704.395C729.328 698.816 724.61 694.293 718.789 694.293C712.969 694.293 708.25 698.816 708.25 704.395C708.25 709.975 712.969 714.498 718.789 714.498Z" fill="white" stroke="#00A3FF" stroke-width="3.44414"/>
<path d="M355.703 738.703C354.879 742.764 352.909 746.569 349.904 749.902C346.898 753.235 342.917 756.03 338.188 758.129C333.458 760.227 328.073 761.587 322.339 762.131C316.605 762.675 310.635 762.393 304.77 761.3C292.925 759.093 282.225 753.719 275.025 746.36C267.825 739.001 264.714 730.26 266.377 722.06C267.2 718 269.171 714.195 272.176 710.862C275.181 707.529 279.162 704.733 283.892 702.635C288.621 700.537 294.007 699.177 299.741 698.633C305.474 698.088 311.444 698.371 317.31 699.464C329.155 701.671 339.855 707.045 347.055 714.404C354.255 721.763 357.365 730.503 355.703 738.703ZM344.79 736.669C345.893 731.228 343.396 725.348 337.848 720.322C332.3 715.295 324.155 711.535 315.205 709.867C310.773 709.042 306.278 708.755 301.975 709.023C297.671 709.291 293.645 710.109 290.125 711.43C286.605 712.751 283.661 714.549 281.461 716.722C279.26 718.895 277.846 721.4 277.3 724.094C276.197 729.535 278.694 735.415 284.242 740.442C289.79 745.468 297.935 749.229 306.885 750.896C311.316 751.722 315.812 752.009 320.115 751.741C324.418 751.473 328.445 750.655 331.965 749.334C335.484 748.012 338.429 746.214 340.629 744.041C342.83 741.868 344.244 739.363 344.79 736.669Z" fill="white" stroke="#00A3FF" stroke-width="3.44414"/>
<defs>
<filter id="filter0_f_41_260" x="0.161545" y="123.344" width="948.89" height="948.891" filterUnits="userSpaceOnUse" color-interpolation-filters="sRGB">
<feFlood flood-opacity="0" result="BackgroundImageFix"/>
<feBlend mode="normal" in="SourceGraphic" in2="BackgroundImageFix" result="shape"/>
<feGaussianBlur stdDeviation="86.1036" result="effect1_foregroundBlur_41_260"/>
</filter>
<filter id="filter1_f_41_260" x="227.766" y="41.1288" width="495.095" height="495.094" filterUnits="userSpaceOnUse" color-interpolation-filters="sRGB">
<feFlood flood-opacity="0" result="BackgroundImageFix"/>
<feBlend mode="normal" in="SourceGraphic" in2="BackgroundImageFix" result="shape"/>
<feGaussianBlur stdDeviation="86.1036" result="effect1_foregroundBlur_41_260"/>
</filter>
<filter id="filter2_f_41_260" x="236.13" y="0.613205" width="590.016" height="590.016" filterUnits="userSpaceOnUse" color-interpolation-filters="sRGB">
<feFlood flood-opacity="0" result="BackgroundImageFix"/>
<feBlend mode="normal" in="SourceGraphic" in2="BackgroundImageFix" result="shape"/>
<feGaussianBlur stdDeviation="86.1036" result="effect1_foregroundBlur_41_260"/>
</filter>
<filter id="filter3_f_41_260" x="427.073" y="50.6991" width="495.095" height="495.094" filterUnits="userSpaceOnUse" color-interpolation-filters="sRGB">
<feFlood flood-opacity="0" result="BackgroundImageFix"/>
<feBlend mode="normal" in="SourceGraphic" in2="BackgroundImageFix" result="shape"/>
<feGaussianBlur stdDeviation="86.1036" result="effect1_foregroundBlur_41_260"/>
</filter>
<filter id="filter4_f_41_260" x="227.766" y="123.344" width="495.095" height="495.094" filterUnits="userSpaceOnUse" color-interpolation-filters="sRGB">
<feFlood flood-opacity="0" result="BackgroundImageFix"/>
<feBlend mode="normal" in="SourceGraphic" in2="BackgroundImageFix" result="shape"/>
<feGaussianBlur stdDeviation="86.1036" result="effect1_foregroundBlur_41_260"/>
</filter>
<filter id="filter5_f_41_260" x="196.007" y="401.766" width="557.198" height="557.199" filterUnits="userSpaceOnUse" color-interpolation-filters="sRGB">
<feFlood flood-opacity="0" result="BackgroundImageFix"/>
<feBlend mode="normal" in="SourceGraphic" in2="BackgroundImageFix" result="shape"/>
<feGaussianBlur stdDeviation="86.1036" result="effect1_foregroundBlur_41_260"/>
</filter>
</defs>
</svg>
