<svg width="441" height="469" viewBox="0 0 441 469" fill="none" xmlns="http://www.w3.org/2000/svg">
<path d="M117.468 78.2022C117.269 78.2022 117.005 78.2674 116.807 78.2674C113.041 78.7242 109.209 79.5073 105.442 80.6166C96.787 83.0311 88.7263 86.8159 82.7798 91.3186C76.7673 95.8212 73.1994 100.715 72.6048 105.283C72.2744 106.197 72.2744 107.241 72.5387 108.285L77.1637 124.795C77.9566 127.601 80.7977 129.232 83.6388 128.449L99.8263 123.946L107.557 151.55C86.6781 159.707 67.9137 171.583 52.2547 186.2L41.3528 175.694L48.6868 168.19C50.0082 166.819 50.0082 164.666 48.6207 163.361L36.6617 151.745C35.8028 150.897 34.6135 150.636 33.5564 150.832C32.8957 150.962 32.301 151.289 31.7724 151.811L0.982957 183.329C-0.338479 184.699 -0.338454 186.853 1.04905 188.158L13.008 199.774C14.3955 201.079 16.5098 201.079 17.8313 199.708L25.1652 192.204L36.3974 203.102C10.4973 234.946 -2.98134 275.731 1.77583 318.539C11.6205 406.634 95.3995 469.932 188.825 459.752C252.386 452.835 304.054 413.682 327.51 361.673C149.711 443.895 37.9171 235.077 140.593 142.871L141.319 142.675L141.187 142.283C141.253 142.218 141.253 142.218 141.319 142.153C141.253 142.153 141.253 142.153 141.187 142.153L133.457 114.615L148.918 110.308C151.693 109.525 153.344 106.654 152.552 103.913L148.059 87.9905C148.059 87.9253 148.059 87.9253 147.993 87.86L147.861 87.338C147.662 86.5549 147.266 85.9023 146.803 85.3803C144.821 82.3785 140.989 80.1598 135.835 78.92C130.748 77.6149 124.339 77.3538 117.468 78.2022ZM109.01 82.9006C109.142 82.9006 109.209 82.9006 109.341 82.9006C99.3638 86.8159 81.9209 99.5408 79.4102 105.61C77.3619 110.569 78.1548 117.29 78.1548 117.29C78.1548 117.29 76.4369 111.483 76.1066 106.066C75.5119 97.1263 104.98 83.0963 109.01 82.9006ZM68.6405 182.938C75.1816 182.416 81.0619 189.724 81.9209 199.251C82.7137 208.844 78.0887 217.066 71.5476 217.588C65.0065 218.11 59.06 210.736 58.2672 201.209C57.4743 191.617 62.0994 183.46 68.6405 182.938ZM60.0511 234.033C67.7815 233.38 74.8512 242.124 75.8423 253.479C76.7673 264.833 71.2833 274.557 63.5529 275.144C55.8225 275.796 48.7529 267.117 47.8279 255.763C46.8368 244.343 52.3207 234.62 60.0511 234.033ZM16.0474 279.451C23.7117 312.47 40.8903 343.271 65.0065 367.22C60.9101 370.939 58.069 375.833 57.6065 381.511C57.0118 389.341 61.1744 396.324 67.253 401.218C73.3316 406.047 81.5245 409.179 90.6424 409.897C99.7603 410.615 108.284 408.853 115.023 405.003C115.816 404.546 116.542 404.089 117.269 403.632C125.793 407.613 134.646 410.876 143.698 413.486C143.235 412.246 143.037 411.006 143.103 409.701C143.83 400.435 158.696 394.04 176.271 395.41C193.846 396.781 207.589 405.459 206.863 414.661C206.73 416.683 205.871 418.576 204.484 420.207C227.477 418.772 250.14 413.029 271.018 403.241C240.824 435.151 195.763 452.509 151.759 449.181C112.975 446.179 75.6441 427.19 50.3386 397.694C24.967 368.199 11.9509 328.654 14.858 289.957C15.1223 286.433 15.5188 282.909 16.0474 279.451ZM91.8977 365.131C94.2102 364.805 96.5888 364.74 99.0995 364.936C112.314 365.98 122.489 374.072 121.828 383.012C121.168 391.952 109.869 398.412 96.5888 397.368C83.3745 396.324 73.1994 388.232 73.8601 379.292C74.4548 372.049 81.987 366.437 91.8977 365.131Z" fill="#C69C6D"/>
<path d="M244.331 45.1078C241.981 46.9356 239.565 48.5023 236.758 50.0037C233.886 51.5704 230.752 53.1371 227.553 54.7691C221.156 58.0983 214.04 61.9497 208.034 68.0207C201.963 74.0264 198.111 82.5779 197.785 90.6072C197.263 98.7671 199.482 106.47 203.007 113.259C206.663 119.983 211.494 125.988 217.565 130.558C211.886 117.437 209.209 103.859 212.212 92.892C213.714 87.4085 216.521 83.1001 220.764 79.5751C225.007 75.9847 230.687 72.9819 236.954 69.7832C249.096 63.7776 266.527 53.6593 268.42 34.9895C268.746 30.42 267.636 25.5894 265.221 21.6726C262.871 17.7559 259.672 14.7531 256.473 12.4683C250.01 7.83348 243.678 4.89592 237.933 0C240.218 6.98485 246.094 12.7294 249.945 18.1476C254.123 23.631 255.494 28.5269 253.993 32.8353C252.687 37.1437 248.966 41.5174 244.331 45.1078Z" fill="#C69C6D"/>
<path d="M179.57 113.129C175.065 104.447 172.389 95.4386 172.976 87.0176C173.564 78.5314 177.938 71.2854 185.054 66.4548C192.365 61.4936 201.896 57.1199 209.339 50.135C213.06 46.6752 216.585 42.3668 217.564 37.0139C218.413 31.5305 215.54 26.4388 211.819 23.1748C213.974 27.6138 214.822 32.1833 213.125 35.9042C211.493 39.6251 208.098 42.4974 204.442 45.1085C196.87 50.3309 188.122 53.9212 179.244 59.6005C174.87 62.7339 171.083 66.8465 168.668 71.6118C166.383 76.4425 165.208 81.7301 165.73 86.8871C166.514 97.1359 171.997 106.536 179.57 113.129Z" fill="#C69C6D"/>
<path d="M245.374 84.9931C241.914 88.2571 239.172 92.3043 237.802 96.8086C236.496 101.248 236.169 105.948 237.083 110.321C238.715 119.134 243.677 127.033 250.401 132.647C246.745 125.009 244.395 117.306 244.264 109.93C244.134 102.553 246.81 95.96 252.033 91.1946C257.256 86.4292 265.155 82.9042 272.336 77.943C275.926 75.4624 279.451 72.4595 281.867 68.6734C284.282 64.8872 285.196 60.3177 284.348 56.2051C282.063 64.4302 275.6 68.8039 268.288 72.329C261.042 75.854 252.621 78.5305 245.374 84.9931Z" fill="#C69C6D"/>
<path d="M403.637 254.75H341.747C321.201 181.524 253.387 130.77 175.236 130.77C80.006 130.77 2.54883 206.543 2.54883 299.626C2.54883 392.709 80.006 468.482 175.236 468.482C259.5 468.482 331.852 408.19 345.592 327.387H403.637C424.12 327.387 440.759 311.122 440.759 291.069C440.759 271.08 424.12 254.75 403.637 254.75ZM403.637 316.348H335.823L335.13 321.117C324.289 398.849 255.53 457.443 175.236 457.443C86.2455 457.443 13.8302 386.634 13.8302 299.626C13.8302 212.617 86.2455 141.809 175.236 141.809C249.731 141.809 314.142 191.127 331.978 261.739L333.176 266.377L338.029 265.92C338.911 265.855 339.793 265.789 340.676 265.789H403.637C417.881 265.789 429.54 277.155 429.54 291.069C429.477 305.047 417.881 316.348 403.637 316.348Z" fill="#C69C6D"/>
<path d="M235.218 237.456C233.917 238.989 232.703 240.566 231.313 241.838C225.014 247.539 221.996 254.97 221.779 264.219C221.664 267.536 221.331 270.853 220.648 273.997C219.366 279.675 215.983 283.661 211.721 286.56C210.895 287.131 209.454 286.964 208.536 286.401C204.247 283.629 202.348 278.883 202.714 273.297C203.596 257.195 210.169 244.992 221.997 236.909C226.476 234.008 231.277 234.421 235.218 237.456Z" fill="#C69C6D"/>
<path d="M213.87 289.474C215.912 287.763 217.215 286.666 218.562 285.482C223.557 280.877 225.971 274.889 225.412 267.432C224.612 255.177 230.332 247.122 237.846 240.281C238.411 239.798 240.071 240.183 240.728 240.834C244.631 245.047 245.532 250.932 244.863 256.912C243.271 270.706 237.301 281.248 226.864 288.06C223.08 290.434 219.07 291.282 213.87 289.474Z" fill="#C69C6D"/>
<path d="M139.627 265.003C139.677 264.46 139.887 263.657 140.257 262.596C140.65 261.471 140.963 260.775 141.197 260.506C141.431 260.238 142.352 259.403 143.962 258.003C145.634 256.625 147.635 254.906 149.966 252.847C152.38 250.747 154.944 248.419 157.658 245.863C160.372 243.307 162.919 240.728 165.299 238.125C167.741 235.544 169.805 233.042 171.492 230.618C173.179 228.194 174.161 226.084 174.437 224.289C174.797 222.453 174.231 221.064 172.738 220.123C171.267 219.119 168.594 218.747 164.72 219.006C162.981 219.17 161.552 219.652 160.432 220.452C159.334 221.19 158.296 222.054 157.32 223.044C156.406 224.056 155.43 225.047 154.391 226.016C153.415 227.006 152.17 227.763 150.656 228.285C149.55 226.638 149.122 225.052 149.374 223.529C149.688 222.027 150.285 220.518 151.164 219.004C152.105 217.511 153.089 215.997 154.114 214.463C155.225 212.889 156.011 211.237 156.475 209.507C156.796 208.989 157.219 208.681 157.743 208.583C158.268 208.486 158.791 208.494 159.312 208.605C159.896 208.739 160.416 208.956 160.872 209.255C161.412 209.514 161.828 209.729 162.118 209.9C161.938 210.818 162.179 211.533 162.841 212.044C163.503 212.556 164.397 213.008 165.521 213.4C166.645 213.792 167.905 214.197 169.301 214.614C170.718 214.969 172.082 215.48 173.39 216.147C174.783 216.773 176.068 217.607 177.246 218.649C178.424 219.69 179.315 221.052 179.919 222.734C178.902 226.653 177.228 230.343 174.899 233.804C172.633 237.287 170.044 240.587 167.134 243.706C164.287 246.845 161.285 249.826 158.128 252.648C154.971 255.47 152.056 258.201 149.383 260.841L148.859 262.34C153.082 264.094 157.174 265.417 161.136 266.31C165.183 267.162 169.192 267.72 173.163 267.985C177.197 268.272 181.254 268.392 185.334 268.345C189.436 268.235 193.716 268.117 198.174 267.992C198.321 267.973 198.55 268.018 198.862 268.127C199.237 268.258 199.476 268.376 199.579 268.482C199.893 269.993 199.238 271.166 197.615 272.001C196.055 272.858 193.881 273.465 191.094 273.823C188.328 274.119 185.116 274.189 181.457 274.033C177.86 273.899 174.14 273.616 170.297 273.186C166.454 272.755 162.685 272.21 158.991 271.552C155.32 270.83 152.035 270.104 149.137 269.373C146.239 268.642 143.907 267.898 142.139 267.141C140.393 266.321 139.556 265.609 139.627 265.003Z" fill="white"/>
<path d="M241.006 299.442C243.175 291.021 245.341 282.808 247.503 274.805C249.688 266.739 251.916 258.549 254.188 250.233C254.365 249.525 254.677 248.933 255.123 248.458C255.653 247.942 256.149 247.625 256.611 247.506C257.158 247.346 257.69 247.427 258.208 247.748C258.727 248.069 259.105 248.692 259.343 249.616C258.256 252.529 257.212 256.123 256.21 260.398C255.293 264.632 254.363 269.002 253.421 273.508C252.542 278.035 251.623 282.374 250.665 286.523C249.769 290.695 248.811 294.144 247.789 296.87C246.83 299.618 245.77 301.35 244.609 302.066C243.533 302.741 242.332 301.867 241.006 299.442Z" fill="white"/>
<path d="M260.666 307.25C259.897 305.44 260.031 304.051 261.07 303.082C262.131 302.051 263.532 301.349 265.274 300.976C267.099 300.562 268.974 300.411 270.897 300.522C272.82 300.632 274.218 300.945 275.089 301.459C275.143 302.108 274.884 302.649 274.313 303.08C273.742 303.511 273.026 303.857 272.165 304.117C271.366 304.398 270.546 304.638 269.707 304.835C268.867 305.033 268.257 305.275 267.876 305.563C269.751 307.618 271.973 308.779 274.543 309.046C277.175 309.334 279.711 308.993 282.152 308.023C284.592 307.053 286.789 305.578 288.741 303.597C290.694 301.616 291.981 299.333 292.603 296.747C293.225 294.162 292.981 291.449 291.87 288.609C290.844 285.729 288.541 282.893 284.961 280.102C281.403 277.248 277.88 275.598 274.392 275.152C270.967 274.727 267.239 275.773 263.208 278.29C261.578 278.141 260.667 277.438 260.476 276.18C260.369 274.881 260.736 273.328 261.577 271.52C262.503 269.671 263.754 267.69 265.332 265.579C266.994 263.426 268.717 261.4 270.501 259.501C272.285 257.601 274.014 255.962 275.686 254.584C277.442 253.165 278.877 252.265 279.992 251.883C281.19 251.461 282.855 251.306 284.988 251.42C287.204 251.493 289.533 251.745 291.975 252.177C294.501 252.568 296.993 253.158 299.45 253.946C301.93 254.671 304.052 255.517 305.816 256.483C307.581 257.449 308.832 258.481 309.57 259.58C310.329 260.615 310.23 261.702 309.273 262.839C308.316 263.976 307.097 264.357 305.617 263.98C304.199 263.625 302.577 262.954 300.75 261.966C298.985 261 297.044 259.937 294.926 258.777C292.808 257.618 290.613 256.782 288.34 256.268C286.067 255.755 283.755 255.754 281.405 256.265C279.054 256.776 276.753 258.25 274.501 260.687C274.077 261.099 273.578 261.626 273.004 262.266C272.43 262.907 271.866 263.62 271.311 264.408C270.778 265.132 270.307 265.879 269.899 266.647C269.512 267.353 269.272 268.04 269.179 268.708C270.195 269.413 271.453 269.922 272.955 270.236C274.479 270.488 276.116 270.814 277.868 271.215C279.704 271.576 281.6 272.167 283.554 272.99C285.594 273.772 287.574 275.024 289.495 276.745C292.348 279.212 294.382 281.814 295.599 284.551C296.878 287.309 297.499 290.048 297.461 292.767C297.485 295.508 296.956 298.127 295.875 300.622C294.794 303.117 293.319 305.335 291.451 307.275C289.645 309.237 287.51 310.839 285.044 312.08C282.579 313.322 279.954 314.017 277.17 314.166C274.448 314.337 271.661 313.89 268.81 312.825C266.021 311.782 263.307 309.923 260.666 307.25Z" fill="white"/>
</svg>
