<svg width="349" height="387" viewBox="0 0 349 387" fill="none" xmlns="http://www.w3.org/2000/svg">
<path d="M304.976 340.656C300.419 335.971 296.376 330.965 292.911 325.766C329.171 283.409 342.97 224.429 323.973 168.915C295.093 84.3931 201.393 39.8536 114.56 69.4396C27.7915 99.0899 -19.1868 191.634 9.69328 276.157C38.5734 360.679 132.273 405.219 219.106 375.633C230.979 371.59 242.082 366.391 252.35 360.166C281.294 378.007 317.555 380.446 348.938 367.225C332.701 362.348 317.491 353.491 304.976 340.656Z" fill="#FCC200"/>
<path d="M304.973 340.657C300.416 336.036 296.437 331.031 292.971 325.832C329.232 283.539 343.03 224.623 324.098 169.11C305.294 113.981 258.893 75.9231 204.855 64.3711C228.601 82.7902 247.277 107.948 257.609 138.304C286.425 222.698 239.511 315.114 152.871 344.701C122.771 354.969 91.8377 356.317 63.0859 350.156C105.443 383.079 163.845 394.503 219.359 375.57C231.104 371.527 242.143 366.393 252.411 360.232C281.355 378.073 317.616 380.448 348.999 367.291C332.698 362.349 317.487 353.493 304.973 340.657Z" fill="#FCC200"/>
<path d="M137.469 0.00321127C137.277 0.00321127 137.02 0.00321127 136.827 0.00321127C133.169 0.0673892 129.383 0.452465 125.596 1.09424C116.932 2.57034 108.846 5.45836 102.556 9.24486C96.267 13.0314 92.2879 17.588 91.1969 22.0163C90.8118 22.9148 90.6835 23.9416 90.8118 24.9685L93.5073 41.8473C93.9566 44.6711 96.5878 46.5964 99.3475 46.1472L115.392 43.4517L119.884 71.7542C98.8341 77.5944 79.5165 87.3494 62.766 100.185L53.3961 88.5688L61.29 81.8943C62.7019 80.6749 62.8944 78.5571 61.7392 77.081L51.4707 64.2454C50.7648 63.3469 49.6096 62.8976 48.5827 63.026C47.941 63.0902 47.2992 63.3469 46.7858 63.7961L13.7983 91.7136C12.3863 92.9329 12.1296 95.0508 13.349 96.5269L23.6817 109.363C24.8369 110.839 26.9548 111.031 28.3667 109.812L36.2606 103.137L45.8873 115.139C17.4564 143.954 0 183.039 0 226.038C0 314.604 74.0614 386.483 165.258 386.483C227.318 386.483 281.42 353.239 309.659 304.078C129.319 366.524 43.9619 146.971 152.936 66.5558L153.642 66.4274L153.578 66.0424C153.642 66.0424 153.642 65.9782 153.706 65.9782C153.642 65.9782 153.642 65.9782 153.578 65.9782L149.085 37.8041L164.488 35.2369C167.248 34.7877 169.109 32.0922 168.66 29.2684L166.093 12.9672C166.093 12.903 166.093 12.903 166.093 12.8388L166.028 12.3254C165.9 11.5553 165.643 10.8493 165.194 10.2717C163.59 7.12697 160.188 4.49567 155.311 2.63451C150.369 0.837529 144.208 -0.0609667 137.469 0.00321127ZM170.136 59.9455C168.531 59.9455 166.927 60.5872 165.772 61.8066C164.617 62.9618 163.975 64.5663 163.975 66.2349C163.975 67.9035 164.617 69.508 165.772 70.6632C166.927 71.8184 168.467 72.5243 170.136 72.5243C170.97 72.5243 171.74 72.3318 172.51 72.0751C173.281 71.7542 173.922 71.305 174.5 70.7274C175.078 70.1497 175.527 69.4438 175.848 68.6736C176.169 67.9035 176.297 67.0692 176.297 66.2991C176.297 65.4648 176.169 64.6304 175.848 63.9245C175.527 63.1543 175.078 62.4484 174.5 61.8708C173.922 61.2932 173.281 60.8439 172.51 60.5231C171.74 60.0738 170.906 59.9455 170.136 59.9455ZM200.428 63.732C198.823 63.732 197.219 64.3737 196.064 65.5931C194.909 66.7483 194.267 68.3528 194.267 70.0214C194.267 71.69 194.909 73.2945 196.064 74.4497C197.219 75.6049 198.759 76.3108 200.428 76.3108C202.032 76.3108 203.637 75.669 204.792 74.4497C205.947 73.2945 206.589 71.69 206.589 70.0214C206.589 68.3528 205.947 66.7483 204.792 65.5931C203.637 64.3737 202.096 63.732 200.428 63.732ZM229.757 71.3049C228.153 71.3049 226.548 71.9467 225.393 73.1661C224.238 74.3213 223.596 75.9258 223.596 77.5944C223.596 79.263 224.238 80.8675 225.393 82.0227C226.548 83.1779 228.089 83.8838 229.757 83.8838C231.362 83.8838 232.966 83.2421 234.121 82.0227C235.276 80.8675 235.918 79.263 235.918 77.5944C235.918 75.9258 235.276 74.3213 234.121 73.1661C232.902 72.0109 231.362 71.3049 229.757 71.3049ZM262.295 73.7437C261.076 73.8079 259.857 74.3855 259.022 75.5407L239.705 101.854C238.229 103.843 238.614 106.603 240.539 108.079L244.711 111.288C246.636 112.764 249.331 112.379 250.808 110.389L270.125 84.0764C271.601 82.0868 271.216 79.3272 269.291 77.8511L265.119 74.6422C264.285 74.0004 263.322 73.6795 262.295 73.7437ZM79.0673 98.7731C85.4209 98.9657 90.3626 106.86 90.1059 116.422C89.8492 125.985 84.5224 133.686 78.1688 133.493C71.8151 133.301 66.8734 125.343 67.1301 115.78C67.3869 106.154 72.7137 98.5806 79.0673 98.7731ZM278.917 105.512C275.516 105.512 272.756 108.336 272.756 111.801C272.756 115.267 275.516 118.091 278.917 118.091C282.319 118.091 285.079 115.267 285.079 111.801C285.079 108.336 282.319 105.512 278.917 105.512ZM299.134 127.717C297.529 127.717 295.925 128.359 294.769 129.579C293.614 130.734 292.972 132.338 292.972 134.007C292.972 135.675 293.614 137.28 294.769 138.435C295.925 139.59 297.465 140.296 299.134 140.296C300.738 140.296 302.342 139.655 303.498 138.435C304.653 137.28 305.295 135.675 305.295 134.007C305.295 132.338 304.653 130.734 303.498 129.579C302.278 128.359 300.738 127.717 299.134 127.717ZM65.269 148.511C72.842 148.704 78.6822 158.138 78.3613 169.497C78.0404 180.857 71.6868 189.906 64.1138 189.713C56.5408 189.521 50.7006 180.087 51.0215 168.727C51.4066 157.368 57.7602 148.319 65.269 148.511ZM315.05 156.918C313.445 156.918 311.841 157.56 310.686 158.78C309.53 159.935 308.889 161.539 308.889 163.208C308.889 164.876 309.53 166.481 310.686 167.636C311.841 168.791 313.381 169.497 315.05 169.497C316.654 169.497 318.259 168.855 319.414 167.636C320.569 166.481 321.211 164.876 321.211 163.208C321.211 161.539 320.569 159.935 319.414 158.78C318.259 157.624 316.718 156.918 315.05 156.918ZM340.4 184.258C340.079 184.258 339.822 184.258 339.501 184.322L307.926 190.419C305.551 190.869 304.011 193.179 304.46 195.618L305.423 200.88C305.872 203.319 308.118 204.859 310.493 204.41L342.069 198.313C344.443 197.864 345.983 195.554 345.534 193.115L344.572 187.852C344.186 185.734 342.389 184.258 340.4 184.258ZM17.9057 188.815C21.7563 222.444 34.977 254.854 55.6423 281.295C51.2782 284.568 48.0051 289.125 46.9783 294.644C45.5664 302.346 48.8395 309.79 54.1662 315.245C59.493 320.701 67.066 324.68 75.7942 326.348C84.5224 328.017 92.9297 327.183 99.8609 324.102C100.631 323.781 101.465 323.396 102.171 322.947C109.937 327.824 118.152 332.06 126.559 335.59C126.302 334.306 126.174 333.087 126.366 331.803C128.035 322.69 143.117 317.941 159.932 321.214C176.746 324.487 189.068 334.563 187.336 343.676C186.95 345.666 185.924 347.399 184.448 348.939C206.781 350.03 229.308 346.757 250.422 339.248C217.82 367.679 172.51 380.065 130.41 371.979C93.3148 364.791 59.3646 341.879 38.0575 309.919C16.8146 277.894 8.4073 237.205 15.4669 199.147C16.3012 195.746 17.0714 192.28 17.9057 188.815ZM328.142 218.465C326.538 218.465 324.933 219.107 323.778 220.326C322.623 221.481 321.981 223.086 321.981 224.754C321.981 226.423 322.623 228.028 323.778 229.183C324.933 230.338 326.473 231.044 328.142 231.044C328.976 231.044 329.746 230.851 330.517 230.595C331.287 230.274 331.928 229.825 332.506 229.247C333.084 228.669 333.533 227.963 333.854 227.193C334.175 226.423 334.303 225.589 334.303 224.819C334.303 223.984 334.175 223.15 333.854 222.444C333.533 221.674 333.084 220.968 332.506 220.39C331.928 219.813 331.287 219.364 330.517 219.043C329.746 218.593 328.912 218.465 328.142 218.465ZM325.767 248.885C324.163 248.885 322.559 249.527 321.403 250.747C320.248 251.902 319.606 253.506 319.606 255.175C319.606 256.844 320.248 258.448 321.403 259.603C322.559 260.758 324.099 261.464 325.767 261.464C326.602 261.464 327.372 261.272 328.142 261.015C328.912 260.694 329.554 260.245 330.132 259.667C330.709 259.09 331.158 258.384 331.479 257.614C331.8 256.843 331.928 256.009 331.928 255.239C331.928 254.405 331.8 253.57 331.479 252.864C331.158 252.094 330.709 251.388 330.132 250.811C329.554 250.233 328.912 249.784 328.142 249.463C327.372 249.078 326.538 248.885 325.767 248.885ZM316.077 279.498C314.472 279.498 312.868 280.14 311.712 281.359C310.557 282.515 309.915 284.119 309.915 285.788C309.915 287.456 310.557 289.061 311.712 290.216C312.868 291.371 314.408 292.077 316.077 292.077C317.681 292.077 319.285 291.435 320.441 290.216C321.596 289.061 322.238 287.456 322.238 285.788C322.238 284.119 321.596 282.515 320.441 281.359C319.285 280.14 317.681 279.498 316.077 279.498ZM81.8911 282.194C84.1373 282.13 86.4477 282.322 88.8223 282.771C101.465 285.21 110.45 294.323 108.782 303.18C107.177 312.037 95.561 317.171 82.9179 314.668C70.2749 312.229 61.2899 303.052 62.9586 294.259C64.2421 287.135 72.2002 282.386 81.8911 282.194Z" fill="#BC8600"/>
<path d="M107.71 166.996C105.761 166.996 104.463 166.606 103.813 165.827C103.164 165.047 103.164 164.268 103.813 163.489C104.463 162.709 105.761 162.32 107.71 162.32C106.086 161.93 104.95 161.281 104.3 160.372C103.716 159.397 103.521 158.456 103.716 157.547C103.976 156.572 104.593 155.826 105.567 155.306C106.606 154.787 107.937 154.722 109.561 155.111C108.716 154.007 108.457 152.838 108.781 151.604C109.171 150.306 109.885 149.104 110.924 148C111.963 146.896 113.165 146.019 114.529 145.37C115.957 144.72 117.321 144.428 118.62 144.493C119.919 144.558 120.958 145.143 121.737 146.247C120.244 144.168 119.529 142.577 119.594 141.473C119.724 140.304 120.341 139.817 121.445 140.012C122.614 140.207 123.978 141.344 125.536 143.422C124.367 141.928 123.88 140.499 124.075 139.135C124.335 137.707 125.017 136.57 126.121 135.726C127.225 134.817 128.459 134.395 129.822 134.46C131.251 134.525 132.55 135.304 133.719 136.798C132.745 135.694 132.355 134.687 132.55 133.778C132.745 132.869 133.232 132.284 134.011 132.024C134.855 131.765 135.765 132.024 136.739 132.804C135.959 131.894 135.667 130.953 135.862 129.979C136.122 129.005 136.641 128.258 137.421 127.738C136.576 127.284 135.927 126.634 135.472 125.79C135.083 124.881 134.92 123.972 134.985 123.062C134.336 122.997 133.751 122.738 133.232 122.283C132.712 121.828 132.323 121.212 132.063 120.432C131.868 121.406 131.251 122.38 130.212 123.355C129.173 124.264 127.972 125.043 126.608 125.693C125.244 126.277 123.945 126.569 122.711 126.569C121.542 126.504 120.698 126.017 120.179 125.108C120.179 126.926 119.659 128.29 118.62 129.199C117.646 130.044 116.477 130.466 115.113 130.466C113.749 130.466 112.548 130.044 111.509 129.199C110.535 128.29 110.048 126.926 110.048 125.108C108.294 125.043 106.995 124.686 106.151 124.036C105.307 123.322 104.885 122.543 104.885 121.699C104.95 120.854 105.437 120.14 106.346 119.555C107.255 118.971 108.586 118.711 110.34 118.776C108.846 117.672 108.002 116.471 107.807 115.172C107.677 113.873 107.97 112.704 108.684 111.665C109.463 110.626 110.502 109.977 111.801 109.717C113.1 109.457 114.496 109.847 115.99 110.886C115.211 109.457 115.081 108.126 115.6 106.892C116.12 105.658 116.996 104.716 118.23 104.067C119.464 103.417 120.731 103.223 122.029 103.482C123.328 103.677 124.367 104.521 125.147 106.015C125.017 104.392 125.569 103.125 126.803 102.216C128.037 101.242 129.498 100.657 131.186 100.463C132.94 100.268 134.498 100.528 135.862 101.242C137.291 101.891 138.103 103.028 138.297 104.651C138.492 102.508 139.012 101.144 139.856 100.56C140.7 99.9106 141.48 99.9755 142.194 100.755C142.908 101.534 143.168 102.963 142.973 105.041C143.428 103.547 144.272 102.573 145.506 102.119C146.74 101.664 147.974 101.632 149.208 102.021C150.506 102.411 151.513 103.158 152.227 104.262C153.007 105.301 153.137 106.6 152.617 108.158C153.981 106.34 155.28 105.431 156.514 105.431C157.812 105.366 158.592 105.95 158.852 107.184C159.176 108.353 158.657 109.847 157.293 111.665C158.787 110.756 160.085 110.366 161.189 110.496C162.293 110.561 163.073 110.983 163.527 111.762C163.982 112.477 164.014 113.354 163.625 114.393C163.235 115.367 162.293 116.341 160.8 117.315C162.358 117.25 163.527 117.77 164.307 118.874C165.151 119.913 165.573 121.179 165.573 122.673C165.638 124.101 165.281 125.4 164.501 126.569C163.787 127.673 162.651 128.225 161.092 128.225C162.391 129.069 163.04 130.206 163.04 131.635C163.105 133.063 162.716 134.427 161.871 135.726C161.027 136.96 159.956 137.869 158.657 138.454C157.358 138.973 156.059 138.811 154.76 137.967C155.604 138.941 155.897 139.98 155.637 141.084C155.442 142.188 154.89 143.227 153.981 144.201C153.137 145.11 152.13 145.76 150.961 146.149C149.857 146.539 148.818 146.539 147.844 146.149C148.493 146.929 148.753 147.935 148.623 149.169C150.052 149.234 151.351 149.689 152.52 150.533C153.754 151.312 154.306 152.481 154.176 154.04C154.176 152.091 154.598 150.793 155.442 150.143C156.286 149.429 157.131 149.429 157.975 150.143C158.819 150.793 159.241 152.091 159.241 154.04C160.475 153.52 161.579 153.618 162.553 154.332C163.592 155.046 164.372 156.02 164.891 157.254C165.411 158.488 165.573 159.722 165.378 160.956C165.183 162.125 164.469 162.969 163.235 163.489C164.014 164.463 164.274 165.437 164.014 166.411C163.82 167.32 163.333 168.1 162.553 168.749C161.774 169.333 160.897 169.658 159.923 169.723C158.949 169.723 158.072 169.236 157.293 168.262C157.293 169.496 156.838 170.47 155.929 171.184C155.02 171.964 153.883 172.483 152.52 172.743C151.156 173.003 149.792 173.003 148.428 172.743C147.065 172.483 145.928 171.964 145.019 171.184C144.11 170.47 143.655 169.496 143.655 168.262C143.655 169.821 143.168 170.99 142.194 171.769C141.285 172.613 140.213 173.035 138.979 173.035C137.745 173.035 136.641 172.613 135.667 171.769C134.758 170.99 134.303 169.821 134.303 168.262C134.303 170.21 133.654 171.639 132.355 172.548C131.056 173.522 129.563 174.009 127.874 174.009C126.186 174.009 124.692 173.522 123.393 172.548C122.094 171.639 121.445 170.21 121.445 168.262C121.445 169.821 120.925 170.957 119.886 171.671C118.912 172.451 117.743 172.84 116.38 172.84C115.016 172.84 113.814 172.451 112.775 171.671C111.801 170.957 111.314 169.821 111.314 168.262C111.314 170.6 110.989 172.126 110.34 172.84C109.69 173.62 109.074 173.522 108.489 172.548C107.905 171.574 107.645 169.723 107.71 166.996Z" fill="white"/>
<path d="M173.396 254.889C173.136 256.382 172.487 257.421 171.448 258.006C170.408 258.59 169.272 258.785 168.038 258.59C166.804 258.396 165.765 257.844 164.921 256.934C164.142 256.09 163.882 254.921 164.142 253.428C163.232 254.856 161.998 255.603 160.44 255.668C158.946 255.668 157.485 255.246 156.056 254.402C154.628 253.493 153.556 252.356 152.842 250.992C152.192 249.564 152.322 248.167 153.231 246.803C151.348 248.037 149.822 248.492 148.653 248.167C147.549 247.778 147.062 246.998 147.192 245.829C147.322 244.66 148.296 243.459 150.114 242.225C148.88 242.485 147.776 242.225 146.802 241.446C145.893 240.602 145.178 239.53 144.659 238.231C144.139 236.867 143.88 235.471 143.88 234.042C143.88 232.614 144.139 231.38 144.659 230.341C145.243 229.237 146.185 228.555 147.484 228.295C145.601 228.295 144.172 227.905 143.198 227.126C142.289 226.282 141.834 225.308 141.834 224.204C141.834 223.1 142.289 222.126 143.198 221.281C144.107 220.437 145.503 220.015 147.387 220.015C145.633 219.885 144.367 219.236 143.587 218.067C142.808 216.833 142.451 215.469 142.516 213.975C142.646 212.482 143.198 211.215 144.172 210.176C145.146 209.072 146.51 208.585 148.263 208.715C146.899 208.066 146.055 207.189 145.731 206.085C145.406 204.981 145.471 203.909 145.925 202.87C146.445 201.766 147.224 200.954 148.263 200.435C149.367 199.915 150.601 199.948 151.965 200.532C151.38 199.753 151.283 198.876 151.673 197.902C152.127 196.928 152.842 195.986 153.816 195.077C154.855 194.103 155.959 193.324 157.128 192.739C158.362 192.09 159.498 191.733 160.537 191.668C161.641 191.603 162.453 191.96 162.973 192.739C162.583 191.116 162.583 189.849 162.973 188.94C163.427 187.966 164.044 187.382 164.823 187.187C165.668 186.992 166.479 187.219 167.259 187.869C168.103 188.518 168.72 189.622 169.11 191.181C169.11 189.492 169.759 188.226 171.058 187.382C172.357 186.537 173.85 186.115 175.539 186.115C177.227 186.115 178.721 186.537 180.02 187.382C181.319 188.226 181.968 189.525 181.968 191.278C182.553 189.72 183.559 188.778 184.988 188.453C186.482 188.128 188.008 188.258 189.566 188.843C191.125 189.427 192.326 190.336 193.171 191.57C194.08 192.739 194.242 194.103 193.658 195.662C194.762 194.623 195.898 194.201 197.067 194.395C198.301 194.525 199.34 195.045 200.184 195.954C201.029 196.798 201.483 197.837 201.548 199.071C201.678 200.24 201.158 201.377 199.989 202.481C201.678 201.961 203.074 202.091 204.178 202.87C205.347 203.65 206.127 204.689 206.516 205.987C206.971 207.286 206.906 208.585 206.321 209.884C205.802 211.118 204.698 211.995 203.009 212.514C204.308 212.514 205.347 213.034 206.127 214.073C206.971 215.047 207.523 216.281 207.783 217.774C208.107 219.268 208.14 220.762 207.88 222.255C207.685 223.749 207.198 225.015 206.419 226.055C205.639 227.094 204.568 227.613 203.204 227.613C204.308 227.873 205.087 228.587 205.542 229.756C205.997 230.86 206.159 232.192 206.029 233.75C205.964 235.309 205.672 236.835 205.152 238.329C204.633 239.757 203.951 240.926 203.107 241.835C202.262 242.745 201.288 243.102 200.184 242.907C201.418 244.141 201.905 245.537 201.646 247.096C201.386 248.589 200.671 249.921 199.502 251.09C198.333 252.194 196.97 252.876 195.411 253.135C193.917 253.33 192.554 252.778 191.32 251.479C192.229 253.752 192.359 255.473 191.709 256.642C191.125 257.746 190.216 258.071 188.982 257.616C187.748 257.227 186.709 255.895 185.865 253.622C186.059 255.506 185.67 256.967 184.696 258.006C183.786 259.045 182.553 259.63 180.994 259.759C179.5 259.954 178.039 259.662 176.61 258.883C175.182 258.103 174.11 256.772 173.396 254.889ZM166.967 226.736C168.006 226.736 168.72 226.996 169.11 227.516C169.564 227.97 169.662 228.49 169.402 229.074C169.207 229.659 168.687 230.048 167.843 230.243C168.623 230.308 169.337 230.795 169.986 231.704C170.636 232.549 171.123 233.555 171.448 234.724C171.772 235.893 171.837 236.965 171.642 237.939C172.227 237.419 172.714 237.192 173.104 237.257C173.493 237.322 173.688 237.647 173.688 238.231C174.272 237.387 175.117 237.095 176.221 237.354C177.325 237.549 178.656 238.134 180.215 239.108C179.046 238.199 178.689 237.225 179.143 236.185C179.598 235.146 180.474 234.724 181.773 234.919C181.124 234.529 180.767 233.945 180.702 233.166C180.702 232.321 180.929 231.607 181.384 231.023C181.903 230.373 182.65 230.081 183.624 230.146C182.78 230.146 182.163 229.821 181.773 229.172C181.384 228.522 181.189 227.775 181.189 226.931C181.189 226.087 181.384 225.373 181.773 224.788C182.228 224.139 182.877 223.814 183.722 223.814C182.942 223.814 182.325 223.392 181.871 222.548C181.481 221.638 181.254 220.567 181.189 219.333C181.124 218.099 181.221 216.995 181.481 216.021C181.806 214.982 182.325 214.333 183.04 214.073C182.325 214.073 181.578 213.683 180.799 212.904C180.085 212.06 179.468 211.085 178.948 209.981C178.494 208.812 178.234 207.741 178.169 206.767C177.714 207.416 177.227 207.741 176.708 207.741C176.253 207.741 175.929 207.449 175.734 206.864C175.279 207.708 174.565 208.26 173.591 208.52C172.681 208.78 171.805 208.618 170.96 208.033C171.09 208.812 170.863 209.592 170.279 210.371C169.759 211.085 169.077 211.41 168.233 211.345C168.947 211.67 169.434 212.287 169.694 213.196C170.019 214.04 170.116 214.982 169.986 216.021C169.921 216.995 169.629 217.839 169.11 218.554C168.59 219.268 167.876 219.625 166.967 219.625C167.811 219.625 168.46 219.982 168.915 220.697C169.369 221.411 169.597 222.255 169.597 223.23C169.597 224.139 169.369 224.951 168.915 225.665C168.525 226.379 167.876 226.736 166.967 226.736Z" fill="white"/>
<path d="M226.661 188.145C226.402 189.638 225.752 190.677 224.713 191.262C223.674 191.846 222.538 192.041 221.304 191.846C220.07 191.651 219.031 191.099 218.186 190.19C217.407 189.346 217.147 188.177 217.407 186.683C216.498 188.112 215.264 188.859 213.705 188.924C212.212 188.924 210.751 188.502 209.322 187.658C207.893 186.748 206.822 185.612 206.107 184.248C205.458 182.819 205.588 181.423 206.497 180.059C204.614 181.293 203.087 181.748 201.919 181.423C200.815 181.033 200.327 180.254 200.457 179.085C200.587 177.916 201.561 176.715 203.38 175.481C202.146 175.741 201.042 175.481 200.068 174.702C199.158 173.857 198.444 172.786 197.925 171.487C197.405 170.123 197.145 168.727 197.145 167.298C197.145 165.87 197.405 164.636 197.925 163.597C198.509 162.493 199.451 161.811 200.75 161.551C198.866 161.551 197.438 161.161 196.463 160.382C195.554 159.538 195.1 158.564 195.1 157.46C195.1 156.356 195.554 155.381 196.463 154.537C197.373 153.693 198.769 153.271 200.652 153.271C198.899 153.141 197.632 152.491 196.853 151.323C196.074 150.089 195.717 148.725 195.781 147.231C195.911 145.738 196.463 144.471 197.438 143.432C198.412 142.328 199.775 141.841 201.529 141.971C200.165 141.321 199.321 140.445 198.996 139.341C198.671 138.237 198.736 137.165 199.191 136.126C199.71 135.022 200.49 134.21 201.529 133.691C202.633 133.171 203.867 133.204 205.231 133.788C204.646 133.009 204.549 132.132 204.938 131.158C205.393 130.184 206.107 129.242 207.081 128.333C208.12 127.359 209.224 126.58 210.393 125.995C211.627 125.346 212.764 124.989 213.803 124.924C214.907 124.859 215.719 125.216 216.238 125.995C215.849 124.372 215.849 123.105 216.238 122.196C216.693 121.222 217.31 120.637 218.089 120.443C218.933 120.248 219.745 120.475 220.524 121.125C221.369 121.774 221.986 122.878 222.375 124.437C222.375 122.748 223.025 121.482 224.323 120.637C225.622 119.793 227.116 119.371 228.804 119.371C230.493 119.371 231.987 119.793 233.285 120.637C234.584 121.482 235.234 122.781 235.234 124.534C235.818 122.975 236.825 122.034 238.254 121.709C239.747 121.384 241.273 121.514 242.832 122.099C244.391 122.683 245.592 123.592 246.436 124.826C247.345 125.995 247.508 127.359 246.923 128.918C248.027 127.878 249.164 127.456 250.333 127.651C251.567 127.781 252.606 128.301 253.45 129.21C254.294 130.054 254.749 131.093 254.814 132.327C254.944 133.496 254.424 134.632 253.255 135.736C254.944 135.217 256.34 135.347 257.444 136.126C258.613 136.905 259.392 137.944 259.782 139.243C260.236 140.542 260.171 141.841 259.587 143.14C259.067 144.374 257.963 145.25 256.275 145.77C257.574 145.77 258.613 146.29 259.392 147.329C260.236 148.303 260.788 149.537 261.048 151.03C261.373 152.524 261.405 154.018 261.146 155.511C260.951 157.005 260.464 158.271 259.684 159.31C258.905 160.349 257.834 160.869 256.47 160.869C257.574 161.129 258.353 161.843 258.808 163.012C259.262 164.116 259.425 165.447 259.295 167.006C259.23 168.565 258.938 170.091 258.418 171.584C257.898 173.013 257.217 174.182 256.372 175.091C255.528 176 254.554 176.358 253.45 176.163C254.684 177.397 255.171 178.793 254.911 180.352C254.651 181.845 253.937 183.177 252.768 184.346C251.599 185.45 250.235 186.131 248.677 186.391C247.183 186.586 245.819 186.034 244.585 184.735C245.495 187.008 245.624 188.729 244.975 189.898C244.391 191.002 243.481 191.327 242.247 190.872C241.014 190.483 239.974 189.151 239.13 186.878C239.325 188.762 238.935 190.223 237.961 191.262C237.052 192.301 235.818 192.885 234.26 193.015C232.766 193.21 231.305 192.918 229.876 192.139C228.447 191.359 227.376 190.028 226.661 188.145ZM220.232 159.992C221.271 159.992 221.986 160.252 222.375 160.772C222.83 161.226 222.927 161.746 222.667 162.33C222.473 162.915 221.953 163.304 221.109 163.499C221.888 163.564 222.603 164.051 223.252 164.96C223.901 165.805 224.388 166.811 224.713 167.98C225.038 169.149 225.103 170.221 224.908 171.195C225.492 170.675 225.98 170.448 226.369 170.513C226.759 170.578 226.954 170.903 226.954 171.487C227.538 170.643 228.382 170.351 229.486 170.61C230.59 170.805 231.922 171.39 233.48 172.364C232.311 171.455 231.954 170.48 232.409 169.441C232.863 168.402 233.74 167.98 235.039 168.175C234.389 167.785 234.032 167.201 233.967 166.422C233.967 165.577 234.195 164.863 234.649 164.278C235.169 163.629 235.916 163.337 236.89 163.402C236.046 163.402 235.429 163.077 235.039 162.428C234.649 161.778 234.454 161.031 234.454 160.187C234.454 159.343 234.649 158.629 235.039 158.044C235.494 157.395 236.143 157.07 236.987 157.07C236.208 157.07 235.591 156.648 235.136 155.804C234.747 154.894 234.519 153.823 234.454 152.589C234.389 151.355 234.487 150.251 234.747 149.277C235.071 148.238 235.591 147.588 236.305 147.329C235.591 147.329 234.844 146.939 234.065 146.16C233.35 145.315 232.733 144.341 232.214 143.237C231.759 142.068 231.5 140.997 231.435 140.023C230.98 140.672 230.493 140.997 229.973 140.997C229.519 140.997 229.194 140.705 228.999 140.12C228.545 140.964 227.83 141.516 226.856 141.776C225.947 142.036 225.07 141.873 224.226 141.289C224.356 142.068 224.129 142.848 223.544 143.627C223.025 144.341 222.343 144.666 221.499 144.601C222.213 144.926 222.7 145.543 222.96 146.452C223.284 147.296 223.382 148.238 223.252 149.277C223.187 150.251 222.895 151.095 222.375 151.81C221.856 152.524 221.141 152.881 220.232 152.881C221.076 152.881 221.726 153.238 222.18 153.953C222.635 154.667 222.862 155.511 222.862 156.485C222.862 157.395 222.635 158.206 222.18 158.921C221.791 159.635 221.141 159.992 220.232 159.992Z" fill="white"/>
<path d="M229.633 291.672C228.27 290.633 227.62 289.334 227.685 287.776C227.815 286.152 228.4 284.658 229.439 283.295C230.478 281.931 231.744 280.989 233.238 280.47C234.731 279.885 236.16 280.112 237.524 281.152C235.576 279.658 234.504 278.359 234.309 277.255C234.179 276.086 234.699 275.404 235.868 275.209C237.037 275.014 238.595 275.631 240.544 277.06C239.699 276.476 239.18 275.761 238.985 274.917C238.79 274.073 238.823 273.261 239.082 272.482C237.199 272.287 235.478 271.8 233.92 271.021C232.361 270.176 231.647 269.137 231.777 267.903C230.997 269.202 230.12 269.981 229.146 270.241C228.172 270.501 227.263 270.404 226.419 269.949C225.639 269.494 225.152 268.748 224.958 267.709C224.763 266.669 225.055 265.533 225.834 264.299C224.535 265.143 223.237 265.273 221.938 264.689C220.639 264.039 219.535 263.065 218.626 261.766C217.782 260.468 217.327 259.104 217.262 257.675C217.262 256.246 217.911 255.11 219.21 254.266C217.197 254.46 215.801 254.136 215.021 253.291C214.242 252.382 214.145 251.408 214.729 250.369C215.314 249.33 216.613 248.713 218.626 248.518C217.002 247.999 215.963 247.089 215.509 245.791C215.054 244.427 215.054 243.031 215.509 241.602C215.963 240.173 216.775 239.069 217.944 238.29C219.113 237.511 220.509 237.381 222.133 237.9C221.029 236.796 220.444 235.725 220.379 234.686C220.314 233.646 220.606 232.802 221.256 232.153C221.905 231.503 222.75 231.211 223.789 231.276C224.828 231.276 225.899 231.796 227.003 232.835C226.224 231.211 226.159 229.75 226.808 228.451C227.458 227.087 228.464 226.113 229.828 225.529C231.192 224.879 232.556 224.749 233.92 225.139C235.348 225.464 236.452 226.47 237.232 228.159C237.102 226.665 237.589 225.496 238.693 224.652C239.797 223.808 241.096 223.321 242.589 223.191C244.148 223.061 245.544 223.321 246.778 223.97C248.012 224.62 248.694 225.691 248.824 227.185C249.148 225.366 249.96 224.132 251.259 223.483C252.623 222.769 254.052 222.541 255.545 222.801C257.104 223.061 258.37 223.743 259.344 224.847C260.383 225.951 260.741 227.38 260.416 229.133C261.195 227.769 262.234 227.022 263.533 226.893C264.832 226.698 266.033 226.925 267.137 227.574C268.306 228.224 269.118 229.165 269.573 230.399C270.092 231.568 269.962 232.835 269.183 234.198C270.872 232.77 272.203 232.088 273.177 232.153C274.216 232.218 274.671 232.77 274.541 233.809C274.476 234.848 273.632 236.082 272.008 237.511C273.632 236.861 274.995 236.796 276.099 237.316C277.203 237.835 277.95 238.615 278.34 239.654C278.73 240.693 278.665 241.797 278.145 242.966C277.69 244.07 276.651 244.914 275.028 245.498C276.846 245.498 278.21 245.856 279.119 246.57C280.028 247.219 280.451 247.966 280.386 248.81C280.386 249.655 279.931 250.401 279.022 251.051C278.113 251.635 276.749 251.928 274.93 251.928C276.619 252.707 277.626 253.843 277.95 255.337C278.275 256.831 278.08 258.324 277.366 259.818C276.716 261.247 275.71 262.351 274.346 263.13C272.982 263.844 271.456 263.812 269.768 263.033C271.066 263.942 271.781 264.948 271.911 266.053C272.105 267.092 271.911 268.033 271.326 268.877C270.742 269.657 269.897 270.144 268.793 270.339C267.754 270.469 266.618 270.079 265.384 269.17C267.397 270.663 268.469 272.06 268.599 273.358C268.793 274.592 268.241 275.339 266.943 275.599C265.709 275.859 264.053 275.242 261.975 273.748C263.533 274.852 264.41 276.054 264.605 277.352C264.864 278.586 264.637 279.658 263.923 280.567C263.273 281.476 262.299 281.996 261 282.126C259.766 282.256 258.403 281.736 256.909 280.567C258.662 281.931 259.604 283.165 259.734 284.269C259.864 285.308 259.377 285.925 258.273 286.12C257.234 286.249 255.838 285.665 254.084 284.366C256.032 285.795 257.039 287.159 257.104 288.457C257.169 289.756 256.584 290.536 255.35 290.795C254.117 291.055 252.525 290.471 250.577 289.042C250.902 290.795 250.74 292.192 250.09 293.231C249.506 294.205 248.694 294.789 247.655 294.984C246.681 295.179 245.707 294.887 244.732 294.107C243.823 293.393 243.206 292.159 242.882 290.406C242.882 292.419 242.492 293.75 241.713 294.4C240.933 295.114 240.154 295.114 239.375 294.4C238.66 293.75 238.303 292.419 238.303 290.406C238.303 292.484 237.978 293.848 237.329 294.497C236.68 295.211 236.03 295.211 235.381 294.497C234.731 293.848 234.407 292.484 234.407 290.406C234.407 292.679 233.952 294.205 233.043 294.984C232.199 295.828 231.354 295.958 230.51 295.374C229.731 294.789 229.439 293.555 229.633 291.672ZM243.466 255.532C244.18 255.012 244.96 254.915 245.804 255.24C246.713 255.564 247.363 256.246 247.752 257.285C247.687 256.181 248.077 255.37 248.921 254.85C249.83 254.33 250.707 254.33 251.551 254.85C251.292 253.811 251.357 252.61 251.746 251.246C252.201 249.817 252.85 248.745 253.694 248.031C252.461 247.836 251.227 247.122 249.993 245.888C248.824 244.654 248.207 243.42 248.142 242.186C247.557 242.771 246.811 243.096 245.901 243.16C244.992 243.225 244.245 243.031 243.661 242.576C244.115 243.68 244.148 244.459 243.758 244.914C243.434 245.304 242.914 245.271 242.2 244.816C242.459 245.856 242.362 246.992 241.907 248.226C241.453 249.395 240.739 250.207 239.764 250.661C240.479 250.791 240.966 251.181 241.226 251.83C241.55 252.415 241.55 252.999 241.226 253.584C242.005 253.259 242.622 253.291 243.076 253.681C243.596 254.071 243.726 254.688 243.466 255.532Z" fill="white"/>
</svg>
