<svg width="398" height="448" viewBox="0 0 398 448" fill="none" xmlns="http://www.w3.org/2000/svg">
<path d="M291.553 172.359C289.203 174.512 286.593 175.948 283.982 176.666C285.549 180.255 286.854 184.171 287.898 188.217C288.877 191.871 289.595 195.721 290.117 199.637C291.814 212.493 290.835 226.393 287.246 240.032C283.917 253.018 278.174 266.331 270.277 279.709C264.403 289.758 257.224 298.699 248.935 306.399C246.978 308.161 245.02 309.923 242.931 311.554C241.3 312.86 239.603 314.165 237.841 315.405C235.687 305.812 232.358 296.088 227.79 285.908C222.569 274.162 216.042 262.676 207.95 250.799C204.295 245.448 200.379 240.162 196.202 234.941C194.179 232.396 192.09 229.851 189.937 227.372L186.673 223.717L183.802 220.65L182.496 219.28L180.212 219.606C178.907 219.802 177.471 220.519 175.774 221.89L175.317 222.281L172.25 225.805L171.924 226.327C171.075 227.763 170.292 229.264 170.162 230.7C170.096 231.418 170.031 232.462 170.423 233.44C170.618 234.028 171.01 234.615 171.532 235.137L173.882 237.617L176.949 241.076C178.972 243.425 180.93 245.774 182.888 248.189C186.804 253.083 190.589 258.108 194.048 263.263C201.749 274.357 207.819 285.125 212.779 296.088C217.282 306.138 220.415 315.535 222.373 324.802C217.609 327.282 212.583 329.566 207.297 331.654C194.113 336.875 180.865 340.268 168.465 343.27L161.742 344.836C157.304 345.88 152.801 346.924 148.298 348.034C141.184 349.861 134.266 351.753 127.152 354.886C123.954 356.322 119.778 358.344 115.731 361.673C115.144 362.129 114.491 362.652 113.904 363.239C110.51 366.371 107.573 370.483 105.68 374.724C102.156 382.686 100.851 391.43 101.765 401.48C103.527 417.925 111.032 432.151 122.453 440.439C128.458 444.811 135.767 447.291 143.403 447.748C150.648 448.205 158.414 446.835 166.441 443.767C179.103 438.938 191.503 430.585 205.535 417.664L206.579 416.751C215.716 408.267 228.051 394.171 234.838 375.377C239.864 361.803 241.691 346.598 240.125 331.067C243.453 328.783 246.717 326.368 249.784 323.888C251.872 322.192 253.896 320.43 255.853 318.668C265.839 309.466 274.715 298.242 281.502 286.3C290.248 271.355 296.448 256.281 300.103 241.598C305.52 220.258 305.259 198.593 299.646 179.929C298.406 175.687 301.473 173.542 299.646 169.691C298.863 171.323 292.989 170.989 291.553 172.359ZM220.284 371.592C216.108 383.273 208.276 394.628 197.377 404.743L196.594 405.461C184.911 416.294 174.273 423.407 164.157 427.322C158.218 429.606 152.605 430.585 147.45 430.324C142.228 430.063 137.203 428.301 133.026 425.365C124.672 419.491 118.929 408.724 117.624 396.586C117.167 392.083 117.167 385.557 119.647 379.88C120.495 377.987 121.474 376.552 122.845 375.312C123.106 375.116 123.302 374.92 123.563 374.724C125.39 373.223 127.74 371.853 130.807 370.482C136.746 367.872 143.273 366.045 149.408 364.414C153.65 363.304 158.022 362.26 162.33 361.216L169.313 359.519C182.235 356.322 196.202 352.602 210.169 346.924C215.194 344.901 220.089 342.683 224.722 340.333C225.245 351.427 223.743 362.129 220.284 371.592Z" fill="#0ED8CE"/>
<path d="M190.524 24.5137C190.328 24.5137 190.067 24.579 189.871 24.579C186.151 25.0358 182.366 25.8189 178.646 26.9282C170.096 29.3428 162.134 33.1278 156.26 37.6306C150.321 42.1334 146.797 47.0278 146.21 51.5958C145.883 52.5094 145.883 53.5536 146.144 54.5977L150.713 71.108C151.496 73.9141 154.302 75.5455 157.109 74.7624L173.099 70.2596L180.734 97.8638C160.111 106.021 141.576 117.898 126.108 132.516L115.34 122.009L122.584 114.505C123.889 113.134 123.889 110.981 122.519 109.676L110.706 98.0596C109.857 97.2112 108.683 96.9502 107.638 97.146C106.986 97.2765 106.398 97.6028 105.876 98.1248L75.4631 129.645C74.1578 131.015 74.1579 133.168 75.5284 134.474L87.3412 146.09C88.7118 147.395 90.8002 147.395 92.1055 146.024L99.3499 138.52L110.445 149.418C84.8612 181.264 71.5473 222.05 76.2463 264.859C85.9707 352.958 168.726 416.258 261.009 406.078C323.794 399.16 374.83 360.006 397.999 307.995C222.373 390.22 111.946 181.394 213.367 89.1845L214.084 88.9887L213.954 88.5972C214.019 88.5319 214.019 88.5319 214.084 88.4666C214.019 88.4666 214.019 88.4666 213.954 88.4666L206.318 60.9277L221.59 56.6207C224.331 55.8376 225.963 52.9662 225.179 50.2254L220.741 34.3024C220.741 34.2372 220.741 34.2372 220.676 34.1719L220.546 33.6498C220.35 32.8667 219.958 32.2142 219.501 31.6921C217.543 28.6902 213.758 26.4715 208.668 25.2315C203.642 23.9264 197.312 23.6653 190.524 24.5137ZM182.17 29.2123C182.301 29.2123 182.366 29.2123 182.497 29.2123C172.642 33.1278 155.412 45.8531 152.932 51.9221C150.909 56.8817 151.692 63.6033 151.692 63.6033C151.692 63.6033 149.995 57.7953 149.669 52.3789C149.081 43.4385 178.189 29.408 182.17 29.2123ZM142.294 129.253C148.755 128.731 154.563 136.04 155.412 145.567C156.195 155.16 151.627 163.383 145.165 163.905C138.704 164.427 132.83 157.053 132.047 147.525C131.264 137.932 135.833 129.775 142.294 129.253ZM133.809 180.35C141.445 179.697 148.429 188.442 149.408 199.797C150.321 211.152 144.904 220.875 137.268 221.463C129.632 222.115 122.649 213.436 121.736 202.081C120.757 190.661 126.173 180.937 133.809 180.35ZM90.3434 225.77C97.9141 258.79 114.883 289.592 138.704 313.542C134.658 317.262 131.851 322.156 131.395 327.833C130.807 335.664 134.919 342.647 140.923 347.541C146.928 352.37 155.02 355.503 164.027 356.221C173.033 356.939 181.452 355.177 188.109 351.326C188.892 350.869 189.61 350.413 190.328 349.956C198.747 353.937 207.493 357.2 216.434 359.81C215.977 358.57 215.781 357.33 215.847 356.025C216.565 346.758 231.249 340.363 248.609 341.733C265.97 343.104 279.544 351.783 278.827 360.984C278.696 363.007 277.848 364.9 276.477 366.531C299.189 365.096 321.575 359.353 342.198 349.564C312.372 381.476 267.862 398.834 224.396 395.506C186.086 392.504 149.212 373.514 124.216 344.017C99.1541 314.521 86.297 274.974 89.1686 236.276C89.4297 232.752 89.8213 229.228 90.3434 225.77ZM165.267 311.454C167.551 311.127 169.901 311.062 172.381 311.258C185.433 312.302 195.484 320.394 194.831 329.334C194.179 338.275 183.019 344.735 169.901 343.691C156.848 342.647 146.797 334.555 147.45 325.615C148.037 318.371 155.477 312.759 165.267 311.454Z" fill="#00BABA"/>
<path d="M143.339 208.865C136.813 214.869 128.459 219.502 119.061 222.177C109.206 224.984 98.6334 225.179 88.4521 222.7C72.5277 218.719 57.5821 209.844 41.5271 194.639C35.1965 188.57 29.0616 181.783 23.2531 174.474C20.4468 170.885 17.7057 167.165 15.0951 163.445C11.8971 158.942 9.54763 155.092 7.5897 151.307C2.17277 140.866 -0.241993 130.881 0.0190641 120.636C0.41065 107.845 5.89285 94.9895 14.7035 86.2449L18.8805 82.0684L25.8637 92.3791L22.0131 96.0988C19.3373 98.6439 16.9225 102.364 15.2256 106.279C13.594 110.064 12.7456 114.175 12.6151 118.548C12.4193 126.248 14.5077 134.405 18.9457 142.758C22.7963 150.133 27.8869 156.658 33.7607 163.837C39.4387 170.624 45.3777 176.888 51.4473 182.37C66.197 195.617 80.0983 203.514 93.9996 206.581C102.419 208.408 110.446 208.212 117.886 206.059C125.131 204.036 131.853 199.598 139.032 194.9L145.493 190.658L151.628 199.337L148.756 202.992C147.059 205.145 145.297 207.038 143.339 208.865Z" fill="#0ED8CE"/>
<path d="M174.079 180.216C172.447 181.717 170.75 183.152 168.988 184.392L165.203 187.133L158.872 178.128L162.005 174.473C168.401 166.903 174.471 159.333 178.125 150.85C181.584 142.823 183.477 133.817 183.673 124.029C183.934 107.845 180.083 90.5513 171.86 71.2349C168.401 63.3386 164.355 55.3119 159.721 47.5462C154.826 39.5194 150.323 32.4063 144.906 26.5983C138.706 19.942 132.179 15.8307 125.522 14.395C121.867 13.612 118.082 13.7425 114.558 14.7213C110.838 15.7655 107.118 17.7232 104.377 20.1378L100.396 23.6617L93.0859 13.6772L97.5239 9.89224C106.857 1.86549 118.996 -1.59318 129.96 0.690849C138.706 2.51808 146.733 7.41243 154.5 15.6349C157.371 18.6368 160.112 22.1608 163.245 26.5983C165.856 30.2528 168.401 34.103 170.881 38.0837C175.906 46.1757 180.41 54.4635 184.195 62.8165C193.723 84.0907 198.096 102.624 198.096 121.223C198.031 133.165 195.616 144.911 191.178 155.287C186.871 165.207 180.997 173.821 174.079 180.216Z" fill="#0ED8CE"/>
<path d="M10.0029 96.0326C7.2618 92.1172 6.60918 87.4186 8.63237 85.5913L23.6431 76.912C24.8832 75.7374 27.3632 76.8468 29.1253 79.3918L30.7569 81.6759C32.5191 84.2209 32.9759 87.2228 31.7359 88.3974L21.1631 103.342C19.1399 105.169 15.2893 103.472 12.5482 99.5566L10.0029 96.0326Z" fill="#0ED8CE"/>
<path d="M106.989 6.36838C104.248 2.45289 100.267 0.821434 98.2436 2.71392L87.2139 18.1148C85.9086 19.2895 86.3002 22.3566 88.1276 24.9017L89.7592 27.1857C91.5214 29.7308 94.0667 30.8402 95.3719 29.6003L110.84 20.5294C112.928 18.6369 112.341 13.8731 109.6 9.95757L106.989 6.36838Z" fill="#0ED8CE"/>
<path d="M187.261 221.459C184.193 225.962 180.734 229.16 176.231 231.639C173.686 233.989 140.662 216.369 134.462 211.083C129.698 207.037 132.243 197.444 137.79 192.354L161.873 170.101C167.42 165.011 176.166 164.097 178.581 170.297C181.778 178.454 189.806 219.11 187.261 221.459Z" fill="#0ED8CE"/>
<path d="M271.387 136.558C258.726 148.304 255.267 167.555 263.751 179.563C270.082 188.569 281.307 190.918 291.88 186.611C295.404 185.175 298.863 182.956 302.061 180.02C302.714 179.432 303.301 178.845 303.888 178.193C315.049 166.381 317.725 148.435 309.762 137.015C301.213 125.072 284.113 124.877 271.387 136.558ZM299.842 146.151C303.693 151.567 303.236 159.659 299.255 166.12C298.211 167.816 296.905 169.383 295.469 170.753C293.12 172.907 290.509 174.342 287.899 175.06C282.351 176.626 276.804 175.125 273.541 170.427C268.711 163.575 270.669 152.546 277.913 145.825C285.223 139.168 295.013 139.299 299.842 146.151Z" fill="#0ED8CE"/>
<path d="M319.067 286.775C317.592 286.775 316.344 286.378 315.323 285.583C314.34 284.827 313.848 283.466 313.848 281.499C313.848 280.894 313.848 280.137 313.848 279.23C313.886 278.322 313.905 277.377 313.905 276.393C313.942 275.41 313.961 274.446 313.961 273.5C313.961 272.555 313.961 271.685 313.961 270.891C313.848 269.151 313.432 267.903 312.713 267.146C311.995 266.39 310.293 265.993 307.608 265.955C304.771 265.879 301.973 265.766 299.212 265.615C296.489 265.463 294.125 265.161 292.121 264.707C290.343 264.291 288.925 263.497 287.866 262.324C286.807 261.114 286.051 259.62 285.597 257.843C285.143 256.027 284.916 254.023 284.916 251.83C284.916 250.165 285.086 248.237 285.427 246.043C285.805 243.85 286.259 241.599 286.788 239.292C287.318 236.948 287.885 234.716 288.49 232.598C289.095 230.443 289.662 228.589 290.192 227.039C290.835 224.959 291.497 223.181 292.177 221.706C292.896 220.194 293.69 219.04 294.56 218.246C295.468 217.452 296.564 217.054 297.85 217.054C298.607 217.054 299.25 217.206 299.779 217.508C300.309 217.773 300.706 218.189 300.97 218.756C301.273 219.324 301.424 220.061 301.424 220.969C301.424 222.028 301.254 223.37 300.914 224.997C300.573 226.623 300.157 228.419 299.666 230.386C299.212 232.315 298.739 234.319 298.247 236.399C297.794 238.479 297.396 240.521 297.056 242.526C296.716 244.53 296.546 246.421 296.546 248.199C296.546 249.749 296.659 250.998 296.886 251.943C297.113 252.888 297.491 253.607 298.02 254.099C298.588 254.59 299.344 254.987 300.29 255.29C301.462 255.63 302.994 255.857 304.885 255.971C306.776 256.046 308.591 256.084 310.331 256.084C312.297 256.084 313.621 255.801 314.302 255.233C314.983 254.628 315.323 253.55 315.323 252C315.323 251.395 315.342 250.411 315.38 249.05C315.455 247.65 315.531 246.005 315.607 244.114C315.682 242.223 315.758 240.238 315.833 238.158C315.947 236.04 316.041 233.979 316.117 231.974C316.231 229.932 316.325 228.098 316.401 226.472C316.476 224.845 316.533 223.578 316.571 222.671C316.76 220.553 317.233 218.7 317.989 217.111C318.746 215.485 319.88 214.672 321.393 214.672C322.414 214.672 323.265 214.918 323.946 215.409C324.626 215.863 325.156 216.695 325.534 217.905C325.95 219.116 326.234 220.855 326.385 223.125C326.461 223.994 326.517 225.11 326.555 226.472C326.593 227.833 326.612 229.346 326.612 231.01C326.612 232.674 326.612 234.47 326.612 236.399C326.612 238.29 326.593 240.238 326.555 242.242C326.555 244.209 326.536 246.194 326.499 248.199C326.499 250.165 326.499 252.056 326.499 253.872C326.499 254.779 326.707 255.422 327.123 255.801C327.576 256.141 328.238 256.311 329.108 256.311C330.205 256.311 331.302 256.254 332.398 256.141C333.533 256.027 334.573 256.027 335.519 256.141C336.54 256.33 337.353 256.67 337.958 257.162C338.601 257.616 338.922 258.467 338.922 259.715C338.922 261.455 338.468 262.646 337.561 263.289C336.691 263.894 335.537 264.291 334.1 264.48C333.23 264.594 332.228 264.745 331.094 264.934C329.997 265.085 329.014 265.255 328.144 265.445C327.123 265.671 326.423 266.163 326.045 266.92C325.704 267.676 325.459 268.943 325.307 270.72C325.232 271.817 325.137 273.046 325.024 274.408C324.948 275.769 324.853 277.112 324.74 278.436C324.664 279.721 324.551 280.78 324.4 281.612C324.059 283.352 323.454 284.638 322.584 285.47C321.752 286.34 320.58 286.775 319.067 286.775Z" fill="white"/>
<path d="M252.586 276.153C250.392 276.153 248.69 275.472 247.48 274.111C246.27 272.787 245.665 270.915 245.665 268.495C245.665 266.982 245.721 265.091 245.835 262.822C245.948 260.553 246.1 258.056 246.289 255.333C246.478 252.61 246.686 249.793 246.913 246.881C247.14 243.931 247.367 241.019 247.594 238.145C247.82 235.232 248.028 232.491 248.218 229.919C248.407 227.309 248.558 225.002 248.671 222.998C248.785 220.993 248.842 219.386 248.842 218.176C248.842 216.852 248.728 215.926 248.501 215.396C248.274 214.867 247.726 214.526 246.856 214.375C246.062 214.262 245.116 214.375 244.02 214.715C242.961 215.018 241.94 215.339 240.956 215.68C239.973 215.982 239.179 216.096 238.574 216.02C237.817 215.68 237.269 215.283 236.928 214.829C236.626 214.337 236.475 213.751 236.475 213.07C236.475 211.936 237.099 210.725 238.347 209.44C239.633 208.154 241.24 206.943 243.169 205.809C245.135 204.674 247.121 203.748 249.125 203.029C251.13 202.273 252.832 201.895 254.231 201.895C256.084 201.895 257.559 202.424 258.656 203.483C259.79 204.542 260.641 205.96 261.209 207.738C261.776 209.515 262.154 211.501 262.343 213.694C262.57 215.888 262.684 218.119 262.684 220.388C262.684 221.863 262.646 223.603 262.57 225.607C262.494 227.574 262.4 229.711 262.286 232.018C262.173 234.287 262.022 236.651 261.833 239.109C261.681 241.567 261.511 244.063 261.322 246.597C261.133 249.131 260.944 251.608 260.755 254.029C260.566 256.449 260.377 258.775 260.187 261.006C260.036 263.2 259.866 265.223 259.677 267.076C259.185 270.14 258.391 272.409 257.294 273.884C256.197 275.397 254.628 276.153 252.586 276.153Z" fill="white"/>
<path d="M233.463 156.584C231.08 156.357 228.943 155.979 227.052 155.449C225.199 154.92 223.724 154.107 222.627 153.01C221.569 151.913 221.039 150.381 221.039 148.415C221.039 146.637 221.342 144.973 221.947 143.423C222.59 141.872 223.913 140.302 225.918 138.714C227.431 137.277 229.416 135.518 231.874 133.438C234.333 131.358 236.98 129.108 239.816 126.687C242.691 124.229 245.414 121.79 247.985 119.369C249.801 117.705 251.389 116.022 252.751 114.32C254.112 112.619 255.19 110.936 255.984 109.271C256.778 107.607 257.176 106.057 257.176 104.62C257.176 101.027 256.211 98.5308 254.282 97.1314C252.391 95.7321 249.763 95.0325 246.397 95.0325C243.334 95.0325 240.705 95.5241 238.512 96.5074C236.318 97.4529 234.503 98.5875 233.066 99.9112C232.082 100.857 231.156 101.878 230.286 102.975C229.416 104.071 228.584 105.017 227.79 105.811C226.996 106.567 226.164 106.946 225.294 106.946C224.197 106.946 223.214 106.586 222.344 105.868C221.474 105.149 221.039 104.109 221.039 102.748C221.039 100.743 221.644 98.6631 222.854 96.5074C224.065 94.3517 225.804 92.3473 228.073 90.4941C230.343 88.641 233.066 87.1471 236.243 86.0125C239.419 84.8401 242.955 84.2539 246.851 84.2539C250.179 84.2539 253.261 84.5943 256.098 85.275C258.934 85.918 261.392 86.958 263.473 88.3951C265.59 89.8323 267.217 91.7233 268.351 94.0681C269.524 96.3751 270.11 99.2115 270.11 102.577C270.11 104.96 269.694 107.229 268.862 109.385C268.03 111.541 266.857 113.621 265.345 115.625C263.832 117.63 262.054 119.672 260.012 121.752C258.688 123.076 257.195 124.532 255.53 126.12C253.866 127.671 252.165 129.24 250.425 130.829C248.685 132.417 247.021 133.892 245.433 135.253C243.844 136.615 242.483 137.768 241.348 138.714C240.327 139.546 239.571 140.321 239.079 141.04C238.587 141.758 238.341 142.496 238.341 143.252C238.341 143.782 238.682 144.16 239.363 144.387C240.081 144.614 240.951 144.765 241.972 144.841C242.993 144.916 244.014 144.954 245.036 144.954C246.737 144.954 248.836 144.803 251.332 144.5C253.829 144.16 256.325 143.839 258.821 143.536C261.317 143.196 263.359 143.025 264.948 143.025C266.498 143.025 267.746 143.366 268.692 144.047C269.675 144.727 270.167 145.711 270.167 146.996C270.167 148.698 269.694 150.117 268.748 151.251C267.841 152.386 266.46 153.312 264.607 154.031C262.792 154.749 260.523 155.298 257.8 155.676C255.077 156.054 251.9 156.357 248.269 156.584C246.038 156.659 243.598 156.716 240.951 156.754C238.341 156.83 235.845 156.773 233.463 156.584Z" fill="white"/>
</svg>
