<svg width="731" height="821" viewBox="0 0 731 821" fill="none" xmlns="http://www.w3.org/2000/svg">
<path d="M372.541 165.673C372.167 165.679 371.792 165.687 371.416 165.696C365.079 165.818 358.565 166.434 352.093 167.523C337.22 170.023 323.211 174.914 312.429 181.369C301.647 187.825 294.753 195.45 292.91 202.958C292.238 204.478 291.982 206.197 292.27 207.969L296.896 236.597C297.677 241.419 302.158 244.681 306.941 243.893L334.616 239.318L342.379 287.219C306.132 297.078 272.828 313.618 244.034 335.373L227.949 315.692L241.544 304.383C244 302.343 244.361 298.714 242.338 296.238L224.607 274.525C223.343 272.978 221.457 272.267 219.623 272.444C218.524 272.549 217.434 272.962 216.513 273.728L159.543 321.061C157.087 323.101 156.723 326.734 158.745 329.21L176.503 350.923C178.525 353.398 182.115 353.733 184.57 351.694L198.192 340.411L214.817 360.763C165.906 409.57 135.849 475.729 135.849 548.584C135.849 698.621 263.355 820.407 420.469 820.407C527.346 820.407 620.481 764.059 669.142 680.795C358.467 786.57 211.482 414.676 399.192 278.484L400.425 278.276L400.321 277.636C400.387 277.583 400.457 277.531 400.525 277.482C400.447 277.482 400.37 277.495 400.294 277.509L392.558 229.79L419.077 225.418C423.86 224.63 427.082 220.119 426.301 215.296L421.83 187.721H421.853C421.836 187.662 421.82 187.603 421.803 187.544L421.648 186.669C421.435 185.361 420.949 184.177 420.261 183.149C417.521 177.786 411.613 173.314 403.192 170.23C394.771 167.145 384.164 165.568 372.545 165.673H372.541ZM357.59 172.071C357.805 172.084 357.961 172.123 358.079 172.175C340.752 176.898 309.452 195.149 304.138 204.939C299.823 212.89 299.848 224.339 299.848 224.339C299.848 224.339 298.088 214.216 298.538 205.12C299.296 189.806 350.915 171.582 357.59 172.071ZM428.772 267.221C425.97 267.221 423.284 268.343 421.304 270.341C419.323 272.338 418.21 275.047 418.21 277.871C418.21 280.696 419.323 283.405 421.304 285.402C423.284 287.399 425.97 288.521 428.772 288.521C430.159 288.522 431.533 288.247 432.814 287.712C434.096 287.177 435.261 286.392 436.242 285.403C437.223 284.414 438.002 283.24 438.533 281.948C439.064 280.655 439.337 279.27 439.337 277.871C439.337 276.472 439.064 275.087 438.533 273.795C438.002 272.502 437.223 271.328 436.242 270.339C435.261 269.35 434.096 268.566 432.814 268.031C431.533 267.496 430.159 267.221 428.772 267.221ZM481.012 273.604C478.211 273.604 475.525 274.726 473.544 276.724C471.564 278.721 470.451 281.43 470.451 284.254C470.451 287.079 471.564 289.788 473.544 291.785C475.525 293.782 478.211 294.904 481.012 294.904C483.813 294.904 486.5 293.782 488.48 291.785C490.461 289.788 491.574 287.079 491.574 284.254C491.574 281.43 490.461 278.721 488.48 276.724C486.5 274.726 483.813 273.604 481.012 273.604ZM531.445 286.529C528.644 286.529 525.958 287.651 523.977 289.648C521.997 291.645 520.884 294.354 520.884 297.179C520.884 300.003 521.997 302.712 523.977 304.709C525.958 306.707 528.644 307.829 531.445 307.829C534.246 307.829 536.933 306.707 538.913 304.709C540.894 302.712 542.007 300.003 542.007 297.179C542.007 294.354 540.894 291.645 538.913 289.648C536.933 287.651 534.246 286.529 531.445 286.529ZM587.579 290.614C585.432 290.707 583.343 291.741 581.944 293.617L548.664 338.241C546.177 341.576 546.837 346.28 550.144 348.787L557.317 354.23C560.624 356.737 565.288 356.073 567.775 352.738L601.059 308.114C603.545 304.78 602.885 300.072 599.578 297.564L592.401 292.125C590.954 291.028 589.25 290.539 587.579 290.614ZM272.018 332.96C282.97 333.266 291.453 346.631 291.01 362.872C290.568 379.112 281.352 392.109 270.4 391.804C259.448 391.503 250.965 378.006 251.408 361.766C251.85 345.525 261.067 332.659 272.018 332.96ZM616.195 344.478C610.363 344.478 605.634 349.247 605.634 355.128C605.634 361.009 610.363 365.778 616.195 365.778C622.028 365.778 626.757 361.01 626.757 355.128C626.757 349.246 622.028 344.478 616.195 344.478ZM650.94 382.056C648.14 382.056 645.454 383.178 643.474 385.174C641.493 387.171 640.38 389.878 640.379 392.702C640.379 395.527 641.492 398.236 643.472 400.233C645.453 402.23 648.139 403.352 650.94 403.352C653.742 403.352 656.428 402.23 658.408 400.233C660.389 398.236 661.502 395.527 661.502 392.702C661.501 389.878 660.388 387.171 658.407 385.174C656.427 383.178 653.741 382.056 650.94 382.056ZM248.247 417.271C261.244 417.63 271.36 433.565 270.835 452.837C270.31 472.109 259.344 487.425 246.347 487.066C233.351 486.706 223.261 470.799 223.786 451.527C224.311 432.255 235.252 416.911 248.247 417.271ZM678.416 431.56C675.615 431.56 672.928 432.682 670.948 434.68C668.967 436.677 667.854 439.386 667.854 442.21C667.854 445.035 668.967 447.743 670.948 449.741C672.928 451.738 675.615 452.86 678.416 452.86C681.217 452.86 683.903 451.738 685.884 449.741C687.864 447.743 688.977 445.035 688.977 442.21C688.977 439.386 687.864 436.677 685.884 434.68C683.903 432.682 681.217 431.56 678.416 431.56ZM721.995 477.803C721.498 477.79 720.992 477.842 720.484 477.934L666.073 488.272C662.007 489.044 659.348 492.968 660.114 497.068L661.776 505.964C662.541 510.064 666.432 512.742 670.498 511.97L724.913 501.632C728.979 500.86 731.635 496.936 730.868 492.836L729.207 483.943C728.537 480.356 725.474 477.854 721.995 477.803ZM166.685 485.601C173.303 542.559 196.128 597.525 231.727 642.25C224.224 647.756 218.592 655.462 216.821 664.888C214.371 677.93 219.981 690.499 229.206 699.783C238.431 709.067 251.408 715.752 266.418 718.62C281.428 721.486 295.939 720.053 307.893 714.816C309.247 714.224 310.608 713.596 311.902 712.888C325.317 721.115 339.428 728.303 353.939 734.347C353.45 732.167 353.254 730.075 353.658 727.921C356.552 712.516 382.451 704.401 411.426 709.936C440.4 715.47 461.55 732.559 458.656 747.965C458.026 751.321 456.248 754.317 453.645 756.907C492.107 758.727 530.886 753.161 567.304 740.541C511.173 788.674 433.076 809.64 360.646 795.993C296.72 783.781 238.274 745.032 201.634 690.817C164.995 636.602 150.623 567.584 162.73 503.124C163.841 497.237 165.16 491.391 166.685 485.601ZM700.926 535.76C698.125 535.76 695.439 536.882 693.458 538.88C691.478 540.877 690.365 543.586 690.365 546.41C690.365 549.235 691.478 551.944 693.458 553.941C695.439 555.938 698.125 557.06 700.926 557.06C702.314 557.061 703.687 556.786 704.969 556.251C706.251 555.716 707.416 554.931 708.397 553.942C709.378 552.953 710.156 551.779 710.687 550.487C711.218 549.194 711.492 547.809 711.492 546.41C711.492 545.011 711.218 543.626 710.687 542.334C710.156 541.041 709.378 539.867 708.397 538.878C707.416 537.889 706.251 537.105 704.969 536.57C703.687 536.035 702.314 535.76 700.926 535.76ZM696.837 587.365C694.035 587.365 691.349 588.487 689.368 590.484C687.388 592.482 686.275 595.19 686.275 598.015C686.275 600.84 687.388 603.548 689.368 605.546C691.349 607.543 694.035 608.665 696.837 608.665C698.224 608.666 699.598 608.39 700.879 607.855C702.161 607.32 703.326 606.536 704.307 605.547C705.288 604.558 706.067 603.384 706.598 602.091C707.129 600.799 707.402 599.414 707.402 598.015C707.402 596.616 707.129 595.231 706.598 593.939C706.067 592.646 705.288 591.472 704.307 590.483C703.326 589.494 702.161 588.71 700.879 588.175C699.598 587.64 698.224 587.364 696.837 587.365ZM680.142 639.132C677.341 639.132 674.655 640.254 672.674 642.251C670.694 644.248 669.581 646.957 669.581 649.782C669.581 652.606 670.694 655.315 672.674 657.312C674.655 659.31 677.341 660.432 680.142 660.432C682.944 660.432 685.63 659.31 687.611 657.312C689.591 655.315 690.704 652.606 690.704 649.782C690.704 646.957 689.591 644.248 687.611 642.251C685.63 640.254 682.944 639.132 680.142 639.132ZM276.825 643.738C280.683 643.659 284.686 643.987 288.774 644.767C310.578 648.932 325.988 664.38 323.18 679.331C320.371 694.281 300.425 703 278.621 698.835C256.817 694.67 241.407 679.194 244.216 664.244C246.498 652.097 260.109 644.086 276.825 643.738Z" fill="#A66547"/>
<path d="M406.595 461.367C406.802 463.932 407.573 466.48 408.908 469.009C410.557 472.126 409.73 474.288 406.428 475.497L404.472 476.215C403.464 476.595 402.345 476.559 401.357 476.116C400.369 475.673 399.591 474.857 399.191 473.845L388.997 448.476C388.317 446.808 387.263 446.501 385.835 447.553C383.664 449.086 381.285 450.093 378.7 450.576C377.783 450.748 376.836 450.669 375.96 450.348C375.083 450.027 374.31 449.475 373.721 448.751L369 442.81C368.232 441.867 367.181 441.208 366.013 440.935C316.663 430.308 268.536 417.213 221.631 401.65C220.088 401.142 218.393 401.19 216.83 401.785C189.64 412.346 162.921 417.666 136.672 417.745C108.497 417.849 69.5172 401.815 83.3632 365.185C93.6489 337.961 114.402 313.415 133.687 292.335C133.903 292.09 134.182 291.909 134.492 291.808C134.803 291.708 135.136 291.693 135.454 291.765C135.773 291.837 136.066 291.993 136.304 292.217C136.542 292.441 136.716 292.724 136.806 293.038C139.951 303.781 144.315 313.787 149.899 323.055C150.767 324.503 152.014 324.982 153.64 324.493C248.528 294.883 328.356 243.406 393.123 170.061C394.34 168.683 394.435 167.222 393.407 165.68C387.479 156.898 380.159 148.765 371.449 141.284C371.217 141.092 371.042 140.841 370.942 140.557C370.841 140.274 370.819 139.967 370.877 139.668C370.936 139.37 371.072 139.09 371.273 138.858C371.475 138.626 371.733 138.449 372.023 138.346C399.6 129.049 487.683 103.484 486.29 159.879C485.363 196.865 458.353 234.137 432.922 260.614C431.966 261.613 431.367 262.92 431.22 264.329C426.028 314.452 418.291 363.435 408.008 411.279C406.77 417.014 408.113 422.617 409.906 428.076C410.179 428.921 410.165 429.834 409.865 430.67C409.565 431.507 408.996 432.221 408.248 432.7L404.112 435.319C402.089 436.624 401.925 438.129 403.617 439.835L432.676 468.885C434.467 470.692 434.485 472.506 432.731 474.329L430.357 476.848C429.981 477.251 429.526 477.573 429.021 477.794C428.517 478.016 427.972 478.132 427.421 478.137C426.87 478.141 426.323 478.034 425.815 477.821C425.307 477.608 424.847 477.293 424.464 476.897L408.553 460.498C407.103 458.965 406.451 459.254 406.595 461.367ZM401.967 290.852C352.679 334.002 299.143 367.811 241.36 392.281C237.638 393.859 237.71 395.245 241.574 396.439C283.076 409.035 325.805 420.395 369.761 430.519C371.894 431.019 373.872 430.666 375.693 429.458L392.827 418.208C394.625 417.015 395.743 415.356 396.182 413.229C404.975 370.527 412.355 326.398 418.322 280.845C418.91 276.45 417.634 275.824 414.495 278.969C410.264 283.278 406.088 287.239 401.967 290.852Z" fill="#F68C32"/>
<path d="M259.968 109.173C314.787 97.0118 372.499 112.83 405.398 160.217C405.859 160.88 406.082 161.68 406.03 162.486C405.979 163.292 405.656 164.057 405.114 164.656C332.623 244.216 245.731 300.306 144.437 332.926C143.414 333.251 142.312 333.217 141.318 332.828C140.323 332.439 139.497 331.719 138.98 330.791C86.1286 234.31 165 130.212 259.968 109.173Z" fill="#BB631C"/>
<path d="M454.116 435.204L462.327 426.628H482.017L489.749 435.204H454.116ZM451.725 396.217L460.334 404.475V423.929L451.725 431.71V396.217ZM460.972 399.076C459.112 397.594 457.225 396.138 455.312 394.709L460.972 390.5H482.734L488.314 394.709L482.734 399.076H460.972ZM454.036 354.531H489.669L481.777 363.107H462.247L454.036 354.531ZM492.061 357.946V393.438L483.451 385.736V366.124L492.061 357.946Z" fill="#FFF7FB"/>
<path d="M525.582 479.94L531.778 473.392H546.638L552.473 479.94H525.582ZM523.777 450.169L530.274 456.475V471.33L523.777 477.272V450.169ZM554.398 477.272L547.901 471.027V456.111L554.398 450.169V477.272ZM525.521 418.336H552.413L546.457 424.884H531.718L525.521 418.336ZM523.596 448.046V420.943L530.094 426.824V441.862L523.596 448.046ZM554.218 420.943V448.046L547.721 442.165V427.188L554.218 420.943Z" fill="#FFF7FB"/>
<path d="M471.526 601.682L458.682 589.404V560.079L471.526 548.397V601.682ZM471.169 490.941V544.225L458.325 532.662V503.219L471.169 490.941Z" fill="#FFF7FB"/>
<path d="M532.294 631.406L542.46 620.747H566.837L576.41 631.406H532.294ZM529.333 582.947L539.992 593.212V617.392L529.333 627.064V582.947ZM579.569 627.064L568.91 616.898V592.62L579.569 582.947V627.064ZM540.782 586.5C538.479 584.658 536.143 582.849 533.774 581.072L540.782 575.841H567.725L574.634 581.072L567.725 586.5H540.782ZM532.195 531.133H576.312L566.541 541.792H542.361L532.195 531.133ZM529.037 579.493V535.377L539.696 544.95V569.426L529.037 579.493ZM579.273 535.377V579.493L568.614 569.92V545.542L579.273 535.377Z" fill="white"/>
</svg>
