<svg width="699" height="723" viewBox="0 0 699 723" fill="none" xmlns="http://www.w3.org/2000/svg">
<path d="M353.598 0.00439699C353.261 0.009779 352.923 0.0167215 352.584 0.0252247C346.878 0.134768 341.012 0.689421 335.183 1.67061C321.789 3.92244 309.172 8.32661 299.463 14.1401C289.753 19.9535 283.545 26.8204 281.885 33.5821C281.279 34.9506 281.049 36.4989 281.309 38.0948L285.474 63.876C286.178 68.2187 290.213 71.1566 294.52 70.4471L319.444 66.3267L326.435 109.464C293.792 118.344 263.8 133.239 237.869 152.831C239.691 155.061 240.08 150.994 237.869 152.831C239.52 152.671 236.73 151.438 237.869 152.831C236.048 150.601 235.658 154.668 237.869 152.831C235.658 154.668 239.69 155.06 237.869 152.831C193.821 196.785 140.44 279.231 140.44 344.842C140.44 479.959 255.269 589.636 396.76 589.636C493.01 589.636 576.884 538.891 620.706 463.906C340.923 559.163 208.553 224.249 377.598 101.598L378.709 101.411L378.615 100.835C378.675 100.787 378.738 100.74 378.799 100.696C378.728 100.696 378.66 100.708 378.591 100.72L371.624 57.7457L395.507 53.8093C399.814 53.0995 402.715 49.0363 402.012 44.6937L397.985 19.8601H398.006C397.991 19.8068 397.976 19.7536 397.961 19.7004L397.822 18.9125C397.63 17.7347 397.192 16.6686 396.572 15.7432C394.105 10.9128 388.785 6.88603 381.201 4.1083C373.617 1.33057 364.065 -0.0897815 353.601 0.00439699H353.598ZM340.133 5.76672C340.327 5.7781 340.467 5.81306 340.574 5.86045C324.969 10.113 296.782 26.5494 291.997 35.3663C288.11 42.5266 288.133 52.8373 288.133 52.8373C288.133 52.8373 286.547 43.721 286.953 35.5295C287.635 21.7377 334.122 5.3263 340.133 5.76672ZM404.237 91.4553C401.714 91.4554 399.295 92.466 397.512 94.2646C395.728 96.0633 394.726 98.5028 394.726 101.046C394.726 103.59 395.728 106.03 397.512 107.828C399.295 109.627 401.714 110.637 404.237 110.638C405.486 110.638 406.724 110.39 407.878 109.908C409.032 109.427 410.081 108.72 410.965 107.829C411.848 106.939 412.549 105.881 413.027 104.718C413.506 103.554 413.752 102.306 413.752 101.046C413.752 99.7867 413.506 98.5392 413.027 97.3754C412.549 96.2115 411.848 95.1541 410.965 94.2634C410.081 93.3728 409.032 92.6664 407.878 92.1845C406.724 91.7027 405.486 91.4549 404.237 91.4553ZM451.283 97.2038C448.761 97.2039 446.342 98.2144 444.558 100.013C442.774 101.812 441.772 104.251 441.772 106.795C441.772 109.339 442.774 111.778 444.558 113.577C446.342 115.375 448.761 116.386 451.283 116.386C453.806 116.386 456.225 115.375 458.009 113.577C459.793 111.778 460.795 109.339 460.795 106.795C460.795 104.251 459.793 101.812 458.009 100.013C456.225 98.2144 453.806 97.2039 451.283 97.2038ZM496.702 108.843C494.179 108.843 491.76 109.854 489.976 111.652C488.192 113.451 487.19 115.89 487.19 118.434C487.19 120.978 488.192 123.417 489.976 125.216C491.76 127.015 494.179 128.025 496.702 128.025C499.224 128.025 501.643 127.015 503.427 125.216C505.211 123.417 506.213 120.978 506.213 118.434C506.213 115.89 505.211 113.451 503.427 111.652C501.643 109.854 499.224 108.843 496.702 108.843ZM547.254 112.523C545.32 112.606 543.439 113.537 542.179 115.227L512.208 155.414C509.968 158.416 510.563 162.653 513.541 164.911L520.001 169.813C522.979 172.071 527.179 171.472 529.418 168.469L559.393 128.282C561.632 125.279 561.038 121.04 558.06 118.781L551.596 113.883C550.293 112.895 548.758 112.454 547.254 112.523ZM263.07 150.658C272.933 150.933 280.572 162.969 280.173 177.595C279.775 192.221 271.476 203.925 261.612 203.651C251.75 203.379 244.111 191.225 244.509 176.599C244.908 161.973 253.207 150.387 263.07 150.658ZM573.025 161.03C567.772 161.031 563.514 165.325 563.513 170.621C563.514 175.918 567.772 180.212 573.025 180.213C578.278 180.212 582.536 175.918 582.536 170.621C582.536 165.325 578.278 161.03 573.025 161.03ZM604.315 194.872C601.793 194.872 599.374 195.882 597.59 197.68C595.807 199.478 594.804 201.916 594.803 204.459C594.803 207.003 595.806 209.443 597.589 211.241C599.373 213.04 601.792 214.05 604.315 214.051C606.837 214.05 609.257 213.04 611.04 211.241C612.824 209.443 613.826 207.003 613.826 204.459C613.825 201.916 612.823 199.478 611.039 197.68C609.255 195.882 606.837 194.872 604.315 194.872ZM241.663 226.585C253.368 226.909 262.478 241.259 262.005 258.615C261.532 275.971 251.656 289.764 239.952 289.44C228.248 289.116 219.161 274.79 219.634 257.435C220.107 240.079 229.959 226.261 241.663 226.585ZM629.058 239.453C626.536 239.454 624.116 240.464 622.333 242.263C620.549 244.061 619.547 246.501 619.547 249.045C619.547 251.588 620.549 254.028 622.333 255.826C624.116 257.625 626.536 258.636 629.058 258.636C631.581 258.636 634 257.625 635.784 255.826C637.567 254.028 638.569 251.588 638.569 249.045C638.569 246.501 637.567 244.061 635.784 242.263C634 240.464 631.581 239.454 629.058 239.453ZM668.304 281.098C667.856 281.087 667.401 281.133 666.944 281.216L617.943 290.526C614.281 291.222 611.887 294.755 612.576 298.448L614.073 306.46C614.762 310.152 618.266 312.563 621.928 311.868L670.932 302.558C674.594 301.862 676.985 298.329 676.295 294.636L674.799 286.628C674.196 283.397 671.437 281.145 668.304 281.098ZM168.211 288.121C174.171 339.415 194.726 388.916 226.785 429.194C220.028 434.152 214.957 441.092 213.362 449.58C211.155 461.326 216.208 472.645 224.515 481.006C232.823 489.367 244.509 495.387 258.027 497.97C271.544 500.551 284.613 499.261 295.378 494.544C296.597 494.011 297.823 493.446 298.988 492.808C311.069 500.217 323.777 506.691 336.846 512.133C336.405 510.17 336.228 508.286 336.592 506.346C339.199 492.473 362.522 485.165 388.616 490.149C414.709 495.133 433.757 510.523 431.15 524.397C430.582 527.419 428.981 530.118 426.637 532.45C461.275 534.089 496.198 529.077 528.995 517.711C478.445 561.058 408.113 579.94 342.886 567.649C285.316 556.652 232.681 521.755 199.685 472.932C166.689 424.108 153.745 361.952 164.649 303.901C165.649 298.6 166.838 293.335 168.211 288.121ZM649.33 333.293C646.808 333.293 644.389 334.303 642.605 336.102C640.821 337.901 639.819 340.34 639.819 342.884C639.819 345.427 640.821 347.867 642.605 349.665C644.389 351.464 646.808 352.475 649.33 352.475C650.58 352.475 651.817 352.227 652.971 351.746C654.126 351.264 655.175 350.557 656.058 349.667C656.942 348.776 657.643 347.719 658.121 346.555C658.599 345.391 658.845 344.143 658.845 342.884C658.845 341.624 658.599 340.376 658.121 339.213C657.643 338.049 656.942 336.991 656.058 336.101C655.175 335.21 654.126 334.504 652.971 334.022C651.817 333.54 650.58 333.292 649.33 333.293ZM645.647 379.766C643.125 379.766 640.706 380.777 638.922 382.575C637.138 384.374 636.136 386.814 636.136 389.357C636.136 391.901 637.138 394.34 638.922 396.139C640.706 397.938 643.125 398.948 645.647 398.948C646.897 398.949 648.134 398.701 649.288 398.219C650.443 397.737 651.492 397.031 652.375 396.14C653.259 395.25 653.96 394.192 654.438 393.028C654.916 391.864 655.162 390.617 655.162 389.357C655.162 388.097 654.916 386.85 654.438 385.686C653.96 384.522 653.259 383.465 652.375 382.574C651.492 381.683 650.443 380.977 649.288 380.495C648.134 380.013 646.897 379.766 645.647 379.766ZM630.613 426.385C628.091 426.386 625.671 427.396 623.888 429.195C622.104 430.993 621.102 433.433 621.102 435.977C621.102 438.52 622.104 440.96 623.888 442.758C625.671 444.557 628.091 445.568 630.613 445.568C633.136 445.568 635.555 444.557 637.339 442.758C639.122 440.96 640.124 438.52 640.125 435.977C640.124 433.433 639.122 430.993 637.339 429.195C635.555 427.396 633.136 426.386 630.613 426.385ZM267.399 430.534C270.873 430.462 274.478 430.758 278.16 431.46C297.796 435.211 311.674 449.124 309.145 462.587C306.615 476.051 288.652 483.903 269.017 480.152C249.381 476.401 235.502 462.465 238.032 449.001C240.087 438.061 252.345 430.848 267.399 430.534Z" fill="#6FBF31"/>
<path d="M179.657 243.116C193.074 250.688 204.161 235.478 204.161 235.478C204.161 235.478 198.233 219.867 180.95 210.667C174.805 207.397 168.765 204.064 162.829 200.665C140.54 187.921 124.369 169.979 114.317 146.84C111.983 141.447 109.624 136.414 107.24 131.739C91.3104 100.538 44.7817 94.3473 20.2231 117.456C-3.44895 139.747 -6.48293 172.745 15.237 198.277C31.4077 217.291 52.2881 220.348 75.455 215.433C90.4734 212.256 109.136 211.259 122.953 216.289C140.153 222.558 159.054 231.5 179.657 243.116Z" fill="#6FBF31"/>
<path d="M463.343 570.693C460.459 560.58 447.78 562.648 447.78 562.648C447.78 562.648 443.171 573.073 447.15 585.83C448.566 590.366 449.9 594.882 451.152 599.38C455.863 616.26 455.11 632.729 448.892 648.788C447.439 652.526 446.17 656.102 445.085 659.515C437.855 682.308 457.48 707.633 480.491 708.191C502.679 708.721 519.98 694.152 521.68 671.335C522.947 654.345 514.274 642.845 500.666 634.119C491.849 628.458 482.308 619.99 478.011 610.92C472.665 599.625 467.776 586.217 463.343 570.693Z" fill="#6FBF31"/>
<path d="M239.152 159.952C245.57 168.324 250.342 149.509 250.342 149.509C250.342 149.509 262.984 153.729 254.568 143.294C251.576 139.585 253.168 147.028 250.342 143.294C239.724 129.282 234.355 113.639 234.236 96.3651C234.214 92.3419 234.08 88.538 233.833 84.9535C232.176 61.0232 204.531 44.6313 182.857 52.5935C161.962 60.2782 151.191 80.249 158.017 102.162C163.097 118.481 175.429 126.013 191.341 129.137C201.654 131.168 213.677 135.551 221.03 142.429C230.18 150.996 229.293 147.104 239.152 159.952Z" fill="#6FBF31"/>
<path d="M523.122 537.917C523.122 537.917 527.973 519.294 533.974 527.97C540.68 537.657 533.013 530.218 531.695 528.912C532.001 529.22 532.705 529.936 533.974 531.247C540.981 538.476 552.776 543.443 562.976 545.976C578.717 549.876 590.665 558.002 594.94 574.55C600.685 596.771 588.95 616.191 567.703 622.843C545.666 629.735 518.856 612.009 518.373 588.027C518.302 584.434 518.354 580.628 518.528 576.609C519.255 559.35 526.651 560.491 516.732 545.976C514.092 542.108 519.54 546.741 516.732 542.89C508.837 532.055 523.122 537.917 523.122 537.917Z" fill="#6FBF31"/>
<path d="M309.274 565.765C316.227 552.016 291.755 558.305 291.755 558.305C291.755 558.305 282.734 540.622 274.331 558.305C271.345 564.592 277.455 538.891 274.331 544.975C262.615 567.821 245.428 584.792 222.771 595.888C217.49 598.465 212.57 601.051 208.009 603.645C177.565 620.98 173.5 667.742 197.704 691.223C221.049 713.855 254.152 715.383 278.668 692.523C296.926 675.503 299.028 654.505 293.063 631.586C289.206 616.728 287.36 598.129 291.755 584.097C297.234 566.63 295.846 567.754 309.274 565.765Z" fill="#6FBF31"/>
<path d="M208.074 494.885C215.871 488.731 202.597 485.685 202.597 485.685C202.597 485.685 205.482 471.214 195.769 479.275C192.317 482.142 198.097 477.975 194.618 480.685C181.567 490.867 166.911 496.128 150.65 496.469C146.862 496.544 143.283 496.721 139.912 497C117.404 498.877 102.338 525.122 110.121 545.421C117.633 564.992 136.578 574.868 157.118 568.151C172.414 563.151 179.341 551.442 182.072 536.42C183.848 526.684 187.815 515.306 194.193 508.293C202.136 499.564 196.108 504.337 208.074 494.885Z" fill="#6FBF31"/>
<path d="M165.939 408.149C175.992 405.567 164.325 409.35 164.325 409.35C164.325 409.35 165.057 408.844 165.939 408.149C150.508 412.119 179.04 418.771 167.757 423.751C158.697 427.754 157.316 432.656 151.501 441.208C142.539 454.406 130.967 462.665 114.237 460.972C91.7696 458.702 77.8454 441.252 78.9456 419.375C80.0949 396.687 105.591 377.983 127.891 385.71C131.231 386.869 134.726 388.214 138.376 389.745C154.058 396.297 145.851 401.881 162.628 397.673C167.098 396.554 158.409 406.421 162.92 405.142C172.379 402.463 168.518 406.115 165.939 408.149Z" fill="#6FBF31"/>
<path d="M370.995 577.256C371.728 566.903 371.624 579.167 371.624 579.167C371.624 579.167 371.375 578.312 370.995 577.256C369.876 593.15 385.218 568.192 386.37 580.47C387.299 590.332 391.511 593.194 397.782 601.417C407.465 614.097 411.634 627.688 404.732 643.022C395.466 663.615 374.506 671.298 354.103 663.329C332.945 655.056 323.275 624.949 337.664 606.243C339.821 603.442 342.203 600.552 344.811 597.575C355.991 584.774 358.69 594.326 360.009 577.08C360.363 572.486 366.972 583.852 367.187 579.167C367.64 569.347 369.882 574.165 370.995 577.256Z" fill="#6FBF31"/>
<path d="M153.613 318.892C163.598 319.327 155.935 302.759 155.935 302.759C155.935 302.759 168.019 296.293 155.32 296.053C150.805 295.969 153.514 298.355 149.082 298.134C132.446 297.317 117.82 291.695 105.204 281.268C102.269 278.836 99.425 276.619 96.6721 274.616C78.2872 261.256 49.5596 271.354 42.1509 291.938C35.0143 311.788 42.9607 331.763 63.0271 340.142C77.9685 346.384 90.9425 342.014 102.895 332.361C110.646 326.109 121.146 320.045 130.615 318.892C142.405 317.461 138.284 318.232 153.613 318.892Z" fill="#6FBF31"/>
<path d="M433.22 219.275L439.511 212.704H454.597L460.521 219.275H433.22ZM431.388 189.404L437.984 195.731V210.636L431.388 216.598V189.404ZM438.473 191.594C437.047 190.458 435.602 189.343 434.136 188.248L438.473 185.024H455.147L459.422 188.248L455.147 191.594H438.473ZM433.159 157.465H460.46L454.414 164.035H439.45L433.159 157.465ZM462.293 160.081V187.275L455.696 181.374V166.347L462.293 160.081Z" fill="#6FBF31"/>
<path d="M433.22 219.275L439.511 212.704H454.597L460.521 219.275H433.22ZM431.388 189.404L437.984 195.731V210.636L431.388 216.598V189.404ZM438.473 191.594C437.047 190.458 435.602 189.343 434.136 188.248L438.473 185.024H455.147L459.422 188.248L455.147 191.594H438.473ZM433.159 157.465H460.46L454.414 164.035H439.45L433.159 157.465ZM462.293 160.081V187.275L455.696 181.374V166.347L462.293 160.081Z" fill="#6FBF31"/>
<path d="M413.418 400.328L423.878 389.361H448.96L458.81 400.328H413.418ZM410.372 350.468L421.339 361.029V385.908L410.372 395.86V350.468ZM422.151 354.124C419.782 352.228 417.379 350.367 414.942 348.539L422.151 343.157H449.874L456.982 348.539L449.874 354.124H422.151ZM413.317 297.156H458.708L448.655 308.123H423.776L413.317 297.156ZM461.755 301.523V346.914L450.788 337.064V311.982L461.755 301.523Z" fill="#6FBF31"/>
<path d="M413.418 400.328L423.878 389.361H448.96L458.81 400.328H413.418ZM410.372 350.468L421.339 361.029V385.908L410.372 395.86V350.468ZM422.151 354.124C419.782 352.228 417.379 350.367 414.942 348.539L422.151 343.157H449.874L456.982 348.539L449.874 354.124H422.151ZM413.317 297.156H458.708L448.655 308.123H423.776L413.317 297.156ZM461.755 301.523V346.914L450.788 337.064V311.982L461.755 301.523Z" fill="#6FBF31"/>
<path d="M492.956 276.139L499.919 268.912H516.617L523.175 276.139H492.956ZM490.927 243.281L498.229 250.241V266.637L490.927 273.195V243.281ZM525.338 273.195L518.037 266.302V249.84L525.338 243.281V273.195ZM492.888 208.148H523.107L516.414 215.376H499.851L492.888 208.148ZM490.725 240.939V211.026L498.026 217.517V234.113L490.725 240.939ZM525.135 211.026V240.939L517.834 234.448V217.919L525.135 211.026Z" fill="#6FBF31"/>
<path d="M507.172 444.603L516.376 435.088H538.448L547.116 444.603H507.172ZM504.491 401.343L514.142 410.506V432.092L504.491 440.727V401.343ZM549.976 440.727L540.325 431.652V409.977L549.976 401.343V440.727ZM507.082 355.086H547.027L538.18 364.602H516.287L507.082 355.086ZM504.223 398.259V358.875L513.874 367.421V389.272L504.223 398.259ZM549.708 358.875V398.259L540.057 389.712V367.95L549.708 358.875Z" fill="#6FBF31"/>
<path d="M414.081 184.66H447.098L439.785 192.077H421.689L414.081 184.66Z" fill="#6FBF31"/>
<path d="M430.95 184.66H463.967L456.654 192.077H438.558L430.95 184.66Z" fill="#6FBF31"/>
<path d="M447.819 184.66H480.836L473.523 192.077H455.427L447.819 184.66Z" fill="#6FBF31"/>
<path d="M474.654 239.055H507.671L500.359 246.472H482.262L474.654 239.055Z" fill="#6FBF31"/>
<path d="M491.523 239.055H524.54L517.227 246.472H499.131L491.523 239.055Z" fill="#6FBF31"/>
<path d="M508.392 239.055H541.409L534.096 246.472H516L508.392 239.055Z" fill="#6FBF31"/>
<path d="M483.336 395.867H526.627L517.039 405.814H493.311L483.336 395.867Z" fill="#6FBF31"/>
<path d="M505.454 395.867H548.746L539.158 405.814H515.43L505.454 395.867Z" fill="#6FBF31"/>
<path d="M527.573 395.867H570.864L561.276 405.814H537.548L527.573 395.867Z" fill="#6FBF31"/>
<path d="M391.829 344.129H435.851L426.101 354.018H401.973L391.829 344.129Z" fill="#6FBF31"/>
<path d="M414.321 344.129H458.343L448.593 354.018H424.465L414.321 344.129Z" fill="#6FBF31"/>
<path d="M436.813 344.129H480.835L471.085 354.018H446.957L436.813 344.129Z" fill="#6FBF31"/>
</svg>
