<svg width="828" height="715" viewBox="0 0 828 715" fill="none" xmlns="http://www.w3.org/2000/svg">
<path d="M235.32 64.0634C234.948 64.0694 234.575 64.0771 234.201 64.0864C227.901 64.2074 221.425 64.8197 214.99 65.9029C200.203 68.3889 186.275 73.2509 175.556 79.6688C164.837 86.0867 157.983 93.6675 156.15 101.132C155.482 102.643 155.228 104.352 155.514 106.114L160.113 134.576C160.89 139.37 165.345 142.613 170.1 141.83L197.615 137.281L205.333 184.904C169.296 194.707 136.185 211.15 107.558 232.78L91.5665 213.212L105.083 201.969C107.524 199.941 107.883 196.333 105.872 193.871L88.2439 172.285C86.9869 170.746 85.1114 170.039 83.2889 170.215C82.1954 170.32 81.1119 170.73 80.1963 171.491L23.5565 218.551C21.1156 220.578 20.7533 224.191 22.7632 226.652L40.4182 248.239C42.429 250.7 45.998 251.033 48.4389 249.005L61.9819 237.788L78.5102 258.022C29.8831 306.546 0 372.321 0 444.754C0 593.92 126.767 715 282.969 715C389.227 715 481.821 658.979 530.2 576.198C221.327 681.359 75.1946 311.623 261.816 176.22L263.042 176.013L262.938 175.377C263.004 175.325 263.074 175.272 263.142 175.224C263.063 175.224 262.987 175.237 262.912 175.251L255.22 127.808L281.586 123.462C286.34 122.679 289.544 118.193 288.767 113.399L284.322 85.9836H284.345C284.329 85.9248 284.312 85.866 284.295 85.8073L284.142 84.9374C283.93 83.6372 283.447 82.4602 282.762 81.4386C280.038 76.1061 274.165 71.6606 265.793 68.594C257.42 65.5275 246.875 63.9595 235.324 64.0634H235.32ZM220.455 70.4249C220.669 70.4374 220.824 70.476 220.941 70.5284C203.715 75.2231 172.597 93.3684 167.314 103.102C163.023 111.007 163.048 122.389 163.048 122.389C163.048 122.389 161.298 112.325 161.745 103.282C162.499 88.0564 213.819 69.9387 220.455 70.4249ZM135.38 230.381C146.268 230.684 154.702 243.972 154.261 260.119C153.822 276.265 144.659 289.186 133.77 288.883C122.882 288.583 114.449 275.165 114.889 259.019C115.329 242.872 124.492 230.081 135.38 230.381ZM111.747 314.202C124.668 314.559 134.726 330.402 134.203 349.562C133.682 368.722 122.779 383.949 109.858 383.592C96.9371 383.235 86.9051 367.419 87.4277 348.259C87.9496 329.099 98.8263 313.845 111.747 314.202ZM30.6575 382.136C37.2372 438.763 59.9302 493.411 95.322 537.876C87.8623 543.35 82.2637 551.011 80.5029 560.383C78.0672 573.349 83.6447 585.845 92.8158 595.075C101.987 604.306 114.889 610.952 129.812 613.803C144.735 616.653 159.162 615.228 171.046 610.021C172.393 609.432 173.746 608.808 175.032 608.105C188.37 616.284 202.398 623.43 216.826 629.439C216.339 627.271 216.144 625.192 216.546 623.05C219.424 607.734 245.172 599.667 273.979 605.169C302.785 610.672 323.813 627.661 320.935 642.978C320.308 646.314 318.541 649.294 315.953 651.869C354.192 653.678 392.746 648.144 428.953 635.597C373.147 683.451 295.503 704.295 223.494 690.727C159.938 678.587 101.831 640.062 65.4041 586.162C28.9775 532.261 14.6882 463.643 26.7257 399.557C27.8297 393.705 29.1416 387.892 30.6575 382.136ZM140.159 539.355C143.994 539.277 147.974 539.603 152.039 540.378C173.716 544.519 189.037 559.878 186.245 574.742C183.452 589.606 163.622 598.273 141.945 594.133C120.267 589.992 104.946 574.606 107.738 559.743C110.007 547.666 123.539 539.702 140.159 539.355Z" fill="#94C94F"/>
<path d="M692.735 141.605C692.663 142.293 692.867 142.864 693.347 143.316C694.854 144.737 696.576 146.288 698.511 147.968C700.525 149.712 700.242 152.547 697.35 153.053C694.587 153.533 692.277 153.959 690.42 154.332C689.194 154.58 688.842 155.44 688.345 156.505C687.618 158.062 686.943 159.613 686.318 161.16C685.845 162.328 685.305 163.119 684.698 163.531C683.262 164.506 681.603 163.855 680.835 162.39C679.615 160.07 678.48 157.993 677.429 156.158C677.005 155.417 676.312 154.995 675.351 154.893C673.019 154.65 670.714 154.407 668.434 154.164C666.006 153.907 665.122 151.293 666.766 149.556C668.419 147.807 670.016 146.126 671.555 144.512C672.228 143.803 672.464 142.968 672.263 142.007C671.793 139.759 671.312 137.529 670.82 135.318C670.257 132.811 672.431 131.057 674.743 132.177C676.863 133.205 678.967 134.21 681.055 135.194C681.857 135.568 682.635 135.545 683.389 135.127C685.21 134.119 687.192 132.972 689.333 131.685C691.781 130.214 694.067 131.838 693.631 134.651C693.263 137.051 692.964 139.369 692.735 141.605Z" fill="white"/>
<path d="M725.323 299.591C648.599 280.679 567.038 290.881 496.881 326.321C492.721 328.425 488.386 327.228 485.734 323.322C483.664 320.272 481.554 317.23 479.405 314.196C477.5 311.503 476.42 309.55 476.163 308.339C475.618 305.767 476.179 303.433 477.845 301.337C479.098 299.761 481.135 298.67 482.843 297.578C517.34 275.441 554.571 259.387 594.538 249.417C641.251 237.761 688.478 234.904 736.22 240.846C738.915 241.183 740.557 241.459 741.146 241.677C745.513 243.295 747.517 247.481 746.326 252.018C742.607 266.169 738.938 280.008 735.317 293.534C734.152 297.905 729.792 300.691 725.323 299.591ZM501.103 305.898C501.113 305.914 501.127 305.918 501.144 305.91C532.247 291.45 564.847 281.808 598.943 276.985C640.261 271.139 681.015 272.667 721.203 281.57C721.295 281.592 721.354 281.557 721.378 281.463L727.921 256.787C727.929 256.758 727.929 256.728 727.924 256.698C727.919 256.669 727.907 256.641 727.89 256.617C727.872 256.592 727.85 256.571 727.824 256.556C727.798 256.541 727.769 256.532 727.74 256.529C678.364 251.439 629.865 255.97 582.241 270.121C554.089 278.485 527.035 290.338 501.078 305.68C501.033 305.708 501.022 305.743 501.046 305.787L501.103 305.898Z" fill="#9DD053"/>
<path d="M715.532 345.891C712.859 341.984 709.758 341.139 706.926 345.646C704.108 350.13 701.445 355.761 696.59 358.373C689.508 362.185 681.97 359.933 677.13 353.678C675.532 351.616 673.815 349.279 671.979 346.666C671.072 345.378 669.629 344.191 667.993 344.139C660.19 343.904 660.393 332.953 668.226 333.055C676.635 333.162 680.823 339.69 685.055 345.891C686.061 347.364 687.132 348.354 688.268 348.859C690.899 350.026 692.937 347.342 694.131 345.297C697.211 340.046 700.543 333.786 706.958 332.061C713.902 330.197 719.861 333.091 723.925 338.659C725.484 340.793 726.987 342.856 728.432 344.849C731.209 348.671 734.196 348.315 736.582 344.487C737.772 342.578 738.901 340.734 739.967 338.955C743.265 333.459 748.099 329.623 754.766 329.935C763.237 330.33 767.112 337.47 771.518 343.477C772.733 345.133 774.069 345.97 775.528 345.988C779.914 346.041 782.696 350.438 780.502 354.315C779.215 356.588 776.687 357.304 774.196 357.055C767.022 356.333 763.029 351.163 759.349 345.529C758.369 344.023 757.364 342.836 756.335 341.967C753.593 339.649 751.162 341.86 749.704 344.304C748.429 346.443 747.102 348.582 745.723 350.722C742.161 356.259 736.704 359.525 729.93 358.443C723.033 357.337 719.147 351.165 715.532 345.891Z" fill="white"/>
<path d="M772.656 423.237C771.686 425.384 770.722 427.545 769.765 429.721C768.78 431.95 766.041 431.914 764.917 429.873C763.833 427.896 762.735 425.876 761.622 423.814C761.121 422.891 760.347 422.375 759.301 422.268C757.019 422.037 754.722 421.8 752.408 421.559C749.992 421.306 749.124 418.659 750.784 416.935C752.469 415.179 754.08 413.479 755.619 411.835C756.23 411.182 756.452 410.421 756.287 409.553C755.902 407.5 755.451 405.4 754.933 403.252C754.729 402.412 754.712 401.688 754.88 401.081C755.364 399.305 757.256 398.839 758.806 399.597C760.906 400.62 762.992 401.615 765.063 402.583C765.908 402.978 766.868 402.864 767.656 402.401C769.678 401.21 771.711 400.031 773.754 398.862C775.877 397.649 777.986 399.519 777.666 401.802C777.364 403.933 777.059 406.262 776.751 408.791C776.647 409.624 776.918 410.335 777.565 410.925C779.442 412.642 781.258 414.28 783.014 415.838C783.478 416.25 783.745 416.765 783.815 417.385C784.068 419.667 782.388 420.291 780.366 420.632C778.325 420.978 776.329 421.345 774.378 421.734C773.624 421.885 772.968 422.544 772.656 423.237Z" fill="white"/>
<path d="M568.788 169.559C571.803 168.679 574.327 166.588 572.259 163.266C571.227 161.606 570.002 159.958 568.582 158.322C565.362 154.614 562.383 149.817 562.715 144.897C563.222 137.295 568.069 132.706 575.159 130.661C577.355 130.026 579.47 129.442 581.506 128.911C585.953 127.754 588.03 125.078 584.524 120.776C581.684 117.291 578.785 113.997 577.102 109.928C574.637 103.959 576.611 96.7703 581.855 92.969C585.709 90.1728 590.591 89.1353 595.274 87.9343C596.943 87.5059 598.803 86.6198 599.443 84.9248C602.221 77.5718 612.832 81.6439 609.668 89.2891C606.34 97.3076 598.468 98.4415 591.237 100.547C586.315 101.982 586.227 105.094 589.101 108.696C590.467 110.408 591.848 112.155 593.243 113.935C597.197 118.991 598.739 124.759 596.034 130.783C592.828 137.92 585.287 139.448 578.391 141.238C572.814 142.686 572.807 146.104 576.111 150.013C580.885 155.665 585.61 161.41 583.584 169.202C581.977 175.375 577.074 178.808 571.177 180.415C568.976 181.016 566.73 181.642 564.439 182.291C562.865 182.737 561.271 183.591 560.669 185.202C559.516 188.292 555.989 190.041 552.96 188.471C549.68 186.767 549.194 183.446 550.695 180.234C554.226 172.674 561.72 171.619 568.788 169.559Z" fill="white"/>
<path d="M607.619 209.463C610.398 215.438 617.496 218.028 623.471 215.249C629.446 212.469 632.036 205.372 629.256 199.397C626.476 193.422 619.379 190.832 613.404 193.611C607.429 196.391 604.839 203.488 607.619 209.463Z" fill="white"/>
<path d="M490.798 371.571C491.16 367.273 491.473 363.045 491.735 358.886C491.994 354.711 493.253 351.53 497.213 349.985C498.335 349.545 499.964 349.353 502.1 349.411C541.391 350.459 578.794 358.362 614.307 373.119C654.81 389.953 690.421 414.252 721.138 446.016C724.705 449.711 724.294 455.097 720.366 458.471C709.784 467.554 699.28 476.6 688.853 485.611C685.844 488.209 682.106 488.965 678.584 486.862C677.559 486.251 676.479 485.185 675.345 483.665C673.55 481.251 671.764 478.967 669.986 476.811C653.81 457.18 635.505 440.36 615.071 426.351C579.607 402.034 540.511 386.842 497.783 380.775C493.26 380.131 490.421 376.041 490.798 371.571ZM702.956 451.219C653.788 403.276 589.402 373.444 521.032 367.087C518.975 366.898 516.922 366.735 514.873 366.6C514.812 366.594 514.779 366.622 514.773 366.682L514.771 366.688C514.764 366.746 514.79 366.78 514.849 366.79C559.235 375.29 599.369 393.14 635.253 420.34C653.247 433.976 669.456 449.742 683.881 467.639C683.903 467.667 683.931 467.691 683.963 467.708C683.995 467.725 684.03 467.735 684.066 467.739C684.102 467.742 684.138 467.738 684.172 467.727C684.207 467.716 684.238 467.698 684.266 467.675L702.946 451.593C702.972 451.57 702.993 451.541 703.008 451.51C703.023 451.478 703.031 451.443 703.032 451.408C703.033 451.373 703.027 451.338 703.014 451.306C703.001 451.273 702.981 451.244 702.956 451.219Z" fill="#AC66C2"/>
<path d="M482.016 183.097C489.06 148.78 489.462 112.644 482.56 78.3449C482.125 76.1926 482.001 74.5646 482.187 73.4611C482.918 69.1027 486.196 67.0045 490.367 66.4307C504.135 64.5364 517.623 62.6701 530.831 60.8319C535.509 60.1811 539.456 62.3272 540.715 66.8394C540.88 67.4282 541.045 68.9008 541.21 71.2573C544.051 111.486 539.543 150.604 527.686 188.61C515.466 227.8 496.141 263.35 469.713 295.26C467.589 297.825 466.021 299.367 465.006 299.887C460.957 301.965 457.713 300.592 454.28 297.91C450.602 295.038 447.33 292.549 444.463 290.443C440.739 287.707 439.751 282.833 442.282 278.989C461.709 249.479 474.954 217.515 482.016 183.097ZM464.381 275.372C478.847 256.323 490.736 236.119 500.05 214.761C518.907 171.515 527.253 126.128 525.087 78.5994C525.086 78.5703 525.078 78.5419 525.065 78.5159C525.052 78.4899 525.033 78.467 525.011 78.4485C524.988 78.4301 524.962 78.4166 524.934 78.4089C524.906 78.4012 524.876 78.3994 524.848 78.4037L500.292 81.7913C500.155 81.811 500.098 81.8903 500.122 82.0294C503.793 103.578 504.988 124.891 503.707 145.969C501.149 188.105 489.876 227.833 469.885 265.154C468.487 267.759 466.571 271.137 464.137 275.286C464.128 275.304 464.131 275.318 464.146 275.328L464.244 275.395C464.297 275.428 464.343 275.421 464.381 275.372Z" fill="#D86E7C"/>
<path d="M604.124 335.737C606.903 341.712 614 344.302 619.975 341.522C625.95 338.742 628.541 331.645 625.761 325.67C622.981 319.695 615.884 317.105 609.909 319.885C603.934 322.665 601.344 329.762 604.124 335.737Z" fill="white"/>
<path d="M555.88 233.958C555.85 234.286 555.896 234.616 556.013 234.923C556.131 235.231 556.316 235.507 556.556 235.732C558.032 237.12 559.72 238.638 561.623 240.285C562.388 240.946 562.826 241.602 562.938 242.253C563.231 243.918 562.015 245.155 560.382 245.418C558.033 245.797 555.748 246.221 553.525 246.688C552.748 246.852 552.181 247.322 551.822 248.1C550.912 250.083 549.969 252.207 548.993 254.474C548.685 255.19 548.211 255.706 547.573 256.02C545.838 256.868 544.603 255.897 543.789 254.366C542.77 252.448 541.728 250.531 540.662 248.614C540.205 247.792 539.461 247.326 538.43 247.216C536.078 246.965 533.836 246.737 531.703 246.532C529.212 246.293 528.173 243.721 529.93 241.864C531.577 240.122 533.165 238.452 534.694 236.853C535.384 236.129 535.61 235.224 535.37 234.138C534.854 231.818 534.377 229.597 533.939 227.474C533.458 225.143 535.654 223.481 537.761 224.467C539.774 225.404 541.782 226.369 543.786 227.361C544.771 227.85 545.764 227.961 546.746 227.376C548.862 226.122 550.928 224.925 552.944 223.786C554.349 222.989 556.109 223.691 556.634 225.171C556.847 225.768 556.88 226.504 556.734 227.377C556.351 229.657 556.066 231.851 555.88 233.958Z" fill="white"/>
<path d="M442.584 173.174C444.88 171.077 445.249 168.197 442.292 166.384C440.651 165.38 438.845 164.43 436.876 163.534C430.324 160.563 425.076 156.115 424.955 148.329C424.839 140.884 430.314 136.458 435.596 132.143C437.249 130.79 439.375 128.956 439.18 126.6C438.81 122.186 443.296 118.998 447.248 121.101C449.272 122.18 450.297 124.059 450.322 126.74C450.404 135.112 444.298 139.186 438.679 144.063C437.498 145.089 436.173 146.498 436.052 148.121C435.862 150.738 439.132 152.365 441.215 153.32C444.79 154.964 448.58 156.773 451.315 159.55C454.525 162.803 455.886 166.818 455.398 171.594C454.731 178.159 448.997 182.501 444.323 186.329C440.559 189.406 439.813 192.732 444.822 195.147C450.586 197.932 457.653 200.822 459.858 207.464C461.535 212.529 460.792 217.161 457.627 221.361C455.297 224.451 451.995 226.883 449.046 229.422C448.022 230.301 447.267 231.231 446.781 232.211C446.22 233.337 446.658 234.73 446.347 235.955C444.692 242.376 435.67 241.214 435.407 234.565C435.276 231.21 436.019 228.293 437.636 225.813C439.9 222.339 443.229 219.746 446.392 217.138C448.624 215.301 451.224 212.484 448.458 209.85C447.661 209.091 446.721 208.457 445.638 207.948C440.056 205.324 433.316 202.388 431.107 196.101C428.501 188.663 431.516 182.556 437.201 177.854C439.029 176.341 440.824 174.781 442.584 173.174Z" fill="white"/>
<path d="M572.753 461.015C571.628 460.115 570.206 459.852 568.485 460.226C565.754 460.817 563.138 461.396 560.638 461.962C554.97 463.248 549.161 462.347 545.062 457.927C539.777 452.232 540.768 445.341 542.302 438.296C542.616 436.85 542.755 435.429 542.719 434.032C542.641 431.202 540.264 430.163 537.806 430.58C532.841 431.416 527.904 433.37 522.751 432.788C516.591 432.091 511.302 427.38 510.198 421.133C509.393 416.588 510.487 411.841 511.344 407.347C511.665 405.672 511.855 403.439 510.697 402.171C510.27 401.707 509.901 401.222 509.59 400.715C507.761 397.752 509.062 394.025 512.246 392.738C514.68 391.754 517.113 392.613 518.811 394.536C523.879 400.271 522.954 407.018 521.43 413.952C521.104 415.43 520.964 416.868 521.009 418.263C521.111 421.507 523.98 422.24 526.588 421.661C529.221 421.078 531.71 420.52 534.056 419.989C539.08 418.849 544.123 419.303 548.155 422.469C555.318 428.094 554.202 436.092 552.534 443.85C552.18 445.503 552.083 447.03 552.244 448.433C552.582 451.403 555.628 451.711 558.012 451.191C560.108 450.738 562.259 450.242 564.465 449.704C571.026 448.105 577.452 449.077 581.857 454.573C587.046 461.05 584.402 468.592 583.361 475.884C583.254 476.657 583.28 477.454 583.439 478.274C583.77 479.932 585.457 480.729 585.882 482.425C586.538 485.037 585.801 487.105 583.67 488.629C581.92 489.884 579.183 489.908 577.443 488.588C573.374 485.511 571.789 480.111 572.33 474.971C572.565 472.725 572.976 470.186 573.563 467.354C573.959 465.455 574.379 462.321 572.753 461.015Z" fill="white"/>
<path d="M296.6 324.51L304.841 315.882H324.606L332.367 324.51H296.6ZM294.199 285.287L302.841 293.595V313.166L294.199 320.995V285.287ZM303.481 288.163C301.614 286.671 299.72 285.207 297.8 283.769L303.481 279.535H325.326L330.927 283.769L325.326 288.163H303.481ZM296.52 243.348H332.287L324.366 251.975H304.761L296.52 243.348ZM334.688 246.783V282.491L326.046 274.742V255.011L334.688 246.783Z" fill="white"/>
<path d="M368.335 369.518L374.555 362.93H389.471L395.329 369.518H368.335ZM366.524 339.566L373.046 345.91V360.856L366.524 366.834V339.566ZM397.261 366.834L390.739 360.551V345.544L397.261 339.566V366.834ZM368.275 307.54H395.268L389.29 314.128H374.495L368.275 307.54ZM366.343 337.431V310.163L372.865 316.08V331.208L366.343 337.431ZM397.08 310.163V337.431L390.558 331.513V316.446L397.08 310.163Z" fill="white"/>
<path d="M314.075 491.999L301.183 479.646V450.144L314.075 438.391V491.999ZM313.717 380.585V434.193L300.825 422.56V392.938L313.717 380.585Z" fill="white"/>
<path d="M421.573 512.371L410.973 502.144V477.717L421.573 467.986V512.371ZM374.021 415.857H418.403L408.695 426.581H384.225L374.021 415.857ZM421.276 420.127V464.511L410.676 454.88V430.354L421.276 420.127Z" fill="white"/>
</svg>
