<svg width="588" height="644" viewBox="0 0 588 644" fill="none" xmlns="http://www.w3.org/2000/svg">
<path d="M296.306 254.143L302.756 247.407H318.223L324.297 254.143H296.306ZM294.427 223.518L301.19 230.005V245.286L294.427 251.399V223.518ZM301.691 225.763C300.23 224.599 298.748 223.455 297.245 222.333L301.691 219.027H318.787L323.17 222.333L318.787 225.763H301.691ZM296.243 190.771H324.235L318.035 197.508H302.693L296.243 190.771ZM326.113 193.453V221.335L319.35 215.284V199.878L326.113 193.453Z" fill="#F504FD"/>
<path d="M296.306 254.143L302.756 247.407H318.223L324.297 254.143H296.306ZM294.427 223.518L301.19 230.005V245.286L294.427 251.399V223.518ZM301.691 225.763C300.23 224.599 298.748 223.455 297.245 222.333L301.691 219.027H318.787L323.17 222.333L318.787 225.763H301.691ZM296.243 190.771H324.235L318.035 197.508H302.693L296.243 190.771ZM326.113 193.453V221.335L319.35 215.284V199.878L326.113 193.453Z" fill="#F504FD"/>
<path d="M276.004 439.771L286.728 428.526H312.443L322.542 439.771H276.004ZM272.881 388.651L284.125 399.479V424.987L272.881 435.19V388.651ZM284.958 392.399C282.528 390.456 280.064 388.547 277.566 386.673L284.958 381.155H313.381L320.668 386.673L313.381 392.399H284.958ZM275.9 333.992H322.438L312.131 345.236H286.623L275.9 333.992ZM325.562 338.469V385.007L314.318 374.908V349.192L325.562 338.469Z" fill="#F504FD"/>
<path d="M276.004 439.771L286.728 428.526H312.443L322.542 439.771H276.004ZM272.881 388.651L284.125 399.479V424.987L272.881 435.19V388.651ZM284.958 392.399C282.528 390.456 280.064 388.547 277.566 386.673L284.958 381.155H313.381L320.668 386.673L313.381 392.399H284.958ZM275.9 333.992H322.438L312.131 345.236H286.623L275.9 333.992ZM325.562 338.469V385.007L314.318 374.908V349.192L325.562 338.469Z" fill="#F504FD"/>
<path d="M357.552 312.446L364.691 305.035H381.812L388.535 312.446H357.552ZM355.473 278.757L362.958 285.893V302.703L355.473 309.427V278.757ZM390.753 309.427L383.267 302.36V285.481L390.753 278.757V309.427ZM357.483 242.736H388.466L381.604 250.146H364.622L357.483 242.736ZM355.265 276.356V245.687L362.751 252.342V269.358L355.265 276.356ZM390.545 245.687V276.356L383.059 269.701V252.754L390.545 245.687Z" fill="#F504FD"/>
<path d="M394.555 488.619L385.922 480.047V459.575L394.555 451.419V488.619ZM394.315 411.306V448.506L385.683 440.433V419.878L394.315 411.306Z" fill="#F504FD"/>
<path d="M224.061 23.4929C223.707 23.4986 223.352 23.5059 222.996 23.5148C216.997 23.6299 210.831 24.213 204.704 25.2444C190.625 27.6114 177.363 32.2408 167.157 38.3517C156.951 44.4625 150.425 51.6806 148.68 58.7882C148.043 60.2268 147.801 61.8542 148.074 63.5318L152.453 90.6318C153.192 95.1967 157.434 98.2848 161.962 97.5391L188.16 93.2079L195.509 138.552C161.196 147.886 129.67 163.543 102.412 184.137L87.1856 165.506L100.055 154.8C102.379 152.87 102.722 149.434 100.807 147.09L84.0221 126.536C82.8252 125.072 81.0395 124.398 79.3041 124.566C78.2629 124.666 77.2312 125.056 76.3595 125.781L22.4295 170.589C20.1054 172.52 19.7604 175.959 21.6742 178.303L38.4844 198.857C40.3991 201.2 43.7973 201.517 46.1215 199.586L59.0165 188.906L74.754 208.172C28.4534 254.374 0 317.003 0 385.97C0 527.999 120.702 643.287 269.431 643.287C370.605 643.287 458.769 589.946 504.833 511.125C210.738 611.255 71.597 259.208 249.29 130.284L250.457 130.087L250.359 129.481C250.421 129.431 250.487 129.381 250.552 129.335C250.477 129.335 250.405 129.348 250.333 129.361L243.01 84.1879L268.114 80.0501C272.641 79.3041 275.691 75.033 274.952 70.4682L270.719 44.3643H270.741C270.726 44.3083 270.71 44.2524 270.694 44.1965L270.548 43.3682C270.346 42.1302 269.886 41.0095 269.234 40.0368C266.64 34.9594 261.048 30.7266 253.076 27.8067C245.104 24.8869 235.064 23.3939 224.065 23.4929H224.061ZM209.907 29.55C210.112 29.562 210.259 29.5987 210.371 29.6485C193.968 34.1187 164.339 51.3958 159.309 60.6638C155.224 68.1903 155.248 79.0284 155.248 79.0284C155.248 79.0284 153.581 69.4458 154.007 60.8353C154.724 46.3379 203.589 29.087 209.907 29.55ZM277.291 119.622C274.639 119.622 272.096 120.684 270.221 122.575C268.346 124.466 267.293 127.03 267.293 129.704C267.293 132.377 268.346 134.942 270.221 136.832C272.096 138.723 274.639 139.785 277.291 139.785C278.604 139.786 279.905 139.525 281.118 139.019C282.331 138.512 283.434 137.77 284.363 136.834C285.292 135.897 286.028 134.786 286.531 133.563C287.034 132.339 287.292 131.028 287.292 129.704C287.292 128.379 287.034 127.068 286.531 125.845C286.028 124.621 285.292 123.51 284.363 122.574C283.434 121.637 282.331 120.895 281.118 120.388C279.905 119.882 278.604 119.621 277.291 119.622ZM326.744 125.664C324.092 125.665 321.549 126.727 319.674 128.617C317.799 130.508 316.746 133.072 316.746 135.746C316.746 138.42 317.799 140.984 319.674 142.875C321.549 144.766 324.092 145.828 326.744 145.828C329.395 145.828 331.938 144.766 333.813 142.875C335.688 140.984 336.742 138.42 336.742 135.746C336.742 133.072 335.688 130.508 333.813 128.617C331.938 126.727 329.395 125.665 326.744 125.664ZM374.485 137.899C371.834 137.899 369.291 138.961 367.416 140.852C365.541 142.743 364.487 145.307 364.487 147.981C364.487 150.655 365.541 153.219 367.416 155.109C369.291 157 371.834 158.062 374.485 158.063C377.137 158.062 379.68 157 381.555 155.109C383.43 153.219 384.483 150.655 384.483 147.981C384.483 145.307 383.43 142.743 381.555 140.852C379.68 138.961 377.137 137.899 374.485 137.899ZM427.624 141.767C425.591 141.854 423.613 142.834 422.289 144.609L390.785 186.852C388.431 190.008 389.056 194.461 392.186 196.835L398.976 201.987C402.107 204.361 406.522 203.732 408.876 200.575L440.384 158.333C442.738 155.176 442.113 150.72 438.982 148.346L432.188 143.197C430.819 142.158 429.205 141.695 427.624 141.767ZM128.903 181.853C139.271 182.142 147.3 194.794 146.881 210.168C146.462 225.542 137.738 237.845 127.37 237.556C117.003 237.271 108.973 224.495 109.393 209.121C109.811 193.747 118.536 181.568 128.903 181.853ZM454.713 192.756C449.191 192.756 444.715 197.27 444.715 202.838C444.715 208.405 449.191 212.919 454.713 212.919C460.234 212.919 464.71 208.405 464.71 202.838C464.71 197.27 460.234 192.756 454.713 192.756ZM487.603 228.328C484.952 228.329 482.41 229.39 480.535 231.28C478.66 233.17 477.606 235.733 477.605 238.407C477.606 241.08 478.659 243.645 480.534 245.535C482.409 247.426 484.952 248.488 487.603 248.488C490.255 248.488 492.798 247.426 494.673 245.535C496.548 243.645 497.601 241.08 497.601 238.407C497.6 235.733 496.546 233.17 494.672 231.28C492.797 229.39 490.254 228.329 487.603 228.328ZM106.401 261.664C118.704 262.004 128.28 277.089 127.783 295.332C127.286 313.576 116.905 328.075 104.602 327.734C92.2993 327.394 82.7473 312.335 83.2449 294.092C83.7418 275.849 94.0982 261.324 106.401 261.664ZM513.612 275.191C510.961 275.191 508.418 276.253 506.543 278.144C504.668 280.034 503.615 282.599 503.615 285.272C503.615 287.946 504.668 290.51 506.543 292.401C508.418 294.292 510.961 295.354 513.612 295.354C516.264 295.354 518.807 294.292 520.682 292.401C522.557 290.51 523.61 287.946 523.61 285.272C523.61 282.599 522.557 280.034 520.682 278.144C518.807 276.253 516.264 275.191 513.612 275.191ZM554.866 318.966C554.395 318.954 553.917 319.003 553.436 319.09L501.929 328.876C498.08 329.607 495.562 333.322 496.288 337.203L497.86 345.624C498.585 349.506 502.269 352.04 506.118 351.309L557.628 341.523C561.478 340.792 563.991 337.077 563.266 333.196L561.693 324.779C561.059 321.383 558.16 319.015 554.866 318.966ZM29.1908 326.348C35.4557 380.266 57.063 432.299 90.7615 474.637C83.6587 479.849 78.3279 487.144 76.6514 496.067C74.3322 508.413 79.6429 520.311 88.3752 529.1C97.1079 537.888 109.393 544.217 123.601 546.932C137.81 549.645 151.547 548.288 162.863 543.33C164.145 542.77 165.433 542.176 166.658 541.506C179.357 549.293 192.715 556.098 206.452 561.819C205.989 559.755 205.803 557.775 206.186 555.736C208.926 541.153 233.442 533.472 260.871 538.711C288.298 543.95 308.32 560.127 305.58 574.71C304.984 577.887 303.301 580.724 300.837 583.176C337.246 584.898 373.956 579.63 408.431 567.683C355.294 613.247 281.365 633.094 212.801 620.175C152.286 608.616 96.9594 571.934 62.2749 520.612C27.5911 469.291 13.9855 403.956 25.4471 342.935C26.4983 337.363 27.7474 331.829 29.1908 326.348ZM534.922 373.83C532.27 373.83 529.727 374.892 527.852 376.783C525.977 378.674 524.924 381.238 524.924 383.912C524.924 386.586 525.977 389.15 527.852 391.041C529.727 392.931 532.27 393.993 534.922 393.994C536.235 393.994 537.535 393.734 538.749 393.227C539.962 392.721 541.065 391.978 541.994 391.042C542.922 390.106 543.659 388.994 544.162 387.771C544.664 386.547 544.923 385.236 544.923 383.912C544.923 382.588 544.664 381.276 544.162 380.053C543.659 378.83 542.922 377.718 541.994 376.782C541.065 375.846 539.962 375.103 538.749 374.597C537.535 374.09 536.235 373.83 534.922 373.83ZM531.05 422.681C528.399 422.681 525.856 423.743 523.981 425.634C522.106 427.525 521.052 430.089 521.052 432.763C521.052 435.436 522.106 438.001 523.981 439.891C525.856 441.782 528.399 442.844 531.05 442.844C532.363 442.845 533.664 442.584 534.877 442.078C536.091 441.571 537.193 440.829 538.122 439.893C539.051 438.956 539.788 437.845 540.29 436.622C540.793 435.398 541.052 434.087 541.052 432.763C541.052 431.438 540.793 430.127 540.29 428.904C539.788 427.68 539.051 426.569 538.122 425.633C537.193 424.696 536.091 423.954 534.877 423.447C533.664 422.941 532.363 422.68 531.05 422.681ZM515.247 471.685C512.595 471.685 510.052 472.747 508.178 474.638C506.303 476.529 505.249 479.093 505.249 481.767C505.249 484.441 506.303 487.005 508.178 488.895C510.052 490.786 512.595 491.848 515.247 491.849C517.899 491.848 520.442 490.786 522.317 488.895C524.192 487.005 525.245 484.441 525.245 481.767C525.245 479.093 524.192 476.529 522.317 474.638C520.442 472.747 517.899 471.685 515.247 471.685ZM133.453 476.045C137.105 475.971 140.894 476.281 144.765 477.02C165.405 480.962 179.993 495.586 177.334 509.739C174.675 523.892 155.793 532.145 135.153 528.202C114.513 524.259 99.9249 509.61 102.584 495.457C104.744 483.958 117.629 476.375 133.453 476.045Z" fill="#F504FD"/>
<path d="M320.353 231.143L326.803 224.407H342.27L348.344 231.143H320.353ZM318.474 200.518L325.237 207.005V222.286L318.474 228.399V200.518ZM325.738 202.763C324.277 201.599 322.795 200.455 321.292 199.333L325.738 196.027H342.834L347.217 199.333L342.834 202.763H325.738ZM320.29 167.771H348.282L342.082 174.508H326.74L320.29 167.771ZM350.16 170.453V198.335L343.397 192.284V176.878L350.16 170.453Z" fill="#2817EF"/>
<path d="M320.353 231.143L326.803 224.407H342.27L348.344 231.143H320.353ZM318.474 200.518L325.237 207.005V222.286L318.474 228.399V200.518ZM325.738 202.763C324.277 201.599 322.795 200.455 321.292 199.333L325.738 196.027H342.834L347.217 199.333L342.834 202.763H325.738ZM320.29 167.771H348.282L342.082 174.508H326.74L320.29 167.771ZM350.16 170.453V198.335L343.397 192.284V176.878L350.16 170.453Z" fill="#2817EF"/>
<path d="M300.051 416.771L310.774 405.526H336.49L346.589 416.771H300.051ZM296.927 365.651L308.172 376.479V401.987L296.927 412.19V365.651ZM309.005 369.399C306.575 367.456 304.111 365.547 301.612 363.673L309.005 358.155H337.427L344.715 363.673L337.427 369.399H309.005ZM299.947 310.992H346.485L336.178 322.236H310.67L299.947 310.992ZM349.609 315.469V362.007L338.364 351.908V326.192L349.609 315.469Z" fill="#2817EF"/>
<path d="M300.051 416.771L310.774 405.526H336.49L346.589 416.771H300.051ZM296.927 365.651L308.172 376.479V401.987L296.927 412.19V365.651ZM309.005 369.399C306.575 367.456 304.111 365.547 301.612 363.673L309.005 358.155H337.427L344.715 363.673L337.427 369.399H309.005ZM299.947 310.992H346.485L336.178 322.236H310.67L299.947 310.992ZM349.609 315.469V362.007L338.364 351.908V326.192L349.609 315.469Z" fill="#2817EF"/>
<path d="M381.599 289.446L388.738 282.035H405.858L412.582 289.446H381.599ZM379.52 255.757L387.005 262.893V279.703L379.52 286.427V255.757ZM414.8 286.427L407.314 279.36V262.481L414.8 255.757V286.427ZM381.53 219.736H412.513L405.651 227.146H388.669L381.53 219.736ZM379.312 253.356V222.687L386.797 229.342V246.358L379.312 253.356ZM414.592 222.687V253.356L407.106 246.701V229.754L414.592 222.687Z" fill="#2817EF"/>
<path d="M418.602 465.619L409.969 457.047V436.575L418.602 428.419V465.619ZM418.362 388.306V425.506L409.729 417.433V396.878L418.362 388.306Z" fill="#2817EF"/>
<path d="M248.108 0.492903C247.754 0.49856 247.399 0.505858 247.043 0.514796C241.044 0.629944 234.878 1.21297 228.751 2.24435C214.672 4.61137 201.41 9.24083 191.204 15.3517C180.998 21.4625 174.472 28.6806 172.727 35.7882C172.09 37.2268 171.848 38.8542 172.121 40.5318L176.5 67.6318C177.239 72.1967 181.481 75.2848 186.008 74.5391L212.207 70.2079L219.556 115.552C185.243 124.886 153.717 140.543 126.459 161.137L111.233 142.506L124.102 131.8C126.426 129.87 126.769 126.434 124.854 124.09L108.069 103.536C106.872 102.072 105.086 101.398 103.351 101.566C102.31 101.666 101.278 102.056 100.406 102.781L46.4763 147.589C44.1523 149.52 43.8072 152.959 45.721 155.303L62.5313 175.857C64.446 178.2 67.8442 178.517 70.1683 176.586L83.0634 165.906L98.8009 185.172C52.5002 231.374 24.0469 294.003 24.0469 362.97C24.0469 504.999 144.749 620.287 293.478 620.287C394.652 620.287 482.816 566.946 528.88 488.125C234.785 588.255 95.6439 236.208 273.336 107.284L274.504 107.087L274.406 106.481C274.468 106.431 274.534 106.381 274.599 106.335C274.524 106.335 274.452 106.348 274.38 106.361L267.057 61.1879L292.161 57.0501C296.688 56.3041 299.738 52.033 298.999 47.4682L294.766 21.3643H294.788C294.773 21.3083 294.757 21.2524 294.741 21.1965L294.595 20.3682C294.393 19.1302 293.933 18.0095 293.281 17.0368C290.687 11.9594 285.095 7.72656 277.123 4.80674C269.151 1.88691 259.111 0.393907 248.112 0.492903H248.108ZM233.954 6.55C234.159 6.56195 234.306 6.5987 234.418 6.64852C218.015 11.1187 188.386 28.3958 183.356 37.6638C179.271 45.1903 179.295 56.0284 179.295 56.0284C179.295 56.0284 177.628 46.4458 178.054 37.8353C178.771 23.3379 227.636 6.08704 233.954 6.55ZM301.338 96.6219C298.686 96.622 296.143 97.6843 294.268 99.5749C292.393 101.466 291.34 104.03 291.34 106.704C291.34 109.377 292.393 111.942 294.268 113.832C296.143 115.723 298.686 116.785 301.338 116.785C302.651 116.786 303.951 116.525 305.165 116.019C306.378 115.512 307.481 114.77 308.41 113.834C309.338 112.897 310.075 111.786 310.578 110.563C311.08 109.339 311.339 108.028 311.339 106.704C311.339 105.379 311.08 104.068 310.578 102.845C310.075 101.621 309.338 100.51 308.41 99.5737C307.481 98.6374 306.378 97.8949 305.165 97.3884C303.951 96.8819 302.651 96.6215 301.338 96.6219ZM350.791 102.664C348.139 102.665 345.596 103.727 343.721 105.617C341.846 107.508 340.793 110.072 340.793 112.746C340.793 115.42 341.846 117.984 343.721 119.875C345.596 121.766 348.139 122.828 350.791 122.828C353.442 122.828 355.985 121.766 357.86 119.875C359.735 117.984 360.788 115.42 360.788 112.746C360.788 110.072 359.735 107.508 357.86 105.617C355.985 103.727 353.442 102.665 350.791 102.664ZM398.532 114.899C395.881 114.899 393.338 115.961 391.463 117.852C389.588 119.743 388.534 122.307 388.534 124.981C388.534 127.655 389.588 130.219 391.463 132.109C393.338 134 395.881 135.062 398.532 135.063C401.184 135.062 403.727 134 405.602 132.109C407.477 130.219 408.53 127.655 408.53 124.981C408.53 122.307 407.477 119.743 405.602 117.852C403.727 115.961 401.184 114.899 398.532 114.899ZM451.67 118.767C449.637 118.854 447.66 119.834 446.336 121.609L414.832 163.852C412.477 167.008 413.103 171.461 416.233 173.835L423.023 178.987C426.154 181.361 430.568 180.732 432.923 177.575L464.43 135.333C466.785 132.176 466.16 127.72 463.029 125.346L456.235 120.197C454.865 119.158 453.252 118.695 451.67 118.767ZM152.95 158.853C163.317 159.142 171.347 171.794 170.928 187.168C170.509 202.542 161.785 214.845 151.417 214.556C141.05 214.271 133.02 201.495 133.439 186.121C133.858 170.747 142.582 158.568 152.95 158.853ZM478.759 169.756C473.238 169.756 468.762 174.27 468.762 179.838C468.762 185.405 473.238 189.919 478.759 189.919C484.281 189.919 488.757 185.405 488.757 179.838C488.757 174.27 484.281 169.756 478.759 169.756ZM511.65 205.328C508.999 205.329 506.457 206.39 504.582 208.28C502.707 210.17 501.653 212.733 501.652 215.407C501.652 218.08 502.706 220.645 504.581 222.535C506.456 224.426 508.999 225.488 511.65 225.488C514.302 225.488 516.845 224.426 518.72 222.535C520.595 220.645 521.648 218.08 521.648 215.407C521.647 212.733 520.593 210.17 518.718 208.28C516.844 206.39 514.301 205.329 511.65 205.328ZM130.447 238.664C142.751 239.004 152.327 254.089 151.83 272.332C151.333 290.576 140.951 305.075 128.648 304.734C116.346 304.394 106.794 289.335 107.292 271.092C107.789 252.849 118.145 238.324 130.447 238.664ZM537.659 252.191C535.008 252.191 532.465 253.253 530.59 255.144C528.715 257.034 527.661 259.599 527.661 262.272C527.661 264.946 528.715 267.51 530.59 269.401C532.465 271.292 535.008 272.354 537.659 272.354C540.311 272.354 542.854 271.292 544.729 269.401C546.604 267.51 547.657 264.946 547.657 262.272C547.657 259.599 546.604 257.034 544.729 255.144C542.854 253.253 540.311 252.191 537.659 252.191ZM578.913 295.966C578.442 295.954 577.964 296.003 577.483 296.09L525.976 305.876C522.127 306.607 519.609 310.322 520.334 314.203L521.907 322.624C522.632 326.506 526.315 329.04 530.164 328.309L581.675 318.523C585.525 317.792 588.038 314.077 587.313 310.196L585.74 301.779C585.106 298.383 582.206 296.015 578.913 295.966ZM53.2377 303.348C59.5025 357.266 81.1098 409.299 114.808 451.637C107.706 456.849 102.375 464.144 100.698 473.067C98.3791 485.413 103.69 497.311 112.422 506.1C121.155 514.888 133.439 521.217 147.648 523.932C161.857 526.645 175.594 525.288 186.91 520.33C188.192 519.77 189.48 519.176 190.705 518.506C203.404 526.293 216.762 533.098 230.499 538.819C230.036 536.755 229.85 534.775 230.233 532.736C232.973 518.153 257.489 510.472 284.918 515.711C312.345 520.95 332.367 537.127 329.627 551.71C329.031 554.887 327.348 557.724 324.884 560.176C361.293 561.898 398.003 556.63 432.477 544.683C379.341 590.247 305.412 610.094 236.848 597.175C176.333 585.616 121.006 548.934 86.3218 497.612C51.638 446.291 38.0323 380.956 49.494 319.935C50.5451 314.363 51.7943 308.829 53.2377 303.348ZM558.969 350.83C556.317 350.83 553.774 351.892 551.899 353.783C550.024 355.674 548.971 358.238 548.971 360.912C548.971 363.586 550.024 366.15 551.899 368.041C553.774 369.931 556.317 370.993 558.969 370.994C560.282 370.994 561.582 370.734 562.796 370.227C564.009 369.721 565.112 368.978 566.04 368.042C566.969 367.106 567.706 365.994 568.209 364.771C568.711 363.547 568.97 362.236 568.97 360.912C568.97 359.588 568.711 358.276 568.209 357.053C567.706 355.83 566.969 354.718 566.04 353.782C565.112 352.846 564.009 352.103 562.796 351.597C561.582 351.09 560.282 350.83 558.969 350.83ZM555.097 399.681C552.445 399.681 549.903 400.743 548.028 402.634C546.153 404.525 545.099 407.089 545.099 409.763C545.099 412.436 546.153 415.001 548.028 416.891C549.903 418.782 552.445 419.844 555.097 419.844C556.41 419.845 557.711 419.584 558.924 419.078C560.138 418.571 561.24 417.829 562.169 416.893C563.098 415.956 563.835 414.845 564.337 413.622C564.84 412.398 565.099 411.087 565.099 409.763C565.099 408.438 564.84 407.127 564.337 405.904C563.835 404.68 563.098 403.569 562.169 402.633C561.24 401.696 560.138 400.954 558.924 400.447C557.711 399.941 556.41 399.68 555.097 399.681ZM539.294 448.685C536.642 448.685 534.099 449.747 532.224 451.638C530.349 453.529 529.296 456.093 529.296 458.767C529.296 461.441 530.349 464.005 532.224 465.895C534.099 467.786 536.642 468.848 539.294 468.849C541.946 468.848 544.489 467.786 546.363 465.895C548.238 464.005 549.292 461.441 549.292 458.767C549.292 456.093 548.238 453.529 546.363 451.638C544.489 449.747 541.946 448.685 539.294 448.685ZM157.5 453.045C161.152 452.971 164.941 453.281 168.811 454.02C189.451 457.962 204.039 472.586 201.381 486.739C198.722 500.892 179.84 509.145 159.2 505.202C138.56 501.259 123.972 486.61 126.631 472.457C128.791 460.958 141.676 453.375 157.5 453.045Z" fill="#2817EF"/>
<path d="M303.625 246.823L310.075 240.087H325.543L331.617 246.823H303.625ZM301.747 216.197L308.51 222.684V237.966L301.747 244.079V216.197ZM309.011 218.443C307.55 217.279 306.068 216.135 304.565 215.012L309.011 211.706H326.106L330.49 215.012L326.106 218.443H309.011ZM303.563 183.451H331.554L325.355 190.187H310.013L303.563 183.451ZM333.433 186.133V214.014L326.67 207.964V192.558L333.433 186.133Z" fill="#0BF1F1"/>
<path d="M303.625 246.823L310.075 240.087H325.543L331.617 246.823H303.625ZM301.747 216.197L308.51 222.684V237.966L301.747 244.079V216.197ZM309.011 218.443C307.55 217.279 306.068 216.135 304.565 215.012L309.011 211.706H326.106L330.49 215.012L326.106 218.443H309.011ZM303.563 183.451H331.554L325.355 190.187H310.013L303.563 183.451ZM333.433 186.133V214.014L326.67 207.964V192.558L333.433 186.133Z" fill="#0BF1F1"/>
<path d="M283.323 432.45L294.047 421.206H319.763L329.862 432.45H283.323ZM280.2 381.331L291.444 392.159V417.666L280.2 427.869V381.331ZM292.277 385.079C289.848 383.135 287.384 381.227 284.885 379.353L292.277 373.835H320.7L327.988 379.353L320.7 385.079H292.277ZM283.219 326.671H329.758L319.45 337.916H293.943L283.219 326.671ZM332.881 331.148V377.687L321.637 367.588V341.872L332.881 331.148Z" fill="#0BF1F1"/>
<path d="M283.323 432.45L294.047 421.206H319.763L329.862 432.45H283.323ZM280.2 381.331L291.444 392.159V417.666L280.2 427.869V381.331ZM292.277 385.079C289.848 383.135 287.384 381.227 284.885 379.353L292.277 373.835H320.7L327.988 379.353L320.7 385.079H292.277ZM283.219 326.671H329.758L319.45 337.916H293.943L283.219 326.671ZM332.881 331.148V377.687L321.637 367.588V341.872L332.881 331.148Z" fill="#0BF1F1"/>
<path d="M364.871 305.125L372.011 297.715H389.131L395.854 305.125H364.871ZM362.792 271.437L370.278 278.573V295.382L362.792 302.106V271.437ZM398.072 302.106L390.586 295.039V278.161L398.072 271.437V302.106ZM364.802 235.416H395.785L388.923 242.826H371.941L364.802 235.416ZM362.584 269.036V238.366L370.07 245.022V262.037L362.584 269.036ZM397.864 238.366V269.036L390.379 262.38V245.433L397.864 238.366Z" fill="#0BF1F1"/>
<path d="M401.874 481.299L393.242 472.727V452.254L401.874 444.099V481.299ZM401.634 403.985V441.186L393.002 433.113V412.557L401.634 403.985Z" fill="#0BF1F1"/>
<path d="M231.381 16.1726C231.026 16.1782 230.671 16.1855 230.315 16.1945C224.317 16.3096 218.151 16.8927 212.024 17.924C197.944 20.2911 184.683 24.9205 174.476 31.0314C164.27 37.1422 157.744 44.3603 155.999 51.4679C155.363 52.9064 155.121 54.5339 155.393 56.2114L159.772 83.3115C160.512 87.8764 164.754 90.9645 169.281 90.2187L195.48 85.8875L202.828 131.232C168.515 140.566 136.989 156.223 109.732 176.817L94.505 158.186L107.374 147.48C109.699 145.55 110.041 142.114 108.126 139.77L91.3414 119.216C90.1445 117.751 88.3588 117.078 86.6235 117.246C85.5823 117.345 84.5506 117.736 83.6788 118.461L29.7488 163.269C27.4247 165.199 27.0797 168.639 28.9935 170.982L45.8038 191.536C47.7184 193.88 51.1166 194.197 53.4408 192.266L66.3359 181.586L82.0733 200.852C35.7727 247.054 7.31934 309.682 7.31934 378.649C7.31934 520.679 128.022 635.966 276.751 635.966C377.924 635.966 466.089 582.626 512.153 503.805C218.058 603.935 78.9164 251.888 256.609 122.964L257.777 122.766L257.678 122.161C257.74 122.111 257.807 122.061 257.871 122.015C257.797 122.015 257.725 122.027 257.652 122.04L250.329 76.8676L275.433 72.7298C279.96 71.9837 283.011 67.7127 282.271 63.1479L278.039 37.044H278.06C278.045 36.988 278.029 36.9321 278.013 36.8762L277.867 36.0479C277.665 34.8099 277.205 33.6892 276.553 32.7165C273.96 27.639 268.368 23.4062 260.396 20.4864C252.424 17.5666 242.383 16.0736 231.384 16.1726H231.381ZM217.227 22.2297C217.431 22.2416 217.578 22.2784 217.69 22.3282C201.288 26.7983 171.659 44.0755 166.628 53.3434C162.543 60.87 162.567 71.7081 162.567 71.7081C162.567 71.7081 160.9 62.1255 161.326 53.5149C162.044 39.0176 210.909 21.7667 217.227 22.2297ZM284.61 112.302C281.959 112.302 279.416 113.364 277.541 115.255C275.666 117.145 274.612 119.71 274.612 122.383C274.612 125.057 275.666 127.621 277.541 129.512C279.416 131.403 281.959 132.465 284.61 132.465C285.923 132.466 287.224 132.205 288.437 131.699C289.651 131.192 290.753 130.45 291.682 129.513C292.611 128.577 293.348 127.466 293.85 126.242C294.353 125.019 294.612 123.708 294.612 122.383C294.612 121.059 294.353 119.748 293.85 118.524C293.348 117.301 292.611 116.19 291.682 115.253C290.753 114.317 289.651 113.575 288.437 113.068C287.224 112.562 285.923 112.301 284.61 112.302ZM334.063 118.344C331.411 118.344 328.868 119.406 326.994 121.297C325.119 123.188 324.065 125.752 324.065 128.426C324.065 131.1 325.119 133.664 326.994 135.555C328.868 137.445 331.411 138.507 334.063 138.508C336.715 138.507 339.258 137.445 341.133 135.555C343.008 133.664 344.061 131.1 344.061 128.426C344.061 125.752 343.008 123.188 341.133 121.297C339.258 119.406 336.715 118.344 334.063 118.344ZM381.805 130.579C379.153 130.579 376.61 131.641 374.735 133.532C372.86 135.422 371.807 137.987 371.807 140.66C371.807 143.334 372.86 145.898 374.735 147.789C376.61 149.68 379.153 150.742 381.805 150.742C384.456 150.742 386.999 149.68 388.874 147.789C390.749 145.898 391.802 143.334 391.802 140.66C391.802 137.987 390.749 135.422 388.874 133.532C386.999 131.641 384.456 130.579 381.805 130.579ZM434.943 134.446C432.91 134.534 430.933 135.513 429.608 137.289L398.104 179.532C395.75 182.688 396.375 187.141 399.505 189.515L406.296 194.667C409.426 197.041 413.841 196.411 416.195 193.255L447.703 151.012C450.057 147.856 449.432 143.399 446.302 141.025L439.508 135.877C438.138 134.838 436.524 134.375 434.943 134.446ZM136.222 174.533C146.59 174.822 154.62 187.474 154.2 202.848C153.782 218.222 145.058 230.525 134.69 230.236C124.322 229.951 116.293 217.175 116.712 201.801C117.13 186.427 125.855 174.247 136.222 174.533ZM462.032 185.436C456.511 185.436 452.034 189.95 452.034 195.517C452.034 201.085 456.511 205.599 462.032 205.599C467.554 205.599 472.029 201.085 472.03 195.517C472.029 189.95 467.554 185.436 462.032 185.436ZM494.923 221.008C492.272 221.008 489.729 222.07 487.854 223.96C485.98 225.85 484.926 228.413 484.925 231.086C484.925 233.76 485.978 236.324 487.853 238.215C489.728 240.106 492.271 241.168 494.923 241.168C497.574 241.168 500.117 240.106 501.992 238.215C503.867 236.324 504.921 233.76 504.921 231.086C504.92 228.413 503.866 225.85 501.991 223.96C500.116 222.07 497.574 221.008 494.923 221.008ZM113.72 254.344C126.023 254.684 135.599 269.769 135.102 288.012C134.605 306.256 124.224 320.754 111.921 320.414C99.6186 320.074 90.0667 305.015 90.5642 286.771C91.0612 268.528 101.418 254.004 113.72 254.344ZM520.932 267.87C518.28 267.87 515.737 268.933 513.862 270.823C511.987 272.714 510.934 275.278 510.934 277.952C510.934 280.626 511.987 283.19 513.862 285.081C515.737 286.972 518.28 288.034 520.932 288.034C523.583 288.034 526.126 286.972 528.001 285.081C529.876 283.19 530.93 280.626 530.93 277.952C530.93 275.278 529.876 272.714 528.001 270.823C526.126 268.933 523.583 267.87 520.932 267.87ZM562.186 311.646C561.715 311.634 561.236 311.683 560.755 311.77L509.248 321.556C505.399 322.287 502.882 326.001 503.607 329.883L505.18 338.304C505.904 342.185 509.588 344.72 513.437 343.989L564.948 334.203C568.797 333.472 571.311 329.757 570.585 325.876L569.013 317.458C568.379 314.062 565.479 311.694 562.186 311.646ZM36.5101 319.027C42.775 372.946 64.3823 424.979 98.0809 467.317C90.978 472.529 85.6473 479.823 83.9708 488.746C81.6516 501.092 86.9622 512.991 95.6945 521.779C104.427 530.568 116.712 536.896 130.921 539.611C145.13 542.324 158.867 540.968 170.182 536.01C171.464 535.449 172.753 534.855 173.977 534.185C186.677 541.973 200.034 548.778 213.771 554.499C213.308 552.435 213.123 550.455 213.505 548.416C216.245 533.832 240.762 526.151 268.19 531.39C295.618 536.629 315.64 552.806 312.9 567.39C312.303 570.567 310.62 573.404 308.156 575.855C344.566 577.578 381.275 572.309 415.75 560.362C362.614 605.926 288.685 625.774 220.12 612.855C159.606 601.295 104.279 564.613 69.5943 513.292C34.9104 461.971 21.3048 396.635 32.7664 335.615C33.8176 330.043 35.0668 324.508 36.5101 319.027ZM542.241 366.51C539.589 366.51 537.046 367.572 535.171 369.463C533.297 371.354 532.243 373.918 532.243 376.592C532.243 379.265 533.297 381.83 535.171 383.72C537.046 385.611 539.589 386.673 542.241 386.673C543.554 386.674 544.855 386.413 546.068 385.907C547.282 385.4 548.384 384.658 549.313 383.722C550.242 382.785 550.978 381.674 551.481 380.45C551.984 379.227 552.242 377.916 552.243 376.592C552.242 375.267 551.984 373.956 551.481 372.733C550.978 371.509 550.242 370.398 549.313 369.462C548.384 368.525 547.282 367.783 546.068 367.276C544.855 366.77 543.554 366.509 542.241 366.51ZM538.37 415.361C535.718 415.361 533.175 416.423 531.3 418.314C529.425 420.204 528.372 422.769 528.372 425.442C528.372 428.116 529.425 430.68 531.3 432.571C533.175 434.462 535.718 435.524 538.37 435.524C539.683 435.525 540.983 435.264 542.197 434.758C543.41 434.251 544.513 433.509 545.441 432.572C546.37 431.636 547.107 430.525 547.61 429.301C548.112 428.078 548.371 426.767 548.371 425.442C548.371 424.118 548.112 422.807 547.61 421.583C547.107 420.36 546.37 419.249 545.441 418.312C544.513 417.376 543.41 416.634 542.197 416.127C540.983 415.621 539.683 415.36 538.37 415.361ZM522.566 464.365C519.915 464.365 517.372 465.427 515.497 467.318C513.622 469.208 512.569 471.773 512.569 474.446C512.569 477.12 513.622 479.684 515.497 481.575C517.372 483.466 519.915 484.528 522.566 484.528C525.218 484.528 527.761 483.466 529.636 481.575C531.511 479.684 532.564 477.12 532.564 474.446C532.564 471.773 531.511 469.208 529.636 467.318C527.761 465.427 525.218 464.365 522.566 464.365ZM140.772 468.725C144.424 468.65 148.214 468.961 152.084 469.699C172.724 473.642 187.312 488.266 184.654 502.419C181.995 516.571 163.113 524.824 142.473 520.882C121.833 516.939 107.244 502.29 109.903 488.137C112.063 476.638 124.948 469.055 140.772 468.725Z" fill="#0BF1F1"/>
<path d="M310.944 240.553L317.394 233.817H332.861L338.935 240.553H310.944ZM309.065 209.928L315.828 216.415V231.696L309.065 237.809V209.928ZM316.329 212.173C314.868 211.009 313.386 209.865 311.883 208.743L316.329 205.437H333.425L337.808 208.743L333.425 212.173H316.329ZM310.881 177.182H338.872L332.673 183.918H317.331L310.881 177.182ZM340.751 179.864V207.745L333.988 201.694V186.288L340.751 179.864Z" fill="white"/>
<path d="M310.944 240.553L317.394 233.817H332.861L338.935 240.553H310.944ZM309.065 209.928L315.828 216.415V231.696L309.065 237.809V209.928ZM316.329 212.173C314.868 211.009 313.386 209.865 311.883 208.743L316.329 205.437H333.425L337.808 208.743L333.425 212.173H316.329ZM310.881 177.182H338.872L332.673 183.918H317.331L310.881 177.182ZM340.751 179.864V207.745L333.988 201.694V186.288L340.751 179.864Z" fill="white"/>
<path d="M290.642 426.181L301.365 414.937H327.081L337.18 426.181H290.642ZM287.518 375.061L298.762 385.889V411.397L287.518 421.6V375.061ZM299.595 378.809C297.166 376.866 294.702 374.957 292.203 373.083L299.595 367.565H328.018L335.306 373.083L328.018 378.809H299.595ZM290.537 320.402H337.076L326.769 331.646H301.261L290.537 320.402ZM340.199 324.879V371.417L328.955 361.318V335.602L340.199 324.879Z" fill="white"/>
<path d="M290.642 426.181L301.365 414.937H327.081L337.18 426.181H290.642ZM287.518 375.061L298.762 385.889V411.397L287.518 421.6V375.061ZM299.595 378.809C297.166 376.866 294.702 374.957 292.203 373.083L299.595 367.565H328.018L335.306 373.083L328.018 378.809H299.595ZM290.537 320.402H337.076L326.769 331.646H301.261L290.537 320.402ZM340.199 324.879V371.417L328.955 361.318V335.602L340.199 324.879Z" fill="white"/>
<path d="M372.19 298.856L379.329 291.446H396.449L403.173 298.856H372.19ZM370.11 265.168L377.596 272.303V289.113L370.11 295.837V265.168ZM405.391 295.837L397.905 288.77V271.891L405.391 265.168V295.837ZM372.12 229.147H403.103L396.241 236.557H379.26L372.12 229.147ZM369.902 262.766V232.097L377.388 238.752V255.768L369.902 262.766ZM405.183 232.097V262.766L397.697 256.111V239.164L405.183 232.097Z" fill="white"/>
<path d="M409.192 475.029L400.56 466.458V445.985L409.192 437.829V475.029ZM408.953 397.716V434.916L400.32 426.844V406.288L408.953 397.716Z" fill="white"/>
<path d="M238.699 9.90306C238.345 9.90872 237.989 9.91601 237.634 9.92495C231.635 10.0401 225.469 10.6231 219.342 11.6545C205.262 14.0215 192.001 18.651 181.795 24.7618C171.588 30.8727 165.062 38.0908 163.317 45.1984C162.681 46.6369 162.439 48.2644 162.712 49.9419L167.09 77.0419C167.83 81.6068 172.072 84.695 176.599 83.9492L202.798 79.618L210.147 124.962C175.834 134.296 144.307 149.953 117.05 170.547L101.823 151.916L114.693 141.211C117.017 139.28 117.36 135.844 115.445 133.501L98.6598 112.947C97.4629 111.482 95.6772 110.808 93.9418 110.976C92.9006 111.076 91.8689 111.466 90.9972 112.191L37.0672 156.999C34.7431 158.93 34.3981 162.369 36.3119 164.713L53.1221 185.267C55.0368 187.61 58.435 187.927 60.7592 185.997L73.6542 175.316L89.3917 194.582C43.0911 240.785 14.6377 303.413 14.6377 372.38C14.6377 514.41 135.34 629.697 284.069 629.697C385.243 629.697 473.407 576.356 519.471 497.536C225.376 597.665 86.2347 245.618 263.927 116.694L265.095 116.497L264.996 115.891C265.059 115.841 265.125 115.791 265.19 115.745C265.115 115.745 265.043 115.758 264.971 115.771L257.648 70.5981L282.752 66.4603C287.279 65.7142 290.329 61.4432 289.59 56.8784L285.357 30.7745H285.379C285.363 30.7185 285.348 30.6625 285.331 30.6066L285.185 29.7784C284.984 28.5404 284.523 27.4197 283.872 26.447C281.278 21.3695 275.686 17.1367 267.714 14.2169C259.742 11.2971 249.701 9.80406 238.703 9.90306H238.699ZM224.545 15.9602C224.749 15.9721 224.896 16.0089 225.009 16.0587C208.606 20.5288 178.977 37.806 173.947 47.0739C169.861 54.6004 169.885 65.4386 169.885 65.4386C169.885 65.4386 168.219 55.856 168.645 47.2454C169.362 32.7481 218.227 15.4972 224.545 15.9602ZM291.929 106.032C289.277 106.032 286.734 107.094 284.859 108.985C282.984 110.876 281.931 113.44 281.931 116.114C281.931 118.788 282.984 121.352 284.859 123.243C286.734 125.133 289.277 126.195 291.929 126.196C293.242 126.196 294.542 125.936 295.756 125.429C296.969 124.923 298.072 124.18 299 123.244C299.929 122.308 300.666 121.196 301.169 119.973C301.671 118.749 301.93 117.438 301.93 116.114C301.93 114.79 301.671 113.478 301.169 112.255C300.666 111.032 299.929 109.92 299 108.984C298.072 108.048 296.969 107.305 295.756 106.799C294.542 106.292 293.242 106.032 291.929 106.032ZM341.381 112.075C338.73 112.075 336.187 113.137 334.312 115.028C332.437 116.918 331.384 119.483 331.384 122.156C331.384 124.83 332.437 127.394 334.312 129.285C336.187 131.176 338.73 132.238 341.381 132.238C344.033 132.238 346.576 131.176 348.451 129.285C350.326 127.394 351.379 124.83 351.379 122.156C351.379 119.483 350.326 116.918 348.451 115.028C346.576 113.137 344.033 112.075 341.381 112.075ZM389.123 124.309C386.471 124.309 383.928 125.372 382.053 127.262C380.179 129.153 379.125 131.717 379.125 134.391C379.125 137.065 380.179 139.629 382.053 141.52C383.928 143.41 386.471 144.473 389.123 144.473C391.775 144.473 394.318 143.41 396.193 141.52C398.067 139.629 399.121 137.065 399.121 134.391C399.121 131.717 398.067 129.153 396.193 127.262C394.318 125.372 391.775 124.309 389.123 124.309ZM442.261 128.177C440.228 128.264 438.251 129.244 436.927 131.019L405.422 173.262C403.068 176.419 403.693 180.872 406.824 183.245L413.614 188.398C416.744 190.771 421.159 190.142 423.513 186.985L455.021 144.743C457.375 141.586 456.75 137.13 453.62 134.756L446.826 129.607C445.456 128.569 443.842 128.105 442.261 128.177ZM143.541 168.263C153.908 168.552 161.938 181.204 161.519 196.578C161.1 211.952 152.376 224.255 142.008 223.967C131.641 223.681 123.611 210.905 124.03 195.531C124.449 180.157 133.173 167.978 143.541 168.263ZM469.35 179.166C463.829 179.166 459.353 183.68 459.352 189.248C459.353 194.815 463.829 199.329 469.35 199.33C474.872 199.329 479.348 194.815 479.348 189.248C479.348 183.68 474.872 179.166 469.35 179.166ZM502.241 214.739C499.59 214.739 497.048 215.8 495.173 217.69C493.298 219.58 492.244 222.144 492.243 224.817C492.243 227.491 493.297 230.055 495.172 231.945C497.046 233.836 499.589 234.898 502.241 234.899C504.893 234.898 507.436 233.836 509.311 231.945C511.186 230.055 512.239 227.491 512.239 224.817C512.238 222.144 511.184 219.58 509.309 217.69C507.434 215.8 504.892 214.739 502.241 214.739ZM121.038 248.075C133.342 248.415 142.918 263.499 142.42 281.742C141.924 299.986 131.542 314.485 119.239 314.144C106.937 313.804 97.385 298.745 97.8826 280.502C98.3795 262.259 108.736 247.734 121.038 248.075ZM528.25 261.601C525.598 261.601 523.055 262.663 521.181 264.554C519.306 266.445 518.252 269.009 518.252 271.683C518.252 274.356 519.306 276.921 521.181 278.811C523.055 280.702 525.598 281.764 528.25 281.764C530.902 281.764 533.445 280.702 535.32 278.811C537.195 276.921 538.248 274.356 538.248 271.683C538.248 269.009 537.195 266.445 535.32 264.554C533.445 262.663 530.902 261.601 528.25 261.601ZM569.504 305.376C569.033 305.364 568.555 305.413 568.074 305.5L516.566 315.286C512.717 316.017 510.2 319.732 510.925 323.613L512.498 332.035C513.223 335.916 516.906 338.451 520.755 337.72L572.266 327.933C576.115 327.202 578.629 323.488 577.904 319.607L576.331 311.189C575.697 307.793 572.797 305.425 569.504 305.376ZM43.8285 312.758C50.0934 366.676 71.7006 418.709 105.399 461.047C98.2964 466.259 92.9656 473.554 91.2891 482.477C88.9699 494.823 94.2806 506.721 103.013 515.51C111.746 524.298 124.03 530.627 138.239 533.342C152.448 536.055 166.185 534.698 177.501 529.74C178.783 529.18 180.071 528.586 181.295 527.916C193.995 535.703 207.353 542.508 221.09 548.229C220.626 546.165 220.441 544.185 220.823 542.146C223.563 527.563 248.08 519.882 275.509 525.121C302.936 530.36 322.958 546.537 320.218 561.12C319.622 564.297 317.939 567.134 315.475 569.586C351.884 571.308 388.594 566.04 423.068 554.093C369.932 599.657 296.003 619.504 227.439 606.585C166.924 595.026 111.597 558.344 76.9126 507.023C42.2288 455.701 28.6232 390.366 40.0848 329.345C41.136 323.773 42.3851 318.239 43.8285 312.758ZM549.559 360.24C546.908 360.24 544.365 361.303 542.49 363.193C540.615 365.084 539.562 367.648 539.562 370.322C539.562 372.996 540.615 375.56 542.49 377.451C544.365 379.341 546.908 380.404 549.559 380.404C550.873 380.404 552.173 380.144 553.386 379.637C554.6 379.131 555.702 378.388 556.631 377.452C557.56 376.516 558.297 375.404 558.799 374.181C559.302 372.957 559.561 371.646 559.561 370.322C559.561 368.998 559.302 367.687 558.799 366.463C558.297 365.24 557.56 364.128 556.631 363.192C555.702 362.256 554.6 361.513 553.386 361.007C552.173 360.5 550.873 360.24 549.559 360.24ZM545.688 409.091C543.036 409.091 540.493 410.153 538.618 412.044C536.743 413.935 535.69 416.499 535.69 419.173C535.69 421.847 536.743 424.411 538.618 426.302C540.493 428.192 543.036 429.254 545.688 429.255C547.001 429.255 548.302 428.995 549.515 428.488C550.728 427.982 551.831 427.239 552.76 426.303C553.689 425.367 554.425 424.255 554.928 423.032C555.431 421.808 555.689 420.497 555.689 419.173C555.689 417.849 555.431 416.537 554.928 415.314C554.425 414.091 553.689 412.979 552.76 412.043C551.831 411.107 550.728 410.364 549.515 409.858C548.302 409.351 547.001 409.091 545.688 409.091ZM529.885 458.095C527.233 458.095 524.69 459.158 522.815 461.048C520.94 462.939 519.887 465.503 519.887 468.177C519.887 470.851 520.94 473.415 522.815 475.306C524.69 477.196 527.233 478.259 529.885 478.259C532.536 478.259 535.079 477.196 536.954 475.306C538.829 473.415 539.883 470.851 539.883 468.177C539.883 465.503 538.829 462.939 536.954 461.048C535.079 459.158 532.536 458.095 529.885 458.095ZM148.091 462.455C151.743 462.381 155.532 462.691 159.402 463.43C180.042 467.372 194.63 481.996 191.972 496.149C189.313 510.302 170.431 518.555 149.791 514.612C129.151 510.67 114.563 496.02 117.222 481.867C119.382 470.368 132.266 462.786 148.091 462.455Z" fill="white"/>
</svg>
