<svg width="478" height="394" viewBox="0 0 478 394" fill="none" xmlns="http://www.w3.org/2000/svg">
<path d="M198.192 268.05C198.256 280.513 191.481 291.442 181.447 297.258L5.81626 298.217C2.23718 293.359 0.000230593 287.288 0.000230593 280.769C-0.0636815 264.343 13.1661 250.922 29.5915 250.858C35.5993 250.794 41.1596 252.583 45.8891 255.587C49.596 243.763 60.6529 235.135 73.7548 235.007C73.627 209.954 93.8233 189.566 118.813 189.438C143.866 189.31 164.254 209.507 164.382 234.496C182.917 234.496 198.128 249.452 198.192 268.05Z" fill="#F2F2F2"/>
<path d="M222.798 0.00320036C222.606 0.00320036 222.35 0.00320036 222.159 0.00320036C218.516 0.0671125 214.745 0.450593 210.974 1.08971C202.346 2.55969 194.229 5.37183 188.03 9.07873C181.766 12.7856 177.804 17.1956 176.717 21.5416C176.334 22.4364 176.206 23.3951 176.334 24.4176L179.018 40.9709C179.465 43.783 182.086 45.6365 184.834 45.1891L200.876 42.5687L205.35 70.3066C184.386 75.9947 165.085 85.5816 148.468 98.1723L139.137 86.7959L146.998 80.2769C148.404 79.1264 148.66 77.0173 147.445 75.5474L137.155 62.9567C136.452 62.0619 135.302 61.6784 134.279 61.7423C133.64 61.8062 133.001 62.0619 132.49 62.5093L99.5112 89.9276C98.1051 91.078 97.8495 93.1871 99.0638 94.6571L109.354 107.248C110.504 108.654 112.613 108.846 114.019 107.695L121.88 101.176L131.531 112.936C103.218 141.185 85.834 179.469 85.834 221.651C85.834 308.443 159.589 378.938 250.536 378.938C312.403 378.938 366.28 346.343 394.466 298.153C214.681 359.381 129.614 144.189 238.264 65.3214L238.967 65.1936L238.904 64.8101C238.967 64.8101 238.967 64.7462 239.031 64.7462C238.967 64.7462 238.967 64.7462 238.904 64.7462L234.43 37.1362L249.769 34.5797C252.517 34.1323 254.37 31.5119 253.923 28.6998L251.366 12.7217C251.366 12.6578 251.366 12.6578 251.366 12.5939L251.303 12.0826C251.175 11.3157 250.919 10.6126 250.472 10.0374C248.874 6.90572 245.487 4.34923 240.565 2.55969C235.644 0.834058 229.508 -0.0607118 222.798 0.00320036ZM214.17 3.71011C214.297 3.71011 214.361 3.71011 214.425 3.77402C204.391 6.52225 186.304 17.0677 183.236 22.7559C180.744 27.3576 180.744 34.0045 180.744 34.0045C180.744 34.0045 179.721 28.1245 179.977 22.8838C180.424 14 210.271 3.45446 214.17 3.71011ZM255.329 58.8024C253.731 58.8024 252.133 59.4415 250.983 60.5919C249.833 61.7423 249.193 63.3401 249.193 64.9379C249.193 66.5997 249.833 68.1335 250.983 69.284C252.133 70.4344 253.667 71.0735 255.329 71.0735C256.16 71.0735 256.927 70.9457 257.694 70.6261C258.461 70.3066 259.1 69.8592 259.675 69.284C260.25 68.7088 260.698 68.0057 261.017 67.3027C261.337 66.5358 261.465 65.7688 261.465 64.9379C261.465 64.1071 261.337 63.3401 261.017 62.5732C260.698 61.8062 260.25 61.1671 259.675 60.5919C259.1 60.0167 258.461 59.5693 257.694 59.2498C256.927 58.9302 256.16 58.8024 255.329 58.8024ZM285.559 62.4454C283.962 62.4454 282.364 63.0845 281.213 64.2349C280.063 65.3853 279.424 66.9831 279.424 68.5809C279.424 70.2427 280.063 71.7765 281.213 72.927C282.364 74.0774 283.898 74.7165 285.559 74.7165C287.221 74.7165 288.755 74.0774 289.905 72.927C291.056 71.7765 291.695 70.1787 291.695 68.5809C291.695 66.9192 291.056 65.3853 289.905 64.2349C288.755 63.1484 287.157 62.4454 285.559 62.4454ZM314.767 69.9231C313.169 69.9231 311.572 70.5622 310.421 71.7126C309.271 72.8631 308.632 74.4609 308.632 76.0587C308.632 77.7204 309.271 79.2543 310.421 80.4047C311.572 81.5551 313.106 82.1942 314.767 82.1942C316.429 82.1942 317.963 81.5551 319.113 80.4047C320.264 79.2543 320.903 77.6565 320.903 76.0587C320.903 74.3969 320.264 72.8631 319.113 71.7126C317.899 70.6261 316.365 69.9231 314.767 69.9231ZM347.235 72.2878C346.02 72.3518 344.806 72.927 343.975 74.0135L324.738 99.834C323.268 101.751 323.651 104.5 325.568 105.906L329.723 109.037C331.64 110.507 334.324 110.124 335.794 108.143L355.032 82.3221C356.502 80.4047 356.118 77.6565 354.201 76.1865L350.047 73.0548C349.216 72.5435 348.193 72.2878 347.235 72.2878ZM164.638 96.8301C170.965 97.0218 175.886 104.755 175.631 114.15C175.375 123.545 170.07 131.087 163.679 130.895C157.352 130.704 152.43 122.906 152.686 113.511C152.942 104.116 158.31 96.6384 164.638 96.8301ZM363.788 103.477C360.401 103.477 357.652 106.225 357.652 109.613C357.652 113 360.401 115.748 363.788 115.748C367.175 115.748 369.923 113 369.923 109.613C369.923 106.225 367.175 103.477 363.788 103.477ZM383.92 125.207C382.322 125.207 380.725 125.846 379.574 126.997C378.424 128.147 377.785 129.745 377.785 131.343C377.785 132.94 378.424 134.538 379.574 135.689C380.725 136.839 382.258 137.478 383.92 137.478C385.582 137.478 387.116 136.839 388.266 135.689C389.417 134.538 390.056 132.94 390.056 131.343C390.056 129.681 389.417 128.147 388.266 126.997C387.052 125.846 385.518 125.207 383.92 125.207ZM150.897 145.595C158.438 145.787 164.254 155.054 163.999 166.175C163.679 177.295 157.352 186.179 149.81 185.988C142.268 185.796 136.452 176.592 136.772 165.408C137.028 154.287 143.355 145.403 150.897 145.595ZM399.77 153.904C398.173 153.904 396.575 154.543 395.424 155.693C394.274 156.844 393.635 158.441 393.635 160.039C393.635 161.701 394.274 163.235 395.424 164.385C396.575 165.536 398.109 166.175 399.77 166.175C401.432 166.175 402.966 165.536 404.116 164.385C405.267 163.235 405.906 161.637 405.906 160.039C405.906 158.377 405.267 156.844 404.116 155.693C402.966 154.543 401.432 153.904 399.77 153.904ZM425.016 180.619C424.696 180.619 424.441 180.619 424.121 180.683L392.612 186.691C390.247 187.138 388.714 189.439 389.161 191.804L390.12 196.98C390.567 199.345 392.804 200.879 395.169 200.432L426.677 194.424C429.042 193.977 430.576 191.676 430.129 189.311L429.17 184.134C428.787 182.089 426.997 180.683 425.016 180.619ZM103.665 185.157C107.5 218.135 120.73 249.9 141.31 275.784C136.964 278.98 133.704 283.454 132.682 288.886C131.276 296.428 134.535 303.714 139.84 309.082C145.208 314.451 152.686 318.35 161.378 320.011C170.07 321.673 178.443 320.842 185.409 317.838C186.176 317.519 187.007 317.135 187.71 316.752C195.443 321.481 203.624 325.7 212.06 329.151C211.805 327.873 211.677 326.658 211.869 325.444C213.53 316.56 228.55 311.831 245.295 315.026C262.04 318.222 274.311 328.128 272.649 337.012C272.266 338.929 271.243 340.719 269.773 342.189C292.015 343.211 314.448 340.016 335.539 332.73C303.071 360.596 257.885 372.739 215.959 364.814C178.954 357.72 145.144 335.35 123.926 303.969C102.707 272.589 94.3982 232.643 101.429 195.383C102.004 191.867 102.771 188.48 103.665 185.157ZM412.808 214.173C411.211 214.173 409.613 214.812 408.462 215.962C407.312 217.113 406.673 218.711 406.673 220.308C406.673 221.97 407.312 223.504 408.462 224.654C409.613 225.805 411.147 226.444 412.808 226.444C413.639 226.444 414.406 226.316 415.173 225.997C415.94 225.677 416.579 225.23 417.155 224.654C417.73 224.079 418.177 223.376 418.497 222.673C418.816 221.906 418.944 221.139 418.944 220.308C418.944 219.478 418.816 218.711 418.497 217.944C418.177 217.177 417.73 216.538 417.155 215.962C416.579 215.387 415.94 214.94 415.173 214.62C414.406 214.301 413.639 214.173 412.808 214.173ZM410.444 244.02C408.846 244.02 407.248 244.659 406.098 245.809C404.947 246.96 404.308 248.558 404.308 250.155C404.308 251.817 404.947 253.351 406.098 254.501C407.248 255.652 408.782 256.291 410.444 256.291C411.275 256.291 412.042 256.163 412.808 255.844C413.575 255.524 414.215 255.077 414.79 254.501C415.365 253.926 415.812 253.223 416.132 252.52C416.451 251.753 416.579 250.986 416.579 250.155C416.579 249.324 416.451 248.558 416.132 247.791C415.812 247.024 415.365 246.385 414.79 245.809C414.215 245.234 413.575 244.787 412.808 244.467C412.042 244.212 411.275 244.02 410.444 244.02ZM400.793 273.995C399.195 273.995 397.597 274.634 396.447 275.784C395.297 276.935 394.657 278.532 394.657 280.13C394.657 281.728 395.297 283.326 396.447 284.476C397.597 285.627 399.131 286.266 400.793 286.266C402.455 286.266 403.989 285.627 405.139 284.476C406.289 283.326 406.929 281.728 406.929 280.13C406.929 278.532 406.289 276.935 405.139 275.784C403.989 274.634 402.391 273.995 400.793 273.995ZM167.386 276.679C169.623 276.615 171.924 276.807 174.288 277.254C186.879 279.683 195.827 288.63 194.229 297.259C192.631 305.887 181.063 310.936 168.472 308.571C155.882 306.142 146.934 297.195 148.532 288.567C149.874 281.472 157.735 276.871 167.386 276.679Z" fill="url(#paint0_radial_65_2909)"/>
<path d="M457.163 327.682C454.99 327.682 452.817 328.001 450.835 328.64C449.429 315.027 437.925 304.418 423.928 304.418C420.158 304.418 416.515 305.184 413.255 306.591C413.319 305.951 413.319 305.376 413.319 304.737C413.319 287.609 399.45 273.676 382.258 273.676C368.453 273.676 356.693 282.751 352.73 295.214C350.429 294.319 347.873 293.808 345.253 293.808C336.305 293.808 328.699 299.432 325.695 307.294C322.564 305.44 318.921 304.354 315.022 304.354C303.454 304.354 294.059 313.749 294.059 325.317C294.059 328.129 294.634 330.749 295.593 333.178C284.92 337.141 277.25 347.366 277.25 359.446C277.25 374.913 289.777 387.439 305.244 387.439C313.744 387.439 321.349 383.605 326.462 377.661C333.109 383.349 341.737 386.8 351.196 386.8C355.798 386.8 360.208 385.969 364.298 384.499C370.37 390.124 378.551 393.639 387.498 393.639C399.833 393.639 410.699 387.056 416.642 377.213C419.902 379.259 423.673 380.409 427.763 380.409C436.647 380.409 444.188 374.913 447.256 367.115C450.196 368.649 453.52 369.544 457.035 369.544C468.603 369.544 477.998 360.149 477.998 348.581C478.126 337.077 468.731 327.682 457.163 327.682Z" fill="#F2F2F2"/>
<path d="M296.2 271.505L302.063 265.356H316.125L321.647 271.505H296.2ZM294.492 243.553L300.64 249.473V263.421L294.492 269V243.553ZM301.095 245.602C299.767 244.539 298.42 243.496 297.053 242.471L301.095 239.454H316.637L320.622 242.471L316.637 245.602H301.095ZM296.143 213.665H321.59L315.954 219.813H302.006L296.143 213.665ZM323.298 216.113V241.56L317.15 236.038V221.976L323.298 216.113Z" fill="white"/>
<path d="M259.281 151.033L264.036 146.048H275.437L279.915 151.033H259.281ZM257.896 128.369L262.882 133.169V144.478L257.896 149.002V128.369ZM263.251 130.03C262.174 129.169 261.082 128.322 259.974 127.492L263.251 125.045H275.853L279.084 127.492L275.853 130.03H263.251ZM259.235 104.135H279.869L275.299 109.12H263.99L259.235 104.135ZM281.253 106.12V126.753L276.268 122.276V110.874L281.253 106.12Z" fill="white"/>
<path d="M299.742 188.533L304.056 184.009H314.402L318.465 188.533H299.742ZM298.485 167.967L303.009 172.323V182.585L298.485 186.69V167.967ZM319.805 186.69L315.281 182.376V172.072L319.805 167.967V186.69ZM299.7 145.977H318.423L314.276 150.5H304.014L299.7 145.977ZM298.359 166.501V147.778L302.883 151.841V162.228L298.359 166.501ZM319.679 147.778V166.501L315.156 162.438V152.092L319.679 147.778Z" fill="white"/>
<path d="M265.728 240.732L258.017 233.377V215.812L265.728 208.815V240.732ZM265.514 174.398V206.316L257.803 199.389V181.753L265.514 174.398Z" fill="white"/>
<defs>
<radialGradient id="paint0_radial_65_2909" cx="0" cy="0" r="1" gradientUnits="userSpaceOnUse" gradientTransform="translate(258.027 189.448) scale(181.025 181.025)">
<stop stop-color="white"/>
<stop offset="0.0851086" stop-color="#FFEDD8"/>
<stop offset="0.2082" stop-color="#FFD5A7"/>
<stop offset="0.3345" stop-color="#FFC17D"/>
<stop offset="0.462" stop-color="#FFB05B"/>
<stop offset="0.591" stop-color="#FFA340"/>
<stop offset="0.7222" stop-color="#FF9A2D"/>
<stop offset="0.8568" stop-color="#FF9522"/>
<stop offset="1" stop-color="#FF931E"/>
</radialGradient>
</defs>
</svg>
