<?xml version="1.0" encoding="utf-8"?>
<!-- Generator: Adobe Illustrator 26.0.1, SVG Export Plug-In . SVG Version: 6.00 Build 0)  -->
<svg version="1.1" id="Layer_1" xmlns="http://www.w3.org/2000/svg" xmlns:xlink="http://www.w3.org/1999/xlink" x="0px" y="0px"
	 viewBox="0 0 2000 4419" style="enable-background:new 0 0 2000 4419;" xml:space="preserve">
<style type="text/css">
	.st0{fill:#D3E8E8;}
</style>
<path class="st0" d="M1.9,731c1.1-0.1,2.3,0.5,3.4,1.1c-0.8,1.1-1.5,2.1-2.8,3.5C1.9,734.5,1.9,733.1,1.9,731z"/>
<path class="st0" d="M1.9,3458.8c1.1-0.1,2.3,0.5,3.4,1.1c-0.8,1.1-1.5,2.1-2.8,3.5C1.9,3462.3,1.9,3460.9,1.9,3458.8z"/>
<path class="st0" d="M1433,1612.4c-1.3,2.4-2.3,4.4-4.9,2.5c-0.4-0.3,0.5-3.1,1.4-4.1c1.1-1.2,2.8-2.1,4.5-2.5
	c0.7-0.2,1.8,1,2.7,1.5C1435.7,1610.6,1434.6,1611.4,1433,1612.4z"/>
<path class="st0" d="M118,1722.6c0.4,3.1,3.8,6,0,8.5C113.5,1725.8,113.5,1725.4,118,1722.6z"/>
<path class="st0" d="M115,3091.5c-0.4-2.8-1.8-5.6,3.2-5.5c0.2,3,3.1,5.8-0.5,9.8C116.6,3094.2,115.8,3093.1,115,3091.5z"/>
<path class="st0" d="M1432.3,2977.2c-3.6,5.3-4.3,2.3-5.3-1.5c3.1-1.1,5.9-2.2,8.8-3.3c0.3,0.5,0.7,1,1,1.5
	C1435.5,2974.9,1434.1,2975.8,1432.3,2977.2z"/>
<path class="st0" d="M114.9,359c4.8,0.8,5.6,3.4,1.8,9.8C115.8,364.8,115.1,362.2,114.9,359z"/>
<path class="st0" d="M1430.1,251.9c-1.4-1-2.3-2-3.6-3.7c3.6-1.4,6.5-2.5,9.3-3.6c0.3,0.3,0.6,0.7,0.9,1
	C1434.6,247.8,1432.7,249.8,1430.1,251.9z"/>
<path class="st0" d="M174.3,3947.6c0.5-1.3,1.5-3.2,1.9-3c1.8,0.7,3.4,1.9,4.8,4.2C178.8,3948.5,176.7,3948.2,174.3,3947.6z"/>
<path class="st0" d="M180.8,1220.3c-2.8,0.9-5.4,1.4-7.4-2.1C176.9,1214.9,178.9,1217.9,180.8,1220.3z"/>
<path class="st0" d="M710.9,2503.9c1.3-0.7,2.6-1,3.9-1.3c-0.2,1.1-0.4,2.1-0.6,3.2C713.1,2505.3,712,2504.8,710.9,2503.9z"/>
<path class="st0" d="M324.2,3927.9c1,3.9,1,3.9-4.4,3.3C321.4,3929.8,322.6,3928.8,324.2,3927.9z"/>
<path class="st0" d="M1822.7,3348.8c-0.9-1.4-1.4-2.7-1.8-4c1.4,0.1,2.8,0.1,4.1,0.2C1824.4,3346.3,1823.8,3347.6,1822.7,3348.8z"/>
<path class="st0" d="M1824.5,620.4c-1.7-0.3-3.1-1-4.4-1.6c1-0.7,2-2.1,2.9-2.1C1825.2,616.7,1826.3,617.9,1824.5,620.4z"/>
<path class="st0" d="M175.7,2584.3c-2.3-1.4-3.1-3.3-0.3-3.6c1.8-0.2,3.8,1.6,5.4,3.7C179.3,2584.4,177.8,2584.4,175.7,2584.3z"/>
<path class="st0" d="M324.1,1204.4c-1.4-0.7-2.4-1.5-3.3-2.2c1.2-0.7,2.3-1.3,3.5-2C324.4,1201.6,324.5,1203,324.1,1204.4z"/>
<path class="st0" d="M912.9,1351c-2.5,1.6-3.8,0.7-3.9-1.5c0-0.8,1.1-1.7,1.8-2.5C911.5,1348.2,912.3,1349.4,912.9,1351z"/>
<path class="st0" d="M222.2,3652.6c0.9,1.4,1.2,2.7,1.5,4.1c-1,0.1-2,0.1-3,0.2C220.9,3655.4,221.3,3654,222.2,3652.6z"/>
<path class="st0" d="M1992.4,1534.7c1.3-0.5,2.6-0.6,3.8-0.6c-0.3,1-0.5,1.9-0.8,2.9C1994.4,1536.4,1993.3,1535.8,1992.4,1534.7z"/>
<path class="st0" d="M992.9,2298.7c-1,1.2-2,2-3,2.7c-0.4-1-0.9-2-1.3-3.1C990,2298.3,991.5,2298.2,992.9,2298.7z"/>
<path class="st0" d="M737.4,1514.4c-0.3-5.8,2.5-3,5-0.9C740.9,1513.9,739.3,1514.4,737.4,1514.4z"/>
<path class="st0" d="M1415.8,3394.5c1.2,0.7,2,1.5,2.8,2.4c-0.9,0.4-1.8,0.8-2.8,1.3C1415.7,3397,1415.5,3395.8,1415.8,3394.5z"/>
<path class="st0" d="M485,1506.9c1.3-0.5,2.6-0.6,3.8-0.6c-0.3,1-0.5,1.9-0.8,2.9C487,1508.6,485.9,1508,485,1506.9z"/>
<path class="st0" d="M1683.1,3436.4c-2.5,1.3-3.7,0.5-3.7-1.8c0-0.7,0.8-1.4,1.3-2.1C1681.6,3433.7,1682.5,3434.8,1683.1,3436.4z"/>
<path class="st0" d="M667.9,1226.5c0.5-1.5,1.5-2.8,2.6-4c0.5,0.6,1,1.3,1.5,1.9C670.8,1225.1,669.6,1225.9,667.9,1226.5z"/>
<path class="st0" d="M1072.3,1336.1c0.6-1.6,1.4-2.8,2.2-4c0.6,0.9,1.7,1.7,1.7,2.5C1076,1337,1074.7,1337.8,1072.3,1336.1z"/>
<path class="st0" d="M473.3,3608.3c0.2,1.7-0.1,3.2-0.4,4.7c-0.9-0.5-2.3-0.8-2.6-1.6C469.5,3609.4,470.3,3608,473.3,3608.3z"/>
<path class="st0" d="M1825,1323.3c-2.7,1.2-4.8,1.3-4.8-1.8c0-0.8,1.2-2.1,2-2.2C1824.7,1319,1826.3,1319.8,1825,1323.3z"/>
<path class="st0" d="M240.7,1264.9c-0.9-1.5-1.3-3-1.7-4.5c1.1,0,2.2,0,3.3,0C242,1261.9,241.7,1263.4,240.7,1264.9z"/>
<path class="st0" d="M1525.7,1247.5c-2.5,1.3-3.7,0.4-3.7-1.8c0-0.7,0.8-1.4,1.3-2.1C1524.2,1244.8,1525.1,1245.9,1525.7,1247.5z"/>
<path class="st0" d="M39.9,3527.8c1.2,0.7,2,1.5,2.8,2.4c-0.9,0.4-1.8,0.8-2.8,1.3C39.8,3530.3,39.6,3529.2,39.9,3527.8z"/>
<path class="st0" d="M788.4,3596.8c-1.8,0.6-3.3,0.6-4.9,0.6c0-0.8,0.1-1.6,0.1-2.4C785.3,3595.4,786.9,3595.9,788.4,3596.8z"/>
<path class="st0" d="M1139.4,2888.6c-0.6,1.7-1.5,2.9-2.5,4.1c-0.7-0.9-1.3-1.7-2-2.6C1136.3,2889.5,1137.6,2888.8,1139.4,2888.6z"
	/>
<path class="st0" d="M783.6,2230.8c1.9-0.3,3.4-0.2,5.1-0.1C785.8,2235.3,785.8,2235.3,783.6,2230.8z"/>
<path class="st0" d="M1588.5,2117.6c1.3,0.3,2.3,1.1,3.3,1.8c-1.2,0.5-2.3,1.1-3.5,1.6C1588.3,2119.9,1588.2,2118.9,1588.5,2117.6z"
	/>
<path class="st0" d="M1177.5,2647.6c-1.4-0.1-2.5-0.5-3.6-1c0.6-0.8,1.3-1.5,1.9-2.3C1176.5,2645.3,1177.1,2646.3,1177.5,2647.6z"/>
<path class="st0" d="M1591.4,2728.3c-1.7-0.3-2.9-0.8-4.1-1.3c0.9-1,1.9-1.9,2.8-2.9C1590.7,2725.4,1591.3,2726.7,1591.4,2728.3z"/>
<path class="st0" d="M857.7,2007.4c-1.4,2.5-2.9,2.7-4,0.5c-0.4-0.8,0.3-2.1,0.5-3.2C855.4,2005.4,856.6,2006.2,857.7,2007.4z"/>
<path class="st0" d="M1823.9,1980.5c2.7,1.8,1.8,3.4-0.1,3.9c-1.1,0.2-2.5-1.4-3.8-2.1C1821.1,1981.6,1822.2,1981,1823.9,1980.5z"/>
<path class="st0" d="M505.8,1884.5c-1.2-3.5,0.2-4.6,2.9-4c0.8,0.2,2.1,1.5,2.1,2.2C510.5,1885.7,508.4,1885.6,505.8,1884.5z"/>
<path class="st0" d="M741.6,2875.3c1.1,4-1.4,3.4-3.5,3.1c-0.6-0.1-1-1.2-1.5-1.9C738.2,2876,739.7,2875.5,741.6,2875.3z"/>
<path class="st0" d="M1903.7,3272.1c0.8,1.1,1.2,2.2,1.5,3.3c-1,0-2,0-3.1,0C1902.5,3274.4,1902.9,3273.2,1903.7,3272.1z"/>
<path class="st0" d="M102.9,2972.4c0.7,1.4,0.9,2.6,1.1,3.9c-1.1,0-2.3-0.1-3.4-0.1C101.3,2974.9,101.9,2973.5,102.9,2972.4z"/>
<path class="st0" d="M948,1763.4c0.9-1,2-1.6,3.1-2.2c0.2,1,0.4,2,0.6,2.9C950.5,1764.1,949.3,1764,948,1763.4z"/>
<path class="st0" d="M1884.9,2415.2c0.3-1.5,1.1-2.7,1.8-4c0.6,0.8,1.3,1.7,1.9,2.5C1887.6,2414.3,1886.5,2414.9,1884.9,2415.2z"/>
<path class="st0" d="M870.2,1730.4c2.6,1.9,2.2,3.3-0.4,3.6c-1.1,0.1-2.3-1.1-3.5-1.7C867.4,1731.7,868.5,1731,870.2,1730.4z"/>
<path class="st0" d="M1994.5,2431.6c-0.9-1.5-1.3-3-1.7-4.5c1.1,0,2.2,0,3.3,0C1995.7,2428.6,1995.4,2430.1,1994.5,2431.6z"/>
<path class="st0" d="M869,3094.3c1.2,1,1.8,2,2.5,3c-1.6,0-3.1,0.1-4.7,0.1C867.4,3096.4,867.9,3095.4,869,3094.3z"/>
<path class="st0" d="M1393,3164.5c0.7-1.4,1.5-2.3,2.3-3.3c0.7,0.9,1.4,1.7,2.1,2.6C1396,3164.2,1394.5,3164.6,1393,3164.5z"/>
<path class="st0" d="M330.6,2425.8c-1.4-0.9-2.3-2.1-3.2-3.3c1-0.5,1.9-0.9,2.9-1.4C330.6,2422.6,330.9,2424.1,330.6,2425.8z"/>
<path class="st0" d="M879.1,3803.6c-1.6,0.6-3,0.6-4.6,0.7C876.6,3799.8,876.6,3799.8,879.1,3803.6z"/>
<path class="st0" d="M788.4,869c-1.8,0.6-3.3,0.6-4.9,0.6c0-0.8,0.1-1.6,0.1-2.4C785.3,867.7,786.9,868.1,788.4,869z"/>
<path class="st0" d="M471.2,885.1c-0.2-1.7,0.1-3.2,0.3-4.7c1,0.5,1.9,0.9,2.9,1.4C473.5,883,472.6,884.1,471.2,885.1z"/>
<path class="st0" d="M1825.5,4050c-1.9,2.3-3.8,3.1-5.2,0.5c-0.4-0.8,0.1-3,0.6-3.1C1822.8,4046.9,1825.3,4046.1,1825.5,4050z"/>
<path class="st0" d="M1076.3,4061.8c-0.9,1.4-1.9,2.2-2.8,3.1c-0.5-1.2-1-2.5-1.4-3.7C1073.4,4061.2,1074.8,4061.2,1076.3,4061.8z"
	/>
<path class="st0" d="M39.2,800.6c1.4,0.1,2.5,0.6,3.7,1c-0.7,0.8-1.3,1.5-2,2.3C40.2,802.9,39.5,801.9,39.2,800.6z"/>
<path class="st0" d="M909,4077.7c1.1-1.2,2.3-1.9,3.6-2.6c0.2,1.1,0.8,2.4,0.4,3.2C911.9,4080.5,910.4,4080.3,909,4077.7z"/>
<path class="st0" d="M1905.7,546.8c-1.3,0.5-2.5,0.6-3.7,0.7c0.2-1,0.4-1.9,0.7-2.9C1903.7,545.1,1904.8,545.7,1905.7,546.8z"/>
<path class="st0" d="M1393.6,433.9c1.5,0.6,2.6,1.6,3.7,2.6c-0.7,0.4-1.4,1.3-2.1,1.3C1392.7,437.8,1392.4,436.2,1393.6,433.9z"/>
<path class="st0" d="M223.2,924.9c0.2,1.6-0.1,3.1-0.5,4.5c-0.9-0.5-1.7-0.9-2.6-1.4C221,927,221.9,925.9,223.2,924.9z"/>
<path class="st0" d="M870.1,370.4c-1.6-0.5-2.6-1.2-3.7-1.9c1.1-0.6,2.3-1.8,3.3-1.7C872.2,367.1,872.6,368.5,870.1,370.4z"/>
<path class="st0" d="M242.9,3989.6c-0.9,1.4-1.9,2.2-2.8,3.1c-0.5-1.2-1-2.5-1.4-3.7C240.1,3989,241.5,3989,242.9,3989.6z"/>
<path class="st0" d="M1522.3,3975.1c0.3-1.5,0.9-2.6,1.4-3.7c0.8,0.7,2.3,1.5,2.3,2.2C1526.1,3976,1524.7,3976.6,1522.3,3975.1z"/>
<path class="st0" d="M667.2,3953.6c1-1.4,2.2-2.4,3.4-3.3c0.4,1,0.9,1.9,1.3,2.9C670.4,3953.4,668.9,3953.7,667.2,3953.6z"/>
<path class="st0" d="M875.6,1073.1c1.6,0.4,2.8,1.1,4.6,2.2C875.4,1076.5,875.4,1076.5,875.6,1073.1z"/>
<path class="st0" d="M485.4,4233.9c1.4,0.1,2.5,0.6,3.7,1c-0.7,0.8-1.3,1.5-2,2.3C486.5,4236.2,485.8,4235.2,485.4,4233.9z"/>
<path class="st0" d="M1417.6,670.4c-1.3-0.7-2.1-1.5-2.9-2.4c0.9-0.4,1.8-0.8,2.8-1.3C1417.6,667.9,1417.8,669,1417.6,670.4z"/>
<path class="st0" d="M101,245c1.5,0.6,2.6,1.6,3.7,2.6c-0.7,0.4-1.4,1.3-2.1,1.3C100.1,248.9,99.8,247.4,101,245z"/>
<path class="st0" d="M737.4,4242.1c-0.3-5.7,2.5-3.1,5-0.9C740.9,4241.7,739.3,4242.1,737.4,4242.1z"/>
<path class="st0" d="M1680.4,704.9c1.3,1,2.1,2.2,2.9,3.5c-0.7,0.4-1.5,0.7-2.2,1.1C1680.7,708,1680.3,706.5,1680.4,704.9z"/>
<path class="st0" d="M1687.2,1904.7c-0.9,1.2-1.9,1.9-3,2.6c-0.3-1.3-0.6-2.7-0.9-4C1684.6,1903.6,1685.8,1903.9,1687.2,1904.7z"/>
<path class="st0" d="M60.8,1617.2c1.6-1,3.2-1.4,5.2-1.8C63.6,1620.7,63.6,1620.7,60.8,1617.2z"/>
<path class="st0" d="M230,1791c1.4-0.8,2.9-1,4.4-1.3c0,0.8,0,1.7,0,2.5C233.1,1792,231.6,1791.7,230,1791z"/>
<path class="st0" d="M1079.6,3059c1.9,0,3.4,0.5,5.9,1.4C1082.2,3062.8,1079.9,3065.1,1079.6,3059z"/>
<path class="st0" d="M653.8,3971.3c-0.9,1.2-2,1.9-3,2.7c-0.3-1.3-0.5-2.6-0.8-4C651.2,3970.2,652.4,3970.5,653.8,3971.3z"/>
<path class="st0" d="M1277,4030.7c3.4-0.5,3.3,1.3,2.7,3.2c-0.2,0.6-1.3,0.8-2,1.2C1277.3,4033.7,1276.9,4032.4,1277,4030.7z"/>
<path class="st0" d="M632.8,1837.6c-1.2-0.9-1.9-2-2.7-3c1.3-0.2,2.7-0.5,4-0.7C633.8,1835,633.5,1836.2,632.8,1837.6z"/>
<path class="st0" d="M1240.2,1833.7c1.6,0.3,2.8,0.9,4,1.5c-0.7,0.8-1.4,1.6-2.2,2.4C1241.2,1836.4,1240.5,1835.2,1240.2,1833.7z"/>
<path class="st0" d="M1721,2030.6c1.3,1,2.1,2.2,2.9,3.4c-0.8,0.4-1.5,0.8-2.3,1.2C1721.3,2033.7,1720.9,2032.3,1721,2030.6z"/>
<path class="st0" d="M1278,1307.4c-0.8-1.5-1-2.9-1.3-4.3c0.8-0.1,1.7-0.1,2.5-0.2C1279,1304.4,1278.8,1306,1278,1307.4z"/>
<path class="st0" d="M653.4,1242.5c-0.6,1.5-1.5,2.6-2.4,3.7c-0.4-1-0.9-2.1-1.3-3.1C650.8,1242.8,652,1242.4,653.4,1242.5z"/>
<path class="st0" d="M325.1,2567.7c-1.7,0.2-3.1,0-4.5-0.2c-0.2-0.4-0.4-0.9-0.5-1.3c1.6-0.7,3.2-1.5,4.7-2.2
	C325,2565.1,325.2,2566.2,325.1,2567.7z"/>
<path class="st0" d="M877.7,1000c0.9-1.3,2-2,3-2.8c0.2,1.3,0.5,2.6,0.7,3.9C880.2,1000.8,879,1000.7,877.7,1000z"/>
<path class="st0" d="M1079.6,331.2c1.9,0,3.4,0.5,5.9,1.4C1082.2,335,1079.9,337.3,1079.6,331.2z"/>
<path class="st0" d="M877.7,3726.8c1.4-0.7,2.6-1,3.8-1.3c-0.3,1.3-0.5,2.6-0.8,4C879.6,3728.7,878.6,3728,877.7,3726.8z"/>
<path class="st0" d="M934.4,2384.9c-0.1-1.6,0.3-3,0.6-4.4c0.7,0.3,1.5,0.7,2.2,1C936.5,2382.7,935.7,2383.9,934.4,2384.9z"/>
<path class="st0" d="M1112.3,2451.6c-1.2-0.9-2-2.1-2.8-3.3c0.7-0.4,1.5-0.8,2.2-1.2C1112,2448.5,1112.3,2449.9,1112.3,2451.6z"/>
<path class="st0" d="M70.4,2425.6c1.9,0,3.4,0.5,5.9,1.4C72.9,2429.5,70.6,2431.8,70.4,2425.6z"/>
<path class="st0" d="M711.2,1138.4c1.5,0,2.7,0.4,3.9,0.8c-0.5,1-1,2-1.4,2.9C712.7,1141,711.8,1139.9,711.2,1138.4z"/>
<path class="st0" d="M1645.9,1763.8c-0.9-3.6-0.9-3.6,4.6-2.8C1648.7,1762.3,1647.5,1763.1,1645.9,1763.8z"/>
<path class="st0" d="M675.9,3807.6c-0.7-1.4-1-2.9-1.2-4.3c0.8,0,1.6,0,2.5,0C676.9,3804.7,676.7,3806.1,675.9,3807.6z"/>
<path class="st0" d="M674.2,1078.9c0.3-1.5,0.9-2.7,1.5-3.8c0.8,0.7,2.1,1.4,2.2,2.2C678,1079.6,676.6,1080.3,674.2,1078.9z"/>
<path class="st0" d="M713.9,3869.8c-1.2-0.9-2.1-2.1-2.9-3.3c1-0.2,2.1-0.5,3.1-0.7C714.2,3867,714.2,3868.3,713.9,3869.8z"/>
<path class="st0" d="M1722.5,4200.7c-0.7-1.2-0.8-2.3-0.9-3.4c1.3,0.3,2.6,0.5,3.9,0.8C1724.7,4199,1723.9,4199.9,1722.5,4200.7z"/>
<path class="st0" d="M1588.3,4088.6c2.5-1,4.2-0.8,3.9,1.7c-0.1,0.8-1.4,2.2-2.2,2.2C1587.8,4092.6,1586.9,4091.3,1588.3,4088.6z"/>
<path class="st0" d="M1030.6,2586.5c-0.3,1.7-1.2,3-2,4.3c-0.8-0.8-1.6-1.6-2.3-2.4C1027.5,2587.6,1028.8,2586.9,1030.6,2586.5z"/>
<path class="st0" d="M667.8,2590.2c0.4-1.7,1.2-2.9,2.1-4.2c0.7,0.7,1.4,1.5,2.1,2.2C670.7,2589,669.5,2589.8,667.8,2590.2z"/>
<path class="st0" d="M1275.7,4204.5c0.6,1.6,0.5,3.1,0.5,4.5c-1.1-0.3-2.7-0.2-3.1-0.9C1271.9,4206.2,1272.5,4204.7,1275.7,4204.5z"
	/>
<path class="st0" d="M1884.9,3775.7c1.5,0,2.6,0.6,3.7,1.1c-0.6,0.9-1.2,1.8-1.8,2.7C1886.1,3778.4,1885.3,3777.3,1884.9,3775.7z"/>
<path class="st0" d="M863,2544.1c1.4,0.2,2.4,0.9,3.4,1.5c-0.7,0.8-1.4,1.7-2,2.5C863.8,2546.9,863.2,2545.7,863,2544.1z"/>
<path class="st0" d="M1694.8,4222.2c1.2-1.3,2.5-2,3.8-2.7c0.3,1.1,0.5,2.1,0.8,3.2C1698,4222.8,1696.5,4222.8,1694.8,4222.2z"/>
<path class="st0" d="M1476.7,3772.6c-1.7-0.2-2.9-0.7-4.1-1.1c0.7-0.7,1.2-2,2-2.1C1476.7,3769,1478,3769.9,1476.7,3772.6z"/>
<path class="st0" d="M314.6,3623.8c-0.6-1.5-0.6-2.9-0.6-4.2c0.8,0.1,1.7,0.1,2.5,0.2C316,3621.2,315.6,3622.6,314.6,3623.8z"/>
<path class="st0" d="M1768.1,2498.3c-1.2,1.1-2.6,1.6-4,2.1c-0.3-0.7-0.5-1.5-0.8-2.2C1764.9,2498.1,1766.4,2497.9,1768.1,2498.3z"
	/>
<path class="st0" d="M619.6,2478.8c-3.1,1.3-3.4-0.5-3.1-2.4c0.1-0.5,1.2-1,1.8-1.4C618.8,2476,619.4,2477.2,619.6,2478.8z"/>
<path class="st0" d="M1540.3,3621.7c-1.7,0.4-3.2,0.3-4.7,0.1c0.2-0.7,0.5-1.5,0.7-2.2C1537.7,3620.1,1539.1,3620.6,1540.3,3621.7z"
	/>
<path class="st0" d="M1576.3,2438.9c1.2,0.9,1.9,1.8,2.6,2.8c-1.1,0.2-2.2,0.5-3.3,0.7C1575.7,2441.3,1575.7,2440.2,1576.3,2438.9z"
	/>
<path class="st0" d="M1425.5,3724.1c-1.6,0.6-3.1,0.5-4.6,0.5c0.3-1.1,0.5-2.1,0.8-3.2C1423,3722.1,1424.4,3722.8,1425.5,3724.1z"/>
<path class="st0" d="M1313.5,3696.8c1.2-0.9,2.6-1.4,4.1-1.8c0,0.8,0.1,1.6,0.1,2.4C1316.4,3697.4,1315,3697.4,1313.5,3696.8z"/>
<path class="st0" d="M877.4,2436.3c0.7,1.5,0.8,2.8,1,4c-1.1-0.1-2.1-0.1-3.2-0.2C875.7,2438.7,876.3,2437.3,877.4,2436.3z"/>
<path class="st0" d="M863.9,3711.7c-0.9,1.4-2,2.1-3,2.9c-0.4-1-0.9-2-1.3-3C861,3711.4,862.4,3711.3,863.9,3711.7z"/>
<path class="st0" d="M1189.1,2297.9c-1-1.2-1.4-2.6-1.9-4.1c0.8-0.1,1.7-0.1,2.5-0.2C1189.7,2295.1,1189.7,2296.4,1189.1,2297.9z"/>
<path class="st0" d="M1699.1,3869.6c-1.1-2.7-0.6-4.2,2-4c0.8,0.1,1.6,1.4,2.3,2.1C1702.2,3868.5,1700.9,3869.3,1699.1,3869.6z"/>
<path class="st0" d="M758.7,3124.6c-1.5,0.5-2.9,0.6-4.2,0.6c0.1-0.8,0.1-1.6,0.2-2.4C756.1,3123.2,757.5,3123.7,758.7,3124.6z"/>
<path class="st0" d="M233,3156.8c-1.4-0.9-2.2-1.9-3-3c1.3-0.3,2.7-0.5,4-0.8C233.9,3154.2,233.7,3155.4,233,3156.8z"/>
<path class="st0" d="M573.8,3947.2c1,1.2,1.4,2.6,1.8,4c-0.8,0.1-1.6,0.1-2.4,0.2C573.3,3950,573.3,3948.7,573.8,3947.2z"/>
<path class="st0" d="M633,3197.1c2.9,1.8,2,3.2,0,3.9c-0.7,0.3-1.9-0.7-2.9-1.2C630.9,3198.9,631.6,3198,633,3197.1z"/>
<path class="st0" d="M1240,3200.6c-1.4-2.9-0.1-3.7,2.2-3.4c0.7,0.1,1.3,1,1.9,1.5C1242.9,3199.4,1241.7,3200.2,1240,3200.6z"/>
<path class="st0" d="M610.2,3935c-0.6-1.5-0.6-2.9-0.6-4.3c0.8,0.1,1.7,0.2,2.5,0.2C611.7,3932.3,611.2,3933.8,610.2,3935z"/>
<path class="st0" d="M1048.4,3922.2c-1.2,0.6-2.4,0.6-3.5,0.6c0.2-1.1,0.5-2.2,0.7-3.2C1046.6,3920.2,1047.6,3920.9,1048.4,3922.2z"
	/>
<path class="st0" d="M1688,2953.2c-0.3,1.7-1.2,3-2,4.3c-0.8-0.8-1.6-1.6-2.3-2.4C1684.9,2954.3,1686.2,2953.6,1688,2953.2z"/>
<path class="st0" d="M1379.3,3354.3c-1.2,1.4-2.5,2.1-3.9,2.8c-0.3-1.1-0.7-2.2-1-3.3C1376,3353.7,1377.6,3353.7,1379.3,3354.3z"/>
<path class="st0" d="M1683.1,3949c0.6,1.6,0.5,3.1,0.5,4.5c-1.1-0.3-2.7-0.2-3.1-0.9C1679.3,3950.6,1679.9,3949.1,1683.1,3949z"/>
<path class="st0" d="M251.9,3455.2c1.4,0.2,2.4,0.9,3.4,1.5c-0.7,0.8-1.4,1.7-2,2.5C252.7,3458,252.1,3456.8,251.9,3455.2z"/>
<path class="st0" d="M1589.1,3485.1c-0.2-1.6,0.1-3,0.4-4.5c0.7,0.5,2,1.2,2,1.3C1591,3483.1,1590.3,3484.2,1589.1,3485.1z"/>
<path class="st0" d="M1707.1,3486c0.6,1.6,0.5,3.1,0.5,4.5c-1.1-0.3-2.7-0.2-3.1-0.9C1703.3,3487.7,1703.9,3486.1,1707.1,3486z"/>
<path class="st0" d="M1628.9,3520c-0.2,1.6-0.8,2.8-1.4,4c-0.7-0.8-1.3-1.7-2-2.5C1626.6,3520.9,1627.6,3520.2,1628.9,3520z"/>
<path class="st0" d="M591.5,2869.5c0.2-1.6,0.8-2.7,1.4-3.8c0.6,0.5,1.7,0.9,1.8,1.5C594.9,2869,594.6,2870.9,591.5,2869.5z"/>
<path class="st0" d="M1615,4081.3c-1-1.2-1.4-2.6-1.9-4.1c0.8-0.1,1.7-0.1,2.5-0.2C1615.6,4078.4,1615.6,4079.7,1615,4081.3z"/>
<path class="st0" d="M1722.6,2833.4c1.2,0.9,1.9,1.8,2.6,2.8c-1.1,0.2-2.2,0.5-3.3,0.7C1722,2835.7,1722,2834.6,1722.6,2833.4z"/>
<path class="st0" d="M1765.2,3864.8c-0.6-1.2-0.6-2.4-0.6-3.5c1.1,0.2,2.2,0.4,3.3,0.6C1767.1,3863,1766.4,3863.9,1765.2,3864.8z"/>
<path class="st0" d="M1576.2,3806.3c-0.7-1.2-0.8-2.3-0.9-3.4c1.3,0.3,2.6,0.5,3.9,0.8C1578.4,3804.6,1577.6,3805.5,1576.2,3806.3z"
	/>
<path class="st0" d="M103,1608.4c0.7,1.4,0.8,2.6,0.9,3.9c-1-0.1-2.6,0.3-3-0.2C99.7,1610.3,99.9,1608.7,103,1608.4z"/>
<path class="st0" d="M1538.5,895.2c-1.4-0.8-2.1-1.7-2.9-2.6c1.3-0.2,2.6-0.5,3.9-0.7C1539.4,892.9,1539.3,894,1538.5,895.2z"/>
<path class="st0" d="M618.5,1809.1c-2-0.4-3.4-1-4.7-1.5C619.7,1804.5,619.7,1804.5,618.5,1809.1z"/>
<path class="st0" d="M1393,1800c0.9-1.3,1.8-2,2.8-2.6c0.5,0.9,1.7,2.2,1.4,2.8C1396.3,1802,1394.7,1802.6,1393,1800z"/>
<path class="st0" d="M297.2,1766.1c1.8,0.4,3.1,1.1,4.3,1.9c-0.8,0.8-1.6,1.6-2.4,2.4C298.4,1769.1,297.5,1767.8,297.2,1766.1z"/>
<path class="st0" d="M859.6,983.9c1.5-0.5,2.9-0.3,4.3-0.1c-0.5,1-1,1.9-1.5,2.9C861.4,986,860.5,985.3,859.6,983.9z"/>
<path class="st0" d="M755.9,1758.2c1.4,0.8,2.2,1.7,2.9,2.6c-1.3,0.3-2.6,0.5-3.9,0.8C755.1,1760.5,755.2,1759.4,755.9,1758.2z"/>
<path class="st0" d="M1424.9,997.5c-1.7-0.3-3-1.2-4.3-2c0.8-0.7,1.5-2,2.4-2C1425.6,993.2,1426,994.8,1424.9,997.5z"/>
<path class="st0" d="M1733.7,1745.1c-0.9,1.3-1.9,2-2.9,2.6c-0.3-1.1-0.5-2.2-0.8-3.3C1731.2,1744.5,1732.4,1744.5,1733.7,1745.1z"
	/>
<path class="st0" d="M672.3,1691.7c0.3-1.6,0.8-2.7,1.4-3.9c0.6,0.5,1.8,0.9,1.8,1.5C675.8,1691.4,675.3,1693,672.3,1691.7z"/>
<path class="st0" d="M618.3,1675.7c-0.2,1.6-0.8,2.7-1.3,3.9c-0.6-0.8-1.3-1.7-1.9-2.5C616,1676.5,617,1675.9,618.3,1675.7z"/>
<path class="st0" d="M1475.6,1045.2c-1.4-0.8-2.1-1.7-2.9-2.6c1.3-0.2,2.6-0.5,3.9-0.7C1476.4,1042.9,1476.3,1044,1475.6,1045.2z"/>
<path class="st0" d="M151.5,1672.8c-1.2,1.4-2.5,2.1-3.9,2.8c-0.3-1.1-0.7-2.2-1-3.3C148.3,1672.2,149.9,1672.2,151.5,1672.8z"/>
<path class="st0" d="M1888.5,1050c-1.8,2.6-3.3,2-4.3,0.1c-0.3-0.5,0.9-1.8,1.4-2.8C1886.7,1048,1887.7,1048.7,1888.5,1050z"/>
<path class="st0" d="M1313.5,969c1.2-0.9,2.6-1.4,4.1-1.8c0,0.8,0.1,1.6,0.1,2.4C1316.4,969.6,1315,969.6,1313.5,969z"/>
<path class="st0" d="M1574.5,1077.3c1.3-1.1,2.6-1.6,4-2.1c0.2,0.7,0.5,1.5,0.7,2.2C1577.7,1077.6,1576.1,1077.7,1574.5,1077.3z"/>
<path class="st0" d="M1767.4,1133.8c1.1,2.9-0.3,3.5-2.4,3.1c-0.6-0.1-1.1-1.2-1.6-1.8C1764.5,1134.6,1765.7,1134,1767.4,1133.8z"/>
<path class="st0" d="M1700.3,1137.9c3.2,0.1,3.8,1.7,2.7,3.6c-0.4,0.7-2,0.6-3.1,0.9C1699.7,1140.9,1699.7,1139.5,1700.3,1137.9z"/>
<path class="st0" d="M1048.5,1193.3c-0.9,1.3-1.9,2-2.9,2.6c-0.3-1.1-0.5-2.2-0.8-3.3C1046,1192.6,1047.2,1192.7,1048.5,1193.3z"/>
<path class="st0" d="M1292.3,1588.8c0.9-1.2,1.9-1.9,2.8-2.6c0.2,1.1,0.4,2.2,0.6,3.2C1294.7,1589.4,1293.6,1589.4,1292.3,1588.8z"
	/>
<path class="st0" d="M609,1205.5c0.9-1.2,1.9-1.9,2.8-2.6c0.2,1.1,0.4,2.2,0.6,3.2C611.3,1206.1,610.2,1206.1,609,1205.5z"/>
<path class="st0" d="M572.5,1221c1.3-0.6,2.4-0.6,3.6-0.6c-0.2,1.1-0.5,2.2-0.7,3.3C574.4,1223,573.4,1222.3,572.5,1221z"/>
<path class="st0" d="M1681.8,1225.9c-0.6-1.6-0.5-3.1-0.5-4.6c1.1,0.3,2.3,0.5,3.4,0.8C1683.9,1223.4,1683.1,1224.7,1681.8,1225.9z"
	/>
<path class="st0" d="M1695.4,1495.6c-1.1-2.7-0.6-4.2,2-4c0.8,0.1,1.6,1.4,2.3,2.1C1698.5,1494.5,1697.2,1495.3,1695.4,1495.6z"/>
<path class="st0" d="M1276.7,1480.8c-1.7-0.3-3-1.2-4.3-2c0.8-0.7,1.5-2,2.4-2C1277.4,1476.6,1277.9,1478.2,1276.7,1480.8z"/>
<path class="st0" d="M1615,1349.1c0.6,1.5,0.6,2.8,0.6,4.1c-0.8,0-1.6-0.1-2.4-0.1C1613.6,1351.7,1614.1,1350.3,1615,1349.1z"/>
<path class="st0" d="M1588.3,1360.8c2.5-1,4.2-0.8,3.9,1.7c-0.1,0.8-1.4,2.2-2.2,2.2C1587.8,1364.8,1586.9,1363.5,1588.3,1360.8z"/>
<path class="st0" d="M1720.8,1471.7c1.3-1.1,2.6-1.6,4-2.1c0.2,0.7,0.5,1.5,0.7,2.2C1724,1472,1722.4,1472.2,1720.8,1471.7z"/>
<path class="st0" d="M1239.3,471.9c1.2-1.1,2.6-1.6,4-2.2c0.2,0.8,0.4,1.6,0.6,2.3C1242.5,472.2,1241,472.3,1239.3,471.9z"/>
<path class="st0" d="M1063.2,2435c-1-1.2-1.4-2.6-1.9-4.1c0.8-0.1,1.7-0.1,2.5-0.2C1063.8,2432.1,1063.7,2433.4,1063.2,2435z"/>
<path class="st0" d="M1138.5,2424c-1.2,0.6-2.4,0.6-3.5,0.7c0.2-1.1,0.4-2.2,0.6-3.3C1136.7,2422.1,1137.7,2422.8,1138.5,2424z"/>
<path class="st0" d="M1473.4,2406c1.7,0.3,2.8,0.8,4,1.3c-0.6,0.6-1,1.7-1.7,1.8C1473.7,2409.5,1472.2,2408.9,1473.4,2406z"/>
<path class="st0" d="M1683.7,226.5c1.7-0.6,3.3-0.6,4.9-0.5c-0.3,1.1-0.7,2.2-1,3.3C1686.2,228.6,1684.9,227.9,1683.7,226.5z"/>
<path class="st0" d="M646.4,2402.8c0.3-1.6,0.8-2.7,1.4-3.9c0.6,0.5,1.8,0.9,1.8,1.5C649.9,2402.5,649.3,2404.1,646.4,2402.8z"/>
<path class="st0" d="M1318.1,2332.8c-1.7,0.4-3.2,0.3-4.7,0.1c0.2-0.7,0.5-1.5,0.7-2.2C1315.5,2331.3,1316.9,2331.8,1318.1,2332.8z"
	/>
<path class="st0" d="M755.9,394.5c1.2,0.9,1.9,1.8,2.6,2.8c-1.1,0.2-2.2,0.5-3.3,0.7C755.3,396.8,755.3,395.7,755.9,394.5z"/>
<path class="st0" d="M230.7,425.3c1.8,0.2,3,0.7,4.2,1.2c-0.7,0.9-1.3,1.8-2,2.6C232,427.9,231,426.8,230.7,425.3z"/>
<path class="st0" d="M634.8,470.7c-1.3,1.2-2.6,1.7-4,2.3c-0.3-0.8-0.5-1.6-0.8-2.4C631.6,470.4,633.1,470.2,634.8,470.7z"/>
<path class="st0" d="M1539.6,2256c1.1,2.9-0.3,3.5-2.4,3.1c-0.6-0.1-1.1-1.2-1.6-1.8C1536.7,2256.8,1537.9,2256.3,1539.6,2256z"/>
<path class="st0" d="M54.6,2232.8c-0.3,1.7-1.2,3-2,4.3c-0.8-0.8-1.6-1.6-2.3-2.4C51.6,2233.9,52.8,2233.2,54.6,2232.8z"/>
<path class="st0" d="M315.7,891.6c0.6,1.5,0.6,2.9,0.6,4.2c-0.8-0.1-1.6-0.2-2.4-0.3C314.3,894.3,314.7,892.9,315.7,891.6z"/>
<path class="st0" d="M107.1,2117.2c-1.2,1.4-2.5,2.1-3.9,2.8c-0.3-1.1-0.7-2.2-1-3.3C103.8,2116.7,105.4,2116.6,107.1,2117.2z"/>
<path class="st0" d="M1375.1,628.9c-1.1-2.7-0.6-4.2,2-4c0.8,0.1,1.6,1.4,2.3,2.1C1378.1,627.8,1376.8,628.6,1375.1,628.9z"/>
<path class="st0" d="M1214.9,2060.7c1.4,0.2,2.4,0.9,3.4,1.5c-0.7,0.8-1.4,1.7-2,2.5C1215.7,2063.6,1215.1,2062.4,1214.9,2060.7z"/>
<path class="st0" d="M1626,792.2c1.4,0.2,2.4,0.9,3.4,1.5c-0.7,0.8-1.4,1.7-2,2.5C1626.8,795.1,1626.2,793.9,1626,792.2z"/>
<path class="st0" d="M255.3,728.4c-0.9,1.3-1.9,2-2.9,2.7c-0.2-1.1-0.5-2.2-0.7-3.3C252.8,727.8,254,727.8,255.3,728.4z"/>
<path class="st0" d="M1590.3,752.9c0.5,1.5,0.5,2.7,0.5,3.9c-1-0.2-2.1-0.4-3.1-0.6C1588.4,755.1,1589.1,753.9,1590.3,752.9z"/>
<path class="st0" d="M1708.9,759.8c-1.2,1.4-2.5,2.1-3.9,2.8c-0.3-1.1-0.7-2.2-1-3.3C1705.7,759.3,1707.3,759.2,1708.9,759.8z"/>
<path class="st0" d="M1864.8,4249.6c-0.2,1.3-0.9,2.3-1.5,3.3c-0.6-0.9-1.2-1.8-1.8-2.8C1862.5,4249.9,1863.5,4249.6,1864.8,4249.6z
	"/>
<path class="st0" d="M430.2,512.5c-1.6-0.3-2.8-0.9-3.9-1.5c0.5-0.7,1.1-1.4,1.6-2C428.9,510,429.8,511.1,430.2,512.5z"/>
<path class="st0" d="M174.9,805c1.5-0.5,2.7-0.6,3.8-0.7c0,0.8,0,1.6,0,2.4C177.3,806.3,175.9,805.9,174.9,805z"/>
<path class="st0" d="M462.6,3924.3c0.2-1.4,0.7-2.3,1.3-3.2c0.8,0.6,1.5,1.3,2.3,1.9C465.1,3923.6,464.1,3924.2,462.6,3924.3z"/>
<path class="st0" d="M175.6,3531.9c1.5,0.1,2.5,0.7,3.6,1.2c-0.8,0.7-1.6,1.4-2.4,2.1C176.3,3534.3,175.7,3533.3,175.6,3531.9z"/>
<path class="st0" d="M560.3,4238.4c-1,0.9-2.4,1.3-3.8,1.7c0-0.8,0-1.6,0-2.4C557.7,4237.8,558.8,4237.8,560.3,4238.4z"/>
<path class="st0" d="M465.4,1196.7c-1.6-0.3-2.8-1-5.7-2.7C463.7,1193.7,466.5,1191.5,465.4,1196.7z"/>
<path class="st0" d="M1708,595.8c-4.2,0.7-4.3-1.2-3.2-5.7C1706.6,592.7,1707.5,594.1,1708,595.8z"/>
<path class="st0" d="M509.3,516.9c1.9,2,2.1,3.8-0.4,4.1c-1.1,0.2-2.4-0.9-3.7-1.5C506.4,518.6,507.5,517.6,509.3,516.9z"/>
<path class="st0" d="M115.2,496.6c-1.4-0.2-2.5-0.7-3.6-1.3c0.8-0.6,1.5-1.3,2.3-1.9C114.5,494.3,115,495.2,115.2,496.6z"/>
<path class="st0" d="M142.9,2435.4c-1.4-0.2-2.5-0.7-3.6-1.3c0.8-0.6,1.5-1.3,2.3-1.9C142.2,2433.1,142.8,2434.1,142.9,2435.4z"/>
<path class="st0" d="M790,2024.9c-1.4-0.2-2.5-0.9-3.6-1.5c0.7-0.7,1.5-1.4,2.2-2.1C789.2,2022.3,789.8,2023.4,790,2024.9z"/>
<path class="st0" d="M1982.2,2760.7c1.5,0.2,2.5,0.8,3.6,1.4c-0.8,0.8-1.5,1.5-2.3,2.3C1983,2763.3,1982.4,2762.2,1982.2,2760.7z"/>
<path class="st0" d="M1825.6,2685.6c-1.8,0.9-3.5,1.1-5.3,1.3c0-0.8,0-1.7,0-2.5C1822.1,2684.6,1823.9,2684.7,1825.6,2685.6z"/>
<path class="st0" d="M1789.9,2273c-0.5,1.2-1.3,2.1-2.1,2.9c0,0-0.7-0.7-1.1-1C1787.6,2274.1,1788.6,2273.4,1789.9,2273z"/>
<path class="st0" d="M778.1,2546.1c0.9-1.2,1.9-1.8,2.9-2.4c0.2,1,0.5,2,0.7,3C780.5,2546.7,779.4,2546.7,778.1,2546.1z"/>
<path class="st0" d="M712,1628.9c1.1-0.9,2.5-1.3,3.9-1.7c0,0.8,0,1.6-0.1,2.5C714.6,1629.6,713.4,1629.5,712,1628.9z"/>
<path class="st0" d="M114.3,3225.1c-1.4-0.7-2.2-1.8-3.8-3.6C114,3221.4,117.8,3219.5,114.3,3225.1z"/>
<path class="st0" d="M429.1,3236.7c0.6,1.5,0.7,2.7,0.8,3.8c-1.1-0.3-2.1-0.5-3.2-0.8C427.3,3238.6,428,3237.5,429.1,3236.7z"/>
<path class="st0" d="M506.6,3248.8c-0.3-1.6,0.1-3,0.5-4.4c1.2,0.6,3.3,0.9,3.6,1.8C511.4,3248.8,509.2,3249,506.6,3248.8z"/>
<path class="st0" d="M1861.7,1523.5c0.8-1,1.8-1.4,2.9-1.9c0.2,0.8,0.5,1.6,0.7,2.3C1864.2,1524,1863,1524,1861.7,1523.5z"/>
<path class="st0" d="M556.9,1509.6c1.5,0.5,2.5,1.4,3.5,2.3c-0.7,0.4-2,1.3-2.1,1.2C557.5,1512.1,557,1511,556.9,1509.6z"/>
<path class="st0" d="M1708,3323.6c-4.4,0.9-4.1-1.3-3.4-6C1706.6,3320.5,1707.5,3321.8,1708,3323.6z"/>
<path class="st0" d="M1708.5,2125.9c-1.8,0.2-3.1-0.2-4.5-0.6c0.5-0.9,1.1-1.9,1.6-2.8C1706.7,2123.4,1707.8,2124.4,1708.5,2125.9z"
	/>
<path class="st0" d="M1694.8,2857.9c1.5-0.9,3-1.1,4.5-1.2c0,0.8,0,1.6,0,2.5C1697.8,2858.9,1696.3,2858.8,1694.8,2857.9z"/>
<path class="st0" d="M1529.3,2401.8c-1.3-0.3-2.1-0.7-2.8-1.1c0-0.4,0-0.8,0-1.2c1.4,0,2.8,0,4.2,0
	C1530.4,2400.2,1530.1,2401,1529.3,2401.8z"/>
<path class="st0" d="M1031.2,3952.3c-1.5,0.9-3,1.1-4.6,1.2c0-0.8,0-1.6,0-2.5C1028.1,3951.2,1029.7,3951.4,1031.2,3952.3z"/>
<path class="st0" d="M1425.1,2358.4c0.7,3.1-0.7,3.9-2.8,3.3c-0.6-0.2-1.1-1.2-1.6-1.8C1422,2359.2,1423.3,2358.5,1425.1,2358.4z"/>
<path class="st0" d="M362.6,612.9c-1.3-0.3-2.1-0.7-2.8-1.1c0-0.4,0-0.8,0-1.2c1.4,0,2.8,0,4.2,0
	C363.7,611.3,363.5,612.1,362.6,612.9z"/>
<path class="st0" d="M1200.3,2685.2c-0.9-2.7-0.9-2.7,3.7-2C1202.6,2684.1,1201.8,2684.7,1200.3,2685.2z"/>
<path class="st0" d="M1680.4,2588.8c0.6-1.5,1.8-2.5,2.9-3.4c0.5,1,1,1.9,1.6,2.9C1683.6,2588.7,1682.2,2589,1680.4,2588.8z"/>
<path class="st0" d="M1911.7,2155.8c1.3-0.6,2.7-0.7,4.1-0.7c-0.1,0.5-0.1,1.5-0.2,1.5C1914.4,2156.6,1913.1,2156.5,1911.7,2155.8z"
	/>
<path class="st0" d="M1821.9,2582.3c0.6,1,0.6,1.8,0.6,2.7c-1.1-0.6-2.3-1.1-3.4-1.7C1819.8,2582.9,1820.6,2582.6,1821.9,2582.3z"/>
<path class="st0" d="M149.8,307.6c0.8,1.5,0.8,2.8,0.8,4.1c-1.3-0.4-2.7-0.8-4-1.1C147.4,309.5,148.2,308.4,149.8,307.6z"/>
<path class="st0" d="M1923.7,332.3c0.6,1,0.6,1.8,0.6,2.7c-1.1-0.6-2.3-1.1-3.4-1.7C1921.7,332.9,1922.4,332.6,1923.7,332.3z"/>
<path class="st0" d="M301.5,404.2c-1.5,0.9-3,1.1-4.6,1.2c0-0.8,0-1.6,0-2.5C298.5,403.1,300,403.3,301.5,404.2z"/>
<path class="st0" d="M1701.7,2506.2c-1.6-0.8-2.4-1.8-3.2-2.8c1-0.5,2.2-1.5,3-1.3C1703.9,2502.7,1703.9,2504.3,1701.7,2506.2z"/>
<path class="st0" d="M151.5,3037.5c-1.5,0.9-3,1.1-4.6,1.2c0-0.8,0-1.6,0-2.5C148.5,3036.4,150,3036.6,151.5,3037.5z"/>
<path class="st0" d="M282.3,3523.5c-1.4,0.1-2.3-0.3-3.3-0.6c0.3-0.5,0.5-1,0.8-1.4C280.7,3522,281.7,3522.5,282.3,3523.5z"/>
<path class="st0" d="M1029.5,1226.6c-1.6-0.8-2.4-1.8-3.2-2.8c1-0.5,2.2-1.5,3-1.3C1031.7,1223.1,1031.7,1224.7,1029.5,1226.6z"/>
<path class="st0" d="M336.7,1514.8c-0.7,1.2-1.4,1.8-2.2,2.3c-0.3-1-0.5-2-0.8-3C334.7,1514.2,335.7,1514.2,336.7,1514.8z"/>
<path class="st0" d="M54.8,3600c-1.8,0.2-3.1-0.2-4.5-0.6c0.5-0.9,1.1-1.9,1.6-2.8C53,3597.5,54.1,3598.4,54.8,3600z"/>
<path class="st0" d="M361.4,3340.7c-0.9-2.7-0.9-2.7,3.7-2C363.8,3339.7,362.9,3340.3,361.4,3340.7z"/>
<path class="st0" d="M1686.9,1593.3c-1.6-0.8-2.4-1.8-3.2-2.8c1-0.5,2.2-1.5,3-1.3C1689.1,1589.8,1689.1,1591.4,1686.9,1593.3z"/>
<path class="st0" d="M297.1,3133.3c0.6-1.5,1.8-2.5,2.9-3.4c0.5,1,1,1.9,1.6,2.9C300.2,3133.1,298.9,3133.5,297.1,3133.3z"/>
<path class="st0" d="M1922.5,3060.1c1.3,0.3,2.1,0.6,2.8,1c-1.1,0.6-2.2,1.2-3.4,1.7C1922,3061.9,1922,3061,1922.5,3060.1z"/>
<path class="st0" d="M102.6,755.5c0.6-1.5,1.8-2.5,2.9-3.4c0.5,1,1,1.9,1.6,2.9C105.8,755.3,104.4,755.7,102.6,755.5z"/>
<path class="st0" d="M435.5,1826.7c1.3,0.3,2.1,0.6,2.8,1c-1.1,0.6-2.2,1.2-3.4,1.7C434.9,1828.6,434.9,1827.7,435.5,1826.7z"/>
<path class="st0" d="M336.7,2878.3c-0.7,1.3-1.4,1.9-2.1,2.6c-0.3-1.1-0.6-2.1-0.9-3.2C334.7,2877.8,335.7,2877.8,336.7,2878.3z"/>
<path class="st0" d="M1730.4,1871.6c-1,3.8-2.5,3-4.7,0C1727.6,1871.4,1728.7,1871.3,1730.4,1871.6z"/>
<path class="st0" d="M50.8,869.5c1.8,0.1,3.1,0.8,4.4,1.5c-0.5,0.6-1,1.6-1.6,1.8C51.4,873.4,50.1,872.5,50.8,869.5z"/>
<path class="st0" d="M1374.9,1989.8c1.8,0.1,3.1,0.8,4.4,1.5c-0.5,0.6-1,1.6-1.6,1.8C1375.5,1993.8,1374.2,1992.9,1374.9,1989.8z"/>
<path class="st0" d="M280.3,796.3c-0.4-1-0.3-1.9-0.2-2.8c0.8,0.2,1.7,0.3,2.5,0.5C282,794.8,281.4,795.6,280.3,796.3z"/>
<path class="st0" d="M105.4,3484c-1.6-0.8-2.4-1.8-3.2-2.8c1-0.5,2.2-1.5,3-1.3C107.6,3480.5,107.6,3482.1,105.4,3484z"/>
<path class="st0" d="M1273.1,2841.7c1.8,0.1,3.1,0.8,4.4,1.5c-0.5,0.6-1,1.6-1.6,1.8C1273.7,2845.6,1272.4,2844.7,1273.1,2841.7z"/>
<path class="st0" d="M1859.9,2806.8c-1.6,0.1-2.8-0.2-4-0.5c0.3-0.6,0.6-1.3,0.8-1.9C1858,2805.1,1859.2,2805.7,1859.9,2806.8z"/>
</svg>
